<svg width="64" height="63" fill="none" xmlns="http://www.w3.org/2000/svg">
  <path d="M1.5 29.7H6V34H1.5v-4.3z" fill="#AB3D2B"/>
  <path d="M5.9 34h4.3v4.3H5.9V34z" fill="#842D20"/>
  <path d="M5.9 29.7h4.3V34H5.9v-4.3zM5.9 25.4h4.3v4.3H5.9v-4.3z" fill="#AB3D2B"/>
  <path d="M10.2 38.3h4.3v4.3h-4.3v-4.3z" fill="#842D20"/>
  <path d="M10.2 34h4.3v4.3h-4.3V34z" fill="#923325"/>
  <path d="M10.2 29.7h4.3V34h-4.3v-4.3zM10.2 25.4h4.3v4.3h-4.3v-4.3zM10.2 21h4.3v4.4h-4.3V21z" fill="#AB3D2B"/>
  <path d="M14.5 42.6H19v4.3h-4.4v-4.3z" fill="#842D20"/>
  <path d="M14.5 38.3H19v4.3h-4.4v-4.3z" fill="#923325"/>
  <path d="M14.5 34H19v4.3h-4.4V34zM14.5 29.7H19V34h-4.4v-4.3zM14.5 25.4H19v4.3h-4.4v-4.3zM14.5 21H19v4.4h-4.4V21zM14.5 16.8H19V21h-4.4v-4.3z" fill="#AB3D2B"/>
  <path d="M18.9 46.9h4.3v4.3h-4.3v-4.3z" fill="#842D20"/>
  <path d="M18.9 42.6h4.3v4.3h-4.3v-4.3z" fill="#923325"/>
  <path d="M18.9 38.3h4.3v4.3h-4.3v-4.3zM18.9 34h4.3v4.3h-4.3V34zM18.9 29.7h4.3V34h-4.3v-4.3zM18.9 25.4h4.3v4.3h-4.3v-4.3zM18.9 21h4.3v4.4h-4.3V21zM18.9 16.8h4.3V21h-4.3v-4.3z" fill="#AB3D2B"/>
  <path d="M18.9 12.5h4.3v4.3h-4.3v-4.3z" fill="#AB3D2B"/>
  <path d="M23.2 51.2h4.3v4.3h-4.3v-4.3z" fill="#842D20"/>
  <path d="M23.2 46.9h4.3v4.3h-4.3v-4.3z" fill="#923325"/>
  <path d="M23.2 42.6h4.3v4.3h-4.3v-4.3zM23.2 38.3h4.3v4.3h-4.3v-4.3zM23.2 34h4.3v4.3h-4.3V34zM23.2 29.7h4.3V34h-4.3v-4.3zM23.2 25.4h4.3v4.3h-4.3v-4.3zM23.2 21h4.3v4.4h-4.3V21zM23.2 16.8h4.3V21h-4.3v-4.3z" fill="#AB3D2B"/>
  <path d="M23.2 12.5h4.3v4.3h-4.3v-4.3zM23.2 8.2h4.3v4.3h-4.3V8.2z" fill="#AB3D2B"/>
  <path d="M27.5 55.5h4.3v4.3h-4.3v-4.3z" fill="#842D20"/>
  <path d="M27.5 51.2h4.3v4.3h-4.3v-4.3z" fill="#923325"/>
  <path d="M27.5 46.9h4.3v4.3h-4.3v-4.3zM27.5 42.6h4.3v4.3h-4.3v-4.3zM27.5 38.3h4.3v4.3h-4.3v-4.3zM27.5 34h4.3v4.3h-4.3V34zM27.5 29.7h4.3V34h-4.3v-4.3zM27.5 25.4h4.3v4.3h-4.3v-4.3zM27.5 21h4.3v4.4h-4.3V21zM27.5 16.8h4.3V21h-4.3v-4.3z" fill="#AB3D2B"/>
  <path d="M27.5 12.5h4.3v4.3h-4.3v-4.3zM27.5 8.2h4.3v4.3h-4.3V8.2zM27.5 3.9h4.3v4.3h-4.3V3.9z" fill="#AB3D2B"/>
  <path d="M31.8 38.3h4.4v4.3h-4.4v-4.3z" fill="#842D20"/>
  <path d="M31.8 34h4.4v4.3h-4.4V34z" fill="#923325"/>
  <path d="M31.8 29.7h4.4V34h-4.4v-4.3zM31.8 25.4h4.4v4.3h-4.4v-4.3zM31.8 21h4.4v4.4h-4.4V21z" fill="#AB3D2B"/>
  <path d="M36.2 38.3h4.3v4.3h-4.3v-4.3z" fill="#842D20"/>
  <path d="M36.2 34h4.3v4.3h-4.3V34z" fill="#923325"/>
  <path d="M36.2 29.7h4.3V34h-4.3v-4.3zM36.2 25.4h4.3v4.3h-4.3v-4.3zM36.2 21h4.3v4.4h-4.3V21z" fill="#AB3D2B"/>
  <path d="M40.5 38.3h4.3v4.3h-4.3v-4.3z" fill="#842D20"/>
  <path d="M40.5 34h4.3v4.3h-4.3V34z" fill="#923325"/>
  <path d="M40.5 29.7h4.3V34h-4.3v-4.3zM40.5 25.4h4.3v4.3h-4.3v-4.3zM40.5 21h4.3v4.4h-4.3V21z" fill="#AB3D2B"/>
  <path d="M44.8 38.3h4.4v4.3h-4.4v-4.3z" fill="#842D20"/>
  <path d="M44.8 34h4.4v4.3h-4.4V34z" fill="#923325"/>
  <path d="M44.8 29.7h4.4V34h-4.4v-4.3zM44.8 25.4h4.4v4.3h-4.4v-4.3zM44.8 21h4.4v4.4h-4.4V21z" fill="#AB3D2B"/>
  <path d="M49.2 38.3h4.3v4.3h-4.3v-4.3z" fill="#842D20"/>
  <path d="M49.2 34h4.3v4.3h-4.3V34z" fill="#923325"/>
  <path d="M49.2 29.7h4.3V34h-4.3v-4.3zM49.2 25.4h4.3v4.3h-4.3v-4.3zM49.2 21h4.3v4.4h-4.3V21z" fill="#AB3D2B"/>
  <path d="M53.5 38.3h4.3v4.3h-4.3v-4.3z" fill="#842D20"/>
  <path d="M53.5 34h4.3v4.3h-4.3V34z" fill="#923325"/>
  <path d="M53.5 29.7h4.3V34h-4.3v-4.3zM53.5 25.4h4.3v4.3h-4.3v-4.3zM53.5 21h4.3v4.4h-4.3V21z" fill="#AB3D2B"/>
  <path d="M57.8 38.3h4.3v4.3h-4.3v-4.3z" fill="#842D20"/>
  <path d="M57.8 34h4.3v4.3h-4.3V34z" fill="#923325"/>
  <path d="M57.8 29.7h4.3V34h-4.3v-4.3zM57.8 25.4h4.3v4.3h-4.3v-4.3zM57.8 21h4.3v4.4h-4.3V21z" fill="#AB3D2B"/>
</svg>
