<svg width="64" height="63" fill="none" xmlns="http://www.w3.org/2000/svg">
  <path d="M62.5 29.7H58V34h4.4v-4.3z" fill="#AB3D2B"/>
  <path d="M58.1 34h-4.3v4.3h4.3V34z" fill="#842D20"/>
  <path d="M58.1 29.7h-4.3V34h4.3v-4.3zM58.1 25.4h-4.3v4.3h4.3v-4.3z" fill="#AB3D2B"/>
  <path d="M53.8 38.3h-4.3v4.3h4.3v-4.3z" fill="#842D20"/>
  <path d="M53.8 34h-4.3v4.3h4.3V34z" fill="#923325"/>
  <path d="M53.8 29.7h-4.3V34h4.3v-4.3zM53.8 25.4h-4.3v4.3h4.3v-4.3zM53.8 21h-4.3v4.4h4.3V21z" fill="#AB3D2B"/>
  <path d="M49.5 42.6H45v4.3h4.4v-4.3z" fill="#842D20"/>
  <path d="M49.5 38.3H45v4.3h4.4v-4.3z" fill="#923325"/>
  <path d="M49.5 34H45v4.3h4.4V34zM49.5 29.7H45V34h4.4v-4.3zM49.5 25.4H45v4.3h4.4v-4.3zM49.5 21H45v4.4h4.4V21zM49.5 16.8H45V21h4.4v-4.3z" fill="#AB3D2B"/>
  <path d="M45.1 46.9h-4.3v4.3h4.3v-4.3z" fill="#842D20"/>
  <path d="M45.1 42.6h-4.3v4.3h4.3v-4.3z" fill="#923325"/>
  <path d="M45.1 38.3h-4.3v4.3h4.3v-4.3zM45.1 34h-4.3v4.3h4.3V34zM45.1 29.7h-4.3V34h4.3v-4.3zM45.1 25.4h-4.3v4.3h4.3v-4.3zM45.1 21h-4.3v4.4h4.3V21zM45.1 16.8h-4.3V21h4.3v-4.3z" fill="#AB3D2B"/>
  <path d="M45.1 12.5h-4.3v4.3h4.3v-4.3z" fill="#AB3D2B"/>
  <path d="M40.8 51.2h-4.3v4.3h4.3v-4.3z" fill="#842D20"/>
  <path d="M40.8 46.9h-4.3v4.3h4.3v-4.3z" fill="#923325"/>
  <path d="M40.8 42.6h-4.3v4.3h4.3v-4.3zM40.8 38.3h-4.3v4.3h4.3v-4.3zM40.8 34h-4.3v4.3h4.3V34zM40.8 29.7h-4.3V34h4.3v-4.3zM40.8 25.4h-4.3v4.3h4.3v-4.3zM40.8 21h-4.3v4.4h4.3V21zM40.8 16.8h-4.3V21h4.3v-4.3z" fill="#AB3D2B"/>
  <path d="M40.8 12.5h-4.3v4.3h4.3v-4.3zM40.8 8.2h-4.3v4.3h4.3V8.2z" fill="#AB3D2B"/>
  <path d="M36.5 55.5h-4.3v4.3h4.3v-4.3z" fill="#842D20"/>
  <path d="M36.5 51.2h-4.3v4.3h4.3v-4.3z" fill="#923325"/>
  <path d="M36.5 46.9h-4.3v4.3h4.3v-4.3zM36.5 42.6h-4.3v4.3h4.3v-4.3zM36.5 38.3h-4.3v4.3h4.3v-4.3zM36.5 34h-4.3v4.3h4.3V34zM36.5 29.7h-4.3V34h4.3v-4.3zM36.5 25.4h-4.3v4.3h4.3v-4.3zM36.5 21h-4.3v4.4h4.3V21zM36.5 16.8h-4.3V21h4.3v-4.3z" fill="#AB3D2B"/>
  <path d="M36.5 12.5h-4.3v4.3h4.3v-4.3zM36.5 8.2h-4.3v4.3h4.3V8.2zM36.5 3.9h-4.3v4.3h4.3V3.9z" fill="#AB3D2B"/>
  <path d="M32.2 38.3h-4.4v4.3h4.4v-4.3z" fill="#842D20"/>
  <path d="M32.2 34h-4.4v4.3h4.4V34z" fill="#923325"/>
  <path d="M32.2 29.7h-4.4V34h4.4v-4.3zM32.2 25.4h-4.4v4.3h4.4v-4.3zM32.2 21h-4.4v4.4h4.4V21z" fill="#AB3D2B"/>
  <path d="M27.8 38.3h-4.3v4.3h4.3v-4.3z" fill="#842D20"/>
  <path d="M27.8 34h-4.3v4.3h4.3V34z" fill="#923325"/>
  <path d="M27.8 29.7h-4.3V34h4.3v-4.3zM27.8 25.4h-4.3v4.3h4.3v-4.3zM27.8 21h-4.3v4.4h4.3V21z" fill="#AB3D2B"/>
  <path d="M23.5 38.3h-4.3v4.3h4.3v-4.3z" fill="#842D20"/>
  <path d="M23.5 34h-4.3v4.3h4.3V34z" fill="#923325"/>
  <path d="M23.5 29.7h-4.3V34h4.3v-4.3zM23.5 25.4h-4.3v4.3h4.3v-4.3zM23.5 21h-4.3v4.4h4.3V21z" fill="#AB3D2B"/>
  <path d="M19.2 38.3h-4.4v4.3h4.4v-4.3z" fill="#842D20"/>
  <path d="M19.2 34h-4.4v4.3h4.4V34z" fill="#923325"/>
  <path d="M19.2 29.7h-4.4V34h4.4v-4.3zM19.2 25.4h-4.4v4.3h4.4v-4.3zM19.2 21h-4.4v4.4h4.4V21z" fill="#AB3D2B"/>
  <path d="M14.8 38.3h-4.3v4.3h4.3v-4.3z" fill="#842D20"/>
  <path d="M14.8 34h-4.3v4.3h4.3V34z" fill="#923325"/>
  <path d="M14.8 29.7h-4.3V34h4.3v-4.3zM14.8 25.4h-4.3v4.3h4.3v-4.3zM14.8 21h-4.3v4.4h4.3V21z" fill="#AB3D2B"/>
  <path d="M10.5 38.3H6.2v4.3h4.3v-4.3z" fill="#842D20"/>
  <path d="M10.5 34H6.2v4.3h4.3V34z" fill="#923325"/>
  <path d="M10.5 29.7H6.2V34h4.3v-4.3zM10.5 25.4H6.2v4.3h4.3v-4.3zM10.5 21H6.2v4.4h4.3V21z" fill="#AB3D2B"/>
  <path d="M6.2 38.3H1.9v4.3h4.3v-4.3z" fill="#842D20"/>
  <path d="M6.2 34H1.9v4.3h4.3V34z" fill="#923325"/>
  <path d="M6.2 29.7H1.9V34h4.3v-4.3zM6.2 25.4H1.9v4.3h4.3v-4.3zM6.2 21H1.9v4.4h4.3V21z" fill="#AB3D2B"/>
</svg>
