<svg id="lxk9mfyxmpr6lm439s" viewBox="0 0 654 305" xmlns="http://www.w3.org/2000/svg" xmlns:xlink="http://www.w3.org/1999/xlink"><g id="lxk9mfyxmpr6lm439s_translate"><g transform="matrix(1,0,0,1,0,0)"><g id="lxk9mfyxmpr6lm439s" opacity="1" style="mix-blend-mode:normal"><g><g><g id="lxk9mfyywbk0urn5a4_translate"><g transform="matrix(1,0,0,1,0,0)"><g id="lxk9mfyywbk0urn5a4" opacity="1" style="mix-blend-mode:normal"><g><g><defs><clipPath id="lxk9mfyywbk0urn5a4_stroke_clip_path" clipPathUnits="userSpaceOnUse"><path d="M192,152.5c0,84.2258 -42.9792,152.5 -96,152.5c-53.0208,0 -96,-68.2742 -96,-152.5c0,-84.2257 42.9792,-152.5 96,-152.5c53.0208,0 96,68.2743 96,152.5z"></path></clipPath></defs><g style="mix-blend-mode:normal"><g clip-path="url(#lxk9mfyywbk0urn5a4_stroke_clip_path)"><path id="lxk9mfyywbk0urn5a4_stroke_path" d="M192,152.5c0,84.2258 -42.9792,152.5 -96,152.5c-53.0208,0 -96,-68.2742 -96,-152.5c0,-84.2257 42.9792,-152.5 96,-152.5c53.0208,0 96,68.2743 96,152.5z" fill="none" stroke="rgb(255, 255, 255)" stroke-width="6" stroke-linecap="butt" stroke-linejoin="miter" stroke-dasharray="0 0" stroke-opacity="1"></path></g></g></g></g></g></g></g><g id="lxk9mfyyis7vziaerwq_translate"><g transform="matrix(1,0,0,1,77,0)"><g id="lxk9mfyyis7vziaerwq" opacity="1" style="mix-blend-mode:normal"><g><g><defs><clipPath id="lxk9mfyyis7vziaerwq_stroke_clip_path" clipPathUnits="userSpaceOnUse"><path d="M192,152.5c0,84.2258 -42.9792,152.5 -96,152.5c-53.0208,0 -96,-68.2742 -96,-152.5c0,-84.2257 42.9792,-152.5 96,-152.5c53.0208,0 96,68.2743 96,152.5z"></path></clipPath></defs><g style="mix-blend-mode:normal"><g clip-path="url(#lxk9mfyyis7vziaerwq_stroke_clip_path)"><path id="lxk9mfyyis7vziaerwq_stroke_path" d="M192,152.5c0,84.2258 -42.9792,152.5 -96,152.5c-53.0208,0 -96,-68.2742 -96,-152.5c0,-84.2257 42.9792,-152.5 96,-152.5c53.0208,0 96,68.2743 96,152.5z" fill="none" stroke="rgb(255, 255, 255)" stroke-width="6" stroke-linecap="butt" stroke-linejoin="miter" stroke-dasharray="0 0" stroke-opacity="1"></path></g></g></g></g></g></g></g><g id="lxk9mfyyv51ht0mdgy_translate"><g transform="matrix(1,0,0,1,154,0)"><g id="lxk9mfyyv51ht0mdgy" opacity="1" style="mix-blend-mode:normal"><g><g><defs><clipPath id="lxk9mfyyv51ht0mdgy_stroke_clip_path" clipPathUnits="userSpaceOnUse"><path d="M192,152.5c0,84.2258 -42.9792,152.5 -96,152.5c-53.0208,0 -96,-68.2742 -96,-152.5c0,-84.2257 42.9792,-152.5 96,-152.5c53.0208,0 96,68.2743 96,152.5z"></path></clipPath></defs><g style="mix-blend-mode:normal"><g clip-path="url(#lxk9mfyyv51ht0mdgy_stroke_clip_path)"><path id="lxk9mfyyv51ht0mdgy_stroke_path" d="M192,152.5c0,84.2258 -42.9792,152.5 -96,152.5c-53.0208,0 -96,-68.2742 -96,-152.5c0,-84.2257 42.9792,-152.5 96,-152.5c53.0208,0 96,68.2743 96,152.5z" fill="none" stroke="rgb(255, 255, 255)" stroke-width="6" stroke-linecap="butt" stroke-linejoin="miter" stroke-dasharray="0 0" stroke-opacity="1"></path></g></g></g></g></g></g></g><g id="lxk9mfyytgx633sosbo_translate"><g transform="matrix(1,0,0,1,231,0)"><g id="lxk9mfyytgx633sosbo" opacity="1" style="mix-blend-mode:normal"><g><g><defs><clipPath id="lxk9mfyytgx633sosbo_stroke_clip_path" clipPathUnits="userSpaceOnUse"><path d="M192,152.5c0,84.2258 -42.9792,152.5 -96,152.5c-53.0208,0 -96,-68.2742 -96,-152.5c0,-84.2257 42.9792,-152.5 96,-152.5c53.0208,0 96,68.2743 96,152.5z"></path></clipPath></defs><g style="mix-blend-mode:normal"><g clip-path="url(#lxk9mfyytgx633sosbo_stroke_clip_path)"><path id="lxk9mfyytgx633sosbo_stroke_path" d="M192,152.5c0,84.2258 -42.9792,152.5 -96,152.5c-53.0208,0 -96,-68.2742 -96,-152.5c0,-84.2257 42.9792,-152.5 96,-152.5c53.0208,0 96,68.2743 96,152.5z" fill="none" stroke="rgb(255, 255, 255)" stroke-width="6" stroke-linecap="butt" stroke-linejoin="miter" stroke-dasharray="0 0" stroke-opacity="1"></path></g></g></g></g></g></g></g><g id="lxk9mfyyhto4u50a8i7_translate"><g transform="matrix(1,0,0,1,308,0)"><g id="lxk9mfyyhto4u50a8i7" opacity="1" style="mix-blend-mode:normal"><g><g><defs><clipPath id="lxk9mfyyhto4u50a8i7_stroke_clip_path" clipPathUnits="userSpaceOnUse"><path d="M192,152.5c0,84.2258 -42.9792,152.5 -96,152.5c-53.0208,0 -96,-68.2742 -96,-152.5c0,-84.2257 42.9792,-152.5 96,-152.5c53.0208,0 96,68.2743 96,152.5z"></path></clipPath></defs><g style="mix-blend-mode:normal"><g clip-path="url(#lxk9mfyyhto4u50a8i7_stroke_clip_path)"><path id="lxk9mfyyhto4u50a8i7_stroke_path" d="M192,152.5c0,84.2258 -42.9792,152.5 -96,152.5c-53.0208,0 -96,-68.2742 -96,-152.5c0,-84.2257 42.9792,-152.5 96,-152.5c53.0208,0 96,68.2743 96,152.5z" fill="none" stroke="rgb(255, 255, 255)" stroke-width="6" stroke-linecap="butt" stroke-linejoin="miter" stroke-dasharray="0 0" stroke-opacity="1"></path></g></g></g></g></g></g></g><g id="lxk9mfyybfa6kyoxevb_translate"><g transform="matrix(1,0,0,1,385,0)"><g id="lxk9mfyybfa6kyoxevb" opacity="1" style="mix-blend-mode:normal"><g><g><defs><clipPath id="lxk9mfyybfa6kyoxevb_stroke_clip_path" clipPathUnits="userSpaceOnUse"><path d="M192,152.5c0,84.2258 -42.9792,152.5 -96,152.5c-53.0208,0 -96,-68.2742 -96,-152.5c0,-84.2257 42.9792,-152.5 96,-152.5c53.0208,0 96,68.2743 96,152.5z"></path></clipPath></defs><g style="mix-blend-mode:normal"><g clip-path="url(#lxk9mfyybfa6kyoxevb_stroke_clip_path)"><path id="lxk9mfyybfa6kyoxevb_stroke_path" d="M192,152.5c0,84.2258 -42.9792,152.5 -96,152.5c-53.0208,0 -96,-68.2742 -96,-152.5c0,-84.2257 42.9792,-152.5 96,-152.5c53.0208,0 96,68.2743 96,152.5z" fill="none" stroke="rgb(255, 255, 255)" stroke-width="6" stroke-linecap="butt" stroke-linejoin="miter" stroke-dasharray="0 0" stroke-opacity="1"></path></g></g></g></g></g></g></g><g id="lxk9mfyybqofan6o78s_translate"><g transform="matrix(1,0,0,1,462,0)"><g id="lxk9mfyybqofan6o78s" opacity="1" style="mix-blend-mode:normal"><g><g><defs><clipPath id="lxk9mfyybqofan6o78s_stroke_clip_path" clipPathUnits="userSpaceOnUse"><path d="M192,152.5c0,84.2258 -42.9792,152.5 -96,152.5c-53.0208,0 -96,-68.2742 -96,-152.5c0,-84.2257 42.9792,-152.5 96,-152.5c53.0208,0 96,68.2743 96,152.5z"></path></clipPath></defs><g style="mix-blend-mode:normal"><g clip-path="url(#lxk9mfyybqofan6o78s_stroke_clip_path)"><path id="lxk9mfyybqofan6o78s_stroke_path" d="M192,152.5c0,84.2258 -42.9792,152.5 -96,152.5c-53.0208,0 -96,-68.2742 -96,-152.5c0,-84.2257 42.9792,-152.5 96,-152.5c53.0208,0 96,68.2743 96,152.5z" fill="none" stroke="rgb(255, 255, 255)" stroke-width="6" stroke-linecap="butt" stroke-linejoin="miter" stroke-dasharray="0 0" stroke-opacity="1"></path></g></g></g></g></g></g></g></g></g></g></g></g><animateTransform href="#lxk9mfyxhuk4rr3v33m_translate" attributeName="transform" type="translate" values="0 0;4 0;4 0" dur="4.992s" repeatCount="indefinite" calcMode="spline" keyTimes="0;0.5;1" keySplines="0 0 0.58 1;0.5 0.35 0.58 1" additive="sum" fill="freeze"></animateTransform><animateTransform href="#lxk9mfyxuaiw99pbnu_translate" attributeName="transform" type="translate" values="0 0;-73 0;-73 0" dur="4.992s" repeatCount="indefinite" calcMode="spline" keyTimes="0;0.5;1" keySplines="0 0 0.58 1;0.5 0.35 0.58 1" additive="sum" fill="freeze"></animateTransform><animateTransform href="#lxk9mfyx7j6yqe4vkrs_translate" attributeName="transform" type="translate" values="0 0;-150 0;-150 0" dur="4.992s" repeatCount="indefinite" calcMode="spline" keyTimes="0;0.5;1" keySplines="0 0 0.58 1;0.5 0.35 0.58 1" additive="sum" fill="freeze"></animateTransform><animateTransform href="#lxk9mfyxfzuz9loe1ie_translate" attributeName="transform" type="translate" values="0 0;-227 0;-227 0" dur="4.992s" repeatCount="indefinite" calcMode="spline" keyTimes="0;0.5;1" keySplines="0 0 0.58 1;0.5 0.35 0.58 1" additive="sum" fill="freeze"></animateTransform><animateTransform href="#lxk9mfyx6vpylbiy71p_translate" attributeName="transform" type="translate" values="0 0;-304 0;-304 0" dur="4.992s" repeatCount="indefinite" calcMode="spline" keyTimes="0;0.5;1" keySplines="0 0 0.58 1;0.5 0.35 0.58 1" additive="sum" fill="freeze"></animateTransform><animateTransform href="#lxk9mfyxgcwegbzykeq_translate" attributeName="transform" type="translate" values="0 0;-381 0;-381 0" dur="4.992s" repeatCount="indefinite" calcMode="spline" keyTimes="0;0.5;1" keySplines="0 0 0.58 1;0.5 0.35 0.58 1" additive="sum" fill="freeze"></animateTransform><animateTransform href="#lxk9mfyxtb31yp0zug8_translate" attributeName="transform" type="translate" values="0 0;-458 0;-458 0" dur="4.992s" repeatCount="indefinite" calcMode="spline" keyTimes="0;0.5;1" keySplines="0 0 0.58 1;0.5 0.35 0.58 1" additive="sum" fill="freeze"></animateTransform><animateTransform href="#lxk9mfyywbk0urn5a4_translate" attributeName="transform" type="translate" values="0 0;4 0;0 0;0 0" dur="4.992s" repeatCount="indefinite" calcMode="spline" keyTimes="0;0.5;1;1" keySplines="0 0 0.58 1;0.5 0.35 0.58 1;0.5 0.35 0.58 1" additive="sum" fill="freeze"></animateTransform><animateTransform href="#lxk9mfyyis7vziaerwq_translate" attributeName="transform" type="translate" values="0 0;-73 0;0 0;0 0" dur="4.992s" repeatCount="indefinite" calcMode="spline" keyTimes="0;0.5;1;1" keySplines="0 0 0.58 1;0.5 0.35 0.58 1;0.5 0.35 0.58 1" additive="sum" fill="freeze"></animateTransform><animateTransform href="#lxk9mfyyv51ht0mdgy_translate" attributeName="transform" type="translate" values="0 0;-150 0;0 0;0 0" dur="4.992s" repeatCount="indefinite" calcMode="spline" keyTimes="0;0.5;1;1" keySplines="0 0 0.58 1;0.5 0.35 0.58 1;0.5 0.35 0.58 1" additive="sum" fill="freeze"></animateTransform><animateTransform href="#lxk9mfyytgx633sosbo_translate" attributeName="transform" type="translate" values="0 0;-227 0;0 0;0 0" dur="4.992s" repeatCount="indefinite" calcMode="spline" keyTimes="0;0.5;1;1" keySplines="0 0 0.58 1;0.5 0.35 0.58 1;0.5 0.35 0.58 1" additive="sum" fill="freeze"></animateTransform><animateTransform href="#lxk9mfyyhto4u50a8i7_translate" attributeName="transform" type="translate" values="0 0;-304 0;0 0;0 0" dur="4.992s" repeatCount="indefinite" calcMode="spline" keyTimes="0;0.5;1;1" keySplines="0 0 0.58 1;0.5 0.35 0.58 1;0.5 0.35 0.58 1" additive="sum" fill="freeze"></animateTransform><animateTransform href="#lxk9mfyybfa6kyoxevb_translate" attributeName="transform" type="translate" values="0 0;-381 0;0 0;0 0" dur="4.992s" repeatCount="indefinite" calcMode="spline" keyTimes="0;0.5;1;1" keySplines="0 0 0.58 1;0.5 0.35 0.58 1;0.5 0.35 0.58 1" additive="sum" fill="freeze"></animateTransform><animateTransform href="#lxk9mfyybqofan6o78s_translate" attributeName="transform" type="translate" values="0 0;-458 0;0 0;0 0" dur="4.992s" repeatCount="indefinite" calcMode="spline" keyTimes="0;0.5;1;1" keySplines="0 0 0.58 1;0.5 0.35 0.58 1;0.5 0.35 0.58 1" additive="sum" fill="freeze"></animateTransform><animateTransform href="#lxk9mfyywy376a75i5l_translate" attributeName="transform" type="translate" values="0 0;0 0;-4 0;-4 0" dur="4.992s" repeatCount="indefinite" calcMode="spline" keyTimes="0;0.5;1;1" keySplines="0 0 0.15 1;0 0 0.58 1;0.5 0.35 0.58 1" additive="sum" fill="freeze"></animateTransform><animateTransform href="#lxk9mfyyy0czxuna4o_translate" attributeName="transform" type="translate" values="0 0;0 0;73 0;73 0" dur="4.992s" repeatCount="indefinite" calcMode="spline" keyTimes="0;0.5;1;1" keySplines="0 0 0.15 1;0 0 0.58 1;0.5 0.35 0.58 1" additive="sum" fill="freeze"></animateTransform><animateTransform href="#lxk9mfyy03h0aozn03rg_translate" attributeName="transform" type="translate" values="0 0;0 0;150 0;150 0" dur="4.992s" repeatCount="indefinite" calcMode="spline" keyTimes="0;0.5;1;1" keySplines="0 0 0.15 1;0 0 0.58 1;0.5 0.35 0.58 1" additive="sum" fill="freeze"></animateTransform><animateTransform href="#lxk9mfyy2n3x78zsep3_translate" attributeName="transform" type="translate" values="0 0;0 0;227 0;227 0" dur="4.992s" repeatCount="indefinite" calcMode="spline" keyTimes="0;0.5;1;1" keySplines="0 0 0.15 1;0 0 0.58 1;0.5 0.35 0.58 1" additive="sum" fill="freeze"></animateTransform><animateTransform href="#lxk9mfyym3hzbdnoylj_translate" attributeName="transform" type="translate" values="0 0;0 0;304 0;304 0" dur="4.992s" repeatCount="indefinite" calcMode="spline" keyTimes="0;0.5;1;1" keySplines="0 0 0.15 1;0 0 0.58 1;0.5 0.35 0.58 1" additive="sum" fill="freeze"></animateTransform><animateTransform href="#lxk9mfyyphuswgaizqg_translate" attributeName="transform" type="translate" values="0 0;0 0;381 0;381 0" dur="4.992s" repeatCount="indefinite" calcMode="spline" keyTimes="0;0.5;1;1" keySplines="0 0 0.15 1;0 0 0.58 1;0.5 0.35 0.58 1" additive="sum" fill="freeze"></animateTransform><animateTransform href="#lxk9mfyyd03a427daqj_translate" attributeName="transform" type="translate" values="0 0;0 0;458 0;458 0" dur="4.992s" repeatCount="indefinite" calcMode="spline" keyTimes="0;0.5;1;1" keySplines="0 0 0.15 1;0 0 0.58 1;0.5 0.35 0.58 1" additive="sum" fill="freeze"></animateTransform></svg>