<svg id="lywru4wz60747382" viewBox="0 0 3077 4666" xmlns="http://www.w3.org/2000/svg" xmlns:xlink="http://www.w3.org/1999/xlink"><g id="lywru4wz60747382_translate"><g transform="matrix(1,0,0,1,0,0)"><g id="lywru4wz60747382" opacity="1" style="mix-blend-mode:normal"><g><g><g id="lywru4x057183122_translate"><g transform="matrix(1,0,0,1,0,1055)"><g id="lywru4x057183122" opacity="1" style="mix-blend-mode:normal"><g><g><defs><clipPath id="lywru4x057183122_stroke_clip_path" clipPathUnits="userSpaceOnUse"><path d="M3076.9232,500c0,276.15 -688.7693,500 -1538.4616,500c-849.6923,0 -1538.4615,-223.85 -1538.4615,-500c0,-276.15 688.7692,-500 1538.4615,-500c849.6923,0 1538.4616,223.85 1538.4616,500z"></path></clipPath></defs><g style="mix-blend-mode:normal"><defs><linearGradient id="lywru4x057183122ps0" x1="83.73696628046447" y1="0.000023628272893816415" x2="3502.1753573959054" y2="1032.2823440921436" gradientUnits="userSpaceOnUse"><stop offset="0%" stop-opacity="1" stop-color="rgb(112, 62, 163)"></stop><stop offset="100%" stop-opacity="1" stop-color="rgb(229, 109, 217)"></stop></linearGradient></defs><g clip-path="url(#lywru4x057183122_stroke_clip_path)"><path id="lywru4x057183122_stroke_path" d="M3076.9232,500c0,276.15 -688.7693,500 -1538.4616,500c-849.6923,0 -1538.4615,-223.85 -1538.4615,-500c0,-276.15 688.7692,-500 1538.4615,-500c849.6923,0 1538.4616,223.85 1538.4616,500z" fill="none" stroke="url(#lywru4x057183122ps0)" stroke-width="60" stroke-linecap="butt" stroke-linejoin="miter" stroke-dasharray="0 0"></path></g></g></g></g></g></g></g><g id="lywru4x076389916_translate"><g transform="matrix(1,0,0,1,0,1444)"><g id="lywru4x076389916" opacity="1" style="mix-blend-mode:normal"><g><g><defs><clipPath id="lywru4x076389916_stroke_clip_path" clipPathUnits="userSpaceOnUse"><path d="M3076.9232,500c0,276.15 -688.7693,500 -1538.4616,500c-849.6923,0 -1538.4615,-223.85 -1538.4615,-500c0,-276.15 688.7692,-500 1538.4615,-500c849.6923,0 1538.4616,223.85 1538.4616,500z"></path></clipPath></defs><g style="mix-blend-mode:normal"><defs><linearGradient id="lywru4x076389916ps0" x1="83.73696628046447" y1="0.000023628272893816415" x2="3502.1753573959054" y2="1032.2823440921436" gradientUnits="userSpaceOnUse"><stop offset="0%" stop-opacity="1" stop-color="rgb(112, 62, 163)"></stop><stop offset="100%" stop-opacity="1" stop-color="rgb(229, 109, 217)"></stop></linearGradient></defs><g clip-path="url(#lywru4x076389916_stroke_clip_path)"><path id="lywru4x076389916_stroke_path" d="M3076.9232,500c0,276.15 -688.7693,500 -1538.4616,500c-849.6923,0 -1538.4615,-223.85 -1538.4615,-500c0,-276.15 688.7692,-500 1538.4615,-500c849.6923,0 1538.4616,223.85 1538.4616,500z" fill="none" stroke="url(#lywru4x076389916ps0)" stroke-width="60" stroke-linecap="butt" stroke-linejoin="miter" stroke-dasharray="0 0"></path></g></g></g></g></g></g></g><g id="lywru4x146222191_translate"><g transform="matrix(1,0,0,1,0,1833)"><g id="lywru4x146222191" opacity="1" style="mix-blend-mode:normal"><g><g><defs><clipPath id="lywru4x146222191_stroke_clip_path" clipPathUnits="userSpaceOnUse"><path d="M3076.9232,500c0,276.15 -688.7693,500 -1538.4616,500c-849.6923,0 -1538.4615,-223.85 -1538.4615,-500c0,-276.15 688.7692,-500 1538.4615,-500c849.6923,0 1538.4616,223.85 1538.4616,500z"></path></clipPath></defs><g style="mix-blend-mode:normal"><defs><linearGradient id="lywru4x146222191ps0" x1="83.73696628046447" y1="0.000023628272893816415" x2="3502.1753573959054" y2="1032.2823440921436" gradientUnits="userSpaceOnUse"><stop offset="0%" stop-opacity="1" stop-color="rgb(112, 62, 163)"></stop><stop offset="100%" stop-opacity="1" stop-color="rgb(229, 109, 217)"></stop></linearGradient></defs><g clip-path="url(#lywru4x146222191_stroke_clip_path)"><path id="lywru4x146222191_stroke_path" d="M3076.9232,500c0,276.15 -688.7693,500 -1538.4616,500c-849.6923,0 -1538.4615,-223.85 -1538.4615,-500c0,-276.15 688.7692,-500 1538.4615,-500c849.6923,0 1538.4616,223.85 1538.4616,500z" fill="none" stroke="url(#lywru4x146222191ps0)" stroke-width="60" stroke-linecap="butt" stroke-linejoin="miter" stroke-dasharray="0 0"></path></g></g></g></g></g></g></g><g id="lywru4x175193548_translate"><g transform="matrix(1,0,0,1,0,2222)"><g id="lywru4x175193548" opacity="1" style="mix-blend-mode:normal"><g><g><defs><clipPath id="lywru4x175193548_stroke_clip_path" clipPathUnits="userSpaceOnUse"><path d="M3076.9232,500c0,276.15 -688.7693,500 -1538.4616,500c-849.6923,0 -1538.4615,-223.85 -1538.4615,-500c0,-276.15 688.7692,-500 1538.4615,-500c849.6923,0 1538.4616,223.85 1538.4616,500z"></path></clipPath></defs><g style="mix-blend-mode:normal"><defs><linearGradient id="lywru4x175193548ps0" x1="83.73696628046447" y1="0.000023628272893816415" x2="3502.1753573959054" y2="1032.2823440921436" gradientUnits="userSpaceOnUse"><stop offset="0%" stop-opacity="1" stop-color="rgb(112, 62, 163)"></stop><stop offset="100%" stop-opacity="1" stop-color="rgb(229, 109, 217)"></stop></linearGradient></defs><g clip-path="url(#lywru4x175193548_stroke_clip_path)"><path id="lywru4x175193548_stroke_path" d="M3076.9232,500c0,276.15 -688.7693,500 -1538.4616,500c-849.6923,0 -1538.4615,-223.85 -1538.4615,-500c0,-276.15 688.7692,-500 1538.4615,-500c849.6923,0 1538.4616,223.85 1538.4616,500z" fill="none" stroke="url(#lywru4x175193548ps0)" stroke-width="60" stroke-linecap="butt" stroke-linejoin="miter" stroke-dasharray="0 0"></path></g></g></g></g></g></g></g><g id="lywru4x284181420_translate"><g transform="matrix(1,0,0,1,0,2611)"><g id="lywru4x284181420" opacity="1" style="mix-blend-mode:normal"><g><g><defs><clipPath id="lywru4x284181420_stroke_clip_path" clipPathUnits="userSpaceOnUse"><path d="M3076.9232,500c0,276.15 -688.7693,500 -1538.4616,500c-849.6923,0 -1538.4615,-223.85 -1538.4615,-500c0,-276.15 688.7692,-500 1538.4615,-500c849.6923,0 1538.4616,223.85 1538.4616,500z"></path></clipPath></defs><g style="mix-blend-mode:normal"><defs><linearGradient id="lywru4x284181420ps0" x1="83.73696628046447" y1="0.000023628272893816415" x2="3502.1753573959054" y2="1032.2823440921436" gradientUnits="userSpaceOnUse"><stop offset="0%" stop-opacity="1" stop-color="rgb(112, 62, 163)"></stop><stop offset="100%" stop-opacity="1" stop-color="rgb(229, 109, 217)"></stop></linearGradient></defs><g clip-path="url(#lywru4x284181420_stroke_clip_path)"><path id="lywru4x284181420_stroke_path" d="M3076.9232,500c0,276.15 -688.7693,500 -1538.4616,500c-849.6923,0 -1538.4615,-223.85 -1538.4615,-500c0,-276.15 688.7692,-500 1538.4615,-500c849.6923,0 1538.4616,223.85 1538.4616,500z" fill="none" stroke="url(#lywru4x284181420ps0)" stroke-width="60" stroke-linecap="butt" stroke-linejoin="miter" stroke-dasharray="0 0"></path></g></g></g></g></g></g></g></g></g></g></g></g><animateTransform href="#lywru4x057183122_translate" attributeName="transform" type="translate" values="0 0;0 0;0 788;0 788;0 0" dur="6.002s" repeatCount="indefinite" calcMode="spline" keyTimes="0;0;0.5;0.5;1" keySplines="0 0 0.58 1;0 0 0.58 1;0 0 0.58 1;0 0 0.58 1" additive="sum" fill="freeze"></animateTransform><animateTransform href="#lywru4x076389916_translate" attributeName="transform" type="translate" values="0 0;0 0;0 399;0 399;0 0" dur="6.002s" repeatCount="indefinite" calcMode="spline" keyTimes="0;0;0.5;0.5;1" keySplines="0 0 0.58 1;0 0 0.58 1;0 0 0.58 1;0 0 0.58 1" additive="sum" fill="freeze"></animateTransform><animateTransform href="#lywru4x146222191_translate" attributeName="transform" type="translate" values="0 0;0 0;0 10;0 10;0 0" dur="6.002s" repeatCount="indefinite" calcMode="spline" keyTimes="0;0;0.5;0.5;1" keySplines="0 0 0.58 1;0 0 0.58 1;0 0 0.58 1;0 0 0.58 1" additive="sum" fill="freeze"></animateTransform><animateTransform href="#lywru4x175193548_translate" attributeName="transform" type="translate" values="0 0;0 0;0 -379;0 -379;0 0" dur="6.002s" repeatCount="indefinite" calcMode="spline" keyTimes="0;0;0.5;0.5;1" keySplines="0 0 0.58 1;0 0 0.58 1;0 0 0.58 1;0 0 0.58 1" additive="sum" fill="freeze"></animateTransform><animateTransform href="#lywru4x284181420_translate" attributeName="transform" type="translate" values="0 0;0 0;0 -768;0 -768;0 0" dur="6.002s" repeatCount="indefinite" calcMode="spline" keyTimes="0;0;0.5;0.5;1" keySplines="0 0 0.58 1;0 0 0.58 1;0 0 0.58 1;0 0 0.58 1" additive="sum" fill="freeze"></animateTransform></svg>