<svg id="lxk6aryjx3qk9uilgp9" viewBox="0 0 3077 4686" xmlns="http://www.w3.org/2000/svg" xmlns:xlink="http://www.w3.org/1999/xlink"><g id="lxk6aryjx3qk9uilgp9_translate"><g transform="matrix(1,0,0,1,0,0)"><g id="lxk6aryjx3qk9uilgp9" opacity="1" style="mix-blend-mode:normal"><g><g><g id="lxk6aryj94es5orxspl_translate"><g transform="matrix(1,0,0,1,0,1843)"><g id="lxk6aryj94es5orxspl" opacity="1" style="mix-blend-mode:normal"><g><g><defs><clipPath id="lxk6aryj94es5orxspl_stroke_clip_path" clipPathUnits="userSpaceOnUse"><path d="M3076.9232,500c0,276.15 -688.7693,500 -1538.4616,500c-849.6923,0 -1538.4615,-223.85 -1538.4615,-500c0,-276.15 688.7692,-500 1538.4615,-500c849.6923,0 1538.4616,223.85 1538.4616,500z"></path></clipPath></defs><g style="mix-blend-mode:normal"><defs><linearGradient id="lxk6aryj94es5orxsplps0" x1="-382.7572719167274" y1="1000.0000879168196" x2="3166.109499600735" y2="63.829663279241004" gradientUnits="userSpaceOnUse"><stop offset="11%" stop-opacity="1" stop-color="rgb(176, 58, 249)"></stop><stop offset="61%" stop-opacity="1" stop-color="rgb(246, 125, 85)"></stop><stop offset="100%" stop-opacity="1" stop-color="rgb(255, 242, 84)"></stop></linearGradient></defs><g clip-path="url(#lxk6aryj94es5orxspl_stroke_clip_path)"><path id="lxk6aryj94es5orxspl_stroke_path" d="M3076.9232,500c0,276.15 -688.7693,500 -1538.4616,500c-849.6923,0 -1538.4615,-223.85 -1538.4615,-500c0,-276.15 688.7692,-500 1538.4615,-500c849.6923,0 1538.4616,223.85 1538.4616,500z" fill="none" stroke="url(#lxk6aryj94es5orxsplps0)" stroke-width="60" stroke-linecap="butt" stroke-linejoin="miter" stroke-dasharray="0 0"></path></g></g></g></g></g></g></g><g id="lxk6aryk501cgzwxvbt_translate"><g transform="matrix(1,0,0,1,0,1843)"><g id="lxk6aryk501cgzwxvbt" opacity="1" style="mix-blend-mode:normal"><g><g><defs><clipPath id="lxk6aryk501cgzwxvbt_stroke_clip_path" clipPathUnits="userSpaceOnUse"><path d="M3076.9232,500c0,276.15 -688.7693,500 -1538.4616,500c-849.6923,0 -1538.4615,-223.85 -1538.4615,-500c0,-276.15 688.7692,-500 1538.4615,-500c849.6923,0 1538.4616,223.85 1538.4616,500z"></path></clipPath></defs><g style="mix-blend-mode:normal"><defs><linearGradient id="lxk6aryk501cgzwxvbtps0" x1="-382.7572719167274" y1="1000.0000879168196" x2="3166.109499600735" y2="63.829663279241004" gradientUnits="userSpaceOnUse"><stop offset="11%" stop-opacity="1" stop-color="rgb(176, 58, 249)"></stop><stop offset="61%" stop-opacity="1" stop-color="rgb(246, 125, 85)"></stop><stop offset="100%" stop-opacity="1" stop-color="rgb(255, 242, 84)"></stop></linearGradient></defs><g clip-path="url(#lxk6aryk501cgzwxvbt_stroke_clip_path)"><path id="lxk6aryk501cgzwxvbt_stroke_path" d="M3076.9232,500c0,276.15 -688.7693,500 -1538.4616,500c-849.6923,0 -1538.4615,-223.85 -1538.4615,-500c0,-276.15 688.7692,-500 1538.4615,-500c849.6923,0 1538.4616,223.85 1538.4616,500z" fill="none" stroke="url(#lxk6aryk501cgzwxvbtps0)" stroke-width="60" stroke-linecap="butt" stroke-linejoin="miter" stroke-dasharray="0 0"></path></g></g></g></g></g></g></g><g id="lxk6aryk75ri1lue1ta_translate"><g transform="matrix(1,0,0,1,0,1843)"><g id="lxk6aryk75ri1lue1ta" opacity="1" style="mix-blend-mode:normal"><g><g><defs><clipPath id="lxk6aryk75ri1lue1ta_stroke_clip_path" clipPathUnits="userSpaceOnUse"><path d="M3076.9232,500c0,276.15 -688.7693,500 -1538.4616,500c-849.6923,0 -1538.4615,-223.85 -1538.4615,-500c0,-276.15 688.7692,-500 1538.4615,-500c849.6923,0 1538.4616,223.85 1538.4616,500z"></path></clipPath></defs><g style="mix-blend-mode:normal"><defs><linearGradient id="lxk6aryk75ri1lue1taps0" x1="-382.7572719167274" y1="1000.0000879168196" x2="3166.109499600735" y2="63.829663279241004" gradientUnits="userSpaceOnUse"><stop offset="11%" stop-opacity="1" stop-color="rgb(176, 58, 249)"></stop><stop offset="61%" stop-opacity="1" stop-color="rgb(246, 125, 85)"></stop><stop offset="100%" stop-opacity="1" stop-color="rgb(255, 242, 84)"></stop></linearGradient></defs><g clip-path="url(#lxk6aryk75ri1lue1ta_stroke_clip_path)"><path id="lxk6aryk75ri1lue1ta_stroke_path" d="M3076.9232,500c0,276.15 -688.7693,500 -1538.4616,500c-849.6923,0 -1538.4615,-223.85 -1538.4615,-500c0,-276.15 688.7692,-500 1538.4615,-500c849.6923,0 1538.4616,223.85 1538.4616,500z" fill="none" stroke="url(#lxk6aryk75ri1lue1taps0)" stroke-width="60" stroke-linecap="butt" stroke-linejoin="miter" stroke-dasharray="0 0"></path></g></g></g></g></g></g></g><g id="lxk6arykj4ak7reuusr_translate"><g transform="matrix(1,0,0,1,0,1843)"><g id="lxk6arykj4ak7reuusr" opacity="1" style="mix-blend-mode:normal"><g><g><defs><clipPath id="lxk6arykj4ak7reuusr_stroke_clip_path" clipPathUnits="userSpaceOnUse"><path d="M3076.9232,500c0,276.15 -688.7693,500 -1538.4616,500c-849.6923,0 -1538.4615,-223.85 -1538.4615,-500c0,-276.15 688.7692,-500 1538.4615,-500c849.6923,0 1538.4616,223.85 1538.4616,500z"></path></clipPath></defs><g style="mix-blend-mode:normal"><defs><linearGradient id="lxk6arykj4ak7reuusrps0" x1="-382.7572719167274" y1="1000.0000879168196" x2="3166.109499600735" y2="63.829663279241004" gradientUnits="userSpaceOnUse"><stop offset="11%" stop-opacity="1" stop-color="rgb(176, 58, 249)"></stop><stop offset="61%" stop-opacity="1" stop-color="rgb(246, 125, 85)"></stop><stop offset="100%" stop-opacity="1" stop-color="rgb(255, 242, 84)"></stop></linearGradient></defs><g clip-path="url(#lxk6arykj4ak7reuusr_stroke_clip_path)"><path id="lxk6arykj4ak7reuusr_stroke_path" d="M3076.9232,500c0,276.15 -688.7693,500 -1538.4616,500c-849.6923,0 -1538.4615,-223.85 -1538.4615,-500c0,-276.15 688.7692,-500 1538.4615,-500c849.6923,0 1538.4616,223.85 1538.4616,500z" fill="none" stroke="url(#lxk6arykj4ak7reuusrps0)" stroke-width="60" stroke-linecap="butt" stroke-linejoin="miter" stroke-dasharray="0 0"></path></g></g></g></g></g></g></g><g id="lxk6arykdwhbjap62v_translate"><g transform="matrix(1,0,0,1,0,1843)"><g id="lxk6arykdwhbjap62v" opacity="1" style="mix-blend-mode:normal"><g><g><defs><clipPath id="lxk6arykdwhbjap62v_stroke_clip_path" clipPathUnits="userSpaceOnUse"><path d="M3076.9232,500c0,276.15 -688.7693,500 -1538.4616,500c-849.6923,0 -1538.4615,-223.85 -1538.4615,-500c0,-276.15 688.7692,-500 1538.4615,-500c849.6923,0 1538.4616,223.85 1538.4616,500z"></path></clipPath></defs><g style="mix-blend-mode:normal"><defs><linearGradient id="lxk6arykdwhbjap62vps0" x1="-382.7572719167274" y1="1000.0000879168196" x2="3166.109499600735" y2="63.829663279241004" gradientUnits="userSpaceOnUse"><stop offset="11%" stop-opacity="1" stop-color="rgb(176, 58, 249)"></stop><stop offset="61%" stop-opacity="1" stop-color="rgb(246, 125, 85)"></stop><stop offset="100%" stop-opacity="1" stop-color="rgb(255, 242, 84)"></stop></linearGradient></defs><g clip-path="url(#lxk6arykdwhbjap62v_stroke_clip_path)"><path id="lxk6arykdwhbjap62v_stroke_path" d="M3076.9232,500c0,276.15 -688.7693,500 -1538.4616,500c-849.6923,0 -1538.4615,-223.85 -1538.4615,-500c0,-276.15 688.7692,-500 1538.4615,-500c849.6923,0 1538.4616,223.85 1538.4616,500z" fill="none" stroke="url(#lxk6arykdwhbjap62vps0)" stroke-width="60" stroke-linecap="butt" stroke-linejoin="miter" stroke-dasharray="0 0"></path></g></g></g></g></g></g></g></g></g></g></g></g><animateTransform href="#lxk6aryj94es5orxspl_translate" attributeName="transform" type="translate" values="0 0;0 0;0 -788;0 -788;0 0" dur="6.002s" repeatCount="indefinite" calcMode="spline" keyTimes="0;0;0.5;0.5;1" keySplines="0 0 0.58 1;0 0 0.58 1;0 0 0.58 1;0 0 0.58 1" additive="sum" fill="freeze"></animateTransform><animateTransform href="#lxk6aryk501cgzwxvbt_translate" attributeName="transform" type="translate" values="0 0;0 0;0 -399;0 -399;0 0" dur="6.002s" repeatCount="indefinite" calcMode="spline" keyTimes="0;0;0.5;0.5;1" keySplines="0 0 0.58 1;0 0 0.58 1;0 0 0.58 1;0 0 0.58 1" additive="sum" fill="freeze"></animateTransform><animateTransform href="#lxk6aryk75ri1lue1ta_translate" attributeName="transform" type="translate" values="0 0;0 0;0 -10;0 -10;0 0" dur="6.002s" repeatCount="indefinite" calcMode="spline" keyTimes="0;0;0.5;0.5;1" keySplines="0 0 0.58 1;0 0 0.58 1;0 0 0.58 1;0 0 0.58 1" additive="sum" fill="freeze"></animateTransform><animateTransform href="#lxk6arykj4ak7reuusr_translate" attributeName="transform" type="translate" values="0 0;0 0;0 379;0 379;0 0" dur="6.002s" repeatCount="indefinite" calcMode="spline" keyTimes="0;0;0.5;0.5;1" keySplines="0 0 0.58 1;0 0 0.58 1;0 0 0.58 1;0 0 0.58 1" additive="sum" fill="freeze"></animateTransform><animateTransform href="#lxk6arykdwhbjap62v_translate" attributeName="transform" type="translate" values="0 0;0 0;0 768;0 768;0 0" dur="6.002s" repeatCount="indefinite" calcMode="spline" keyTimes="0;0;0.5;0.5;1" keySplines="0 0 0.58 1;0 0 0.58 1;0 0 0.58 1;0 0 0.58 1" additive="sum" fill="freeze"></animateTransform></svg>