<svg id="lxk97pctm91tajt5gm" viewBox="0 0 3077 4686" xmlns="http://www.w3.org/2000/svg" xmlns:xlink="http://www.w3.org/1999/xlink"><g id="lxk97pctm91tajt5gm_translate"><g transform="matrix(1,0,0,1,0,0)"><g id="lxk97pctm91tajt5gm" opacity="1" style="mix-blend-mode:normal"><g><g><g id="lxk97pcunkb1rlwsbfr_translate"><g transform="matrix(1,0,0,1,0,1843)"><g id="lxk97pcunkb1rlwsbfr" opacity="1" style="mix-blend-mode:normal"><g><g><defs><clipPath id="lxk97pcunkb1rlwsbfr_stroke_clip_path" clipPathUnits="userSpaceOnUse"><path d="M3076.9232,500c0,276.15 -688.7693,500 -1538.4616,500c-849.6923,0 -1538.4615,-223.85 -1538.4615,-500c0,-276.15 688.7692,-500 1538.4615,-500c849.6923,0 1538.4616,223.85 1538.4616,500z"></path></clipPath></defs><g style="mix-blend-mode:normal"><g clip-path="url(#lxk97pcunkb1rlwsbfr_stroke_clip_path)"><path id="lxk97pcunkb1rlwsbfr_stroke_path" d="M3076.9232,500c0,276.15 -688.7693,500 -1538.4616,500c-849.6923,0 -1538.4615,-223.85 -1538.4615,-500c0,-276.15 688.7692,-500 1538.4615,-500c849.6923,0 1538.4616,223.85 1538.4616,500z" fill="none" stroke="rgb(121, 38, 255)" stroke-width="60" stroke-linecap="butt" stroke-linejoin="miter" stroke-dasharray="0 0" stroke-opacity="1"></path></g></g></g></g></g></g></g><g id="lxk97pcujcpgsveey9_translate"><g transform="matrix(1,0,0,1,0,1843)"><g id="lxk97pcujcpgsveey9" opacity="1" style="mix-blend-mode:normal"><g><g><defs><clipPath id="lxk97pcujcpgsveey9_stroke_clip_path" clipPathUnits="userSpaceOnUse"><path d="M3076.9232,500c0,276.15 -688.7693,500 -1538.4616,500c-849.6923,0 -1538.4615,-223.85 -1538.4615,-500c0,-276.15 688.7692,-500 1538.4615,-500c849.6923,0 1538.4616,223.85 1538.4616,500z"></path></clipPath></defs><g style="mix-blend-mode:normal"><g clip-path="url(#lxk97pcujcpgsveey9_stroke_clip_path)"><path id="lxk97pcujcpgsveey9_stroke_path" d="M3076.9232,500c0,276.15 -688.7693,500 -1538.4616,500c-849.6923,0 -1538.4615,-223.85 -1538.4615,-500c0,-276.15 688.7692,-500 1538.4615,-500c849.6923,0 1538.4616,223.85 1538.4616,500z" fill="none" stroke="rgb(121, 38, 255)" stroke-width="60" stroke-linecap="butt" stroke-linejoin="miter" stroke-dasharray="0 0" stroke-opacity="1"></path></g></g></g></g></g></g></g><g id="lxk97pcu0ttv1bvk6y4_translate"><g transform="matrix(1,0,0,1,0,1843)"><g id="lxk97pcu0ttv1bvk6y4" opacity="1" style="mix-blend-mode:normal"><g><g><defs><clipPath id="lxk97pcu0ttv1bvk6y4_stroke_clip_path" clipPathUnits="userSpaceOnUse"><path d="M3076.9232,500c0,276.15 -688.7693,500 -1538.4616,500c-849.6923,0 -1538.4615,-223.85 -1538.4615,-500c0,-276.15 688.7692,-500 1538.4615,-500c849.6923,0 1538.4616,223.85 1538.4616,500z"></path></clipPath></defs><g style="mix-blend-mode:normal"><g clip-path="url(#lxk97pcu0ttv1bvk6y4_stroke_clip_path)"><path id="lxk97pcu0ttv1bvk6y4_stroke_path" d="M3076.9232,500c0,276.15 -688.7693,500 -1538.4616,500c-849.6923,0 -1538.4615,-223.85 -1538.4615,-500c0,-276.15 688.7692,-500 1538.4615,-500c849.6923,0 1538.4616,223.85 1538.4616,500z" fill="none" stroke="rgb(121, 38, 255)" stroke-width="60" stroke-linecap="butt" stroke-linejoin="miter" stroke-dasharray="0 0" stroke-opacity="1"></path></g></g></g></g></g></g></g><g id="lxk97pcub09v732imx_translate"><g transform="matrix(1,0,0,1,0,1843)"><g id="lxk97pcub09v732imx" opacity="1" style="mix-blend-mode:normal"><g><g><defs><clipPath id="lxk97pcub09v732imx_stroke_clip_path" clipPathUnits="userSpaceOnUse"><path d="M3076.9232,500c0,276.15 -688.7693,500 -1538.4616,500c-849.6923,0 -1538.4615,-223.85 -1538.4615,-500c0,-276.15 688.7692,-500 1538.4615,-500c849.6923,0 1538.4616,223.85 1538.4616,500z"></path></clipPath></defs><g style="mix-blend-mode:normal"><g clip-path="url(#lxk97pcub09v732imx_stroke_clip_path)"><path id="lxk97pcub09v732imx_stroke_path" d="M3076.9232,500c0,276.15 -688.7693,500 -1538.4616,500c-849.6923,0 -1538.4615,-223.85 -1538.4615,-500c0,-276.15 688.7692,-500 1538.4615,-500c849.6923,0 1538.4616,223.85 1538.4616,500z" fill="none" stroke="rgb(121, 38, 255)" stroke-width="60" stroke-linecap="butt" stroke-linejoin="miter" stroke-dasharray="0 0" stroke-opacity="1"></path></g></g></g></g></g></g></g><g id="lxk97pcu0838a6qhv4mx_translate"><g transform="matrix(1,0,0,1,0,1843)"><g id="lxk97pcu0838a6qhv4mx" opacity="1" style="mix-blend-mode:normal"><g><g><defs><clipPath id="lxk97pcu0838a6qhv4mx_stroke_clip_path" clipPathUnits="userSpaceOnUse"><path d="M3076.9232,500c0,276.15 -688.7693,500 -1538.4616,500c-849.6923,0 -1538.4615,-223.85 -1538.4615,-500c0,-276.15 688.7692,-500 1538.4615,-500c849.6923,0 1538.4616,223.85 1538.4616,500z"></path></clipPath></defs><g style="mix-blend-mode:normal"><g clip-path="url(#lxk97pcu0838a6qhv4mx_stroke_clip_path)"><path id="lxk97pcu0838a6qhv4mx_stroke_path" d="M3076.9232,500c0,276.15 -688.7693,500 -1538.4616,500c-849.6923,0 -1538.4615,-223.85 -1538.4615,-500c0,-276.15 688.7692,-500 1538.4615,-500c849.6923,0 1538.4616,223.85 1538.4616,500z" fill="none" stroke="rgb(121, 38, 255)" stroke-width="60" stroke-linecap="butt" stroke-linejoin="miter" stroke-dasharray="0 0" stroke-opacity="1"></path></g></g></g></g></g></g></g></g></g></g></g></g><animateTransform href="#lxk97pct99sv84hbqro_translate" attributeName="transform" type="translate" values="0 0;0 -788;0 -788" dur="5.992s" repeatCount="indefinite" calcMode="spline" keyTimes="0;0.5;1" keySplines="0 0 0.58 1;0.5 0.35 0.58 1" additive="sum" fill="freeze"></animateTransform><animateTransform href="#lxk97pcu1iujjfp217v_translate" attributeName="transform" type="translate" values="0 0;0 -399;0 -399" dur="5.992s" repeatCount="indefinite" calcMode="spline" keyTimes="0;0.5;1" keySplines="0 0 0.58 1;0.5 0.35 0.58 1" additive="sum" fill="freeze"></animateTransform><animateTransform href="#lxk97pcuibs8s6zq7b_translate" attributeName="transform" type="translate" values="0 0;0 -10;0 -10" dur="5.992s" repeatCount="indefinite" calcMode="spline" keyTimes="0;0.5;1" keySplines="0 0 0.58 1;0.5 0.35 0.58 1" additive="sum" fill="freeze"></animateTransform><animateTransform href="#lxk97pcubollkoirgds_translate" attributeName="transform" type="translate" values="0 0;0 379;0 379" dur="5.992s" repeatCount="indefinite" calcMode="spline" keyTimes="0;0.5;1" keySplines="0 0 0.58 1;0.5 0.35 0.58 1" additive="sum" fill="freeze"></animateTransform><animateTransform href="#lxk97pcu5olfno917sx_translate" attributeName="transform" type="translate" values="0 0;0 768;0 768" dur="5.992s" repeatCount="indefinite" calcMode="spline" keyTimes="0;0.5;1" keySplines="0 0 0.58 1;0.5 0.35 0.58 1" additive="sum" fill="freeze"></animateTransform><animateTransform href="#lxk97pcunkb1rlwsbfr_translate" attributeName="transform" type="translate" values="0 0;0 -788;0 0;0 0" dur="5.992s" repeatCount="indefinite" calcMode="spline" keyTimes="0;0.5;1;1" keySplines="0 0 0.58 1;0.5 0.35 0.58 1;0.5 0.35 0.58 1" additive="sum" fill="freeze"></animateTransform><animateTransform href="#lxk97pcujcpgsveey9_translate" attributeName="transform" type="translate" values="0 0;0 -399;0 0;0 0" dur="5.992s" repeatCount="indefinite" calcMode="spline" keyTimes="0;0.5;1;1" keySplines="0 0 0.58 1;0.5 0.35 0.58 1;0.5 0.35 0.58 1" additive="sum" fill="freeze"></animateTransform><animateTransform href="#lxk97pcu0ttv1bvk6y4_translate" attributeName="transform" type="translate" values="0 0;0 -10;0 0;0 0" dur="5.992s" repeatCount="indefinite" calcMode="spline" keyTimes="0;0.5;1;1" keySplines="0 0 0.58 1;0.5 0.35 0.58 1;0.5 0.35 0.58 1" additive="sum" fill="freeze"></animateTransform><animateTransform href="#lxk97pcub09v732imx_translate" attributeName="transform" type="translate" values="0 0;0 379;0 0;0 0" dur="5.992s" repeatCount="indefinite" calcMode="spline" keyTimes="0;0.5;1;1" keySplines="0 0 0.58 1;0.5 0.35 0.58 1;0.5 0.35 0.58 1" additive="sum" fill="freeze"></animateTransform><animateTransform href="#lxk97pcu0838a6qhv4mx_translate" attributeName="transform" type="translate" values="0 0;0 768;0 0;0 0" dur="5.992s" repeatCount="indefinite" calcMode="spline" keyTimes="0;0.5;1;1" keySplines="0 0 0.58 1;0.5 0.35 0.58 1;0.5 0.35 0.58 1" additive="sum" fill="freeze"></animateTransform><animateTransform href="#lxk97pcu8xou3zvrbt_translate" attributeName="transform" type="translate" values="0 0;0 0;0 788;0 788" dur="5.992s" repeatCount="indefinite" calcMode="spline" keyTimes="0;0.5;1;1" keySplines="0 0 0.15 1;0 0 0.58 1;0.5 0.35 0.58 1" additive="sum" fill="freeze"></animateTransform><animateTransform href="#lxk97pcudr24pt6k22r_translate" attributeName="transform" type="translate" values="0 0;0 0;0 399;0 399" dur="5.992s" repeatCount="indefinite" calcMode="spline" keyTimes="0;0.5;1;1" keySplines="0 0 0.15 1;0 0 0.58 1;0.5 0.35 0.58 1" additive="sum" fill="freeze"></animateTransform><animateTransform href="#lxk97pcubs3945od0r_translate" attributeName="transform" type="translate" values="0 0;0 0;0 10;0 10" dur="5.992s" repeatCount="indefinite" calcMode="spline" keyTimes="0;0.5;1;1" keySplines="0 0 0.15 1;0 0 0.58 1;0.5 0.35 0.58 1" additive="sum" fill="freeze"></animateTransform><animateTransform href="#lxk97pcujpx9v54uzqa_translate" attributeName="transform" type="translate" values="0 0;0 0;0 -379;0 -379" dur="5.992s" repeatCount="indefinite" calcMode="spline" keyTimes="0;0.5;1;1" keySplines="0 0 0.15 1;0 0 0.58 1;0.5 0.35 0.58 1" additive="sum" fill="freeze"></animateTransform><animateTransform href="#lxk97pcu5gaebd3h5q4_translate" attributeName="transform" type="translate" values="0 0;0 0;0 -768;0 -768" dur="5.992s" repeatCount="indefinite" calcMode="spline" keyTimes="0;0.5;1;1" keySplines="0 0 0.15 1;0 0 0.58 1;0.5 0.35 0.58 1" additive="sum" fill="freeze"></animateTransform></svg>