<svg id="lxk948yfw6uj1ubtp4f" viewBox="0 0 3077 4686" xmlns="http://www.w3.org/2000/svg" xmlns:xlink="http://www.w3.org/1999/xlink"><g id="lxk948yfw6uj1ubtp4f_translate"><g transform="matrix(1,0,0,1,0,0)"><g id="lxk948yfw6uj1ubtp4f" opacity="1" style="mix-blend-mode:normal"><g><g><g id="lxk948ygla1yyshc7bm_translate"><g transform="matrix(1,0,0,1,0,1843)"><g id="lxk948ygla1yyshc7bm" opacity="1" style="mix-blend-mode:normal"><g><g><defs><clipPath id="lxk948ygla1yyshc7bm_stroke_clip_path" clipPathUnits="userSpaceOnUse"><path d="M3076.9232,500c0,276.15 -688.7693,500 -1538.4616,500c-849.6923,0 -1538.4615,-223.85 -1538.4615,-500c0,-276.15 688.7692,-500 1538.4615,-500c849.6923,0 1538.4616,223.85 1538.4616,500z"></path></clipPath></defs><g style="mix-blend-mode:normal"><defs><linearGradient id="lxk948ygla1yyshc7bmps0" x1="3076.922824901647" y1="0.000018690533454268632" x2="-0.00009169944872263346" y2="1000.0000298023228" gradientUnits="userSpaceOnUse"><stop offset="0%" stop-opacity="1" stop-color="rgb(255, 121, 33)"></stop><stop offset="78.13%" stop-opacity="1" stop-color="rgb(253, 56, 102)"></stop></linearGradient></defs><g clip-path="url(#lxk948ygla1yyshc7bm_stroke_clip_path)"><path id="lxk948ygla1yyshc7bm_stroke_path" d="M3076.9232,500c0,276.15 -688.7693,500 -1538.4616,500c-849.6923,0 -1538.4615,-223.85 -1538.4615,-500c0,-276.15 688.7692,-500 1538.4615,-500c849.6923,0 1538.4616,223.85 1538.4616,500z" fill="none" stroke="url(#lxk948ygla1yyshc7bmps0)" stroke-width="60" stroke-linecap="butt" stroke-linejoin="miter" stroke-dasharray="0 0"></path></g></g></g></g></g></g></g><g id="lxk948yg4mylvl0eo0v_translate"><g transform="matrix(1,0,0,1,0,1843)"><g id="lxk948yg4mylvl0eo0v" opacity="1" style="mix-blend-mode:normal"><g><g><defs><clipPath id="lxk948yg4mylvl0eo0v_stroke_clip_path" clipPathUnits="userSpaceOnUse"><path d="M3076.9232,500c0,276.15 -688.7693,500 -1538.4616,500c-849.6923,0 -1538.4615,-223.85 -1538.4615,-500c0,-276.15 688.7692,-500 1538.4615,-500c849.6923,0 1538.4616,223.85 1538.4616,500z"></path></clipPath></defs><g style="mix-blend-mode:normal"><defs><linearGradient id="lxk948yg4mylvl0eo0vps0" x1="3076.922824901647" y1="0.000018690533454268632" x2="-0.00009169944872263346" y2="1000.0000298023228" gradientUnits="userSpaceOnUse"><stop offset="0%" stop-opacity="1" stop-color="rgb(255, 121, 33)"></stop><stop offset="78.13%" stop-opacity="1" stop-color="rgb(253, 56, 102)"></stop></linearGradient></defs><g clip-path="url(#lxk948yg4mylvl0eo0v_stroke_clip_path)"><path id="lxk948yg4mylvl0eo0v_stroke_path" d="M3076.9232,500c0,276.15 -688.7693,500 -1538.4616,500c-849.6923,0 -1538.4615,-223.85 -1538.4615,-500c0,-276.15 688.7692,-500 1538.4615,-500c849.6923,0 1538.4616,223.85 1538.4616,500z" fill="none" stroke="url(#lxk948yg4mylvl0eo0vps0)" stroke-width="60" stroke-linecap="butt" stroke-linejoin="miter" stroke-dasharray="0 0"></path></g></g></g></g></g></g></g><g id="lxk948ygwaad7osx11_translate"><g transform="matrix(1,0,0,1,0,1843)"><g id="lxk948ygwaad7osx11" opacity="1" style="mix-blend-mode:normal"><g><g><defs><clipPath id="lxk948ygwaad7osx11_stroke_clip_path" clipPathUnits="userSpaceOnUse"><path d="M3076.9232,500c0,276.15 -688.7693,500 -1538.4616,500c-849.6923,0 -1538.4615,-223.85 -1538.4615,-500c0,-276.15 688.7692,-500 1538.4615,-500c849.6923,0 1538.4616,223.85 1538.4616,500z"></path></clipPath></defs><g style="mix-blend-mode:normal"><defs><linearGradient id="lxk948ygwaad7osx11ps0" x1="3076.922824901647" y1="0.000018690533454268632" x2="-0.00009169944872263346" y2="1000.0000298023228" gradientUnits="userSpaceOnUse"><stop offset="0%" stop-opacity="1" stop-color="rgb(255, 121, 33)"></stop><stop offset="78.13%" stop-opacity="1" stop-color="rgb(253, 56, 102)"></stop></linearGradient></defs><g clip-path="url(#lxk948ygwaad7osx11_stroke_clip_path)"><path id="lxk948ygwaad7osx11_stroke_path" d="M3076.9232,500c0,276.15 -688.7693,500 -1538.4616,500c-849.6923,0 -1538.4615,-223.85 -1538.4615,-500c0,-276.15 688.7692,-500 1538.4615,-500c849.6923,0 1538.4616,223.85 1538.4616,500z" fill="none" stroke="url(#lxk948ygwaad7osx11ps0)" stroke-width="60" stroke-linecap="butt" stroke-linejoin="miter" stroke-dasharray="0 0"></path></g></g></g></g></g></g></g><g id="lxk948ygzmn1bcbq2b_translate"><g transform="matrix(1,0,0,1,0,1843)"><g id="lxk948ygzmn1bcbq2b" opacity="1" style="mix-blend-mode:normal"><g><g><defs><clipPath id="lxk948ygzmn1bcbq2b_stroke_clip_path" clipPathUnits="userSpaceOnUse"><path d="M3076.9232,500c0,276.15 -688.7693,500 -1538.4616,500c-849.6923,0 -1538.4615,-223.85 -1538.4615,-500c0,-276.15 688.7692,-500 1538.4615,-500c849.6923,0 1538.4616,223.85 1538.4616,500z"></path></clipPath></defs><g style="mix-blend-mode:normal"><defs><linearGradient id="lxk948ygzmn1bcbq2bps0" x1="3076.922824901647" y1="0.000018690533454268632" x2="-0.00009169944872263346" y2="1000.0000298023228" gradientUnits="userSpaceOnUse"><stop offset="0%" stop-opacity="1" stop-color="rgb(255, 121, 33)"></stop><stop offset="78.13%" stop-opacity="1" stop-color="rgb(253, 56, 102)"></stop></linearGradient></defs><g clip-path="url(#lxk948ygzmn1bcbq2b_stroke_clip_path)"><path id="lxk948ygzmn1bcbq2b_stroke_path" d="M3076.9232,500c0,276.15 -688.7693,500 -1538.4616,500c-849.6923,0 -1538.4615,-223.85 -1538.4615,-500c0,-276.15 688.7692,-500 1538.4615,-500c849.6923,0 1538.4616,223.85 1538.4616,500z" fill="none" stroke="url(#lxk948ygzmn1bcbq2bps0)" stroke-width="60" stroke-linecap="butt" stroke-linejoin="miter" stroke-dasharray="0 0"></path></g></g></g></g></g></g></g><g id="lxk948yhiauertxg2xb_translate"><g transform="matrix(1,0,0,1,0,1843)"><g id="lxk948yhiauertxg2xb" opacity="1" style="mix-blend-mode:normal"><g><g><defs><clipPath id="lxk948yhiauertxg2xb_stroke_clip_path" clipPathUnits="userSpaceOnUse"><path d="M3076.9232,500c0,276.15 -688.7693,500 -1538.4616,500c-849.6923,0 -1538.4615,-223.85 -1538.4615,-500c0,-276.15 688.7692,-500 1538.4615,-500c849.6923,0 1538.4616,223.85 1538.4616,500z"></path></clipPath></defs><g style="mix-blend-mode:normal"><defs><linearGradient id="lxk948yhiauertxg2xbps0" x1="3076.922824901647" y1="0.000018690533454268632" x2="-0.00009169944872263346" y2="1000.0000298023228" gradientUnits="userSpaceOnUse"><stop offset="0%" stop-opacity="1" stop-color="rgb(255, 121, 33)"></stop><stop offset="78.13%" stop-opacity="1" stop-color="rgb(253, 56, 102)"></stop></linearGradient></defs><g clip-path="url(#lxk948yhiauertxg2xb_stroke_clip_path)"><path id="lxk948yhiauertxg2xb_stroke_path" d="M3076.9232,500c0,276.15 -688.7693,500 -1538.4616,500c-849.6923,0 -1538.4615,-223.85 -1538.4615,-500c0,-276.15 688.7692,-500 1538.4615,-500c849.6923,0 1538.4616,223.85 1538.4616,500z" fill="none" stroke="url(#lxk948yhiauertxg2xbps0)" stroke-width="60" stroke-linecap="butt" stroke-linejoin="miter" stroke-dasharray="0 0"></path></g></g></g></g></g></g></g></g></g></g></g></g><animateTransform href="#lxk948yffdw0xf5ozpi_translate" attributeName="transform" type="translate" values="0 0;0 -788;0 -788" dur="5.992s" repeatCount="indefinite" calcMode="spline" keyTimes="0;0.5;1" keySplines="0 0 0.58 1;0.5 0.35 0.58 1" additive="sum" fill="freeze"></animateTransform><animateTransform href="#lxk948yfyqutplgk3f_translate" attributeName="transform" type="translate" values="0 0;0 -399;0 -399" dur="5.992s" repeatCount="indefinite" calcMode="spline" keyTimes="0;0.5;1" keySplines="0 0 0.58 1;0.5 0.35 0.58 1" additive="sum" fill="freeze"></animateTransform><animateTransform href="#lxk948yf28plftthy8l_translate" attributeName="transform" type="translate" values="0 0;0 -10;0 -10" dur="5.992s" repeatCount="indefinite" calcMode="spline" keyTimes="0;0.5;1" keySplines="0 0 0.58 1;0.5 0.35 0.58 1" additive="sum" fill="freeze"></animateTransform><animateTransform href="#lxk948yg0ihvl6rrtm9j_translate" attributeName="transform" type="translate" values="0 0;0 379;0 379" dur="5.992s" repeatCount="indefinite" calcMode="spline" keyTimes="0;0.5;1" keySplines="0 0 0.58 1;0.5 0.35 0.58 1" additive="sum" fill="freeze"></animateTransform><animateTransform href="#lxk948ygld4kz611co_translate" attributeName="transform" type="translate" values="0 0;0 768;0 768" dur="5.992s" repeatCount="indefinite" calcMode="spline" keyTimes="0;0.5;1" keySplines="0 0 0.58 1;0.5 0.35 0.58 1" additive="sum" fill="freeze"></animateTransform><animateTransform href="#lxk948ygla1yyshc7bm_translate" attributeName="transform" type="translate" values="0 0;0 -788;0 0;0 0" dur="5.992s" repeatCount="indefinite" calcMode="spline" keyTimes="0;0.5;1;1" keySplines="0 0 0.58 1;0.5 0.35 0.58 1;0.5 0.35 0.58 1" additive="sum" fill="freeze"></animateTransform><animateTransform href="#lxk948yg4mylvl0eo0v_translate" attributeName="transform" type="translate" values="0 0;0 -399;0 0;0 0" dur="5.992s" repeatCount="indefinite" calcMode="spline" keyTimes="0;0.5;1;1" keySplines="0 0 0.58 1;0.5 0.35 0.58 1;0.5 0.35 0.58 1" additive="sum" fill="freeze"></animateTransform><animateTransform href="#lxk948ygwaad7osx11_translate" attributeName="transform" type="translate" values="0 0;0 -10;0 0;0 0" dur="5.992s" repeatCount="indefinite" calcMode="spline" keyTimes="0;0.5;1;1" keySplines="0 0 0.58 1;0.5 0.35 0.58 1;0.5 0.35 0.58 1" additive="sum" fill="freeze"></animateTransform><animateTransform href="#lxk948ygzmn1bcbq2b_translate" attributeName="transform" type="translate" values="0 0;0 379;0 0;0 0" dur="5.992s" repeatCount="indefinite" calcMode="spline" keyTimes="0;0.5;1;1" keySplines="0 0 0.58 1;0.5 0.35 0.58 1;0.5 0.35 0.58 1" additive="sum" fill="freeze"></animateTransform><animateTransform href="#lxk948yhiauertxg2xb_translate" attributeName="transform" type="translate" values="0 0;0 768;0 0;0 0" dur="5.992s" repeatCount="indefinite" calcMode="spline" keyTimes="0;0.5;1;1" keySplines="0 0 0.58 1;0.5 0.35 0.58 1;0.5 0.35 0.58 1" additive="sum" fill="freeze"></animateTransform><animateTransform href="#lxk948yhpgmk0mcigq_translate" attributeName="transform" type="translate" values="0 0;0 0;0 788;0 788" dur="5.992s" repeatCount="indefinite" calcMode="spline" keyTimes="0;0.5;1;1" keySplines="0 0 0.15 1;0 0 0.58 1;0.5 0.35 0.58 1" additive="sum" fill="freeze"></animateTransform><animateTransform href="#lxk948yhxj3lf6up0d_translate" attributeName="transform" type="translate" values="0 0;0 0;0 399;0 399" dur="5.992s" repeatCount="indefinite" calcMode="spline" keyTimes="0;0.5;1;1" keySplines="0 0 0.15 1;0 0 0.58 1;0.5 0.35 0.58 1" additive="sum" fill="freeze"></animateTransform><animateTransform href="#lxk948yh6j1fnm1hns3_translate" attributeName="transform" type="translate" values="0 0;0 0;0 10;0 10" dur="5.992s" repeatCount="indefinite" calcMode="spline" keyTimes="0;0.5;1;1" keySplines="0 0 0.15 1;0 0 0.58 1;0.5 0.35 0.58 1" additive="sum" fill="freeze"></animateTransform><animateTransform href="#lxk948yhnt4ccyebgj_translate" attributeName="transform" type="translate" values="0 0;0 0;0 -379;0 -379" dur="5.992s" repeatCount="indefinite" calcMode="spline" keyTimes="0;0.5;1;1" keySplines="0 0 0.15 1;0 0 0.58 1;0.5 0.35 0.58 1" additive="sum" fill="freeze"></animateTransform><animateTransform href="#lxk948yixcxlpyx0we_translate" attributeName="transform" type="translate" values="0 0;0 0;0 -768;0 -768" dur="5.992s" repeatCount="indefinite" calcMode="spline" keyTimes="0;0.5;1;1" keySplines="0 0 0.15 1;0 0 0.58 1;0.5 0.35 0.58 1" additive="sum" fill="freeze"></animateTransform></svg>