<svg id="lxk6aryjx3qk9uilgp9" viewBox="0 0 3077 4686" xmlns="http://www.w3.org/2000/svg" xmlns:xlink="http://www.w3.org/1999/xlink"><g id="lxk6aryjx3qk9uilgp9_translate"><g transform="matrix(1,0,0,1,0,0)"><g id="lxk6aryjx3qk9uilgp9" opacity="1" style="mix-blend-mode:normal"><g><g><g id="lxk6aryk384ixngpkf4_translate"><g transform="matrix(1,0,0,1,0,1843)"><g id="lxk6aryk384ixngpkf4" opacity="1" style="mix-blend-mode:normal"><g><g><defs><clipPath id="lxk6aryk384ixngpkf4_stroke_clip_path" clipPathUnits="userSpaceOnUse"><path d="M3076.9232,500c0,276.15 -688.7693,500 -1538.4616,500c-849.6923,0 -1538.4615,-223.85 -1538.4615,-500c0,-276.15 688.7692,-500 1538.4615,-500c849.6923,0 1538.4616,223.85 1538.4616,500z"></path></clipPath></defs><g style="mix-blend-mode:normal"><defs><linearGradient id="lxk6aryk384ixngpkf4ps0" x1="2571.1273644794023" y1="-206.5218849385152" x2="1018.6160157444738" y2="2989.130357429959" gradientUnits="userSpaceOnUse"><stop offset="0%" stop-opacity="1" stop-color="rgb(251, 138, 238)"></stop><stop offset="100%" stop-opacity="1" stop-color="rgb(108, 121, 240)"></stop></linearGradient></defs><g clip-path="url(#lxk6aryk384ixngpkf4_stroke_clip_path)"><path id="lxk6aryk384ixngpkf4_stroke_path" d="M3076.9232,500c0,276.15 -688.7693,500 -1538.4616,500c-849.6923,0 -1538.4615,-223.85 -1538.4615,-500c0,-276.15 688.7692,-500 1538.4615,-500c849.6923,0 1538.4616,223.85 1538.4616,500z" fill="none" stroke="url(#lxk6aryk384ixngpkf4ps0)" stroke-width="60" stroke-linecap="butt" stroke-linejoin="miter" stroke-dasharray="0 0"></path></g></g></g></g></g></g></g><g id="lxk6aryl4q87aknn60a_translate"><g transform="matrix(1,0,0,1,0,1843)"><g id="lxk6aryl4q87aknn60a" opacity="1" style="mix-blend-mode:normal"><g><g><defs><clipPath id="lxk6aryl4q87aknn60a_stroke_clip_path" clipPathUnits="userSpaceOnUse"><path d="M3076.9232,500c0,276.15 -688.7693,500 -1538.4616,500c-849.6923,0 -1538.4615,-223.85 -1538.4615,-500c0,-276.15 688.7692,-500 1538.4615,-500c849.6923,0 1538.4616,223.85 1538.4616,500z"></path></clipPath></defs><g style="mix-blend-mode:normal"><defs><linearGradient id="lxk6aryl4q87aknn60aps0" x1="2571.1273644794023" y1="-206.5218849385152" x2="1018.6160157444738" y2="2989.130357429959" gradientUnits="userSpaceOnUse"><stop offset="0%" stop-opacity="1" stop-color="rgb(251, 138, 238)"></stop><stop offset="100%" stop-opacity="1" stop-color="rgb(108, 121, 240)"></stop></linearGradient></defs><g clip-path="url(#lxk6aryl4q87aknn60a_stroke_clip_path)"><path id="lxk6aryl4q87aknn60a_stroke_path" d="M3076.9232,500c0,276.15 -688.7693,500 -1538.4616,500c-849.6923,0 -1538.4615,-223.85 -1538.4615,-500c0,-276.15 688.7692,-500 1538.4615,-500c849.6923,0 1538.4616,223.85 1538.4616,500z" fill="none" stroke="url(#lxk6aryl4q87aknn60aps0)" stroke-width="60" stroke-linecap="butt" stroke-linejoin="miter" stroke-dasharray="0 0"></path></g></g></g></g></g></g></g><g id="lxk6arylcy11owlsavk_translate"><g transform="matrix(1,0,0,1,0,1843)"><g id="lxk6arylcy11owlsavk" opacity="1" style="mix-blend-mode:normal"><g><g><defs><clipPath id="lxk6arylcy11owlsavk_stroke_clip_path" clipPathUnits="userSpaceOnUse"><path d="M3076.9232,500c0,276.15 -688.7693,500 -1538.4616,500c-849.6923,0 -1538.4615,-223.85 -1538.4615,-500c0,-276.15 688.7692,-500 1538.4615,-500c849.6923,0 1538.4616,223.85 1538.4616,500z"></path></clipPath></defs><g style="mix-blend-mode:normal"><defs><linearGradient id="lxk6arylcy11owlsavkps0" x1="2571.1273644794023" y1="-206.5218849385152" x2="1018.6160157444738" y2="2989.130357429959" gradientUnits="userSpaceOnUse"><stop offset="0%" stop-opacity="1" stop-color="rgb(251, 138, 238)"></stop><stop offset="100%" stop-opacity="1" stop-color="rgb(108, 121, 240)"></stop></linearGradient></defs><g clip-path="url(#lxk6arylcy11owlsavk_stroke_clip_path)"><path id="lxk6arylcy11owlsavk_stroke_path" d="M3076.9232,500c0,276.15 -688.7693,500 -1538.4616,500c-849.6923,0 -1538.4615,-223.85 -1538.4615,-500c0,-276.15 688.7692,-500 1538.4615,-500c849.6923,0 1538.4616,223.85 1538.4616,500z" fill="none" stroke="url(#lxk6arylcy11owlsavkps0)" stroke-width="60" stroke-linecap="butt" stroke-linejoin="miter" stroke-dasharray="0 0"></path></g></g></g></g></g></g></g><g id="lxk6aryl8jchpih31na_translate"><g transform="matrix(1,0,0,1,0,1843)"><g id="lxk6aryl8jchpih31na" opacity="1" style="mix-blend-mode:normal"><g><g><defs><clipPath id="lxk6aryl8jchpih31na_stroke_clip_path" clipPathUnits="userSpaceOnUse"><path d="M3076.9232,500c0,276.15 -688.7693,500 -1538.4616,500c-849.6923,0 -1538.4615,-223.85 -1538.4615,-500c0,-276.15 688.7692,-500 1538.4615,-500c849.6923,0 1538.4616,223.85 1538.4616,500z"></path></clipPath></defs><g style="mix-blend-mode:normal"><defs><linearGradient id="lxk6aryl8jchpih31naps0" x1="2571.1273644794023" y1="-206.5218849385152" x2="1018.6160157444738" y2="2989.130357429959" gradientUnits="userSpaceOnUse"><stop offset="0%" stop-opacity="1" stop-color="rgb(251, 138, 238)"></stop><stop offset="100%" stop-opacity="1" stop-color="rgb(108, 121, 240)"></stop></linearGradient></defs><g clip-path="url(#lxk6aryl8jchpih31na_stroke_clip_path)"><path id="lxk6aryl8jchpih31na_stroke_path" d="M3076.9232,500c0,276.15 -688.7693,500 -1538.4616,500c-849.6923,0 -1538.4615,-223.85 -1538.4615,-500c0,-276.15 688.7692,-500 1538.4615,-500c849.6923,0 1538.4616,223.85 1538.4616,500z" fill="none" stroke="url(#lxk6aryl8jchpih31naps0)" stroke-width="60" stroke-linecap="butt" stroke-linejoin="miter" stroke-dasharray="0 0"></path></g></g></g></g></g></g></g><g id="lxk6arylvnoczysr21c_translate"><g transform="matrix(1,0,0,1,0,1843)"><g id="lxk6arylvnoczysr21c" opacity="1" style="mix-blend-mode:normal"><g><g><defs><clipPath id="lxk6arylvnoczysr21c_stroke_clip_path" clipPathUnits="userSpaceOnUse"><path d="M3076.9232,500c0,276.15 -688.7693,500 -1538.4616,500c-849.6923,0 -1538.4615,-223.85 -1538.4615,-500c0,-276.15 688.7692,-500 1538.4615,-500c849.6923,0 1538.4616,223.85 1538.4616,500z"></path></clipPath></defs><g style="mix-blend-mode:normal"><defs><linearGradient id="lxk6arylvnoczysr21cps0" x1="2571.1273644794023" y1="-206.5218849385152" x2="1018.6160157444738" y2="2989.130357429959" gradientUnits="userSpaceOnUse"><stop offset="0%" stop-opacity="1" stop-color="rgb(251, 138, 238)"></stop><stop offset="100%" stop-opacity="1" stop-color="rgb(108, 121, 240)"></stop></linearGradient></defs><g clip-path="url(#lxk6arylvnoczysr21c_stroke_clip_path)"><path id="lxk6arylvnoczysr21c_stroke_path" d="M3076.9232,500c0,276.15 -688.7693,500 -1538.4616,500c-849.6923,0 -1538.4615,-223.85 -1538.4615,-500c0,-276.15 688.7692,-500 1538.4615,-500c849.6923,0 1538.4616,223.85 1538.4616,500z" fill="none" stroke="url(#lxk6arylvnoczysr21cps0)" stroke-width="60" stroke-linecap="butt" stroke-linejoin="miter" stroke-dasharray="0 0"></path></g></g></g></g></g></g></g></g></g></g></g></g><animateTransform href="#lxk6aryj94es5orxspl_translate" attributeName="transform" type="translate" values="0 0;0 -788;0 -788" dur="5.992s" repeatCount="indefinite" calcMode="spline" keyTimes="0;0.5;1" keySplines="0 0 0.58 1;0.5 0.35 0.58 1" additive="sum" fill="freeze"></animateTransform><animateTransform href="#lxk6aryk501cgzwxvbt_translate" attributeName="transform" type="translate" values="0 0;0 -399;0 -399" dur="5.992s" repeatCount="indefinite" calcMode="spline" keyTimes="0;0.5;1" keySplines="0 0 0.58 1;0.5 0.35 0.58 1" additive="sum" fill="freeze"></animateTransform><animateTransform href="#lxk6aryk75ri1lue1ta_translate" attributeName="transform" type="translate" values="0 0;0 -10;0 -10" dur="5.992s" repeatCount="indefinite" calcMode="spline" keyTimes="0;0.5;1" keySplines="0 0 0.58 1;0.5 0.35 0.58 1" additive="sum" fill="freeze"></animateTransform><animateTransform href="#lxk6arykj4ak7reuusr_translate" attributeName="transform" type="translate" values="0 0;0 379;0 379" dur="5.992s" repeatCount="indefinite" calcMode="spline" keyTimes="0;0.5;1" keySplines="0 0 0.58 1;0.5 0.35 0.58 1" additive="sum" fill="freeze"></animateTransform><animateTransform href="#lxk6arykdwhbjap62v_translate" attributeName="transform" type="translate" values="0 0;0 768;0 768" dur="5.992s" repeatCount="indefinite" calcMode="spline" keyTimes="0;0.5;1" keySplines="0 0 0.58 1;0.5 0.35 0.58 1" additive="sum" fill="freeze"></animateTransform><animateTransform href="#lxk6aryk384ixngpkf4_translate" attributeName="transform" type="translate" values="0 0;0 -788;0 0;0 0" dur="5.992s" repeatCount="indefinite" calcMode="spline" keyTimes="0;0.5;1;1" keySplines="0 0 0.15 1;0 0 0.58 1;0.5 0.35 0.58 1" additive="sum" fill="freeze"></animateTransform><animateTransform href="#lxk6aryl4q87aknn60a_translate" attributeName="transform" type="translate" values="0 0;0 -399;0 0;0 0" dur="5.992s" repeatCount="indefinite" calcMode="spline" keyTimes="0;0.5;1;1" keySplines="0 0 0.15 1;0 0 0.58 1;0.5 0.35 0.58 1" additive="sum" fill="freeze"></animateTransform><animateTransform href="#lxk6arylcy11owlsavk_translate" attributeName="transform" type="translate" values="0 0;0 -10;0 0;0 0" dur="5.992s" repeatCount="indefinite" calcMode="spline" keyTimes="0;0.5;1;1" keySplines="0 0 0.15 1;0 0 0.58 1;0.5 0.35 0.58 1" additive="sum" fill="freeze"></animateTransform><animateTransform href="#lxk6aryl8jchpih31na_translate" attributeName="transform" type="translate" values="0 0;0 379;0 0;0 0" dur="5.992s" repeatCount="indefinite" calcMode="spline" keyTimes="0;0.5;1;1" keySplines="0 0 0.15 1;0 0 0.58 1;0.5 0.35 0.58 1" additive="sum" fill="freeze"></animateTransform><animateTransform href="#lxk6arylvnoczysr21c_translate" attributeName="transform" type="translate" values="0 0;0 768;0 0;0 0" dur="5.992s" repeatCount="indefinite" calcMode="spline" keyTimes="0;0.5;1;1" keySplines="0 0 0.15 1;0 0 0.58 1;0.5 0.35 0.58 1" additive="sum" fill="freeze"></animateTransform><animateTransform href="#lxk6aryljc977a44utm_translate" attributeName="transform" type="translate" values="0 0;0 0;0 788;0 788" dur="5.992s" repeatCount="indefinite" calcMode="spline" keyTimes="0;0.5;1;1" keySplines="0 0 0.15 1;0 0 0.58 1;0.5 0.35 0.58 1" additive="sum" fill="freeze"></animateTransform><animateTransform href="#lxk6aryldff4o7z8wm_translate" attributeName="transform" type="translate" values="0 0;0 0;0 399;0 399" dur="5.992s" repeatCount="indefinite" calcMode="spline" keyTimes="0;0.5;1;1" keySplines="0 0 0.15 1;0 0 0.58 1;0.5 0.35 0.58 1" additive="sum" fill="freeze"></animateTransform><animateTransform href="#lxk6arymn5fcqdb2mng_translate" attributeName="transform" type="translate" values="0 0;0 0;0 10;0 10" dur="5.992s" repeatCount="indefinite" calcMode="spline" keyTimes="0;0.5;1;1" keySplines="0 0 0.15 1;0 0 0.58 1;0.5 0.35 0.58 1" additive="sum" fill="freeze"></animateTransform><animateTransform href="#lxk6arymqnxhetx092n_translate" attributeName="transform" type="translate" values="0 0;0 0;0 -379;0 -379" dur="5.992s" repeatCount="indefinite" calcMode="spline" keyTimes="0;0.5;1;1" keySplines="0 0 0.15 1;0 0 0.58 1;0.5 0.35 0.58 1" additive="sum" fill="freeze"></animateTransform><animateTransform href="#lxk6arymdxded5maosh_translate" attributeName="transform" type="translate" values="0 0;0 0;0 -768;0 -768" dur="5.992s" repeatCount="indefinite" calcMode="spline" keyTimes="0;0.5;1;1" keySplines="0 0 0.15 1;0 0 0.58 1;0.5 0.35 0.58 1" additive="sum" fill="freeze"></animateTransform></svg>