<svg width="53" height="54" fill="none" xmlns="http://www.w3.org/2000/svg">
  <path d="M43.3 20.2h-3.7v3.6h3.7v-3.6zM47 27.4h-3.7V31H47v-3.6z" fill="#CA3E32"/>
  <path d="M47 23.8h-3.7v3.6H47v-3.6zM43.3 16.6h-3.7v3.6h3.7v-3.6zM43.3 13h-3.7v3.6h3.7V13zM47 20.2h-3.7v3.6H47v-3.6z" fill="#CA3E32"/>
  <path d="M47 16.6h-3.7v3.6H47v-3.6zM47 13h-3.7v3.6H47V13zM43.3 27.4h-3.7V31h3.7v-3.6zM43.3 9.4h-3.7V13h3.7V9.4z" fill="#CA3E32"/>
  <path d="M43.3 23.8h-3.7v3.6h3.7v-3.6zM43.3 31h-3.7v3.6h3.7V31zM39.6 13H36v3.6h3.7V13zM36 23.8h-3.8v3.6H36v-3.6zM39.6 34.6H36v3.6h3.7v-3.6z" fill="#CA3E32"/>
  <path d="M39.6 31H36v3.6h3.7V31zM39.6 20.2H36v3.6h3.7v-3.6zM36 31h-3.8v3.6H36V31zM39.6 9.4H36V13h3.7V9.4zM39.6 27.4H36V31h3.7v-3.6zM36 38.2h-3.8v3.6H36v-3.6z" fill="#CA3E32"/>
  <path d="M39.6 23.8H36v3.6h3.7v-3.6zM36 34.6h-3.8v3.6H36v-3.6zM39.6 16.6H36v3.6h3.7v-3.6zM36 27.4h-3.8V31H36v-3.6zM32.2 34.6h-3.7v3.6h3.7v-3.6zM36 20.2h-3.8v3.6H36v-3.6z" fill="#CA3E32"/>
  <path d="M36 16.6h-3.8v3.6H36v-3.6zM36 9.4h-3.8V13H36V9.4zM32.2 23.8h-3.7v3.6h3.7v-3.6zM32.2 31h-3.7v3.6h3.7V31zM32.2 16.6h-3.7v3.6h3.7v-3.6z" fill="#CA3E32"/>
  <path d="M32.2 20.2h-3.7v3.6h3.7v-3.6zM36 13h-3.8v3.6H36V13zM32.2 13h-3.7v3.6h3.7V13zM32.2 27.4h-3.7V31h3.7v-3.6zM28.5 23.8h-3.7v3.6h3.7v-3.6zM28.5 20.2h-3.7v3.6h3.7v-3.6zM21.1 38.2h-3.7v3.6h3.7v-3.6zM21.1 34.6h-3.7v3.6h3.7v-3.6zM17.4 34.6h-3.7v3.6h3.7v-3.6zM32.2 38.2h-3.7v3.6h3.7v-3.6z" fill="#CA3E32"/>
  <path d="M32.2 41.8h-3.7v3.6h3.7v-3.6zM28.5 45.4h-3.7V49h3.7v-3.6zM28.5 41.8h-3.7v3.6h3.7v-3.6z" fill="#CA3E32"/>
  <path d="M28.5 38.2h-3.7v3.6h3.7v-3.6zM28.5 34.6h-3.7v3.6h3.7v-3.6zM24.8 38.2h-3.7v3.6h3.7v-3.6z" fill="#CA3E32"/>
  <path d="M24.8 41.8h-3.7v3.6h3.7v-3.6zM24.8 34.6h-3.7v3.6h3.7v-3.6zM21.1 27.4h-3.7V31h3.7v-3.6zM21.1 31h-3.7v3.6h3.7V31zM17.4 31h-3.7v3.6h3.7V31zM13.7 31H10v3.6h3.7V31zM24.8 31h-3.7v3.6h3.7V31zM28.5 31h-3.7v3.6h3.7V31zM28.5 27.4h-3.7V31h3.7v-3.6zM24.8 27.4h-3.7V31h3.7v-3.6zM21.1 20.2h-3.7v3.6h3.7v-3.6zM17.4 27.4h-3.7V31h3.7v-3.6z" fill="#CA3E32"/>
  <path d="M17.4 23.8h-3.7v3.6h3.7v-3.6zM17.4 20.2h-3.7v3.6h3.7v-3.6zM21.1 13h-3.7v3.6h3.7V13zM21.1 23.8h-3.7v3.6h3.7v-3.6zM21.1 9.4h-3.7V13h3.7V9.4zM21.1 16.6h-3.7v3.6h3.7v-3.6z" fill="#CA3E32"/>
  <path d="M17.4 13h-3.7v3.6h3.7V13z" fill="#EFE4E3"/>
  <path d="M17.4 16.6h-3.7v3.6h3.7v-3.6zM17.4 9.4h-3.7V13h3.7V9.4zM10 23.8H6.3v3.6H10v-3.6zM13.7 23.8H10v3.6h3.7v-3.6zM10 13H6.3v3.6H10V13z" fill="#CA3E32"/>
  <path d="M13.7 27.4H10V31h3.7v-3.6z" fill="#CA3E32"/>
  <path d="M13.7 16.6H10v3.6h3.7v-3.6z" fill="#EFE4E3"/>
  <path d="M10 27.4H6.3V31H10v-3.6z" fill="#CA3E32"/>
  <path d="M13.7 20.2H10v3.6h3.7v-3.6z" fill="#EFE4E3"/>
  <path d="M13.7 13H10v3.6h3.7V13zM10 16.6H6.3v3.6H10v-3.6zM13.7 9.4H10V13h3.7V9.4z" fill="#CA3E32"/>
  <path d="M10 20.2H6.3v3.6H10v-3.6zM24.8 23.8h-3.7v3.6h3.7v-3.6zM24.8 16.6h-3.7v3.6h3.7v-3.6z" fill="#CA3E32"/>
  <path d="M24.8 20.2h-3.7v3.6h3.7v-3.6zM24.8 13h-3.7v3.6h3.7V13z" fill="#CA3E32"/>
  <path d="M50.7 27.4H47V31h3.7v-3.6z" fill="#191919"/>
  <path d="M50.7 23.8H47v3.6h3.7v-3.6zM50.7 20.2H47v3.6h3.7v-3.6z" fill="#191919"/>
  <path d="M50.7 16.6H47v3.6h3.7v-3.6zM50.7 13H47v3.6h3.7V13zM47 31h-3.7v3.6H47V31zM47 9.4h-3.7V13H47V9.4zM43.3 34.6h-3.7v3.6h3.7v-3.6zM43.3 5.8h-3.7v3.6h3.7V5.8zM39.6 38.2H36v3.6h3.7v-3.6z" fill="#191919"/>
  <path d="M39.6 5.8H36v3.6h3.7V5.8zM36 41.8h-3.8v3.6H36v-3.6zM36 5.8h-3.8v3.6H36V5.8zM32.2 45.4h-3.7V49h3.7v-3.6zM32.2 9.4h-3.7V13h3.7V9.4zM28.5 49h-3.7v3.5h3.7V49zM28.5 16.6h-3.7v3.6h3.7v-3.6zM28.5 13h-3.7v3.6h3.7V13zM24.8 45.4h-3.7V49h3.7v-3.6zM24.8 9.4h-3.7V13h3.7V9.4zM21.1 41.8h-3.7v3.6h3.7v-3.6zM21.1 5.8h-3.7v3.6h3.7V5.8zM17.4 38.2h-3.7v3.6h3.7v-3.6zM17.4 5.8h-3.7v3.6h3.7V5.8zM13.7 34.6H10v3.6h3.7v-3.6zM13.7 5.8H10v3.6h3.7V5.8zM10 31H6.3v3.6H10V31zM10 9.4H6.3V13H10V9.4zM6.3 27.4H2.6V31h3.7v-3.6z" fill="#191919"/>
  <path d="M6.3 23.8H2.6v3.6h3.7v-3.6zM6.3 20.2H2.6v3.6h3.7v-3.6z" fill="#191919"/>
  <path d="M6.3 16.6H2.6v3.6h3.7v-3.6zM6.3 13H2.6v3.6h3.7V13z" fill="#191919"/>
</svg>
