<svg width="20" height="23" viewBox="0 0 20 23" fill="none" xmlns="http://www.w3.org/2000/svg">
<path d="M12.1519 22.1115C11.8479 22.0315 11.5519 21.8555 11.2639 21.5835C10.9759 21.3275 10.8239 21.0795 10.8079 20.8395C10.8239 20.7915 10.8319 20.6955 10.8319 20.5515C10.8319 20.4075 10.8639 20.2795 10.9279 20.1675C10.9279 20.1675 10.9759 20.1915 11.0719 20.2395C11.1839 20.2875 11.3679 20.2795 11.6239 20.2155C11.9439 20.2315 12.1839 20.1995 12.3439 20.1195C12.5039 20.0395 12.7039 19.8635 12.9439 19.5915C13.1199 19.3515 13.3199 19.1035 13.5439 18.8475C13.7839 18.5755 13.9439 18.3355 14.0239 18.1275C14.2799 17.9515 14.4639 17.7915 14.5759 17.6475C14.6879 17.4875 14.7919 17.3275 14.8879 17.1675C14.8879 17.0875 14.9119 16.9435 14.9599 16.7355C15.0079 16.5115 15.1279 16.2475 15.3199 15.9435C15.4959 15.5435 15.6639 15.2075 15.8239 14.9355C15.9839 14.6475 16.0639 14.4635 16.0639 14.3835C16.0639 14.3835 16.0879 14.3275 16.1359 14.2155C16.1839 14.1035 16.1999 13.9675 16.1839 13.8075C16.2799 13.7595 16.3599 13.6555 16.4239 13.4955C16.5039 13.3195 16.5359 13.1435 16.5199 12.9675C16.5199 12.9195 16.5919 12.7355 16.7359 12.4155C16.8799 12.0795 16.9599 11.7435 16.9759 11.4075C17.1519 10.8315 17.2799 10.3195 17.3599 9.87146C17.4559 9.40746 17.5279 8.90346 17.5759 8.35946C17.6239 7.81546 17.6719 7.11946 17.7199 6.27146C17.7519 5.55146 17.7759 5.01546 17.7919 4.66347C17.8079 4.29547 17.7999 4.01547 17.7679 3.82346C17.7519 3.63146 17.6799 3.43946 17.5519 3.24746C17.3919 2.73546 17.2559 2.47946 17.1439 2.47946C17.0959 2.47946 17.0559 2.38346 17.0239 2.19146C16.9919 1.99946 17.0079 1.79147 17.0719 1.56747C17.0559 1.50346 17.1679 1.43146 17.4079 1.35146C17.6639 1.27147 17.8639 1.23946 18.0079 1.25546C18.1199 1.25546 18.2399 1.30346 18.3679 1.39946C18.5119 1.47946 18.6079 1.55146 18.6559 1.61546C18.7199 1.55146 18.8159 1.65546 18.9439 1.92746C19.0879 2.19946 19.2399 2.56747 19.3999 3.03146C19.4959 3.25546 19.5679 3.44746 19.6159 3.60746C19.6639 3.75146 19.6959 3.91946 19.7119 4.11147C19.7279 4.28746 19.7279 4.54346 19.7119 4.87946C19.6959 5.19946 19.6719 5.64746 19.6399 6.22346C19.6399 6.78346 19.5999 7.39947 19.5199 8.07147C19.4559 8.72747 19.3759 9.37547 19.2799 10.0155C19.1839 10.6395 19.0799 11.2075 18.9679 11.7195C18.8559 12.1355 18.7039 12.6395 18.5119 13.2315C18.3199 13.8075 18.1039 14.3915 17.8639 14.9835C17.6399 15.5755 17.4239 16.1035 17.2159 16.5675C17.0239 17.0315 16.8639 17.3595 16.7359 17.5515C16.7679 17.5515 16.7199 17.6475 16.5919 17.8395C16.4799 18.0315 16.3199 18.2795 16.1119 18.5835C15.9199 18.8715 15.7199 19.1675 15.5119 19.4715C15.3039 19.7915 15.1279 20.0635 14.9839 20.2875C14.7439 20.6235 14.4399 20.9435 14.0719 21.2475C13.7039 21.5515 13.3439 21.7835 12.9919 21.9435C12.6559 22.1195 12.3759 22.1755 12.1519 22.1115Z" fill="white"/>
<path d="M3.50544 22.1833C2.73744 22.0713 2.08944 21.7273 1.56144 21.1513C1.03344 20.5913 0.657444 19.9673 0.433444 19.2793C0.129444 18.6073 -0.0145559 17.7353 0.00144415 16.6633C0.0174442 15.5753 0.177444 14.4713 0.481444 13.3513C0.561444 13.0473 0.633444 12.7353 0.697444 12.4153C0.761444 12.0953 0.801444 11.8793 0.817444 11.7673C0.865444 11.6073 0.969444 11.3433 1.12944 10.9753C1.28944 10.6073 1.47344 10.1913 1.68144 9.72729C1.88944 9.2473 2.08944 8.7753 2.28144 8.3113C2.48944 7.8313 2.66544 7.40729 2.80944 7.03929C2.98544 6.6393 3.24144 6.16729 3.57744 5.62329C3.92944 5.07929 4.28944 4.5353 4.65744 3.9913C5.04144 3.44729 5.38544 2.97529 5.68945 2.57529C6.00944 2.17529 6.23344 1.92729 6.36144 1.83129C6.44144 1.75129 6.55344 1.64729 6.69744 1.51929C6.84144 1.39129 6.96944 1.31929 7.08144 1.30329C7.14544 1.12729 7.27344 0.983294 7.46545 0.871294C7.65744 0.759294 7.82544 0.703295 7.96944 0.703295C8.33744 0.511294 8.72944 0.455294 9.14544 0.535294C9.56144 0.615294 9.83344 0.895294 9.96144 1.37529C10.0094 1.59929 10.0094 1.74329 9.96144 1.80729C9.92944 1.87129 9.75344 1.9753 9.43344 2.1193C9.27344 2.1833 9.07344 2.27929 8.83344 2.40729C8.59344 2.51929 8.41744 2.6393 8.30544 2.7673C8.16144 2.9433 8.00144 3.11929 7.82544 3.29529C7.64944 3.47129 7.51344 3.5913 7.41744 3.6553C7.12944 3.76729 6.98544 3.89529 6.98544 4.03929C6.98544 4.03929 6.91344 4.17529 6.76944 4.4473C6.64144 4.71929 6.42544 5.04729 6.12144 5.43129C5.92944 5.73529 5.70544 6.1113 5.44944 6.5593C5.19344 7.0073 4.99344 7.34329 4.84944 7.56729C4.70544 7.82329 4.58544 8.03929 4.48944 8.21529C4.40944 8.37529 4.28944 8.54329 4.12944 8.71929C4.12944 8.76729 4.10544 8.8793 4.05744 9.05529C4.00944 9.23129 3.91344 9.4313 3.76944 9.6553C3.67344 10.0073 3.48144 10.4793 3.19344 11.0713C3.08144 11.3273 2.94544 11.6633 2.78544 12.0793C2.64144 12.4953 2.51344 12.8953 2.40144 13.2793C2.30544 13.6633 2.25744 13.9353 2.25744 14.0953C2.22544 14.0953 2.19344 14.1433 2.16144 14.2393C2.14544 14.3193 2.11344 14.5113 2.06544 14.8153C2.03344 15.1033 1.96944 15.5753 1.87344 16.2313C1.85744 16.9513 1.87344 17.5433 1.92144 18.0073C1.98544 18.4713 2.10544 18.8633 2.28144 19.1833C2.45744 19.5193 2.68944 19.8473 2.97744 20.1673C3.15344 20.3273 3.32944 20.4473 3.50544 20.5273C3.68144 20.6073 3.88944 20.6553 4.12944 20.6713L4.94544 21.1753C4.84944 21.5433 4.64944 21.8073 4.34544 21.9673C4.05744 22.1433 3.77744 22.2153 3.50544 22.1833Z" fill="white"/>
</svg>
