<svg width="28" height="28" viewBox="0 0 28 28" fill="none" xmlns="http://www.w3.org/2000/svg">
<path d="M18.0906 12.872C17.9946 12.872 17.8666 12.872 17.7066 12.872C17.5626 12.856 17.3546 12.816 17.0826 12.752C16.8426 12.752 16.6506 12.728 16.5066 12.68C16.3626 12.616 16.2586 12.528 16.1946 12.416C15.9706 12.176 15.9466 11.936 16.1226 11.696C16.2986 11.44 16.7946 11.32 17.6106 11.336C18.2346 11.208 18.8986 11.12 19.6026 11.072C20.3066 11.024 21.0266 11 21.7626 11C22.2586 11 22.6106 11.048 22.8186 11.144C23.0426 11.224 23.2426 11.352 23.4186 11.528C23.7066 11.768 23.8106 12.032 23.7306 12.32C23.6506 12.592 23.4186 12.696 23.0346 12.632C22.8746 12.648 22.5866 12.664 22.1706 12.68C21.7706 12.696 21.3866 12.72 21.0186 12.752C20.9066 12.752 20.6826 12.768 20.3466 12.8C20.0266 12.816 19.6586 12.832 19.2426 12.848C18.8426 12.864 18.4586 12.872 18.0906 12.872ZM16.7706 16.304C16.6746 16.304 16.5466 16.304 16.3866 16.304C16.2426 16.288 16.0426 16.248 15.7866 16.184C15.5306 16.184 15.3306 16.16 15.1866 16.112C15.0586 16.048 14.9626 15.96 14.8986 15.848C14.6746 15.608 14.6506 15.368 14.8266 15.128C15.0026 14.872 15.4906 14.752 16.2906 14.768C16.9146 14.64 17.5786 14.552 18.2826 14.504C18.9866 14.456 19.7066 14.432 20.4426 14.432C20.9386 14.432 21.2986 14.48 21.5226 14.576C21.7466 14.672 21.9466 14.808 22.1226 14.984C22.4106 15.224 22.5066 15.48 22.4106 15.752C22.3306 16.024 22.1066 16.128 21.7386 16.064C21.5786 16.08 21.2826 16.096 20.8506 16.112C20.4186 16.128 20.0186 16.152 19.6506 16.184C19.5386 16.184 19.3226 16.2 19.0026 16.232C18.6826 16.248 18.3226 16.264 17.9226 16.28C17.5226 16.296 17.1386 16.304 16.7706 16.304Z" fill="white"/>
<path d="M7.37967 12.872C7.28367 12.872 7.15567 12.872 6.99567 12.872C6.85167 12.856 6.64367 12.816 6.37167 12.752C6.13167 12.752 5.93967 12.728 5.79567 12.68C5.65167 12.616 5.54767 12.528 5.48367 12.416C5.25967 12.176 5.23567 11.936 5.41167 11.696C5.58767 11.44 6.08367 11.32 6.89967 11.336C7.52367 11.208 8.18767 11.12 8.89167 11.072C9.59567 11.024 10.3157 11 11.0517 11C11.5477 11 11.8997 11.048 12.1077 11.144C12.3317 11.224 12.5317 11.352 12.7077 11.528C12.9957 11.768 13.0997 12.032 13.0197 12.32C12.9397 12.592 12.7077 12.696 12.3237 12.632C12.1637 12.648 11.8757 12.664 11.4597 12.68C11.0597 12.696 10.6757 12.72 10.3077 12.752C10.1957 12.752 9.97167 12.768 9.63567 12.8C9.31567 12.816 8.94767 12.832 8.53167 12.848C8.13167 12.864 7.74767 12.872 7.37967 12.872ZM6.05967 16.304C5.96367 16.304 5.83567 16.304 5.67567 16.304C5.53167 16.288 5.33167 16.248 5.07567 16.184C4.81967 16.184 4.61967 16.16 4.47567 16.112C4.34767 16.048 4.25167 15.96 4.18767 15.848C3.96367 15.608 3.93967 15.368 4.11567 15.128C4.29167 14.872 4.77967 14.752 5.57967 14.768C6.20367 14.64 6.86767 14.552 7.57167 14.504C8.27567 14.456 8.99567 14.432 9.73167 14.432C10.2277 14.432 10.5877 14.48 10.8117 14.576C11.0357 14.672 11.2357 14.808 11.4117 14.984C11.6997 15.224 11.7957 15.48 11.6997 15.752C11.6197 16.024 11.3957 16.128 11.0277 16.064C10.8677 16.08 10.5717 16.096 10.1397 16.112C9.70767 16.128 9.30767 16.152 8.93967 16.184C8.82767 16.184 8.61167 16.2 8.29167 16.232C7.97167 16.248 7.61167 16.264 7.21167 16.28C6.81167 16.296 6.42767 16.304 6.05967 16.304Z" fill="white"/>
</svg>
