<svg width="20" height="22" viewBox="0 0 20 22" fill="none" xmlns="http://www.w3.org/2000/svg">
<path d="M9.57766 21.3217C9.09766 21.3377 8.74566 21.0897 8.52166 20.5777C8.31366 20.0817 8.43366 19.2977 8.88166 18.2257C8.97766 18.0497 9.06566 17.8737 9.14566 17.6977C9.24166 17.5217 9.29766 17.3777 9.31366 17.2657C9.36166 17.1537 9.46566 16.9377 9.62566 16.6177C9.78566 16.2817 9.98566 15.8817 10.2257 15.4177C10.4657 14.9537 10.7137 14.4737 10.9697 13.9777C11.2417 13.4817 11.4897 13.0177 11.7137 12.5857C11.9537 12.1377 12.1537 11.7697 12.3137 11.4817C12.4737 11.1937 12.5697 11.0257 12.6017 10.9777C12.6817 10.9937 12.7537 10.9537 12.8177 10.8577C12.8817 10.7457 12.9217 10.6337 12.9377 10.5217C12.9697 10.3777 13.0257 10.2337 13.1057 10.0897C13.1857 9.94571 13.2657 9.85772 13.3457 9.82572C13.3617 9.74572 13.3937 9.65771 13.4417 9.56171C13.4897 9.46571 13.5217 9.38571 13.5377 9.32171C13.5537 9.25771 13.5857 9.20171 13.6337 9.15371C13.6817 9.08971 13.7057 9.02571 13.7057 8.96171C13.8337 8.80171 14.0257 8.50571 14.2817 8.07371C14.5537 7.64171 14.8577 7.13771 15.1937 6.56171C15.5297 5.96971 15.8737 5.36171 16.2257 4.73771C16.5777 4.09771 16.9057 3.49771 17.2097 2.93771C17.5137 2.37771 17.7617 1.91371 17.9537 1.54571C18.1457 1.16171 18.2497 0.937714 18.2657 0.873714C18.2817 0.633714 18.4337 0.537714 18.7217 0.585714C18.8337 0.505715 18.9617 0.481714 19.1057 0.513714C19.1057 0.513714 19.1857 0.601714 19.3457 0.777713C19.5217 0.937714 19.6657 1.09771 19.7777 1.25771C19.9057 1.38571 19.9617 1.52171 19.9457 1.66571C19.9457 1.80971 19.9217 1.96971 19.8737 2.14571C19.8417 2.35371 19.7857 2.53771 19.7057 2.69771C19.6417 2.85771 19.5057 3.07371 19.2977 3.34571C19.1057 3.61771 18.8097 4.04171 18.4097 4.61771C18.3137 4.76171 18.1617 5.00171 17.9537 5.33771C17.7617 5.67371 17.5537 6.02571 17.3297 6.39371C17.1217 6.76171 16.9457 7.08171 16.8017 7.35371C16.6577 7.62571 16.5857 7.77771 16.5857 7.80971C16.5697 7.87371 16.5137 7.96971 16.4177 8.09771C16.3377 8.20971 16.2577 8.36171 16.1777 8.55371C16.0817 8.66571 15.9537 8.84171 15.7937 9.08171C15.6497 9.30571 15.4977 9.54572 15.3377 9.80171C15.1777 10.0417 15.0337 10.2577 14.9057 10.4497C14.7937 10.6257 14.7377 10.7297 14.7377 10.7617C14.7217 10.8097 14.6977 10.8657 14.6657 10.9297C14.6497 10.9937 14.6017 11.0497 14.5217 11.0977C14.4737 11.0817 14.4337 11.1217 14.4017 11.2177C14.3697 11.2977 14.3537 11.3377 14.3537 11.3377C14.3857 11.4657 14.1937 11.8657 13.7777 12.5377C13.6177 12.8737 13.4017 13.3137 13.1297 13.8577C12.8577 14.4017 12.5617 14.9857 12.2417 15.6097C11.9377 16.2337 11.6417 16.8417 11.3537 17.4337C11.0657 18.0257 10.8257 18.5457 10.6337 18.9937C10.4417 19.4417 10.3297 19.7537 10.2977 19.9297C10.2337 20.2977 10.1297 20.6097 9.98566 20.8657C9.84166 21.1217 9.70566 21.2737 9.57766 21.3217Z" fill="white"/>
<path d="M1.65578 21.3217C1.17578 21.3377 0.823781 21.0897 0.599781 20.5777C0.391781 20.0817 0.511781 19.2977 0.959781 18.2257C1.05578 18.0497 1.14378 17.8737 1.22378 17.6977C1.31978 17.5217 1.37578 17.3777 1.39178 17.2657C1.43978 17.1537 1.54378 16.9377 1.70378 16.6177C1.86378 16.2817 2.06378 15.8817 2.30378 15.4177C2.54378 14.9537 2.79178 14.4737 3.04778 13.9777C3.31978 13.4817 3.56778 13.0177 3.79178 12.5857C4.03178 12.1377 4.23178 11.7697 4.39178 11.4817C4.55178 11.1937 4.64778 11.0257 4.67978 10.9777C4.75978 10.9937 4.83178 10.9537 4.89578 10.8577C4.95978 10.7457 4.99978 10.6337 5.01578 10.5217C5.04778 10.3777 5.10378 10.2337 5.18378 10.0897C5.26378 9.94571 5.34378 9.85772 5.42378 9.82572C5.43978 9.74572 5.47178 9.65771 5.51978 9.56171C5.56778 9.46571 5.59978 9.38571 5.61578 9.32171C5.63178 9.25771 5.66378 9.20171 5.71178 9.15371C5.75978 9.08971 5.78378 9.02571 5.78378 8.96171C5.91178 8.80171 6.10378 8.50571 6.35978 8.07371C6.63178 7.64171 6.93578 7.13771 7.27178 6.56171C7.60778 5.96971 7.95178 5.36171 8.30378 4.73771C8.65578 4.09771 8.98378 3.49771 9.28778 2.93771C9.59178 2.37771 9.83978 1.91371 10.0318 1.54571C10.2238 1.16171 10.3278 0.937714 10.3438 0.873714C10.3598 0.633714 10.5118 0.537714 10.7998 0.585714C10.9118 0.505715 11.0398 0.481714 11.1838 0.513714C11.1838 0.513714 11.2638 0.601714 11.4238 0.777713C11.5998 0.937714 11.7438 1.09771 11.8558 1.25771C11.9838 1.38571 12.0398 1.52171 12.0238 1.66571C12.0238 1.80971 11.9998 1.96971 11.9518 2.14571C11.9198 2.35371 11.8638 2.53771 11.7838 2.69771C11.7198 2.85771 11.5838 3.07371 11.3758 3.34571C11.1838 3.61771 10.8878 4.04171 10.4878 4.61771C10.3918 4.76171 10.2398 5.00171 10.0318 5.33771C9.83978 5.67371 9.63178 6.02571 9.40778 6.39371C9.19978 6.76171 9.02378 7.08171 8.87978 7.35371C8.73578 7.62571 8.66378 7.77771 8.66378 7.80971C8.64778 7.87371 8.59178 7.96971 8.49578 8.09771C8.41578 8.20971 8.33578 8.36171 8.25578 8.55371C8.15978 8.66571 8.03178 8.84171 7.87178 9.08171C7.72778 9.30571 7.57578 9.54572 7.41578 9.80171C7.25578 10.0417 7.11178 10.2577 6.98378 10.4497C6.87178 10.6257 6.81578 10.7297 6.81578 10.7617C6.79978 10.8097 6.77578 10.8657 6.74378 10.9297C6.72778 10.9937 6.67978 11.0497 6.59978 11.0977C6.55178 11.0817 6.51178 11.1217 6.47978 11.2177C6.44778 11.2977 6.43178 11.3377 6.43178 11.3377C6.46378 11.4657 6.27178 11.8657 5.85578 12.5377C5.69578 12.8737 5.47978 13.3137 5.20778 13.8577C4.93578 14.4017 4.63978 14.9857 4.31978 15.6097C4.01578 16.2337 3.71978 16.8417 3.43178 17.4337C3.14378 18.0257 2.90378 18.5457 2.71178 18.9937C2.51978 19.4417 2.40778 19.7537 2.37578 19.9297C2.31178 20.2977 2.20778 20.6097 2.06378 20.8657C1.91978 21.1217 1.78378 21.2737 1.65578 21.3217Z" fill="white"/>
</svg>
