<svg width="29" height="22" viewBox="0 0 29 22" fill="none" xmlns="http://www.w3.org/2000/svg">
<path d="M21.3653 18.0819C21.2693 18.1139 21.1173 18.0499 20.9093 17.8899C20.7173 17.7139 20.5813 17.6019 20.5013 17.5539C20.3413 17.4259 20.2213 17.3459 20.1413 17.3139C20.0613 17.2659 20.0053 17.1779 19.9733 17.0499C19.9733 17.0499 19.9893 16.9779 20.0213 16.8339C20.0693 16.6899 20.1493 16.5699 20.2613 16.4739C20.4853 16.2819 20.7733 16.0979 21.1253 15.9219C21.4933 15.7299 21.9333 15.4979 22.4453 15.2259C22.9733 14.9539 23.5813 14.6099 24.2693 14.1939C24.7013 13.9219 25.0293 13.7379 25.2533 13.6419C25.4773 13.5459 25.6213 13.4579 25.6853 13.3779C25.7493 13.2979 25.7653 13.1539 25.7333 12.9459C25.4613 12.6259 25.0133 12.3059 24.3893 11.9859C23.7813 11.6499 22.8773 11.2979 21.6773 10.9299C21.0853 10.7379 20.6453 10.5619 20.3573 10.4019C20.0693 10.2259 19.8773 10.0499 19.7813 9.87387C19.7013 9.69787 19.6773 9.50587 19.7093 9.29787C19.7893 9.15387 19.9893 9.04187 20.3093 8.96187C20.6293 8.86587 20.9893 8.81787 21.3893 8.81787C21.8053 8.81787 22.1813 8.89787 22.5173 9.05787C23.0133 9.18587 23.4453 9.30587 23.8133 9.41787C24.1813 9.51387 24.5893 9.73787 25.0373 10.0899C25.5813 10.3939 26.0133 10.6499 26.3333 10.8579C26.6693 11.0659 26.9893 11.3859 27.2933 11.8179L28.0853 12.7779L28.3493 14.0499C28.2213 14.0659 28.1013 14.1059 27.9893 14.1699C27.8773 14.2339 27.8053 14.2739 27.7733 14.2899C27.5813 14.3859 27.3813 14.5059 27.1733 14.6499C26.9813 14.7779 26.7173 14.9539 26.3813 15.1779C26.0453 15.3859 25.5733 15.6659 24.9653 16.0179C24.2293 16.4019 23.5893 16.7539 23.0453 17.0739C22.5013 17.3939 22.1493 17.6339 21.9893 17.7939C21.8933 17.9059 21.7813 17.9859 21.6533 18.0339C21.5413 18.0659 21.4453 18.0819 21.3653 18.0819Z" fill="white"/>
<path d="M10.5874 21.3217C10.1074 21.3377 9.75542 21.0897 9.53142 20.5777C9.32342 20.0817 9.44342 19.2977 9.89142 18.2257C9.98742 18.0497 10.0754 17.8737 10.1554 17.6977C10.2514 17.5217 10.3074 17.3777 10.3234 17.2657C10.3714 17.1537 10.4754 16.9377 10.6354 16.6177C10.7954 16.2817 10.9954 15.8817 11.2354 15.4177C11.4754 14.9537 11.7234 14.4737 11.9794 13.9777C12.2514 13.4817 12.4994 13.0177 12.7234 12.5857C12.9634 12.1377 13.1634 11.7697 13.3234 11.4817C13.4834 11.1937 13.5794 11.0257 13.6114 10.9777C13.6914 10.9937 13.7634 10.9537 13.8274 10.8577C13.8914 10.7457 13.9314 10.6337 13.9474 10.5217C13.9794 10.3777 14.0354 10.2337 14.1154 10.0897C14.1954 9.94571 14.2754 9.85772 14.3554 9.82572C14.3714 9.74572 14.4034 9.65771 14.4514 9.56171C14.4994 9.46571 14.5314 9.38571 14.5474 9.32171C14.5634 9.25771 14.5954 9.20171 14.6434 9.15371C14.6914 9.08971 14.7154 9.02571 14.7154 8.96171C14.8434 8.80171 15.0354 8.50571 15.2914 8.07371C15.5634 7.64171 15.8674 7.13771 16.2034 6.56171C16.5394 5.96971 16.8834 5.36171 17.2354 4.73771C17.5874 4.09771 17.9154 3.49771 18.2194 2.93771C18.5234 2.37771 18.7714 1.91371 18.9634 1.54571C19.1554 1.16171 19.2594 0.937714 19.2754 0.873714C19.2914 0.633714 19.4434 0.537714 19.7314 0.585714C19.8434 0.505715 19.9714 0.481714 20.1154 0.513714C20.1154 0.513714 20.1954 0.601714 20.3554 0.777713C20.5314 0.937714 20.6754 1.09771 20.7874 1.25771C20.9154 1.38571 20.9714 1.52171 20.9554 1.66571C20.9554 1.80971 20.9314 1.96971 20.8834 2.14571C20.8514 2.35371 20.7954 2.53771 20.7154 2.69771C20.6514 2.85771 20.5154 3.07371 20.3074 3.34571C20.1154 3.61771 19.8194 4.04171 19.4194 4.61771C19.3234 4.76171 19.1714 5.00171 18.9634 5.33771C18.7714 5.67371 18.5634 6.02571 18.3394 6.39371C18.1314 6.76171 17.9554 7.08171 17.8114 7.35371C17.6674 7.62571 17.5954 7.77771 17.5954 7.80971C17.5794 7.87371 17.5234 7.96971 17.4274 8.09771C17.3474 8.20971 17.2674 8.36171 17.1874 8.55371C17.0914 8.66571 16.9634 8.84171 16.8034 9.08171C16.6594 9.30571 16.5074 9.54572 16.3474 9.80171C16.1874 10.0417 16.0434 10.2577 15.9154 10.4497C15.8034 10.6257 15.7474 10.7297 15.7474 10.7617C15.7314 10.8097 15.7074 10.8657 15.6754 10.9297C15.6594 10.9937 15.6114 11.0497 15.5314 11.0977C15.4834 11.0817 15.4434 11.1217 15.4114 11.2177C15.3794 11.2977 15.3634 11.3377 15.3634 11.3377C15.3954 11.4657 15.2034 11.8657 14.7874 12.5377C14.6274 12.8737 14.4114 13.3137 14.1394 13.8577C13.8674 14.4017 13.5714 14.9857 13.2514 15.6097C12.9474 16.2337 12.6514 16.8417 12.3634 17.4337C12.0754 18.0257 11.8354 18.5457 11.6434 18.9937C11.4514 19.4417 11.3394 19.7537 11.3074 19.9297C11.2434 20.2977 11.1394 20.6097 10.9954 20.8657C10.8514 21.1217 10.7154 21.2737 10.5874 21.3217Z" fill="white"/>
<path d="M6.33249 17.5299C5.83649 17.4019 5.40449 17.2899 5.03649 17.1939C4.66849 17.0819 4.26049 16.8499 3.81249 16.4979C3.26849 16.1779 2.82849 15.9219 2.49249 15.7299C2.17249 15.5219 1.86049 15.2019 1.55649 14.7699L0.764488 13.8099L0.500488 12.5379C0.628488 12.5059 0.748488 12.4659 0.860488 12.4179C0.988488 12.3539 1.06049 12.3139 1.07649 12.2979C1.26849 12.2019 1.46049 12.0899 1.65249 11.9619C1.86049 11.8179 2.13249 11.6339 2.46849 11.4099C2.80449 11.1859 3.27649 10.9059 3.88449 10.5699C4.63649 10.1859 5.27649 9.83392 5.80449 9.51392C6.34849 9.19392 6.70049 8.95392 6.86049 8.79392C6.95649 8.68192 7.06849 8.60992 7.19649 8.57792C7.32449 8.52992 7.42049 8.50592 7.48449 8.50592C7.58049 8.47392 7.73249 8.54592 7.94049 8.72192C8.14849 8.88192 8.28449 8.98592 8.34849 9.03392C8.52449 9.14592 8.65249 9.22592 8.73249 9.27392C8.81249 9.32192 8.86049 9.40992 8.87649 9.53792C8.87649 9.53792 8.85249 9.60992 8.80449 9.75392C8.77249 9.89792 8.70049 10.0179 8.58849 10.1139C8.38049 10.2899 8.09249 10.4739 7.72449 10.6659C7.37249 10.8579 6.93249 11.0899 6.40449 11.3619C5.89249 11.6179 5.28449 11.9619 4.58049 12.3939C4.14849 12.6499 3.82049 12.8339 3.59649 12.9459C3.37249 13.0419 3.22849 13.1299 3.16449 13.2099C3.10049 13.2899 3.08449 13.4339 3.11649 13.6419C3.38849 13.9619 3.82849 14.2899 4.43649 14.6259C5.06049 14.9459 5.97249 15.2899 7.17249 15.6579C7.76449 15.8339 8.20449 16.0099 8.49249 16.1859C8.79649 16.3619 8.98849 16.5379 9.06849 16.7139C9.14849 16.8899 9.17249 17.0819 9.14049 17.2899C9.06049 17.4339 8.86049 17.5539 8.54049 17.6499C8.22049 17.7299 7.85249 17.7699 7.43649 17.7699C7.03649 17.7539 6.66849 17.6739 6.33249 17.5299Z" fill="white"/>
</svg>
