<svg width="20" height="6" viewBox="0 0 20 6" fill="none" xmlns="http://www.w3.org/2000/svg">
<path d="M14.0906 2.372C13.9946 2.372 13.8666 2.372 13.7066 2.372C13.5626 2.356 13.3546 2.316 13.0826 2.252C12.8426 2.252 12.6506 2.228 12.5066 2.18C12.3626 2.116 12.2586 2.028 12.1946 1.916C11.9706 1.676 11.9466 1.436 12.1226 1.196C12.2986 0.94 12.7946 0.820001 13.6106 0.836C14.2346 0.708001 14.8986 0.62 15.6026 0.572001C16.3066 0.524 17.0266 0.5 17.7626 0.5C18.2586 0.5 18.6106 0.548 18.8186 0.644C19.0426 0.724 19.2426 0.852 19.4186 1.028C19.7066 1.268 19.8106 1.532 19.7306 1.82C19.6506 2.092 19.4186 2.196 19.0346 2.132C18.8746 2.148 18.5866 2.164 18.1706 2.18C17.7706 2.196 17.3866 2.22 17.0186 2.252C16.9066 2.252 16.6826 2.268 16.3466 2.3C16.0266 2.316 15.6586 2.332 15.2426 2.348C14.8426 2.364 14.4586 2.372 14.0906 2.372ZM12.7706 5.804C12.6746 5.804 12.5466 5.804 12.3866 5.804C12.2426 5.788 12.0426 5.748 11.7866 5.684C11.5306 5.684 11.3306 5.66 11.1866 5.612C11.0586 5.548 10.9626 5.46 10.8986 5.348C10.6746 5.108 10.6506 4.868 10.8266 4.628C11.0026 4.372 11.4906 4.252 12.2906 4.268C12.9146 4.14 13.5786 4.052 14.2826 4.004C14.9866 3.956 15.7066 3.932 16.4426 3.932C16.9386 3.932 17.2986 3.98 17.5226 4.076C17.7466 4.172 17.9466 4.308 18.1226 4.484C18.4106 4.724 18.5066 4.98 18.4106 5.252C18.3306 5.524 18.1066 5.628 17.7386 5.564C17.5786 5.58 17.2826 5.596 16.8506 5.612C16.4186 5.628 16.0186 5.652 15.6506 5.684C15.5386 5.684 15.3226 5.7 15.0026 5.732C14.6826 5.748 14.3226 5.764 13.9226 5.78C13.5226 5.796 13.1386 5.804 12.7706 5.804Z" fill="white"/>
<path d="M3.37967 2.372C3.28367 2.372 3.15567 2.372 2.99567 2.372C2.85167 2.356 2.64367 2.316 2.37167 2.252C2.13167 2.252 1.93967 2.228 1.79567 2.18C1.65167 2.116 1.54767 2.028 1.48367 1.916C1.25967 1.676 1.23567 1.436 1.41167 1.196C1.58767 0.94 2.08367 0.820001 2.89967 0.836C3.52367 0.708001 4.18767 0.62 4.89167 0.572001C5.59567 0.524 6.31567 0.5 7.05167 0.5C7.54767 0.5 7.89967 0.548 8.10767 0.644C8.33167 0.724 8.53167 0.852 8.70767 1.028C8.99567 1.268 9.09967 1.532 9.01967 1.82C8.93967 2.092 8.70767 2.196 8.32367 2.132C8.16367 2.148 7.87567 2.164 7.45967 2.18C7.05967 2.196 6.67567 2.22 6.30767 2.252C6.19567 2.252 5.97167 2.268 5.63567 2.3C5.31567 2.316 4.94767 2.332 4.53167 2.348C4.13167 2.364 3.74767 2.372 3.37967 2.372ZM2.05967 5.804C1.96367 5.804 1.83567 5.804 1.67567 5.804C1.53167 5.788 1.33167 5.748 1.07567 5.684C0.819672 5.684 0.619672 5.66 0.475672 5.612C0.347672 5.548 0.251672 5.46 0.187672 5.348C-0.0363283 5.108 -0.0603283 4.868 0.115672 4.628C0.291672 4.372 0.779672 4.252 1.57967 4.268C2.20367 4.14 2.86767 4.052 3.57167 4.004C4.27567 3.956 4.99567 3.932 5.73167 3.932C6.22767 3.932 6.58767 3.98 6.81167 4.076C7.03567 4.172 7.23567 4.308 7.41167 4.484C7.69967 4.724 7.79567 4.98 7.69967 5.252C7.61967 5.524 7.39567 5.628 7.02767 5.564C6.86767 5.58 6.57167 5.596 6.13967 5.612C5.70767 5.628 5.30767 5.652 4.93967 5.684C4.82767 5.684 4.61167 5.7 4.29167 5.732C3.97167 5.748 3.61167 5.764 3.21167 5.78C2.81167 5.796 2.42767 5.804 2.05967 5.804Z" fill="white"/>
</svg>
