<svg width="28" height="28" viewBox="0 0 28 28" fill="none" xmlns="http://www.w3.org/2000/svg">
<path d="M17.6107 24.2402C17.1787 24.2562 16.7867 24.1442 16.4347 23.9042C16.0827 23.6802 15.9067 23.4802 15.9067 23.3042C15.9067 23.2242 15.9307 23.1602 15.9787 23.1122C16.0267 23.0642 16.0507 23.0402 16.0507 23.0402C16.1307 23.1042 16.2107 23.1362 16.2907 23.1362C16.3707 23.1362 16.4107 23.1042 16.4107 23.0402C16.4107 23.0402 16.4907 22.9842 16.6507 22.8722C16.8107 22.7762 17.0267 22.6722 17.2987 22.5602C17.7627 22.4802 18.0907 22.3922 18.2827 22.2962C18.4907 22.2162 18.6267 22.0802 18.6907 21.8882C18.7707 21.6962 18.8507 21.4002 18.9307 21.0002C18.9787 20.8082 19.0187 20.6322 19.0507 20.4722C19.0987 20.2962 19.1227 20.1762 19.1227 20.1122C19.1227 20.0642 19.1307 19.8082 19.1467 19.3442C19.1787 18.8642 19.1787 18.3122 19.1467 17.6882C19.1147 16.9842 19.0907 16.4722 19.0747 16.1522C19.0747 15.8162 19.0907 15.5762 19.1227 15.4322C19.1707 15.2722 19.2347 15.1122 19.3147 14.9522C19.4427 14.8242 19.5147 14.7042 19.5307 14.5922C19.5627 14.4642 19.5627 14.3202 19.5307 14.1602C19.4027 13.8402 19.3547 13.5522 19.3867 13.2962C19.4187 13.0242 19.4987 12.8402 19.6267 12.7442C19.8987 12.4402 20.1147 12.2002 20.2747 12.0242C20.4347 11.8482 20.5707 11.6722 20.6827 11.4962C20.8107 11.3042 20.9467 11.0642 21.0907 10.7762C21.5067 10.1202 21.8667 9.47225 22.1707 8.83225C22.4747 8.17625 22.6827 7.60825 22.7947 7.12825C22.7947 7.06425 22.7947 7.00825 22.7947 6.96025C22.7947 6.91225 22.7947 6.88825 22.7947 6.88825C22.8587 6.74425 22.8827 6.60025 22.8667 6.45625C22.8507 6.29625 22.7547 6.09625 22.5787 5.85625C22.4507 5.60025 22.2907 5.40825 22.0987 5.28025C21.9067 5.15225 21.6027 5.03225 21.1867 4.92025C20.9307 4.87225 20.7867 4.72825 20.7547 4.48825C20.7227 4.24825 20.7787 4.04825 20.9227 3.88824C20.9867 3.76025 21.1147 3.65625 21.3067 3.57625C21.5147 3.48025 21.7147 3.42425 21.9067 3.40825C22.1147 3.37625 22.2507 3.40025 22.3147 3.48025C22.4427 3.60825 22.5627 3.67225 22.6747 3.67225C22.7227 3.67225 22.8587 3.76825 23.0827 3.96025C23.3227 4.13625 23.5707 4.34425 23.8267 4.58425C24.0827 4.82425 24.2507 5.02425 24.3307 5.18425C24.3947 5.23225 24.4507 5.39225 24.4987 5.66425C24.5627 5.93625 24.6027 6.16825 24.6187 6.36025C24.6667 6.55225 24.6907 6.72025 24.6907 6.86425C24.7067 6.99225 24.6907 7.14424 24.6427 7.32024C24.6107 7.48025 24.5387 7.72025 24.4267 8.04025C24.2027 8.77625 23.9947 9.39225 23.8027 9.88825C23.6267 10.3682 23.4987 10.6482 23.4187 10.7282C23.3547 10.7762 23.2907 10.8082 23.2267 10.8242C23.1787 10.8402 23.1547 10.8802 23.1547 10.9442C23.1547 11.0082 23.0827 11.1762 22.9387 11.4482C22.7947 11.7042 22.6267 11.9762 22.4347 12.2642C22.2587 12.5362 22.0987 12.7442 21.9547 12.8882C21.8907 12.9522 21.8267 13.0482 21.7627 13.1762C21.7147 13.2882 21.6907 13.3442 21.6907 13.3442C21.6907 13.3442 21.6827 13.3522 21.6667 13.3682C21.6507 13.3682 21.6027 13.3922 21.5227 13.4402C21.4107 13.5042 21.3547 13.6002 21.3547 13.7282C21.3547 13.8402 21.4107 14.0242 21.5227 14.2802C21.5547 14.4242 21.6027 14.5522 21.6667 14.6642C21.7307 14.7762 21.7947 14.8962 21.8587 15.0242C21.8587 15.2482 21.8187 15.3602 21.7387 15.3602C21.5307 15.4722 21.3707 15.6322 21.2587 15.8402C21.1627 16.0482 21.1067 16.3362 21.0907 16.7042C21.0747 17.0722 21.0747 17.5602 21.0907 18.1682C21.1067 18.5042 21.1067 18.8642 21.0907 19.2482C21.0747 19.6322 21.0507 19.9762 21.0187 20.2802C21.0027 20.5682 20.9707 20.7602 20.9227 20.8562C20.8107 21.3362 20.7067 21.7362 20.6107 22.0562C20.5307 22.3762 20.4507 22.5362 20.3707 22.5362C20.3707 22.5362 20.3547 22.5362 20.3227 22.5362C20.2907 22.5522 20.2827 22.5842 20.2987 22.6322C20.2987 22.8562 20.1547 23.0882 19.8667 23.3282C19.5947 23.5682 19.2507 23.7762 18.8347 23.9522C18.4187 24.1282 18.0107 24.2242 17.6107 24.2402Z" fill="white"/>
<path d="M5.116 24.624C4.972 24.4 4.9 24.336 4.9 24.432C4.9 24.432 4.812 24.344 4.636 24.168C4.46 24.008 4.332 23.872 4.252 23.76C4.124 23.584 4.044 23.408 4.012 23.232C3.996 23.072 3.996 22.864 4.012 22.608C4.012 22.448 4.012 22.296 4.012 22.152C4.012 22.008 4.012 21.936 4.012 21.936C4.092 21.856 4.14 21.76 4.156 21.648C4.172 21.536 4.188 21.424 4.204 21.312C4.236 21.184 4.316 20.92 4.444 20.52C4.588 20.12 4.74 19.696 4.9 19.248C5.06 18.784 5.204 18.424 5.332 18.168C5.508 17.832 5.644 17.496 5.74 17.16C5.852 16.808 5.908 16.552 5.908 16.392C5.908 16.136 5.796 15.92 5.572 15.744C5.364 15.568 5.076 15.448 4.708 15.384C4.228 15.384 4.068 15.152 4.228 14.688C4.292 14.496 4.42 14.344 4.612 14.232C4.82 14.12 5.028 14.096 5.236 14.16C5.476 14.16 5.748 14.04 6.052 13.8C6.372 13.56 6.668 13.24 6.94 12.84C7.228 12.44 7.444 12 7.588 11.52C7.78 11.008 7.924 10.512 8.02 10.032C8.116 9.536 8.196 8.896 8.26 8.112C8.308 7.488 8.404 6.952 8.548 6.504C8.692 6.056 8.892 5.648 9.148 5.28C9.404 4.896 9.724 4.52 10.108 4.152C10.332 3.864 10.596 3.656 10.9 3.528C11.204 3.4 11.444 3.288 11.62 3.192C11.94 3.064 12.284 3 12.652 3C13.036 3 13.284 3.04 13.396 3.12C13.476 3.152 13.556 3.272 13.636 3.48C13.732 3.672 13.804 3.872 13.852 4.08C13.916 4.288 13.924 4.408 13.876 4.44C13.796 4.44 13.66 4.464 13.468 4.512C13.292 4.544 13.084 4.56 12.844 4.56C12.54 4.624 12.284 4.728 12.076 4.872C11.868 5.016 11.604 5.224 11.284 5.496C11.028 5.832 10.86 6.072 10.78 6.216C10.7 6.36 10.644 6.584 10.612 6.888C10.5 7.176 10.42 7.408 10.372 7.584C10.324 7.76 10.284 7.968 10.252 8.208C10.22 8.448 10.18 8.8 10.132 9.264C10.084 9.744 10.044 10.12 10.012 10.392C9.98 10.664 9.932 10.92 9.868 11.16C9.804 11.4 9.692 11.704 9.532 12.072C9.324 12.664 9.084 13.176 8.812 13.608C8.556 14.04 8.244 14.416 7.876 14.736C7.604 14.896 7.452 15.008 7.42 15.072C7.404 15.136 7.468 15.256 7.612 15.432C7.612 15.496 7.652 15.608 7.732 15.768C7.812 15.912 7.852 16.064 7.852 16.224C7.964 16.48 7.972 16.8 7.876 17.184C7.78 17.552 7.54 18.16 7.156 19.008C7.044 19.248 6.94 19.496 6.844 19.752C6.748 20.008 6.7 20.2 6.7 20.328C6.62 20.44 6.54 20.632 6.46 20.904C6.38 21.176 6.308 21.424 6.244 21.648C6.18 21.984 6.124 22.232 6.076 22.392C6.028 22.568 6.004 22.68 6.004 22.728C6.004 23.032 6.364 23.128 7.084 23.016C7.356 22.936 7.54 22.928 7.636 22.992C7.732 23.072 7.836 23.184 7.948 23.328C8.124 23.488 8.172 23.688 8.092 23.928C8.028 24.184 7.82 24.368 7.468 24.48C7.228 24.608 6.94 24.696 6.604 24.744C6.284 24.792 5.988 24.8 5.716 24.768C5.444 24.752 5.244 24.704 5.116 24.624Z" fill="white"/>
</svg>
