<svg width="28" height="28" viewBox="0 0 28 28" fill="none" xmlns="http://www.w3.org/2000/svg">
<path d="M13.0778 24.8217C12.5978 24.8377 12.2458 24.5897 12.0218 24.0777C11.8138 23.5817 11.9338 22.7977 12.3818 21.7257C12.4778 21.5497 12.5658 21.3737 12.6458 21.1977C12.7418 21.0217 12.7978 20.8777 12.8138 20.7657C12.8618 20.6537 12.9658 20.4377 13.1258 20.1177C13.2858 19.7817 13.4858 19.3817 13.7258 18.9177C13.9658 18.4537 14.2138 17.9737 14.4698 17.4777C14.7418 16.9817 14.9898 16.5177 15.2138 16.0857C15.4538 15.6377 15.6538 15.2697 15.8138 14.9817C15.9738 14.6937 16.0698 14.5257 16.1018 14.4777C16.1818 14.4937 16.2538 14.4537 16.3178 14.3577C16.3818 14.2457 16.4218 14.1337 16.4378 14.0217C16.4698 13.8777 16.5258 13.7337 16.6058 13.5897C16.6858 13.4457 16.7658 13.3577 16.8458 13.3257C16.8618 13.2457 16.8938 13.1577 16.9418 13.0617C16.9898 12.9657 17.0218 12.8857 17.0378 12.8217C17.0538 12.7577 17.0858 12.7017 17.1338 12.6537C17.1818 12.5897 17.2058 12.5257 17.2058 12.4617C17.3338 12.3017 17.5258 12.0057 17.7818 11.5737C18.0538 11.1417 18.3578 10.6377 18.6938 10.0617C19.0298 9.46971 19.3738 8.86171 19.7258 8.23771C20.0778 7.59771 20.4058 6.99771 20.7098 6.43771C21.0138 5.87771 21.2618 5.41371 21.4538 5.04571C21.6458 4.66171 21.7498 4.43771 21.7658 4.37371C21.7818 4.13371 21.9338 4.03771 22.2218 4.08571C22.3338 4.00571 22.4618 3.98171 22.6058 4.01371C22.6058 4.01371 22.6858 4.10171 22.8458 4.27771C23.0218 4.43771 23.1658 4.59771 23.2778 4.75771C23.4058 4.88571 23.4618 5.02171 23.4458 5.16571C23.4458 5.30971 23.4218 5.46971 23.3738 5.64571C23.3418 5.85371 23.2858 6.03771 23.2058 6.19771C23.1418 6.35771 23.0058 6.57371 22.7978 6.84571C22.6058 7.11771 22.3098 7.54171 21.9098 8.11771C21.8138 8.26171 21.6618 8.50171 21.4538 8.83771C21.2618 9.17371 21.0538 9.52571 20.8298 9.89371C20.6218 10.2617 20.4458 10.5817 20.3018 10.8537C20.1578 11.1257 20.0858 11.2777 20.0858 11.3097C20.0698 11.3737 20.0138 11.4697 19.9178 11.5977C19.8378 11.7097 19.7578 11.8617 19.6778 12.0537C19.5818 12.1657 19.4538 12.3417 19.2938 12.5817C19.1498 12.8057 18.9978 13.0457 18.8378 13.3017C18.6778 13.5417 18.5338 13.7577 18.4058 13.9497C18.2938 14.1257 18.2378 14.2297 18.2378 14.2617C18.2218 14.3097 18.1978 14.3657 18.1658 14.4297C18.1498 14.4937 18.1018 14.5497 18.0218 14.5977C17.9738 14.5817 17.9338 14.6217 17.9018 14.7177C17.8698 14.7977 17.8538 14.8377 17.8538 14.8377C17.8858 14.9657 17.6938 15.3657 17.2778 16.0377C17.1178 16.3737 16.9018 16.8137 16.6298 17.3577C16.3578 17.9017 16.0618 18.4857 15.7418 19.1097C15.4378 19.7337 15.1418 20.3417 14.8538 20.9337C14.5658 21.5257 14.3258 22.0457 14.1338 22.4937C13.9418 22.9417 13.8298 23.2537 13.7978 23.4297C13.7338 23.7977 13.6298 24.1097 13.4858 24.3657C13.3418 24.6217 13.2058 24.7737 13.0778 24.8217Z" fill="white"/>
<path d="M5.1559 24.8217C4.6759 24.8377 4.3239 24.5897 4.0999 24.0777C3.8919 23.5817 4.0119 22.7977 4.4599 21.7257C4.5559 21.5497 4.6439 21.3737 4.7239 21.1977C4.8199 21.0217 4.8759 20.8777 4.8919 20.7657C4.9399 20.6537 5.0439 20.4377 5.2039 20.1177C5.3639 19.7817 5.5639 19.3817 5.8039 18.9177C6.0439 18.4537 6.2919 17.9737 6.5479 17.4777C6.8199 16.9817 7.0679 16.5177 7.2919 16.0857C7.5319 15.6377 7.7319 15.2697 7.8919 14.9817C8.0519 14.6937 8.1479 14.5257 8.1799 14.4777C8.2599 14.4937 8.3319 14.4537 8.3959 14.3577C8.4599 14.2457 8.4999 14.1337 8.5159 14.0217C8.5479 13.8777 8.6039 13.7337 8.6839 13.5897C8.7639 13.4457 8.8439 13.3577 8.9239 13.3257C8.9399 13.2457 8.9719 13.1577 9.0199 13.0617C9.0679 12.9657 9.0999 12.8857 9.1159 12.8217C9.1319 12.7577 9.1639 12.7017 9.2119 12.6537C9.2599 12.5897 9.2839 12.5257 9.2839 12.4617C9.4119 12.3017 9.6039 12.0057 9.8599 11.5737C10.1319 11.1417 10.4359 10.6377 10.7719 10.0617C11.1079 9.46971 11.4519 8.86171 11.8039 8.23771C12.1559 7.59771 12.4839 6.99771 12.7879 6.43771C13.0919 5.87771 13.3399 5.41371 13.5319 5.04571C13.7239 4.66171 13.8279 4.43771 13.8439 4.37371C13.8599 4.13371 14.0119 4.03771 14.2999 4.08571C14.4119 4.00571 14.5399 3.98171 14.6839 4.01371C14.6839 4.01371 14.7639 4.10171 14.9239 4.27771C15.0999 4.43771 15.2439 4.59771 15.3559 4.75771C15.4839 4.88571 15.5399 5.02171 15.5239 5.16571C15.5239 5.30971 15.4999 5.46971 15.4519 5.64571C15.4199 5.85371 15.3639 6.03771 15.2839 6.19771C15.2199 6.35771 15.0839 6.57371 14.8759 6.84571C14.6839 7.11771 14.3879 7.54171 13.9879 8.11771C13.8919 8.26171 13.7399 8.50171 13.5319 8.83771C13.3399 9.17371 13.1319 9.52571 12.9079 9.89371C12.6999 10.2617 12.5239 10.5817 12.3799 10.8537C12.2359 11.1257 12.1639 11.2777 12.1639 11.3097C12.1479 11.3737 12.0919 11.4697 11.9959 11.5977C11.9159 11.7097 11.8359 11.8617 11.7559 12.0537C11.6599 12.1657 11.5319 12.3417 11.3719 12.5817C11.2279 12.8057 11.0759 13.0457 10.9159 13.3017C10.7559 13.5417 10.6119 13.7577 10.4839 13.9497C10.3719 14.1257 10.3159 14.2297 10.3159 14.2617C10.2999 14.3097 10.2759 14.3657 10.2439 14.4297C10.2279 14.4937 10.1799 14.5497 10.0999 14.5977C10.0519 14.5817 10.0119 14.6217 9.9799 14.7177C9.9479 14.7977 9.9319 14.8377 9.9319 14.8377C9.9639 14.9657 9.7719 15.3657 9.3559 16.0377C9.1959 16.3737 8.9799 16.8137 8.7079 17.3577C8.4359 17.9017 8.1399 18.4857 7.8199 19.1097C7.5159 19.7337 7.2199 20.3417 6.9319 20.9337C6.6439 21.5257 6.4039 22.0457 6.2119 22.4937C6.0199 22.9417 5.9079 23.2537 5.8759 23.4297C5.8119 23.7977 5.7079 24.1097 5.5639 24.3657C5.4199 24.6217 5.2839 24.7737 5.1559 24.8217Z" fill="white"/>
</svg>
