<svg width="10" height="9" viewBox="0 0 10 9" fill="none" xmlns="http://www.w3.org/2000/svg">
<path d="M8.87712 2.87867C8.54112 2.99067 8.26112 3.04667 8.03712 3.04667C7.81312 3.03067 7.56512 2.92667 7.29312 2.73467C6.97312 2.41467 6.86912 2.09467 6.98112 1.77467C7.09312 1.43867 7.38112 1.11067 7.84512 0.790667C8.16512 0.598666 8.39712 0.502667 8.54112 0.502667C8.70112 0.486667 8.93312 0.542667 9.23712 0.670667C9.76512 1.00667 9.99712 1.38267 9.93312 1.79867C9.88512 2.19867 9.53312 2.55867 8.87712 2.87867ZM7.19712 7.91867C6.86112 8.03067 6.58112 8.08667 6.35712 8.08667C6.13312 8.07067 5.88512 7.96667 5.61312 7.77467C5.29312 7.45467 5.18912 7.13467 5.30112 6.81467C5.41312 6.47867 5.70112 6.15067 6.16512 5.83067C6.48512 5.63867 6.71712 5.54267 6.86112 5.54267C7.02112 5.52667 7.25312 5.58267 7.55712 5.71067C8.08512 6.04667 8.31712 6.42267 8.25312 6.83867C8.20512 7.23867 7.85312 7.59867 7.19712 7.91867Z" fill="white"/>
<path d="M4.11931 2.87867C3.78331 2.99067 3.50331 3.04667 3.27931 3.04667C3.05531 3.03067 2.80731 2.92667 2.53531 2.73467C2.21531 2.41467 2.11131 2.09467 2.22331 1.77467C2.33531 1.43867 2.62331 1.11067 3.08731 0.790667C3.40731 0.598666 3.63931 0.502667 3.78331 0.502667C3.94331 0.486667 4.17531 0.542667 4.47931 0.670667C5.00731 1.00667 5.23931 1.38267 5.17531 1.79867C5.12731 2.19867 4.77531 2.55867 4.11931 2.87867ZM2.43931 7.91867C2.10331 8.03067 1.82331 8.08667 1.59931 8.08667C1.37531 8.07067 1.12731 7.96667 0.855311 7.77467C0.535311 7.45467 0.431311 7.13467 0.543311 6.81467C0.655311 6.47867 0.943311 6.15067 1.40731 5.83067C1.72731 5.63867 1.95931 5.54267 2.10331 5.54267C2.26331 5.52667 2.49531 5.58267 2.79931 5.71067C3.32731 6.04667 3.55931 6.42267 3.49531 6.83867C3.44731 7.23867 3.09531 7.59867 2.43931 7.91867Z" fill="white"/>
</svg>
