<svg width="28" height="28" viewBox="0 0 28 28" fill="none" xmlns="http://www.w3.org/2000/svg">
<path d="M17.3771 12.3787C17.0411 12.4907 16.7611 12.5467 16.5371 12.5467C16.3131 12.5307 16.0651 12.4267 15.7931 12.2347C15.4731 11.9147 15.3691 11.5947 15.4811 11.2747C15.5931 10.9387 15.8811 10.6107 16.3451 10.2907C16.6651 10.0987 16.8971 10.0027 17.0411 10.0027C17.2011 9.98667 17.4331 10.0427 17.7371 10.1707C18.2651 10.5067 18.4971 10.8827 18.4331 11.2987C18.3851 11.6987 18.0331 12.0587 17.3771 12.3787ZM15.6971 17.4187C15.3611 17.5307 15.0811 17.5867 14.8571 17.5867C14.6331 17.5707 14.3851 17.4667 14.1131 17.2747C13.7931 16.9547 13.6891 16.6347 13.8011 16.3147C13.9131 15.9787 14.2011 15.6507 14.6651 15.3307C14.9851 15.1387 15.2171 15.0427 15.3611 15.0427C15.5211 15.0267 15.7531 15.0827 16.0571 15.2107C16.5851 15.5467 16.8171 15.9227 16.7531 16.3387C16.7051 16.7387 16.3531 17.0987 15.6971 17.4187Z" fill="white"/>
<path d="M12.6193 12.3787C12.2833 12.4907 12.0033 12.5467 11.7793 12.5467C11.5553 12.5307 11.3073 12.4267 11.0353 12.2347C10.7153 11.9147 10.6113 11.5947 10.7233 11.2747C10.8353 10.9387 11.1233 10.6107 11.5873 10.2907C11.9073 10.0987 12.1393 10.0027 12.2833 10.0027C12.4433 9.98667 12.6753 10.0427 12.9793 10.1707C13.5073 10.5067 13.7393 10.8827 13.6753 11.2987C13.6273 11.6987 13.2753 12.0587 12.6193 12.3787ZM10.9393 17.4187C10.6033 17.5307 10.3233 17.5867 10.0993 17.5867C9.87531 17.5707 9.62731 17.4667 9.35531 17.2747C9.03531 16.9547 8.93131 16.6347 9.04331 16.3147C9.15531 15.9787 9.44331 15.6507 9.90731 15.3307C10.2273 15.1387 10.4593 15.0427 10.6033 15.0427C10.7633 15.0267 10.9953 15.0827 11.2993 15.2107C11.8273 15.5467 12.0593 15.9227 11.9953 16.3387C11.9473 16.7387 11.5953 17.0987 10.9393 17.4187Z" fill="white"/>
</svg>
