<svg width="28" height="28" viewBox="0 0 28 28" fill="none" xmlns="http://www.w3.org/2000/svg">
<path d="M16.9434 18.5833C16.8474 18.6153 16.6954 18.5513 16.4874 18.3913C16.2954 18.2153 16.1594 18.1033 16.0794 18.0553C15.9194 17.9273 15.7994 17.8473 15.7194 17.8153C15.6394 17.7673 15.5834 17.6793 15.5514 17.5513C15.5514 17.5513 15.5674 17.4793 15.5994 17.3353C15.6474 17.1913 15.7274 17.0713 15.8394 16.9753C16.0634 16.7833 16.3514 16.5993 16.7034 16.4233C17.0714 16.2313 17.5114 15.9993 18.0234 15.7273C18.5514 15.4553 19.1594 15.1113 19.8474 14.6953C20.2794 14.4233 20.6074 14.2393 20.8314 14.1433C21.0554 14.0473 21.1994 13.9593 21.2634 13.8793C21.3274 13.7993 21.3434 13.6553 21.3114 13.4473C21.0394 13.1273 20.5914 12.8073 19.9674 12.4873C19.3594 12.1513 18.4554 11.7993 17.2554 11.4313C16.6634 11.2393 16.2234 11.0633 15.9354 10.9033C15.6474 10.7273 15.4554 10.5513 15.3594 10.3753C15.2794 10.1993 15.2554 10.0073 15.2874 9.79934C15.3674 9.65534 15.5674 9.54334 15.8874 9.46334C16.2074 9.36734 16.5674 9.31934 16.9674 9.31934C17.3834 9.31934 17.7594 9.39934 18.0954 9.55934C18.5914 9.68734 19.0234 9.80734 19.3914 9.91934C19.7594 10.0153 20.1674 10.2393 20.6154 10.5913C21.1594 10.8953 21.5914 11.1513 21.9114 11.3593C22.2474 11.5673 22.5674 11.8873 22.8714 12.3193L23.6634 13.2793L23.9274 14.5513C23.7994 14.5673 23.6794 14.6073 23.5674 14.6713C23.4554 14.7353 23.3834 14.7753 23.3514 14.7913C23.1594 14.8873 22.9594 15.0073 22.7514 15.1513C22.5594 15.2793 22.2954 15.4553 21.9594 15.6793C21.6234 15.8873 21.1514 16.1673 20.5434 16.5193C19.8074 16.9033 19.1674 17.2553 18.6234 17.5753C18.0794 17.8953 17.7274 18.1353 17.5674 18.2953C17.4714 18.4073 17.3594 18.4873 17.2314 18.5353C17.1194 18.5673 17.0234 18.5833 16.9434 18.5833Z" fill="white"/>
<path d="M9.83249 18.0314C9.33649 17.9034 8.90449 17.7914 8.53649 17.6954C8.16849 17.5834 7.76049 17.3514 7.31249 16.9994C6.76849 16.6794 6.32849 16.4234 5.99249 16.2314C5.67249 16.0234 5.36049 15.7034 5.05649 15.2714L4.26449 14.3114L4.00049 13.0394C4.12849 13.0074 4.24849 12.9674 4.36049 12.9194C4.48849 12.8554 4.56049 12.8154 4.57649 12.7994C4.76849 12.7034 4.96049 12.5914 5.15249 12.4634C5.36049 12.3194 5.63249 12.1354 5.96849 11.9114C6.30449 11.6874 6.77649 11.4074 7.38449 11.0714C8.13649 10.6874 8.77649 10.3354 9.30449 10.0154C9.84849 9.69538 10.2005 9.45539 10.3605 9.29539C10.4565 9.18339 10.5685 9.11138 10.6965 9.07939C10.8245 9.03138 10.9205 9.00738 10.9845 9.00738C11.0805 8.97538 11.2325 9.04739 11.4405 9.22339C11.6485 9.38339 11.7845 9.48739 11.8485 9.53539C12.0245 9.64739 12.1525 9.72739 12.2325 9.77539C12.3125 9.82339 12.3605 9.91139 12.3765 10.0394C12.3765 10.0394 12.3525 10.1114 12.3045 10.2554C12.2725 10.3994 12.2005 10.5194 12.0885 10.6154C11.8805 10.7914 11.5925 10.9754 11.2245 11.1674C10.8725 11.3594 10.4325 11.5914 9.90449 11.8634C9.39249 12.1194 8.78449 12.4634 8.08049 12.8954C7.64849 13.1514 7.32049 13.3354 7.09649 13.4474C6.87249 13.5434 6.72849 13.6314 6.66449 13.7114C6.60049 13.7914 6.58449 13.9354 6.61649 14.1434C6.88849 14.4634 7.32849 14.7914 7.93649 15.1274C8.56049 15.4474 9.47249 15.7914 10.6725 16.1594C11.2645 16.3354 11.7045 16.5114 11.9925 16.6874C12.2965 16.8634 12.4885 17.0394 12.5685 17.2154C12.6485 17.3914 12.6725 17.5834 12.6405 17.7914C12.5605 17.9354 12.3605 18.0554 12.0405 18.1514C11.7205 18.2314 11.3525 18.2714 10.9365 18.2714C10.5365 18.2554 10.1685 18.1754 9.83249 18.0314Z" fill="white"/>
</svg>
