<svg width="20" height="11" viewBox="0 0 20 11" fill="none" xmlns="http://www.w3.org/2000/svg">
<path d="M12.9434 10.0833C12.8474 10.1153 12.6954 10.0513 12.4874 9.89134C12.2954 9.71534 12.1594 9.60334 12.0794 9.55534C11.9194 9.42734 11.7994 9.34734 11.7194 9.31534C11.6394 9.26734 11.5834 9.17934 11.5514 9.05134C11.5514 9.05134 11.5674 8.97934 11.5994 8.83534C11.6474 8.69134 11.7274 8.57134 11.8394 8.47534C12.0634 8.28334 12.3514 8.09934 12.7034 7.92334C13.0714 7.73134 13.5114 7.49934 14.0234 7.22734C14.5514 6.95534 15.1594 6.61134 15.8474 6.19534C16.2794 5.92334 16.6074 5.73934 16.8314 5.64334C17.0554 5.54734 17.1994 5.45934 17.2634 5.37934C17.3274 5.29934 17.3434 5.15534 17.3114 4.94734C17.0394 4.62734 16.5914 4.30734 15.9674 3.98734C15.3594 3.65134 14.4554 3.29934 13.2554 2.93134C12.6634 2.73934 12.2234 2.56334 11.9354 2.40334C11.6474 2.22734 11.4554 2.05134 11.3594 1.87534C11.2794 1.69934 11.2554 1.50734 11.2874 1.29934C11.3674 1.15534 11.5674 1.04334 11.8874 0.963336C12.2074 0.867336 12.5674 0.819336 12.9674 0.819336C13.3834 0.819336 13.7594 0.899336 14.0954 1.05934C14.5914 1.18734 15.0234 1.30734 15.3914 1.41934C15.7594 1.51534 16.1674 1.73934 16.6154 2.09134C17.1594 2.39534 17.5914 2.65134 17.9114 2.85934C18.2474 3.06734 18.5674 3.38734 18.8714 3.81934L19.6634 4.77934L19.9274 6.05134C19.7994 6.06734 19.6794 6.10734 19.5674 6.17134C19.4554 6.23534 19.3834 6.27534 19.3514 6.29134C19.1594 6.38734 18.9594 6.50734 18.7514 6.65134C18.5594 6.77934 18.2954 6.95534 17.9594 7.17934C17.6234 7.38734 17.1514 7.66734 16.5434 8.01934C15.8074 8.40334 15.1674 8.75534 14.6234 9.07534C14.0794 9.39534 13.7274 9.63534 13.5674 9.79534C13.4714 9.90734 13.3594 9.98734 13.2314 10.0353C13.1194 10.0673 13.0234 10.0833 12.9434 10.0833Z" fill="white"/>
<path d="M5.83249 9.53139C5.33649 9.40339 4.90449 9.29138 4.53649 9.19538C4.16849 9.08339 3.76049 8.85139 3.31249 8.49939C2.76849 8.17939 2.32849 7.92338 1.99249 7.73138C1.67249 7.52338 1.36049 7.20339 1.05649 6.77139L0.264488 5.81138L0.000488281 4.53939C0.128488 4.50739 0.248488 4.46739 0.360488 4.41939C0.488488 4.35539 0.560488 4.31539 0.576488 4.29939C0.768488 4.20339 0.960489 4.09138 1.15249 3.96338C1.36049 3.81938 1.63249 3.63538 1.96849 3.41138C2.30449 3.18738 2.77649 2.90738 3.38449 2.57138C4.13649 2.18738 4.77649 1.83538 5.30449 1.51539C5.84849 1.19538 6.20049 0.955386 6.36049 0.795386C6.45649 0.683385 6.56849 0.611385 6.69649 0.579385C6.82449 0.531385 6.92049 0.507385 6.98449 0.507385C7.08049 0.475385 7.23249 0.547385 7.44049 0.723385C7.64849 0.883385 7.78449 0.987386 7.84849 1.03539C8.02449 1.14739 8.15249 1.22739 8.23249 1.27539C8.31249 1.32339 8.36049 1.41139 8.37649 1.53939C8.37649 1.53939 8.35249 1.61138 8.30449 1.75538C8.27249 1.89938 8.20049 2.01938 8.08849 2.11538C7.88049 2.29138 7.59249 2.47538 7.22449 2.66738C6.87249 2.85938 6.43249 3.09138 5.90449 3.36338C5.39249 3.61938 4.78449 3.96338 4.08049 4.39539C3.64849 4.65138 3.32049 4.83538 3.09649 4.94738C2.87249 5.04338 2.72849 5.13139 2.66449 5.21139C2.60049 5.29139 2.58449 5.43539 2.61649 5.64339C2.88849 5.96339 3.32849 6.29138 3.93649 6.62738C4.56049 6.94738 5.47249 7.29139 6.67249 7.65939C7.26449 7.83539 7.70449 8.01139 7.99249 8.18739C8.29649 8.36339 8.48849 8.53939 8.56849 8.71539C8.64849 8.89139 8.67249 9.08339 8.64049 9.29139C8.56049 9.43539 8.36049 9.55538 8.04049 9.65138C7.72049 9.73138 7.35249 9.77139 6.93649 9.77139C6.53649 9.75539 6.16849 9.67539 5.83249 9.53139Z" fill="white"/>
</svg>
