<svg width="30" height="28" viewBox="0 0 30 28" fill="none" xmlns="http://www.w3.org/2000/svg">
<path d="M21.8653 21.5819C21.7693 21.6139 21.6173 21.5499 21.4093 21.3899C21.2173 21.2139 21.0813 21.1019 21.0013 21.0539C20.8413 20.9259 20.7213 20.8459 20.6413 20.8139C20.5613 20.7659 20.5053 20.6779 20.4733 20.5499C20.4733 20.5499 20.4893 20.4779 20.5213 20.3339C20.5693 20.1899 20.6493 20.0699 20.7613 19.9739C20.9853 19.7819 21.2733 19.5979 21.6253 19.4219C21.9933 19.2299 22.4333 18.9979 22.9453 18.7259C23.4733 18.4539 24.0813 18.1099 24.7693 17.6939C25.2013 17.4219 25.5293 17.2379 25.7533 17.1419C25.9773 17.0459 26.1213 16.9579 26.1853 16.8779C26.2493 16.7979 26.2653 16.6539 26.2333 16.4459C25.9613 16.1259 25.5133 15.8059 24.8893 15.4859C24.2813 15.1499 23.3773 14.7979 22.1773 14.4299C21.5853 14.2379 21.1453 14.0619 20.8573 13.9019C20.5693 13.7259 20.3773 13.5499 20.2813 13.3739C20.2013 13.1979 20.1773 13.0059 20.2093 12.7979C20.2893 12.6539 20.4893 12.5419 20.8093 12.4619C21.1293 12.3659 21.4893 12.3179 21.8893 12.3179C22.3053 12.3179 22.6813 12.3979 23.0173 12.5579C23.5133 12.6859 23.9453 12.8059 24.3133 12.9179C24.6813 13.0139 25.0893 13.2379 25.5373 13.5899C26.0813 13.8939 26.5133 14.1499 26.8333 14.3579C27.1693 14.5659 27.4893 14.8859 27.7933 15.3179L28.5853 16.2779L28.8493 17.5499C28.7213 17.5659 28.6013 17.6059 28.4893 17.6699C28.3773 17.7339 28.3053 17.7739 28.2733 17.7899C28.0813 17.8859 27.8813 18.0059 27.6733 18.1499C27.4813 18.2779 27.2173 18.4539 26.8813 18.6779C26.5453 18.8859 26.0733 19.1659 25.4653 19.5179C24.7293 19.9019 24.0893 20.2539 23.5453 20.5739C23.0013 20.8939 22.6493 21.1339 22.4893 21.2939C22.3933 21.4059 22.2813 21.4859 22.1533 21.5339C22.0413 21.5659 21.9453 21.5819 21.8653 21.5819Z" fill="white"/>
<path d="M11.0873 24.8217C10.6073 24.8377 10.2553 24.5897 10.0313 24.0777C9.8233 23.5817 9.9433 22.7977 10.3913 21.7257C10.4873 21.5497 10.5753 21.3737 10.6553 21.1977C10.7513 21.0217 10.8073 20.8777 10.8233 20.7657C10.8713 20.6537 10.9753 20.4377 11.1353 20.1177C11.2953 19.7817 11.4953 19.3817 11.7353 18.9177C11.9753 18.4537 12.2233 17.9737 12.4793 17.4777C12.7513 16.9817 12.9993 16.5177 13.2233 16.0857C13.4633 15.6377 13.6633 15.2697 13.8233 14.9817C13.9833 14.6937 14.0793 14.5257 14.1113 14.4777C14.1913 14.4937 14.2633 14.4537 14.3273 14.3577C14.3913 14.2457 14.4313 14.1337 14.4473 14.0217C14.4793 13.8777 14.5353 13.7337 14.6153 13.5897C14.6953 13.4457 14.7753 13.3577 14.8553 13.3257C14.8713 13.2457 14.9033 13.1577 14.9513 13.0617C14.9993 12.9657 15.0313 12.8857 15.0473 12.8217C15.0633 12.7577 15.0953 12.7017 15.1433 12.6537C15.1913 12.5897 15.2153 12.5257 15.2153 12.4617C15.3433 12.3017 15.5353 12.0057 15.7913 11.5737C16.0633 11.1417 16.3673 10.6377 16.7033 10.0617C17.0393 9.46971 17.3833 8.86171 17.7353 8.23771C18.0873 7.59771 18.4153 6.99771 18.7193 6.43771C19.0233 5.87771 19.2713 5.41371 19.4633 5.04571C19.6553 4.66171 19.7593 4.43771 19.7753 4.37371C19.7913 4.13371 19.9433 4.03771 20.2313 4.08571C20.3433 4.00571 20.4713 3.98171 20.6153 4.01371C20.6153 4.01371 20.6953 4.10171 20.8553 4.27771C21.0313 4.43771 21.1753 4.59771 21.2873 4.75771C21.4153 4.88571 21.4713 5.02171 21.4553 5.16571C21.4553 5.30971 21.4313 5.46971 21.3833 5.64571C21.3513 5.85371 21.2953 6.03771 21.2153 6.19771C21.1513 6.35771 21.0153 6.57371 20.8073 6.84571C20.6153 7.11771 20.3193 7.54171 19.9193 8.11771C19.8233 8.26171 19.6713 8.50171 19.4633 8.83771C19.2713 9.17371 19.0633 9.52571 18.8393 9.89371C18.6313 10.2617 18.4553 10.5817 18.3113 10.8537C18.1673 11.1257 18.0953 11.2777 18.0953 11.3097C18.0793 11.3737 18.0233 11.4697 17.9273 11.5977C17.8473 11.7097 17.7673 11.8617 17.6873 12.0537C17.5913 12.1657 17.4633 12.3417 17.3033 12.5817C17.1593 12.8057 17.0073 13.0457 16.8473 13.3017C16.6873 13.5417 16.5433 13.7577 16.4153 13.9497C16.3033 14.1257 16.2473 14.2297 16.2473 14.2617C16.2313 14.3097 16.2073 14.3657 16.1753 14.4297C16.1593 14.4937 16.1113 14.5497 16.0313 14.5977C15.9833 14.5817 15.9433 14.6217 15.9113 14.7177C15.8793 14.7977 15.8633 14.8377 15.8633 14.8377C15.8953 14.9657 15.7033 15.3657 15.2873 16.0377C15.1273 16.3737 14.9113 16.8137 14.6393 17.3577C14.3673 17.9017 14.0713 18.4857 13.7513 19.1097C13.4473 19.7337 13.1513 20.3417 12.8633 20.9337C12.5753 21.5257 12.3353 22.0457 12.1433 22.4937C11.9513 22.9417 11.8393 23.2537 11.8073 23.4297C11.7433 23.7977 11.6393 24.1097 11.4953 24.3657C11.3513 24.6217 11.2153 24.7737 11.0873 24.8217Z" fill="white"/>
<path d="M6.83249 21.0299C6.33649 20.9019 5.90449 20.7899 5.53649 20.6939C5.16849 20.5819 4.76049 20.3499 4.31249 19.9979C3.76849 19.6779 3.32849 19.4219 2.99249 19.2299C2.67249 19.0219 2.36049 18.7019 2.05649 18.2699L1.26449 17.3099L1.00049 16.0379C1.12849 16.0059 1.24849 15.9659 1.36049 15.9179C1.48849 15.8539 1.56049 15.8139 1.57649 15.7979C1.76849 15.7019 1.96049 15.5899 2.15249 15.4619C2.36049 15.3179 2.63249 15.1339 2.96849 14.9099C3.30449 14.6859 3.77649 14.4059 4.38449 14.0699C5.13649 13.6859 5.77649 13.3339 6.30449 13.0139C6.84849 12.6939 7.20049 12.4539 7.36049 12.2939C7.45649 12.1819 7.56849 12.1099 7.69649 12.0779C7.82449 12.0299 7.92049 12.0059 7.98449 12.0059C8.08049 11.9739 8.23249 12.0459 8.44049 12.2219C8.64849 12.3819 8.78449 12.4859 8.84849 12.5339C9.02449 12.6459 9.15249 12.7259 9.23249 12.7739C9.31249 12.8219 9.36049 12.9099 9.37649 13.0379C9.37649 13.0379 9.35249 13.1099 9.30449 13.2539C9.27249 13.3979 9.20049 13.5179 9.08849 13.6139C8.88049 13.7899 8.59249 13.9739 8.22449 14.1659C7.87249 14.3579 7.43249 14.5899 6.90449 14.8619C6.39249 15.1179 5.78449 15.4619 5.08049 15.8939C4.64849 16.1499 4.32049 16.3339 4.09649 16.4459C3.87249 16.5419 3.72849 16.6299 3.66449 16.7099C3.60049 16.7899 3.58449 16.9339 3.61649 17.1419C3.88849 17.4619 4.32849 17.7899 4.93649 18.1259C5.56049 18.4459 6.47249 18.7899 7.67249 19.1579C8.26449 19.3339 8.70449 19.5099 8.99249 19.6859C9.29649 19.8619 9.48849 20.0379 9.56849 20.2139C9.64849 20.3899 9.67249 20.5819 9.64049 20.7899C9.56049 20.9339 9.36049 21.0539 9.04049 21.1499C8.72049 21.2299 8.35249 21.2699 7.93649 21.2699C7.53649 21.2539 7.16849 21.1739 6.83249 21.0299Z" fill="white"/>
</svg>
