<svg width="28" height="28" viewBox="0 0 28 28" fill="none" xmlns="http://www.w3.org/2000/svg">
<path d="M16.1519 24.6115C15.8479 24.5315 15.5519 24.3555 15.2639 24.0835C14.9759 23.8275 14.8239 23.5795 14.8079 23.3395C14.8239 23.2915 14.8319 23.1955 14.8319 23.0515C14.8319 22.9075 14.8639 22.7795 14.9279 22.6675C14.9279 22.6675 14.9759 22.6915 15.0719 22.7395C15.1839 22.7875 15.3679 22.7795 15.6239 22.7155C15.9439 22.7315 16.1839 22.6995 16.3439 22.6195C16.5039 22.5395 16.7039 22.3635 16.9439 22.0915C17.1199 21.8515 17.3199 21.6035 17.5439 21.3475C17.7839 21.0755 17.9439 20.8355 18.0239 20.6275C18.2799 20.4515 18.4639 20.2915 18.5759 20.1475C18.6879 19.9875 18.7919 19.8275 18.8879 19.6675C18.8879 19.5875 18.9119 19.4435 18.9599 19.2355C19.0079 19.0115 19.1279 18.7475 19.3199 18.4435C19.4959 18.0435 19.6639 17.7075 19.8239 17.4355C19.9839 17.1475 20.0639 16.9635 20.0639 16.8835C20.0639 16.8835 20.0879 16.8275 20.1359 16.7155C20.1839 16.6035 20.1999 16.4675 20.1839 16.3075C20.2799 16.2595 20.3599 16.1555 20.4239 15.9955C20.5039 15.8195 20.5359 15.6435 20.5199 15.4675C20.5199 15.4195 20.5919 15.2355 20.7359 14.9155C20.8799 14.5795 20.9599 14.2435 20.9759 13.9075C21.1519 13.3315 21.2799 12.8195 21.3599 12.3715C21.4559 11.9075 21.5279 11.4035 21.5759 10.8595C21.6239 10.3155 21.6719 9.61946 21.7199 8.77146C21.7519 8.05146 21.7759 7.51546 21.7919 7.16347C21.8079 6.79547 21.7999 6.51547 21.7679 6.32346C21.7519 6.13146 21.6799 5.93946 21.5519 5.74746C21.3919 5.23546 21.2559 4.97946 21.1439 4.97946C21.0959 4.97946 21.0559 4.88346 21.0239 4.69146C20.9919 4.49946 21.0079 4.29147 21.0719 4.06747C21.0559 4.00346 21.1679 3.93146 21.4079 3.85146C21.6639 3.77147 21.8639 3.73946 22.0079 3.75546C22.1199 3.75546 22.2399 3.80346 22.3679 3.89946C22.5119 3.97946 22.6079 4.05146 22.6559 4.11546C22.7199 4.05146 22.8159 4.15546 22.9439 4.42746C23.0879 4.69946 23.2399 5.06747 23.3999 5.53146C23.4959 5.75546 23.5679 5.94746 23.6159 6.10746C23.6639 6.25146 23.6959 6.41946 23.7119 6.61147C23.7279 6.78746 23.7279 7.04346 23.7119 7.37946C23.6959 7.69946 23.6719 8.14746 23.6399 8.72346C23.6399 9.28346 23.5999 9.89947 23.5199 10.5715C23.4559 11.2275 23.3759 11.8755 23.2799 12.5155C23.1839 13.1395 23.0799 13.7075 22.9679 14.2195C22.8559 14.6355 22.7039 15.1395 22.5119 15.7315C22.3199 16.3075 22.1039 16.8915 21.8639 17.4835C21.6399 18.0755 21.4239 18.6035 21.2159 19.0675C21.0239 19.5315 20.8639 19.8595 20.7359 20.0515C20.7679 20.0515 20.7199 20.1475 20.5919 20.3395C20.4799 20.5315 20.3199 20.7795 20.1119 21.0835C19.9199 21.3715 19.7199 21.6675 19.5119 21.9715C19.3039 22.2915 19.1279 22.5635 18.9839 22.7875C18.7439 23.1235 18.4399 23.4435 18.0719 23.7475C17.7039 24.0515 17.3439 24.2835 16.9919 24.4435C16.6559 24.6195 16.3759 24.6755 16.1519 24.6115Z" fill="white"/>
<path d="M7.50544 24.6833C6.73744 24.5713 6.08944 24.2273 5.56144 23.6513C5.03344 23.0913 4.65744 22.4673 4.43344 21.7793C4.12944 21.1073 3.98544 20.2353 4.00144 19.1633C4.01744 18.0753 4.17744 16.9713 4.48144 15.8513C4.56144 15.5473 4.63344 15.2353 4.69744 14.9153C4.76144 14.5953 4.80144 14.3793 4.81744 14.2673C4.86544 14.1073 4.96944 13.8433 5.12944 13.4753C5.28944 13.1073 5.47344 12.6913 5.68144 12.2273C5.88944 11.7473 6.08944 11.2753 6.28144 10.8113C6.48944 10.3313 6.66544 9.90729 6.80944 9.53929C6.98544 9.1393 7.24144 8.66729 7.57744 8.12329C7.92944 7.57929 8.28944 7.0353 8.65744 6.4913C9.04144 5.94729 9.38544 5.47529 9.68945 5.07529C10.0094 4.67529 10.2334 4.42729 10.3614 4.33129C10.4414 4.25129 10.5534 4.14729 10.6974 4.01929C10.8414 3.89129 10.9694 3.81929 11.0814 3.80329C11.1454 3.62729 11.2734 3.48329 11.4654 3.37129C11.6574 3.25929 11.8254 3.20329 11.9694 3.20329C12.3374 3.01129 12.7294 2.95529 13.1454 3.03529C13.5614 3.11529 13.8334 3.39529 13.9614 3.87529C14.0094 4.09929 14.0094 4.24329 13.9614 4.30729C13.9294 4.37129 13.7534 4.4753 13.4334 4.6193C13.2734 4.6833 13.0734 4.77929 12.8334 4.90729C12.5934 5.01929 12.4174 5.1393 12.3054 5.2673C12.1614 5.4433 12.0014 5.61929 11.8254 5.79529C11.6494 5.97129 11.5134 6.0913 11.4174 6.1553C11.1294 6.26729 10.9854 6.39529 10.9854 6.53929C10.9854 6.53929 10.9134 6.67529 10.7694 6.9473C10.6414 7.21929 10.4254 7.54729 10.1214 7.93129C9.92944 8.23529 9.70544 8.6113 9.44944 9.0593C9.19344 9.5073 8.99344 9.84329 8.84944 10.0673C8.70544 10.3233 8.58544 10.5393 8.48944 10.7153C8.40944 10.8753 8.28944 11.0433 8.12944 11.2193C8.12944 11.2673 8.10544 11.3793 8.05744 11.5553C8.00944 11.7313 7.91344 11.9313 7.76944 12.1553C7.67344 12.5073 7.48144 12.9793 7.19344 13.5713C7.08144 13.8273 6.94544 14.1633 6.78544 14.5793C6.64144 14.9953 6.51344 15.3953 6.40144 15.7793C6.30544 16.1633 6.25744 16.4353 6.25744 16.5953C6.22544 16.5953 6.19344 16.6433 6.16144 16.7393C6.14544 16.8193 6.11344 17.0113 6.06544 17.3153C6.03344 17.6033 5.96944 18.0753 5.87344 18.7313C5.85744 19.4513 5.87344 20.0433 5.92144 20.5073C5.98544 20.9713 6.10544 21.3633 6.28144 21.6833C6.45744 22.0193 6.68944 22.3473 6.97744 22.6673C7.15344 22.8273 7.32944 22.9473 7.50544 23.0273C7.68144 23.1073 7.88944 23.1553 8.12944 23.1713L8.94544 23.6753C8.84944 24.0433 8.64944 24.3073 8.34544 24.4673C8.05744 24.6433 7.77744 24.7153 7.50544 24.6833Z" fill="white"/>
</svg>
