<svg width="21" height="23" viewBox="0 0 21 23" fill="none" xmlns="http://www.w3.org/2000/svg">
<path d="M13.6109 21.7402C13.1789 21.7562 12.7869 21.6442 12.4349 21.4042C12.0829 21.1802 11.9069 20.9802 11.9069 20.8042C11.9069 20.7242 11.9309 20.6602 11.9789 20.6122C12.0269 20.5642 12.0509 20.5402 12.0509 20.5402C12.1309 20.6042 12.2109 20.6362 12.2909 20.6362C12.3709 20.6362 12.4109 20.6042 12.4109 20.5402C12.4109 20.5402 12.4909 20.4842 12.6509 20.3722C12.8109 20.2762 13.0269 20.1722 13.2989 20.0602C13.7629 19.9802 14.0909 19.8922 14.2829 19.7962C14.4909 19.7162 14.6269 19.5802 14.6909 19.3882C14.7709 19.1962 14.8509 18.9002 14.9309 18.5002C14.9789 18.3082 15.0189 18.1322 15.0509 17.9722C15.0989 17.7962 15.1229 17.6762 15.1229 17.6122C15.1229 17.5642 15.1309 17.3082 15.1469 16.8442C15.1789 16.3642 15.1789 15.8122 15.1469 15.1882C15.1149 14.4842 15.0909 13.9722 15.0749 13.6522C15.0749 13.3162 15.0909 13.0762 15.1229 12.9322C15.1709 12.7722 15.2349 12.6122 15.3149 12.4522C15.4429 12.3242 15.5149 12.2042 15.5309 12.0922C15.5629 11.9642 15.5629 11.8202 15.5309 11.6602C15.4029 11.3402 15.3549 11.0522 15.3869 10.7962C15.4189 10.5242 15.4989 10.3402 15.6269 10.2442C15.8989 9.94025 16.1149 9.70025 16.2749 9.52425C16.4349 9.34825 16.5709 9.17225 16.6829 8.99625C16.8109 8.80425 16.9469 8.56425 17.0909 8.27625C17.5069 7.62025 17.8669 6.97225 18.1709 6.33225C18.4749 5.67625 18.6829 5.10825 18.7949 4.62825C18.7949 4.56425 18.7949 4.50825 18.7949 4.46025C18.7949 4.41225 18.7949 4.38825 18.7949 4.38825C18.8589 4.24425 18.8829 4.10025 18.8669 3.95625C18.8509 3.79625 18.7549 3.59625 18.5789 3.35625C18.4509 3.10025 18.2909 2.90825 18.0989 2.78025C17.9069 2.65225 17.6029 2.53225 17.1869 2.42025C16.9309 2.37225 16.7869 2.22825 16.7549 1.98825C16.7229 1.74825 16.7789 1.54825 16.9229 1.38824C16.9869 1.26025 17.1149 1.15625 17.3069 1.07625C17.5149 0.980245 17.7149 0.924245 17.9069 0.908245C18.1149 0.876246 18.2509 0.900246 18.3149 0.980246C18.4429 1.10825 18.5629 1.17225 18.6749 1.17225C18.7229 1.17225 18.8589 1.26825 19.0829 1.46025C19.3229 1.63625 19.5709 1.84425 19.8269 2.08425C20.0829 2.32425 20.2509 2.52425 20.3309 2.68425C20.3949 2.73225 20.4509 2.89225 20.4989 3.16425C20.5629 3.43625 20.6029 3.66825 20.6189 3.86025C20.6669 4.05225 20.6909 4.22025 20.6909 4.36425C20.7069 4.49225 20.6909 4.64424 20.6429 4.82024C20.6109 4.98025 20.5389 5.22025 20.4269 5.54025C20.2029 6.27625 19.9949 6.89225 19.8029 7.38825C19.6269 7.86825 19.4989 8.14825 19.4189 8.22825C19.3549 8.27625 19.2909 8.30825 19.2269 8.32425C19.1789 8.34025 19.1549 8.38025 19.1549 8.44424C19.1549 8.50824 19.0829 8.67625 18.9389 8.94825C18.7949 9.20425 18.6269 9.47625 18.4349 9.76425C18.2589 10.0362 18.0989 10.2442 17.9549 10.3882C17.8909 10.4522 17.8269 10.5482 17.7629 10.6762C17.7149 10.7882 17.6909 10.8442 17.6909 10.8442C17.6909 10.8442 17.6829 10.8522 17.6669 10.8682C17.6509 10.8682 17.6029 10.8922 17.5229 10.9402C17.4109 11.0042 17.3549 11.1002 17.3549 11.2282C17.3549 11.3402 17.4109 11.5242 17.5229 11.7802C17.5549 11.9242 17.6029 12.0522 17.6669 12.1642C17.7309 12.2762 17.7949 12.3962 17.8589 12.5242C17.8589 12.7482 17.8189 12.8602 17.7389 12.8602C17.5309 12.9722 17.3709 13.1322 17.2589 13.3402C17.1629 13.5482 17.1069 13.8362 17.0909 14.2042C17.0749 14.5722 17.0749 15.0602 17.0909 15.6682C17.1069 16.0042 17.1069 16.3642 17.0909 16.7482C17.0749 17.1322 17.0509 17.4762 17.0189 17.7802C17.0029 18.0682 16.9709 18.2602 16.9229 18.3562C16.8109 18.8362 16.7069 19.2362 16.6109 19.5562C16.5309 19.8762 16.4509 20.0362 16.3709 20.0362C16.3709 20.0362 16.3549 20.0362 16.3229 20.0362C16.2909 20.0522 16.2829 20.0842 16.2989 20.1322C16.2989 20.3562 16.1549 20.5882 15.8669 20.8282C15.5949 21.0682 15.2509 21.2762 14.8349 21.4522C14.4189 21.6282 14.0109 21.7242 13.6109 21.7402Z" fill="white"/>
<path d="M1.116 22.124C0.972 21.9 0.9 21.836 0.9 21.932C0.9 21.932 0.812 21.844 0.636 21.668C0.46 21.508 0.332 21.372 0.252 21.26C0.124 21.084 0.0439999 20.908 0.012 20.732C-0.00400001 20.572 -0.00400001 20.364 0.012 20.108C0.012 19.948 0.012 19.796 0.012 19.652C0.012 19.508 0.012 19.436 0.012 19.436C0.0919999 19.356 0.14 19.26 0.156 19.148C0.172 19.036 0.188 18.924 0.204 18.812C0.236 18.684 0.316 18.42 0.444 18.02C0.588 17.62 0.74 17.196 0.9 16.748C1.06 16.284 1.204 15.924 1.332 15.668C1.508 15.332 1.644 14.996 1.74 14.66C1.852 14.308 1.908 14.052 1.908 13.892C1.908 13.636 1.796 13.42 1.572 13.244C1.364 13.068 1.076 12.948 0.708 12.884C0.228 12.884 0.068 12.652 0.228 12.188C0.292 11.996 0.42 11.844 0.612 11.732C0.82 11.62 1.028 11.596 1.236 11.66C1.476 11.66 1.748 11.54 2.052 11.3C2.372 11.06 2.668 10.74 2.94 10.34C3.228 9.94 3.444 9.5 3.588 9.02C3.78 8.508 3.924 8.012 4.02 7.532C4.116 7.036 4.196 6.396 4.26 5.612C4.308 4.988 4.404 4.452 4.548 4.004C4.692 3.556 4.892 3.148 5.148 2.78C5.404 2.396 5.724 2.02 6.108 1.652C6.332 1.364 6.596 1.156 6.9 1.028C7.204 0.9 7.444 0.788 7.62 0.692C7.94 0.564 8.284 0.5 8.652 0.5C9.036 0.5 9.284 0.54 9.396 0.620001C9.476 0.652001 9.556 0.772001 9.636 0.980001C9.732 1.172 9.804 1.372 9.852 1.58C9.916 1.788 9.924 1.908 9.876 1.94C9.796 1.94 9.66 1.964 9.468 2.012C9.292 2.044 9.084 2.06 8.844 2.06C8.54 2.124 8.284 2.228 8.076 2.372C7.868 2.516 7.604 2.724 7.284 2.996C7.028 3.332 6.86 3.572 6.78 3.716C6.7 3.86 6.644 4.084 6.612 4.388C6.5 4.676 6.42 4.908 6.372 5.084C6.324 5.26 6.284 5.468 6.252 5.708C6.22 5.948 6.18 6.3 6.132 6.764C6.084 7.244 6.044 7.62 6.012 7.892C5.98 8.164 5.932 8.42 5.868 8.66C5.804 8.9 5.692 9.204 5.532 9.572C5.324 10.164 5.084 10.676 4.812 11.108C4.556 11.54 4.244 11.916 3.876 12.236C3.604 12.396 3.452 12.508 3.42 12.572C3.404 12.636 3.468 12.756 3.612 12.932C3.612 12.996 3.652 13.108 3.732 13.268C3.812 13.412 3.852 13.564 3.852 13.724C3.964 13.98 3.972 14.3 3.876 14.684C3.78 15.052 3.54 15.66 3.156 16.508C3.044 16.748 2.94 16.996 2.844 17.252C2.748 17.508 2.7 17.7 2.7 17.828C2.62 17.94 2.54 18.132 2.46 18.404C2.38 18.676 2.308 18.924 2.244 19.148C2.18 19.484 2.124 19.732 2.076 19.892C2.028 20.068 2.004 20.18 2.004 20.228C2.004 20.532 2.364 20.628 3.084 20.516C3.356 20.436 3.54 20.428 3.636 20.492C3.732 20.572 3.836 20.684 3.948 20.828C4.124 20.988 4.172 21.188 4.092 21.428C4.028 21.684 3.82 21.868 3.468 21.98C3.228 22.108 2.94 22.196 2.604 22.244C2.284 22.292 1.988 22.3 1.716 22.268C1.444 22.252 1.244 22.204 1.116 22.124Z" fill="white"/>
</svg>
