<?xml version="1.0" encoding="UTF-8"?>
<svg width="1050px" height="341px" viewBox="0 0 1050 341" version="1.1" xmlns="http://www.w3.org/2000/svg" xmlns:xlink="http://www.w3.org/1999/xlink">
    <!-- Generator: Sketch 56.3 (81716) - https://sketch.com -->
    <title>tourmalinecore white</title>
    <desc>Created with Sketch.</desc>
    <g id="Page-1" stroke="none" stroke-width="1" fill="none" fill-rule="evenodd">
        <g id="export-dark-bg" transform="translate(-5132.000000, -2123.000000)" fill="#FFFFFF" fill-rule="nonzero">
            <path d="M5190.566,2254.88485 C5192.55001,2254.88485 5194.16199,2255.56684 5195.402,2256.93085 C5196.64201,2258.29485 5197.262,2260.03084 5197.262,2262.13885 C5197.262,2264.12286 5196.51801,2265.79684 5195.03,2267.16085 C5193.54199,2268.52485 5191.68201,2269.20685 5189.45,2269.20685 L5185.544,2269.20685 C5178.97197,2269.20685 5173.08203,2267.62586 5167.874,2264.46385 C5162.66597,2261.30183 5158.60501,2257.02387 5155.691,2251.62985 C5152.77699,2246.23582 5151.32,2240.12888 5151.32,2233.30885 L5151.32,2183.64685 L5139.23,2183.64685 C5137.24599,2183.64685 5135.66501,2183.05785 5134.487,2181.87985 C5133.30899,2180.70184 5132.72,2179.24486 5132.72,2177.50885 C5132.72,2175.64884 5133.30899,2174.12985 5134.487,2172.95185 C5135.66501,2171.77384 5137.24599,2171.18485 5139.23,2171.18485 L5151.32,2171.18485 L5151.32,2142.35485 C5151.32,2140.24684 5151.97099,2138.51085 5153.273,2137.14685 C5154.57501,2135.78284 5156.27999,2135.10085 5158.388,2135.10085 C5160.49601,2135.10085 5162.23199,2135.78284 5163.596,2137.14685 C5164.96001,2138.51085 5165.642,2140.24684 5165.642,2142.35485 L5165.642,2171.18485 L5186.66,2171.18485 C5188.64401,2171.18485 5190.22499,2171.77384 5191.403,2172.95185 C5192.58101,2174.12985 5193.17,2175.64884 5193.17,2177.50885 C5193.17,2179.24486 5192.58101,2180.70184 5191.403,2181.87985 C5190.22499,2183.05785 5188.64401,2183.64685 5186.66,2183.64685 L5165.642,2183.64685 L5165.642,2233.30885 C5165.642,2239.63288 5167.50198,2244.80983 5171.222,2248.83985 C5174.94202,2252.86987 5179.71597,2254.88485 5185.544,2254.88485 L5190.566,2254.88485 Z M5266.826,2166.53485 C5276.62205,2166.53485 5285.42596,2168.76682 5293.238,2173.23085 C5301.05004,2177.69487 5307.21898,2183.89481 5311.745,2191.83085 C5316.27102,2199.76689 5318.534,2208.6328 5318.534,2218.42885 C5318.534,2228.2249 5316.30202,2237.05981 5311.838,2244.93385 C5307.37398,2252.80789 5301.20504,2258.97682 5293.331,2263.44085 C5285.45696,2267.90487 5276.62205,2270.13685 5266.826,2270.13685 C5257.02995,2270.13685 5248.19504,2267.90487 5240.321,2263.44085 C5232.44696,2258.97682 5226.27802,2252.80789 5221.814,2244.93385 C5217.34998,2237.05981 5215.118,2228.2249 5215.118,2218.42885 C5215.118,2208.6328 5217.34998,2199.76689 5221.814,2191.83085 C5226.27802,2183.89481 5232.44696,2177.69487 5240.321,2173.23085 C5248.19504,2168.76682 5257.02995,2166.53485 5266.826,2166.53485 Z M5266.826,2179.55485 C5259.75796,2179.55485 5253.34103,2181.22883 5247.575,2184.57685 C5241.80897,2187.92486 5237.28302,2192.54382 5233.997,2198.43385 C5230.71098,2204.32388 5229.068,2210.98881 5229.068,2218.42885 C5229.068,2225.74488 5230.71098,2232.34782 5233.997,2238.23785 C5237.28302,2244.12788 5241.80897,2248.74683 5247.575,2252.09485 C5253.34103,2255.44286 5259.75796,2257.11685 5266.826,2257.11685 C5274.01804,2257.11685 5280.46597,2255.44286 5286.17,2252.09485 C5291.87403,2248.74683 5296.33798,2244.12788 5299.562,2238.23785 C5302.78602,2232.34782 5304.398,2225.74488 5304.398,2218.42885 C5304.398,2210.98881 5302.78602,2204.32388 5299.562,2198.43385 C5296.33798,2192.54382 5291.87403,2187.92486 5286.17,2184.57685 C5280.46597,2181.22883 5274.01804,2179.55485 5266.826,2179.55485 Z M5431.622,2167.46485 C5433.73001,2167.46485 5435.46599,2168.11584 5436.83,2169.41785 C5438.19401,2170.71985 5438.876,2172.42484 5438.876,2174.53285 L5438.876,2261.95285 C5438.876,2264.06086 5438.19401,2265.79684 5436.83,2267.16085 C5435.46599,2268.52485 5433.73001,2269.20685 5431.622,2269.20685 C5429.51399,2269.20685 5427.80901,2268.52485 5426.507,2267.16085 C5425.20499,2265.79684 5424.554,2264.06086 5424.554,2261.95285 L5424.554,2255.62885 C5420.46198,2260.21687 5415.50203,2263.81283 5409.674,2266.41685 C5403.84597,2269.02086 5397.52203,2270.32285 5390.702,2270.32285 C5381.89796,2270.32285 5373.99304,2268.46287 5366.987,2264.74285 C5359.98096,2261.02283 5354.49402,2255.59788 5350.526,2248.46785 C5346.55798,2241.33781 5344.574,2232.8129 5344.574,2222.89285 L5344.574,2174.53285 C5344.574,2172.54884 5345.25599,2170.87485 5346.62,2169.51085 C5347.98401,2168.14684 5349.65799,2167.46485 5351.642,2167.46485 C5353.75001,2167.46485 5355.48599,2168.14684 5356.85,2169.51085 C5358.21401,2170.87485 5358.896,2172.54884 5358.896,2174.53285 L5358.896,2222.89285 C5358.896,2233.9289 5361.96497,2242.32982 5368.103,2248.09585 C5374.24103,2253.86188 5382.26995,2256.74485 5392.19,2256.74485 C5398.26603,2256.74485 5403.75298,2255.56686 5408.651,2253.21085 C5413.54902,2250.85484 5417.42399,2247.59987 5420.276,2243.44585 C5423.12801,2239.29183 5424.554,2234.67287 5424.554,2229.58885 L5424.554,2174.53285 C5424.554,2172.42484 5425.20499,2170.71985 5426.507,2169.41785 C5427.80901,2168.11584 5429.51399,2167.46485 5431.622,2167.46485 Z M5518.298,2166.34885 C5523.50603,2166.34885 5527.62898,2167.03084 5530.667,2168.39485 C5533.70502,2169.75885 5535.224,2171.68083 5535.224,2174.16085 C5535.224,2174.90485 5535.162,2175.46285 5535.038,2175.83485 C5534.542,2177.57086 5533.76701,2178.74884 5532.713,2179.36885 C5531.65899,2179.98885 5530.20201,2180.29885 5528.342,2180.29885 C5527.22599,2180.29885 5525.30401,2180.17485 5522.576,2179.92685 C5521.584,2179.80285 5520.09601,2179.74085 5518.112,2179.74085 C5508.81195,2179.74085 5501.21703,2182.22082 5495.327,2187.18085 C5489.43697,2192.14087 5486.492,2198.58881 5486.492,2206.52485 L5486.492,2262.13885 C5486.492,2264.37086 5485.87201,2266.10684 5484.632,2267.34685 C5483.39199,2268.58685 5481.65601,2269.20685 5479.424,2269.20685 C5477.19199,2269.20685 5475.45601,2268.58685 5474.216,2267.34685 C5472.97599,2266.10684 5472.356,2264.37086 5472.356,2262.13885 L5472.356,2174.53285 C5472.356,2172.30084 5472.97599,2170.56485 5474.216,2169.32485 C5475.45601,2168.08484 5477.19199,2167.46485 5479.424,2167.46485 C5481.65601,2167.46485 5483.39199,2168.08484 5484.632,2169.32485 C5485.87201,2170.56485 5486.492,2172.30084 5486.492,2174.53285 L5486.492,2182.71685 C5490.08802,2177.50882 5494.67597,2173.47886 5500.256,2170.62685 C5505.83603,2167.77483 5511.84997,2166.34885 5518.298,2166.34885 Z M5664.68,2166.34885 C5671.99604,2166.34885 5678.47497,2168.08483 5684.117,2171.55685 C5689.75903,2175.02886 5694.16098,2179.95782 5697.323,2186.34385 C5700.48502,2192.72988 5702.066,2200.13881 5702.066,2208.57085 L5702.066,2262.13885 C5702.066,2264.24686 5701.41501,2265.95184 5700.113,2267.25385 C5698.81099,2268.55585 5697.10601,2269.20685 5694.998,2269.20685 C5692.88999,2269.20685 5691.15401,2268.55585 5689.79,2267.25385 C5688.42599,2265.95184 5687.744,2264.24686 5687.744,2262.13885 L5687.744,2208.57085 C5687.744,2199.7668 5685.48102,2192.79187 5680.955,2187.64585 C5676.42898,2182.49982 5670.50804,2179.92685 5663.192,2179.92685 C5655.37996,2179.92685 5649.05602,2182.53082 5644.22,2187.73885 C5639.38398,2192.94687 5637.028,2199.76681 5637.152,2208.19885 L5637.152,2262.13885 C5637.152,2264.24686 5636.50101,2265.95184 5635.199,2267.25385 C5633.89699,2268.55585 5632.19201,2269.20685 5630.084,2269.20685 C5627.97599,2269.20685 5626.24001,2268.55585 5624.876,2267.25385 C5623.51199,2265.95184 5622.83,2264.24686 5622.83,2262.13885 L5622.83,2208.57085 C5622.83,2199.7668 5620.56702,2192.79187 5616.041,2187.64585 C5611.51498,2182.49982 5605.59404,2179.92685 5598.278,2179.92685 C5590.58996,2179.92685 5584.26602,2182.46882 5579.306,2187.55285 C5574.34598,2192.63687 5571.866,2199.14681 5571.866,2207.08285 L5571.866,2262.13885 C5571.866,2264.24686 5571.21501,2265.95184 5569.913,2267.25385 C5568.61099,2268.55585 5566.90601,2269.20685 5564.798,2269.20685 C5562.68999,2269.20685 5560.95401,2268.55585 5559.59,2267.25385 C5558.22599,2265.95184 5557.544,2264.24686 5557.544,2262.13885 L5557.544,2174.71885 C5557.544,2172.61084 5558.22599,2170.87485 5559.59,2169.51085 C5560.95401,2168.14684 5562.68999,2167.46485 5564.798,2167.46485 C5566.90601,2167.46485 5568.61099,2168.14684 5569.913,2169.51085 C5571.21501,2170.87485 5571.866,2172.61084 5571.866,2174.71885 L5571.866,2178.81085 C5575.33802,2174.84283 5579.46098,2171.77386 5584.235,2169.60385 C5589.00902,2167.43384 5594.18597,2166.34885 5599.766,2166.34885 C5606.58603,2166.34885 5612.72397,2167.89883 5618.18,2170.99885 C5623.63603,2174.09886 5627.97598,2178.43882 5631.2,2184.01885 C5634.79602,2178.43882 5639.47697,2174.09886 5645.243,2170.99885 C5651.00903,2167.89883 5657.48796,2166.34885 5664.68,2166.34885 Z M5780,2166.53485 C5789.67205,2166.53485 5798.44496,2168.79782 5806.319,2173.32385 C5814.19304,2177.84987 5820.39298,2184.08081 5824.919,2192.01685 C5829.44502,2199.95289 5831.708,2208.7568 5831.708,2218.42885 L5831.708,2262.13885 C5831.708,2264.12286 5831.02601,2265.79684 5829.662,2267.16085 C5828.29799,2268.52485 5826.56201,2269.20685 5824.454,2269.20685 C5822.34599,2269.20685 5820.61001,2268.55585 5819.246,2267.25385 C5817.88199,2265.95184 5817.2,2264.24686 5817.2,2262.13885 L5817.2,2250.97885 C5812.85998,2256.93088 5807.34203,2261.61183 5800.646,2265.02185 C5793.94997,2268.43186 5786.57204,2270.13685 5778.512,2270.13685 C5769.08795,2270.13685 5760.56304,2267.87387 5752.937,2263.34785 C5745.31096,2258.82182 5739.29702,2252.62189 5734.895,2244.74785 C5730.49298,2236.87381 5728.292,2228.1009 5728.292,2218.42885 C5728.292,2208.7568 5730.55498,2199.95289 5735.081,2192.01685 C5739.60702,2184.08081 5745.80696,2177.84987 5753.681,2173.32385 C5761.55504,2168.79782 5770.32795,2166.53485 5780,2166.53485 Z M5780,2257.11685 C5787.06804,2257.11685 5793.45397,2255.44286 5799.158,2252.09485 C5804.86203,2248.74683 5809.35698,2244.12788 5812.643,2238.23785 C5815.92902,2232.34782 5817.572,2225.74488 5817.572,2218.42885 C5817.572,2211.11281 5815.92902,2204.50988 5812.643,2198.61985 C5809.35698,2192.72982 5804.86203,2188.07986 5799.158,2184.66985 C5793.45397,2181.25983 5787.06804,2179.55485 5780,2179.55485 C5772.93196,2179.55485 5766.51503,2181.25983 5760.749,2184.66985 C5754.98297,2188.07986 5750.45702,2192.72982 5747.171,2198.61985 C5743.88498,2204.50988 5742.242,2211.11281 5742.242,2218.42885 C5742.242,2225.74488 5743.88498,2232.34782 5747.171,2238.23785 C5750.45702,2244.12788 5754.98297,2248.74683 5760.749,2252.09485 C5766.51503,2255.44286 5772.93196,2257.11685 5780,2257.11685 Z M5855.888,2131.00885 C5855.888,2128.90084 5856.56999,2127.19585 5857.934,2125.89385 C5859.29801,2124.59184 5860.97199,2123.94085 5862.956,2123.94085 C5865.06401,2123.94085 5866.76899,2124.59184 5868.071,2125.89385 C5869.37301,2127.19585 5870.024,2128.90084 5870.024,2131.00885 L5870.024,2237.02885 C5870.024,2242.36087 5871.10899,2246.70083 5873.279,2250.04885 C5875.44901,2253.39686 5878.20798,2255.07085 5881.556,2255.07085 L5886.206,2255.07085 C5888.06601,2255.07085 5889.55399,2255.72184 5890.67,2257.02385 C5891.78601,2258.32585 5892.344,2260.03084 5892.344,2262.13885 C5892.344,2264.24686 5891.56901,2265.95184 5890.019,2267.25385 C5888.46899,2268.55585 5886.45401,2269.20685 5883.974,2269.20685 L5881.556,2269.20685 C5873.99196,2269.20685 5867.82302,2266.19988 5863.049,2260.18585 C5858.27498,2254.17182 5855.888,2246.45289 5855.888,2237.02885 L5855.888,2131.00885 Z M5915.036,2174.71885 C5915.036,2172.61084 5915.71799,2170.87485 5917.082,2169.51085 C5918.44601,2168.14684 5920.18199,2167.46485 5922.29,2167.46485 C5924.39801,2167.46485 5926.10299,2168.14684 5927.405,2169.51085 C5928.70701,2170.87485 5929.358,2172.61084 5929.358,2174.71885 L5929.358,2261.95285 C5929.358,2264.06086 5928.70701,2265.79684 5927.405,2267.16085 C5926.10299,2268.52485 5924.39801,2269.20685 5922.29,2269.20685 C5920.18199,2269.20685 5918.44601,2268.52485 5917.082,2267.16085 C5915.71799,2265.79684 5915.036,2264.06086 5915.036,2261.95285 L5915.036,2174.71885 Z M5922.29,2127.84685 C5925.01801,2127.84685 5927.37399,2128.77684 5929.358,2130.63685 C5931.34201,2132.49686 5932.334,2134.91483 5932.334,2137.89085 C5932.334,2140.74286 5931.34201,2143.16084 5929.358,2145.14485 C5927.37399,2147.12886 5924.95601,2148.12085 5922.104,2148.12085 C5919.25199,2148.12085 5916.86501,2147.12886 5914.943,2145.14485 C5913.02099,2143.16084 5912.06,2140.74286 5912.06,2137.89085 C5912.06,2134.91483 5913.05199,2132.49686 5915.036,2130.63685 C5917.02001,2128.77684 5919.43799,2127.84685 5922.29,2127.84685 Z M6013.988,2166.34885 C6022.79204,2166.34885 6030.69696,2168.20883 6037.703,2171.92885 C6044.70904,2175.64887 6050.19598,2181.07381 6054.164,2188.20385 C6058.13202,2195.33388 6060.116,2203.8588 6060.116,2213.77885 L6060.116,2262.13885 C6060.116,2264.12286 6059.43401,2265.79684 6058.07,2267.16085 C6056.70599,2268.52485 6055.03201,2269.20685 6053.048,2269.20685 C6050.93999,2269.20685 6049.20401,2268.52485 6047.84,2267.16085 C6046.47599,2265.79684 6045.794,2264.12286 6045.794,2262.13885 L6045.794,2213.77885 C6045.794,2202.74279 6042.72503,2194.34188 6036.587,2188.57585 C6030.44897,2182.80982 6022.42005,2179.92685 6012.5,2179.92685 C6006.42397,2179.92685 6000.93702,2181.10484 5996.039,2183.46085 C5991.14098,2185.81686 5987.26601,2189.07183 5984.414,2193.22585 C5981.56199,2197.37987 5980.136,2201.99882 5980.136,2207.08285 L5980.136,2262.13885 C5980.136,2264.24686 5979.48501,2265.95184 5978.183,2267.25385 C5976.88099,2268.55585 5975.17601,2269.20685 5973.068,2269.20685 C5970.95999,2269.20685 5969.22401,2268.55585 5967.86,2267.25385 C5966.49599,2265.95184 5965.814,2264.24686 5965.814,2262.13885 L5965.814,2174.71885 C5965.814,2172.61084 5966.49599,2170.87485 5967.86,2169.51085 C5969.22401,2168.14684 5970.95999,2167.46485 5973.068,2167.46485 C5975.17601,2167.46485 5976.88099,2168.14684 5978.183,2169.51085 C5979.48501,2170.87485 5980.136,2172.61084 5980.136,2174.71885 L5980.136,2181.04285 C5984.22802,2176.45482 5989.18797,2172.85886 5995.016,2170.25485 C6000.84403,2167.65083 6007.16797,2166.34885 6013.988,2166.34885 Z M6135.074,2166.53485 C6144.25005,2166.53485 6152.37196,2168.67383 6159.44,2172.95185 C6166.50804,2177.22987 6171.99498,2183.15081 6175.901,2190.71485 C6179.80702,2198.27889 6181.76,2206.8968 6181.76,2216.56885 C6181.76,2218.55286 6181.14001,2220.13384 6179.9,2221.31185 C6178.65999,2222.48985 6177.04801,2223.07885 6175.064,2223.07885 L6099.92,2223.07885 C6100.912,2233.2469 6104.87997,2241.49282 6111.824,2247.81685 C6118.76803,2254.14088 6127.44795,2257.30285 6137.864,2257.30285 C6142.32802,2257.30285 6146.82298,2256.52786 6151.349,2254.97785 C6155.87502,2253.42784 6159.50199,2251.47486 6162.23,2249.11885 C6163.842,2247.87884 6165.51599,2247.25885 6167.252,2247.25885 C6168.61601,2247.25885 6169.97999,2247.75484 6171.344,2248.74685 C6172.95601,2250.23485 6173.762,2251.90884 6173.762,2253.76885 C6173.762,2255.38086 6173.08001,2256.80684 6171.716,2258.04685 C6167.62398,2261.51886 6162.41603,2264.40184 6156.092,2266.69585 C6149.76797,2268.98986 6143.69203,2270.13685 6137.864,2270.13685 C6127.94395,2270.13685 6119.07804,2267.93587 6111.266,2263.53385 C6103.45396,2259.13183 6097.34702,2252.99389 6092.945,2245.11985 C6088.54298,2237.24581 6086.342,2228.3489 6086.342,2218.42885 C6086.342,2208.3848 6088.41898,2199.42589 6092.573,2191.55185 C6096.72702,2183.67781 6102.49296,2177.53987 6109.871,2173.13785 C6117.24904,2168.73583 6125.64995,2166.53485 6135.074,2166.53485 Z M6135.074,2179.36885 C6125.64995,2179.36885 6117.83803,2182.28282 6111.638,2188.11085 C6105.43797,2193.93888 6101.65601,2201.6268 6100.292,2211.17485 L6168.368,2211.17485 C6167.376,2201.6268 6163.90403,2193.93888 6157.952,2188.11085 C6151.99997,2182.28282 6144.37405,2179.36885 6135.074,2179.36885 Z M5189.264,2359.74169 C5204.76408,2359.74169 5217.34995,2365.69363 5227.022,2377.59769 C5228.014,2378.7137 5228.51,2380.01569 5228.51,2381.50369 C5228.51,2383.4877 5227.45601,2385.22369 5225.348,2386.71169 C5224.23199,2387.4557 5223.05401,2387.82769 5221.814,2387.82769 C5219.95399,2387.82769 5218.15601,2386.8977 5216.42,2385.03769 C5212.69998,2380.94567 5208.60802,2377.8767 5204.144,2375.83069 C5199.67998,2373.78468 5194.72003,2372.76169 5189.264,2372.76169 C5182.44397,2372.76169 5176.36803,2374.40468 5171.036,2377.69069 C5165.70397,2380.97671 5161.58101,2385.59566 5158.667,2391.54769 C5155.75299,2397.49972 5154.296,2404.19566 5154.296,2411.63569 C5154.296,2418.95173 5155.84598,2425.55467 5158.946,2431.44469 C5162.04602,2437.33472 5166.38597,2441.95368 5171.966,2445.30169 C5177.54603,2448.64971 5183.93196,2450.32369 5191.124,2450.32369 C5201.04405,2450.32369 5209.04197,2447.65772 5215.118,2442.32569 C5216.73001,2440.96169 5218.40399,2440.27969 5220.14,2440.27969 C5221.62801,2440.27969 5222.99199,2440.77569 5224.232,2441.76769 C5225.96801,2443.2557 5226.836,2444.92969 5226.836,2446.78969 C5226.836,2448.4017 5226.21601,2449.76569 5224.976,2450.88169 C5216.04796,2459.18974 5204.76407,2463.34369 5191.124,2463.34369 C5181.45195,2463.34369 5172.77204,2461.08072 5165.084,2456.55469 C5157.39596,2452.02867 5151.35102,2445.82873 5146.949,2437.95469 C5142.54698,2430.08066 5140.346,2421.30774 5140.346,2411.63569 C5140.346,2401.71564 5142.45398,2392.81873 5146.67,2384.94469 C5150.88602,2377.07066 5156.71396,2370.90172 5164.154,2366.43769 C5171.59404,2361.97367 5179.96395,2359.74169 5189.264,2359.74169 Z M5302.91,2359.74169 C5312.70605,2359.74169 5321.50996,2361.97367 5329.322,2366.43769 C5337.13404,2370.90172 5343.30298,2377.10165 5347.829,2385.03769 C5352.35502,2392.97373 5354.618,2401.83965 5354.618,2411.63569 C5354.618,2421.43174 5352.38602,2430.26666 5347.922,2438.14069 C5343.45798,2446.01473 5337.28904,2452.18367 5329.415,2456.64769 C5321.54096,2461.11172 5312.70605,2463.34369 5302.91,2463.34369 C5293.11395,2463.34369 5284.27904,2461.11172 5276.405,2456.64769 C5268.53096,2452.18367 5262.36202,2446.01473 5257.898,2438.14069 C5253.43398,2430.26666 5251.202,2421.43174 5251.202,2411.63569 C5251.202,2401.83965 5253.43398,2392.97373 5257.898,2385.03769 C5262.36202,2377.10165 5268.53096,2370.90172 5276.405,2366.43769 C5284.27904,2361.97367 5293.11395,2359.74169 5302.91,2359.74169 Z M5302.91,2372.76169 C5295.84196,2372.76169 5289.42503,2374.43568 5283.659,2377.78369 C5277.89297,2381.13171 5273.36702,2385.75067 5270.081,2391.64069 C5266.79498,2397.53072 5265.152,2404.19566 5265.152,2411.63569 C5265.152,2418.95173 5266.79498,2425.55467 5270.081,2431.44469 C5273.36702,2437.33472 5277.89297,2441.95368 5283.659,2445.30169 C5289.42503,2448.64971 5295.84196,2450.32369 5302.91,2450.32369 C5310.10204,2450.32369 5316.54997,2448.64971 5322.254,2445.30169 C5327.95803,2441.95368 5332.42198,2437.33472 5335.646,2431.44469 C5338.87002,2425.55467 5340.482,2418.95173 5340.482,2411.63569 C5340.482,2404.19566 5338.87002,2397.53072 5335.646,2391.64069 C5332.42198,2385.75067 5327.95803,2381.13171 5322.254,2377.78369 C5316.54997,2374.43568 5310.10204,2372.76169 5302.91,2372.76169 Z M5428.46,2359.55569 C5433.66803,2359.55569 5437.79098,2360.23769 5440.829,2361.60169 C5443.86702,2362.9657 5445.386,2364.88768 5445.386,2367.36769 C5445.386,2368.1117 5445.324,2368.66969 5445.2,2369.04169 C5444.704,2370.7777 5443.92901,2371.95569 5442.875,2372.57569 C5441.82099,2373.1957 5440.36401,2373.50569 5438.504,2373.50569 C5437.38799,2373.50569 5435.46601,2373.3817 5432.738,2373.13369 C5431.746,2373.00969 5430.25801,2372.94769 5428.274,2372.94769 C5418.97395,2372.94769 5411.37903,2375.42767 5405.489,2380.38769 C5399.59897,2385.34772 5396.654,2391.79565 5396.654,2399.73169 L5396.654,2455.34569 C5396.654,2457.57771 5396.03401,2459.31369 5394.794,2460.55369 C5393.55399,2461.7937 5391.81801,2462.41369 5389.586,2462.41369 C5387.35399,2462.41369 5385.61801,2461.7937 5384.378,2460.55369 C5383.13799,2459.31369 5382.518,2457.57771 5382.518,2455.34569 L5382.518,2367.73969 C5382.518,2365.50768 5383.13799,2363.7717 5384.378,2362.53169 C5385.61801,2361.29169 5387.35399,2360.67169 5389.586,2360.67169 C5391.81801,2360.67169 5393.55399,2361.29169 5394.794,2362.53169 C5396.03401,2363.7717 5396.654,2365.50768 5396.654,2367.73969 L5396.654,2375.92369 C5400.25002,2370.71567 5404.83797,2366.68571 5410.418,2363.83369 C5415.99803,2360.98168 5422.01197,2359.55569 5428.46,2359.55569 Z M5503.604,2359.74169 C5512.78005,2359.74169 5520.90196,2361.88067 5527.97,2366.15869 C5535.03804,2370.43672 5540.52498,2376.35766 5544.431,2383.92169 C5548.33702,2391.48573 5550.29,2400.10365 5550.29,2409.77569 C5550.29,2411.7597 5549.67001,2413.34069 5548.43,2414.51869 C5547.18999,2415.6967 5545.57801,2416.28569 5543.594,2416.28569 L5468.45,2416.28569 C5469.442,2426.45375 5473.40997,2434.69966 5480.354,2441.02369 C5487.29803,2447.34773 5495.97795,2450.50969 5506.394,2450.50969 C5510.85802,2450.50969 5515.35298,2449.7347 5519.879,2448.18469 C5524.40502,2446.63469 5528.03199,2444.68171 5530.76,2442.32569 C5532.372,2441.08569 5534.04599,2440.46569 5535.782,2440.46569 C5537.14601,2440.46569 5538.50999,2440.96169 5539.874,2441.95369 C5541.48601,2443.4417 5542.292,2445.11569 5542.292,2446.97569 C5542.292,2448.5877 5541.61001,2450.01369 5540.246,2451.25369 C5536.15398,2454.72571 5530.94603,2457.60868 5524.622,2459.90269 C5518.29797,2462.19671 5512.22203,2463.34369 5506.394,2463.34369 C5496.47395,2463.34369 5487.60804,2461.14272 5479.796,2456.74069 C5471.98396,2452.33867 5465.87702,2446.20073 5461.475,2438.32669 C5457.07298,2430.45266 5454.872,2421.55574 5454.872,2411.63569 C5454.872,2401.59164 5456.94898,2392.63273 5461.103,2384.75869 C5465.25702,2376.88466 5471.02296,2370.74672 5478.401,2366.34469 C5485.77904,2361.94267 5494.17995,2359.74169 5503.604,2359.74169 Z M5503.604,2372.57569 C5494.17995,2372.57569 5486.36803,2375.48967 5480.168,2381.31769 C5473.96797,2387.14572 5470.18601,2394.83365 5468.822,2404.38169 L5536.898,2404.38169 C5535.906,2394.83365 5532.43403,2387.14572 5526.482,2381.31769 C5520.52997,2375.48967 5512.90405,2372.57569 5503.604,2372.57569 Z" id="tourmalinecore-white"></path>
        </g>
    </g>
</svg>