<svg width="45" height="52" fill="none" xmlns="http://www.w3.org/2000/svg">
  <path d="M40 42.6h-2.4v2.3h2.5v-2.3zM40 40.2h-2.4v2.4h2.5v-2.4zM37.6 35.6h-2.5v2.3h2.5v-2.3zM37.6 40.2h-2.5v2.4h2.5v-2.4zM37.6 42.6h-2.5v2.3h2.5v-2.3zM37.6 38h-2.5v2.2h2.5V38zM35.1 42.6h-2.4v2.3H35v-2.3z" fill="#6B3E2D"/>
  <path d="M35.1 40.2h-2.4v2.4H35v-2.4z" fill="#734230"/>
  <path d="M35.1 35.6h-2.4v2.3H35v-2.3zM35.1 33.2h-2.4v2.4H35v-2.4z" fill="#6B3E2D"/>
  <path d="M35.1 38h-2.4v2.2H35V38z" fill="#734230"/>
  <path d="M32.7 35.6h-2.5v2.3h2.5v-2.3zM32.7 45h-2.5v2.2h2.5V45z" fill="#6B3E2D"/>
  <path d="M32.7 38h-2.5v2.2h2.5V38z" fill="#734230"/>
  <path d="M32.7 42.6h-2.5v2.3h2.5v-2.3z" fill="#6B3E2D"/>
  <path d="M32.7 40.2h-2.5v2.4h2.5v-2.4z" fill="#734230"/>
  <path d="M30.2 40.2h-2.4v2.4h2.4v-2.4zM30.2 38h-2.4v2.2h2.4V38zM30.2 35.6h-2.4v2.3h2.4v-2.3z" fill="#6B3E2D"/>
  <path d="M30.2 42.6h-2.4v2.3h2.4v-2.3z" fill="#734230"/>
  <path d="M30.2 45h-2.4v2.2h2.4V45z" fill="#6B3E2D"/>
  <path d="M27.8 40.2h-2.5v2.4h2.5v-2.4z" fill="#734230"/>
  <path d="M27.8 45h-2.5v2.2h2.5V45zM27.8 42.6h-2.5v2.3h2.5v-2.3zM22.8 45h-2.4v2.2h2.4V45zM22.8 40.2h-2.4v2.4h2.4v-2.4zM22.8 42.6h-2.4v2.3h2.4v-2.3zM25.3 45h-2.5v2.2h2.5V45zM25.3 42.6h-2.5v2.3h2.5v-2.3zM25.3 40.2h-2.5v2.4h2.5v-2.4zM20.4 42.6h-2.5v2.3h2.5v-2.3zM20.4 45h-2.5v2.2h2.5V45zM20.4 40.2h-2.5v2.4h2.5v-2.4z" fill="#6B3E2D"/>
  <path d="M18 42.6h-2.5v2.3h2.4v-2.3z" fill="#734230"/>
  <path d="M18 45h-2.5v2.2h2.4V45zM15.5 45H13v2.2h2.5V45zM15.5 42.6H13v2.3h2.5v-2.3zM10.5 42.6H8.1v2.3h2.4v-2.3z" fill="#6B3E2D"/>
  <path d="M10.5 40.2H8.1v2.4h2.4v-2.4z" fill="#734230"/>
  <path d="M10.5 38H8.1v2.2h2.4V38zM10.5 35.6H8.1v2.3h2.4v-2.3zM8 42.6H5.7v2.3h2.5v-2.3zM8 40.2H5.7v2.4h2.5v-2.4zM27.8 38h-2.5v2.2h2.5V38zM22.8 38h-2.4v2.2h2.4V38zM25.3 38h-2.5v2.2h2.5V38zM20.4 38h-2.5v2.2h2.5V38z" fill="#6B3E2D"/>
  <path d="M18 38h-2.5v2.2h2.4V38z" fill="#6B3E2D"/>
  <path d="M18 40.2h-2.5v2.4h2.4v-2.4z" fill="#734230"/>
  <path d="M18 35.6h-2.5v2.3h2.4v-2.3z" fill="#6B3E2D"/>
  <path d="M15.5 38H13v2.2h2.5V38z" fill="#734230"/>
  <path d="M13 35.6h-2.5v2.3H13v-2.3zM13 33.2h-2.5v2.4H13v-2.4z" fill="#6B3E2D"/>
  <path d="M13 38h-2.5v2.2H13V38z" fill="#734230"/>
  <path d="M13 42.6h-2.5v2.3H13v-2.3zM15.5 35.6H13v2.3h2.5v-2.3z" fill="#6B3E2D"/>
  <path d="M13 40.2h-2.5v2.4H13v-2.4zM15.5 40.2H13v2.4h2.5v-2.4z" fill="#734230"/>
  <path d="M42.5 42.6h-2.4v2.3h2.4v-2.3zM42.5 40.2h-2.4v2.4h2.4v-2.4zM42.5 24h-2.4v2.3h2.4v-2.4zM42.5 21.6h-2.4v2.3h2.4v-2.3zM42.5 19.3h-2.4v2.3h2.4v-2.3zM42.5 17h-2.4v2.3h2.4v-2.4zM40 45h-2.4v2.2h2.5V45zM40 38h-2.4v2.2h2.5V38zM40 35.6h-2.4v2.3h2.5v-2.3zM40 28.6h-2.4v2.3h2.5v-2.3zM40 26.3h-2.4v2.3h2.5v-2.3z" fill="#1E1E1E"/>
  <path d="M40 24h-2.4v2.3h2.5v-2.4zM40 21.6h-2.4v2.3h2.5v-2.3zM40 19.3h-2.4v2.3h2.5v-2.3zM40 17h-2.4v2.3h2.5v-2.4z" fill="#1EC7FA"/>
  <path d="M40 14.6h-2.4v2.3h2.5v-2.3z" fill="#1E1E1E"/>
  <path d="M40 12.3h-2.4v2.3h2.5v-2.3zM37.6 45h-2.5v2.2h2.5V45zM37.6 33.2h-2.5v2.4h2.5v-2.4zM37.6 31h-2.5v2.2h2.5V31z" fill="#1E1E1E"/>
  <path d="M37.6 28.6h-2.5v2.3h2.5v-2.3zM37.6 26.3h-2.5v2.3h2.5v-2.3zM37.6 24h-2.5v2.3h2.5v-2.4zM37.6 21.6h-2.5v2.3h2.5v-2.3zM37.6 19.3h-2.5v2.3h2.5v-2.3zM37.6 17h-2.5v2.3h2.5v-2.4zM37.6 14.6h-2.5v2.3h2.5v-2.3z" fill="#1EC7FA"/>
  <path d="M37.6 12.3h-2.5v2.3h2.5v-2.3z" fill="#1EC7FA"/>
  <path d="M37.6 10h-2.5v2.3h2.5V9.9zM35.1 45h-2.4v2.2H35V45z" fill="#1E1E1E"/>
  <path d="M35.1 31h-2.4v2.2H35V31zM35.1 28.6h-2.4v2.3H35v-2.3zM35.1 26.3h-2.4v2.3H35v-2.3z" fill="#1EC7FA"/>
  <path d="M35.1 24h-2.4v2.3H35v-2.4z" fill="#C6F1FA"/>
  <path d="M35.1 21.6h-2.4v2.3H35v-2.3z" fill="#1EC7FA"/>
  <path d="M35.1 19.3h-2.4v2.3H35v-2.3zM35.1 17h-2.4v2.3H35v-2.4zM35.1 14.6h-2.4v2.3H35v-2.3z" fill="#C6F1FA"/>
  <path d="M35.1 12.3h-2.4v2.3H35v-2.3zM35.1 10h-2.4v2.3H35V9.9z" fill="#1EC7FA"/>
  <path d="M35.1 7.6h-2.4v2.3H35V7.6zM32.7 47.2h-2.5v2.4h2.5v-2.4z" fill="#1E1E1E"/>
  <path d="M32.7 33.2h-2.5v2.4h2.5v-2.4zM32.7 31h-2.5v2.2h2.5V31zM32.7 28.6h-2.5v2.3h2.5v-2.3zM32.7 26.3h-2.5v2.3h2.5v-2.3zM32.7 24h-2.5v2.3h2.5v-2.4zM32.7 21.6h-2.5v2.3h2.5v-2.3zM32.7 19.3h-2.5v2.3h2.5v-2.3z" fill="#1EC7FA"/>
  <path d="M32.7 17h-2.5v2.3h2.5v-2.4zM32.7 14.6h-2.5v2.3h2.5v-2.3z" fill="#C6F1FA"/>
  <path d="M32.7 12.3h-2.5v2.3h2.5v-2.3z" fill="#C6F1FA"/>
  <path d="M32.7 10h-2.5v2.3h2.5V9.9zM32.7 7.6h-2.5v2.3h2.5V7.6z" fill="#1EC7FA"/>
  <path d="M32.7 5.3h-2.5v2.3h2.5V5.3zM30.2 47.2h-2.4v2.4h2.4v-2.4z" fill="#1E1E1E"/>
  <path d="M30.2 33.2h-2.4v2.4h2.4v-2.4zM30.2 31h-2.4v2.2h2.4V31z" fill="#1EC7FA"/>
  <path d="M30.2 28.6h-2.4v2.3h2.4v-2.3z" fill="#24E2FF"/>
  <path d="M30.2 26.3h-2.4v2.3h2.4v-2.3zM30.2 24h-2.4v2.3h2.4v-2.4zM30.2 21.6h-2.4v2.3h2.4v-2.3zM30.2 19.3h-2.4v2.3h2.4v-2.3zM30.2 17h-2.4v2.3h2.4v-2.4z" fill="#1EC7FA"/>
  <path d="M30.2 14.6h-2.4v2.3h2.4v-2.3z" fill="#C6F1FA"/>
  <path d="M30.2 12.3h-2.4v2.3h2.4v-2.3zM30.2 10h-2.4v2.3h2.4V9.9z" fill="#C6F1FA"/>
  <path d="M30.2 7.6h-2.4v2.3h2.4V7.6z" fill="#1EC7FA"/>
  <path d="M30.2 5.3h-2.4v2.3h2.4V5.3zM27.8 47.2h-2.5v2.4h2.5v-2.4z" fill="#1E1E1E"/>
  <path d="M27.8 35.6h-2.5v2.3h2.5v-2.3zM27.8 33.2h-2.5v2.4h2.5v-2.4z" fill="#1EC7FA"/>
  <path d="M27.8 31h-2.5v2.2h2.5V31zM27.8 28.6h-2.5v2.3h2.5v-2.3z" fill="#24E2FF"/>
  <path d="M27.8 26.3h-2.5v2.3h2.5v-2.3zM27.8 24h-2.5v2.3h2.5v-2.4zM27.8 21.6h-2.5v2.3h2.5v-2.3zM27.8 19.3h-2.5v2.3h2.5v-2.3zM27.8 17h-2.5v2.3h2.5v-2.4zM27.8 14.6h-2.5v2.3h2.5v-2.3z" fill="#1EC7FA"/>
  <path d="M27.8 12.3h-2.5v2.3h2.5v-2.3zM27.8 10h-2.5v2.3h2.5V9.9z" fill="#C6F1FA"/>
  <path d="M27.8 7.6h-2.5v2.3h2.5V7.6zM27.8 5.3h-2.5v2.3h2.5V5.3z" fill="#1EC7FA"/>
  <path d="M27.8 3h-2.5v2.3h2.5V2.9zM25.3 47.2h-2.5v2.4h2.5v-2.4z" fill="#1E1E1E"/>
  <path d="M25.3 35.6h-2.5v2.3h2.5v-2.3zM25.3 33.2h-2.5v2.4h2.5v-2.4z" fill="#1EC7FA"/>
  <path d="M25.3 31h-2.5v2.2h2.5V31zM25.3 28.6h-2.5v2.3h2.5v-2.3z" fill="#24E2FF"/>
  <path d="M25.3 26.3h-2.5v2.3h2.5v-2.3zM25.3 24h-2.5v2.3h2.5v-2.4zM25.3 21.6h-2.5v2.3h2.5v-2.3zM25.3 19.3h-2.5v2.3h2.5v-2.3zM25.3 17h-2.5v2.3h2.5v-2.4zM25.3 14.6h-2.5v2.3h2.5v-2.3z" fill="#1EC7FA"/>
  <path d="M25.3 12.3h-2.5v2.3h2.5v-2.3z" fill="#1EC7FA"/>
  <path d="M25.3 10h-2.5v2.3h2.5V9.9z" fill="#C6F1FA"/>
  <path d="M25.3 7.6h-2.5v2.3h2.5V7.6zM25.3 5.3h-2.5v2.3h2.5V5.3z" fill="#1EC7FA"/>
  <path d="M25.3 3h-2.5v2.3h2.5V2.9zM22.8 47.2h-2.4v2.4h2.4v-2.4z" fill="#1E1E1E"/>
  <path d="M22.8 35.6h-2.4v2.3h2.4v-2.3zM22.8 33.2h-2.4v2.4h2.4v-2.4z" fill="#1EC7FA"/>
  <path d="M22.8 31h-2.4v2.2h2.4V31zM22.8 28.6h-2.4v2.3h2.4v-2.3z" fill="#24E2FF"/>
  <path d="M22.8 26.3h-2.4v2.3h2.4v-2.3zM22.8 24h-2.4v2.3h2.4v-2.4zM22.8 21.6h-2.4v2.3h2.4v-2.3zM22.8 19.3h-2.4v2.3h2.4v-2.3zM22.8 17h-2.4v2.3h2.4v-2.4zM22.8 14.6h-2.4v2.3h2.4v-2.3z" fill="#1EC7FA"/>
  <path d="M22.8 12.3h-2.4v2.3h2.4v-2.3zM22.8 10h-2.4v2.3h2.4V9.9zM22.8 7.6h-2.4v2.3h2.4V7.6zM22.8 5.3h-2.4v2.3h2.4V5.3z" fill="#1EC7FA"/>
  <path d="M22.8 3h-2.4v2.3h2.4V2.9zM20.4 47.2h-2.5v2.4h2.5v-2.4z" fill="#1E1E1E"/>
  <path d="M20.4 35.6h-2.5v2.3h2.5v-2.3zM20.4 33.2h-2.5v2.4h2.5v-2.4z" fill="#1EC7FA"/>
  <path d="M20.4 31h-2.5v2.2h2.5V31zM20.4 28.6h-2.5v2.3h2.5v-2.3zM20.4 26.3h-2.5v2.3h2.5v-2.3z" fill="#24E2FF"/>
  <path d="M20.4 24h-2.5v2.3h2.5v-2.4zM20.4 21.6h-2.5v2.3h2.5v-2.3zM20.4 19.3h-2.5v2.3h2.5v-2.3zM20.4 17h-2.5v2.3h2.5v-2.4zM20.4 14.6h-2.5v2.3h2.5v-2.3z" fill="#1EC7FA"/>
  <path d="M20.4 12.3h-2.5v2.3h2.5v-2.3zM20.4 10h-2.5v2.3h2.5V9.9zM20.4 7.6h-2.5v2.3h2.5V7.6zM20.4 5.3h-2.5v2.3h2.5V5.3z" fill="#1EC7FA"/>
  <path d="M20.4 3h-2.5v2.3h2.5V2.9zM18 47.2h-2.5v2.4h2.4v-2.4z" fill="#1E1E1E"/>
  <path d="M18 33.2h-2.5v2.4h2.4v-2.4zM18 31h-2.5v2.2h2.4V31z" fill="#1EC7FA"/>
  <path d="M18 28.6h-2.5v2.3h2.4v-2.3zM18 26.3h-2.5v2.3h2.4v-2.3zM18 24h-2.5v2.3h2.4v-2.4z" fill="#24E2FF"/>
  <path d="M18 21.6h-2.5v2.3h2.4v-2.3zM18 19.3h-2.5v2.3h2.4v-2.3zM18 17h-2.5v2.3h2.4v-2.4z" fill="#1EC7FA"/>
  <path d="M18 14.6h-2.5v2.3h2.4v-2.3z" fill="#24E2FF"/>
  <path d="M18 12.3h-2.5v2.3h2.4v-2.3z" fill="#24E2FF"/>
  <path d="M18 10h-2.5v2.3h2.4V9.9zM18 7.6h-2.5v2.3h2.4V7.6z" fill="#1EC7FA"/>
  <path d="M18 5.3h-2.5v2.3h2.4V5.3zM15.5 47.2H13v2.4h2.5v-2.4z" fill="#1E1E1E"/>
  <path d="M15.5 33.2H13v2.4h2.5v-2.4zM15.5 31H13v2.2h2.5V31zM15.5 28.6H13v2.3h2.5v-2.3z" fill="#1EC7FA"/>
  <path d="M15.5 26.3H13v2.3h2.5v-2.3zM15.5 24H13v2.3h2.5v-2.4zM15.5 21.6H13v2.3h2.5v-2.3zM15.5 19.3H13v2.3h2.5v-2.3zM15.5 17H13v2.3h2.5v-2.4zM15.5 14.6H13v2.3h2.5v-2.3z" fill="#24E2FF"/>
  <path d="M15.5 12.3H13v2.3h2.5v-2.3zM15.5 10H13v2.3h2.5V9.9zM15.5 7.6H13v2.3h2.5V7.6z" fill="#1EC7FA"/>
  <path d="M15.5 5.3H13v2.3h2.5V5.3zM13 45h-2.5v2.2H13V45z" fill="#1E1E1E"/>
  <path d="M13 31h-2.5v2.2H13V31zM13 28.6h-2.5v2.3H13v-2.3zM13 26.3h-2.5v2.3H13v-2.3z" fill="#1EC7FA"/>
  <path d="M13 24h-2.5v2.3H13v-2.4zM13 21.6h-2.5v2.3H13v-2.3zM13 19.3h-2.5v2.3H13v-2.3zM13 17h-2.5v2.3H13v-2.4z" fill="#24E2FF"/>
  <path d="M13 14.6h-2.5v2.3H13v-2.3z" fill="#1EC7FA"/>
  <path d="M13 12.3h-2.5v2.3H13v-2.3zM13 10h-2.5v2.3H13V9.9z" fill="#1EC7FA"/>
  <path d="M13 7.6h-2.5v2.3H13V7.6zM10.5 45H8.1v2.2h2.4V45zM10.5 33.2H8.1v2.4h2.4v-2.4zM10.5 31H8.1v2.2h2.4V31z" fill="#1E1E1E"/>
  <path d="M10.5 28.6H8.1v2.3h2.4v-2.3zM10.5 26.3H8.1v2.3h2.4v-2.3zM10.5 24H8.1v2.3h2.4v-2.4zM10.5 21.6H8.1v2.3h2.4v-2.3zM10.5 19.3H8.1v2.3h2.4v-2.3zM10.5 17H8.1v2.3h2.4v-2.4zM10.5 14.6H8.1v2.3h2.4v-2.3z" fill="#1EC7FA"/>
  <path d="M10.5 12.3H8.1v2.3h2.4v-2.3z" fill="#1EC7FA"/>
  <path d="M10.5 10H8.1v2.3h2.4V9.9zM8 45H5.7v2.2h2.5V45zM8 38H5.7v2.2h2.5V38zM8 35.6H5.7v2.3h2.5v-2.3zM8 28.6H5.7v2.3h2.5v-2.3zM8 26.3H5.7v2.3h2.5v-2.3z" fill="#1E1E1E"/>
  <path d="M8 24H5.7v2.3h2.5v-2.4zM8 21.6H5.7v2.3h2.5v-2.3zM8 19.3H5.7v2.3h2.5v-2.3zM8 17H5.7v2.3h2.5v-2.4z" fill="#1EC7FA"/>
  <path d="M8 14.6H5.7v2.3h2.5v-2.3z" fill="#1E1E1E"/>
  <path d="M8 12.3H5.7v2.3h2.5v-2.3zM5.6 42.6H3.2v2.3h2.4v-2.3zM5.6 40.2H3.2v2.4h2.4v-2.4zM5.6 24H3.2v2.3h2.4v-2.4zM5.6 21.6H3.2v2.3h2.4v-2.3zM5.6 19.3H3.2v2.3h2.4v-2.3zM5.6 17H3.2v2.3h2.4v-2.4z" fill="#1E1E1E"/>
</svg>
