<svg width="51" height="51" fill="none" xmlns="http://www.w3.org/2000/svg">
  <path d="M49.86 8.9h-1.85v1.86h1.85V8.9zM49.86 7.04h-1.85V8.9h1.85V7.04zM49.86 5.18h-1.85v1.86h1.85V5.18zM49.86 3.32h-1.85v1.86h1.85V3.32z" fill="#181818"/>
  <path d="M49.86 1.47h-1.85v1.85h1.85V1.47zM48 10.76h-1.84v1.86H48v-1.86z" fill="#181818"/>
  <path d="M48 8.9h-1.84v1.86H48V8.9zM48 7.04h-1.84V8.9H48V7.04z" fill="#DBDCDC"/>
  <path d="M48 5.18h-1.84v1.86H48V5.18z" fill="#C8CBCD"/>
  <path d="M48 3.32h-1.84v1.86H48V3.32z" fill="#BCBDBE"/>
  <path d="M48 1.47h-1.84v1.85H48V1.47zM46.16 12.62H44.3v1.86h1.86v-1.86z" fill="#181818"/>
  <path d="M46.16 10.76H44.3v1.86h1.86v-1.86zM46.16 8.9H44.3v1.86h1.86V8.9z" fill="#DBDCDC"/>
  <path d="M46.16 7.04H44.3V8.9h1.86V7.04zM46.16 5.18H44.3v1.86h1.86V5.18z" fill="#C8CBCD"/>
  <path d="M46.16 3.32H44.3v1.86h1.86V3.32z" fill="#BCBDBE"/>
  <path d="M46.16 1.47H44.3v1.85h1.86V1.47zM44.3 14.48h-1.85v1.86h1.85v-1.86z" fill="#181818"/>
  <path d="M44.3 12.62h-1.85v1.86h1.85v-1.86zM44.3 10.76h-1.85v1.86h1.85v-1.86z" fill="#DBDCDC"/>
  <path d="M44.3 8.9h-1.85v1.86h1.85V8.9zM44.3 7.04h-1.85V8.9h1.85V7.04z" fill="#C8CBCD"/>
  <path d="M44.3 5.18h-1.85v1.86h1.85V5.18zM44.3 3.32h-1.85v1.86h1.85V3.32z" fill="#BCBDBE"/>
  <path d="M44.3 1.47h-1.85v1.85h1.85V1.47zM42.45 16.34h-1.86v1.86h1.86v-1.86z" fill="#181818"/>
  <path d="M42.45 14.48h-1.86v1.86h1.86v-1.86zM42.45 12.62h-1.86v1.86h1.86v-1.86z" fill="#DBDCDC"/>
  <path d="M42.45 10.76h-1.86v1.86h1.86v-1.86zM42.45 8.9h-1.86v1.86h1.86V8.9z" fill="#C8CBCD"/>
  <path d="M42.45 7.04h-1.86V8.9h1.86V7.04zM42.45 5.18h-1.86v1.86h1.86V5.18zM42.45 3.32h-1.86v1.86h1.86V3.32z" fill="#BCBDBE"/>
  <path d="M42.45 1.47h-1.86v1.85h1.86V1.47zM40.6 18.2h-1.86v1.86h1.85V18.2z" fill="#181818"/>
  <path d="M40.6 16.34h-1.86v1.86h1.85v-1.86zM40.6 14.48h-1.86v1.86h1.85v-1.86z" fill="#DBDCDC"/>
  <path d="M40.6 12.62h-1.86v1.86h1.85v-1.86zM40.6 10.76h-1.86v1.86h1.85v-1.86z" fill="#C8CBCD"/>
  <path d="M40.6 8.9h-1.86v1.86h1.85V8.9zM40.6 7.04h-1.86V8.9h1.85V7.04zM40.6 5.18h-1.86v1.86h1.85V5.18z" fill="#BCBDBE"/>
  <path d="M40.6 3.32h-1.86v1.86h1.85V3.32zM38.74 20.06h-1.85v1.85h1.85v-1.85z" fill="#181818"/>
  <path d="M38.74 18.2h-1.85v1.86h1.85V18.2zM38.74 16.34h-1.85v1.86h1.85v-1.86z" fill="#DBDCDC"/>
  <path d="M38.74 14.48h-1.85v1.86h1.85v-1.86z" fill="#C8CBCD"/>
  <path d="M38.74 12.62h-1.85v1.86h1.85v-1.86zM38.74 10.76h-1.85v1.86h1.85v-1.86zM38.74 8.9h-1.85v1.86h1.85V8.9zM38.74 7.04h-1.85V8.9h1.85V7.04z" fill="#BCBDBE"/>
  <path d="M38.74 5.18h-1.85v1.86h1.85V5.18zM36.89 21.91h-1.86v1.86h1.86v-1.86z" fill="#181818"/>
  <path d="M36.89 20.06h-1.86v1.85h1.86v-1.85zM36.89 18.2h-1.86v1.86h1.86V18.2z" fill="#DBDCDC"/>
  <path d="M36.89 16.34h-1.86v1.86h1.86v-1.86z" fill="#C8CBCD"/>
  <path d="M36.89 14.48h-1.86v1.86h1.86v-1.86zM36.89 12.62h-1.86v1.86h1.86v-1.86zM36.89 10.76h-1.86v1.86h1.86v-1.86zM36.89 8.9h-1.86v1.86h1.86V8.9z" fill="#BCBDBE"/>
  <path d="M36.89 7.04h-1.86V8.9h1.86V7.04zM35.03 23.77h-1.85v1.86h1.85v-1.86z" fill="#181818"/>
  <path d="M35.03 21.91h-1.85v1.86h1.85v-1.86zM35.03 20.06h-1.85v1.85h1.85v-1.85z" fill="#DBDCDC"/>
  <path d="M35.03 18.2h-1.85v1.86h1.85V18.2z" fill="#C8CBCD"/>
  <path d="M35.03 16.34h-1.85v1.86h1.85v-1.86zM35.03 14.48h-1.85v1.86h1.85v-1.86zM35.03 12.62h-1.85v1.86h1.85v-1.86zM35.03 10.76h-1.85v1.86h1.85v-1.86z" fill="#BCBDBE"/>
  <path d="M35.03 8.9h-1.85v1.86h1.85V8.9zM33.18 25.63h-1.85v1.86h1.85v-1.86z" fill="#181818"/>
  <path d="M33.18 23.77h-1.85v1.86h1.85v-1.86zM33.18 21.91h-1.85v1.86h1.85v-1.86z" fill="#DBDCDC"/>
  <path d="M33.18 20.06h-1.85v1.85h1.85v-1.85z" fill="#C8CBCD"/>
  <path d="M33.18 18.2h-1.85v1.86h1.85V18.2zM33.18 16.34h-1.85v1.86h1.85v-1.86zM33.18 14.48h-1.85v1.86h1.85v-1.86zM33.18 12.62h-1.85v1.86h1.85v-1.86z" fill="#BCBDBE"/>
  <path d="M33.18 10.76h-1.85v1.86h1.85v-1.86zM31.33 27.5h-1.86v1.85h1.86v-1.86z" fill="#181818"/>
  <path d="M31.33 25.63h-1.86v1.86h1.86v-1.86zM31.33 23.77h-1.86v1.86h1.86v-1.86z" fill="#DBDCDC"/>
  <path d="M31.33 21.91h-1.86v1.86h1.86v-1.86z" fill="#C8CBCD"/>
  <path d="M31.33 20.06h-1.86v1.85h1.86v-1.85zM31.33 18.2h-1.86v1.86h1.86V18.2zM31.33 16.34h-1.86v1.86h1.86v-1.86zM31.33 14.48h-1.86v1.86h1.86v-1.86z" fill="#BCBDBE"/>
  <path d="M31.33 12.62h-1.86v1.86h1.86v-1.86zM29.47 44.22h-1.85v1.86h1.85v-1.86zM29.47 42.36h-1.85v1.86h1.85v-1.86zM29.47 40.5h-1.85v1.86h1.85V40.5zM29.47 29.35h-1.85v1.86h1.85v-1.86z" fill="#181818"/>
  <path d="M29.47 27.5h-1.85v1.85h1.85v-1.86zM29.47 25.63h-1.85v1.86h1.85v-1.86z" fill="#DBDCDC"/>
  <path d="M29.47 23.77h-1.85v1.86h1.85v-1.86z" fill="#C8CBCD"/>
  <path d="M29.47 21.91h-1.85v1.86h1.85v-1.86zM29.47 20.06h-1.85v1.85h1.85v-1.85zM29.47 18.2h-1.85v1.86h1.85V18.2zM29.47 16.34h-1.85v1.86h1.85v-1.86z" fill="#BCBDBE"/>
  <path d="M29.47 14.48h-1.85v1.86h1.85v-1.86zM27.62 44.22h-1.85v1.86h1.85v-1.86z" fill="#181818"/>
  <path d="M27.62 42.36h-1.85v1.86h1.85v-1.86zM27.62 40.5h-1.85v1.86h1.85V40.5z" fill="#E0B877"/>
  <path d="M27.62 38.65h-1.85v1.85h1.85v-1.85zM27.62 31.2h-1.85v1.87h1.85V31.2z" fill="#181818"/>
  <path d="M27.62 29.35h-1.85v1.86h1.85v-1.86zM27.62 27.5h-1.85v1.85h1.85v-1.86z" fill="#DBDCDC"/>
  <path d="M27.62 25.63h-1.85v1.86h1.85v-1.86z" fill="#C8CBCD"/>
  <path d="M27.62 23.77h-1.85v1.86h1.85v-1.86zM27.62 21.91h-1.85v1.86h1.85v-1.86zM27.62 20.06h-1.85v1.85h1.85v-1.85zM27.62 18.2h-1.85v1.86h1.85V18.2z" fill="#BCBDBE"/>
  <path d="M27.62 16.34h-1.85v1.86h1.85v-1.86zM25.77 44.22H23.9v1.86h1.86v-1.86z" fill="#181818"/>
  <path d="M25.77 42.36H23.9v1.86h1.86v-1.86zM25.77 40.5H23.9v1.86h1.86V40.5zM25.77 38.65H23.9v1.85h1.86v-1.85z" fill="#D7B06C"/>
  <path d="M25.77 36.79H23.9v1.86h1.86v-1.86zM25.77 33.07H23.9v1.86h1.86v-1.86z" fill="#181818"/>
  <path d="M25.77 31.2H23.9v1.87h1.86V31.2z" fill="#DBDCDC"/>
  <path d="M25.77 29.35H23.9v1.86h1.86v-1.86z" fill="#DBDCDC"/>
  <path d="M25.77 27.5H23.9v1.85h1.86v-1.86z" fill="#C8CBCD"/>
  <path d="M25.77 25.63H23.9v1.86h1.86v-1.86zM25.77 23.77H23.9v1.86h1.86v-1.86zM25.77 21.91H23.9v1.86h1.86v-1.86zM25.77 20.06H23.9v1.85h1.86v-1.85z" fill="#BCBDBE"/>
  <path d="M25.77 18.2H23.9v1.86h1.86V18.2zM23.91 42.36h-1.85v1.86h1.85v-1.86z" fill="#181818"/>
  <path d="M23.91 40.5h-1.85v1.86h1.85V40.5z" fill="#E0B877"/>
  <path d="M23.91 38.65h-1.85v1.85h1.85v-1.85z" fill="#D7B06C"/>
  <path d="M23.91 36.79h-1.85v1.86h1.85v-1.86z" fill="#B38E39"/>
  <path d="M23.91 34.93h-1.85v1.86h1.85v-1.86z" fill="#181818"/>
  <path d="M23.91 33.07h-1.85v1.86h1.85v-1.86zM23.91 31.2h-1.85v1.87h1.85V31.2z" fill="#DBDCDC"/>
  <path d="M23.91 29.35h-1.85v1.86h1.85v-1.86z" fill="#C8CBCD"/>
  <path d="M23.91 27.5h-1.85v1.85h1.85v-1.86zM23.91 25.63h-1.85v1.86h1.85v-1.86zM23.91 23.77h-1.85v1.86h1.85v-1.86zM23.91 21.91h-1.85v1.86h1.85v-1.86z" fill="#BCBDBE"/>
  <path d="M23.91 20.06h-1.85v1.85h1.85v-1.85zM22.06 40.5H20.2v1.86h1.86V40.5z" fill="#181818"/>
  <path d="M22.06 38.65H20.2v1.85h1.86v-1.85zM22.06 36.79H20.2v1.86h1.86v-1.86z" fill="#D7B06C"/>
  <path d="M22.06 34.93H20.2v1.86h1.86v-1.86z" fill="#E0B877"/>
  <path d="M22.06 33.07H20.2v1.86h1.86v-1.86z" fill="#181818"/>
  <path d="M22.06 31.2H20.2v1.87h1.86V31.2z" fill="#C8CBCD"/>
  <path d="M22.06 29.35H20.2v1.86h1.86v-1.86zM22.06 27.5H20.2v1.85h1.86v-1.86zM22.06 25.63H20.2v1.86h1.86v-1.86zM22.06 23.77H20.2v1.86h1.86v-1.86z" fill="#BCBDBE"/>
  <path d="M22.06 21.91H20.2v1.86h1.86v-1.86zM20.2 38.65h-1.85v1.85h1.86v-1.85z" fill="#181818"/>
  <path d="M20.2 36.79h-1.85v1.86h1.86v-1.86z" fill="#E0B877"/>
  <path d="M20.2 34.93h-1.85v1.86h1.86v-1.86z" fill="#B38E39"/>
  <path d="M20.2 33.07h-1.85v1.86h1.86v-1.86z" fill="#E0B877"/>
  <path d="M20.2 31.2h-1.85v1.87h1.86V31.2z" fill="#181818"/>
  <path d="M20.2 29.35h-1.85v1.86h1.86v-1.86zM20.2 27.5h-1.85v1.85h1.86v-1.86zM20.2 25.63h-1.85v1.86h1.86v-1.86z" fill="#BCBDBE"/>
  <path d="M20.2 23.77h-1.85v1.86h1.86v-1.86zM18.35 36.79H16.5v1.86h1.85v-1.86z" fill="#181818"/>
  <path d="M18.35 34.93H16.5v1.86h1.85v-1.86zM18.35 33.07H16.5v1.86h1.85v-1.86zM18.35 31.2H16.5v1.87h1.85V31.2z" fill="#B38E39"/>
  <path d="M18.35 29.35H16.5v1.86h1.85v-1.86z" fill="#181818"/>
  <path d="M18.35 27.5H16.5v1.85h1.85v-1.86z" fill="#BCBDBE"/>
  <path d="M18.35 25.63H16.5v1.86h1.85v-1.86zM16.5 38.65h-1.86v1.85h1.86v-1.85z" fill="#181818"/>
  <path d="M16.5 36.79h-1.86v1.86h1.86v-1.86z" fill="#7F7E7C"/>
  <path d="M16.5 34.93h-1.86v1.86h1.86v-1.86z" fill="#181818"/>
  <path d="M16.5 33.07h-1.86v1.86h1.86v-1.86zM16.5 31.2h-1.86v1.87h1.86V31.2z" fill="#B38E39"/>
  <path d="M16.5 29.35h-1.86v1.86h1.86v-1.86z" fill="#B38E39"/>
  <path d="M16.5 27.5h-1.86v1.85h1.86v-1.86zM14.64 40.5H12.8v1.86h1.85V40.5z" fill="#181818"/>
  <path d="M14.64 38.65H12.8v1.85h1.85v-1.85zM14.64 36.79H12.8v1.86h1.85v-1.86z" fill="#7F7E7C"/>
  <path d="M14.64 34.93H12.8v1.86h1.85v-1.86z" fill="#72716F"/>
  <path d="M14.64 33.07H12.8v1.86h1.85v-1.86z" fill="#181818"/>
  <path d="M14.64 31.2H12.8v1.87h1.85V31.2z" fill="#B38E39"/>
  <path d="M14.64 29.35H12.8v1.86h1.85v-1.86zM14.64 27.5H12.8v1.85h1.85v-1.86z" fill="#B38E39"/>
  <path d="M14.64 25.63H12.8v1.86h1.85v-1.86zM12.79 42.36h-1.85v1.86h1.85v-1.86z" fill="#181818"/>
  <path d="M12.79 40.5h-1.85v1.86h1.85V40.5zM12.79 38.65h-1.85v1.85h1.85v-1.85z" fill="#7F7E7C"/>
  <path d="M12.79 36.79h-1.85v1.86h1.85v-1.86z" fill="#72716F"/>
  <path d="M12.79 34.93h-1.85v1.86h1.85v-1.86zM12.79 31.2h-1.85v1.87h1.85V31.2z" fill="#181818"/>
  <path d="M12.79 29.35h-1.85v1.86h1.85v-1.86zM12.79 27.5h-1.85v1.85h1.85v-1.86zM12.79 25.63h-1.85v1.86h1.85v-1.86z" fill="#B38E39"/>
  <path d="M12.79 23.77h-1.85v1.86h1.85v-1.86zM10.94 44.22H9.08v1.86h1.86v-1.86z" fill="#181818"/>
  <path d="M10.94 42.36H9.08v1.86h1.86v-1.86zM10.94 40.5H9.08v1.86h1.86V40.5z" fill="#7F7E7C"/>
  <path d="M10.94 38.65H9.08v1.85h1.86v-1.85z" fill="#72716F"/>
  <path d="M10.94 36.79H9.08v1.86h1.86v-1.86zM10.94 29.35H9.08v1.86h1.86v-1.86z" fill="#181818"/>
  <path d="M10.94 27.5H9.08v1.85h1.86v-1.86zM10.94 25.63H9.08v1.86h1.86v-1.86zM10.94 23.77H9.08v1.86h1.86v-1.86z" fill="#B38E39"/>
  <path d="M10.94 21.91H9.08v1.86h1.86v-1.86zM9.08 46.08H7.23v1.86h1.85v-1.86z" fill="#181818"/>
  <path d="M9.08 44.22H7.23v1.86h1.85v-1.86zM9.08 42.36H7.23v1.86h1.85v-1.86z" fill="#7F7E7C"/>
  <path d="M9.08 40.5H7.23v1.86h1.85V40.5z" fill="#72716F"/>
  <path d="M9.08 38.65H7.23v1.85h1.85v-1.85zM9.08 27.5H7.23v1.85h1.85v-1.86z" fill="#181818"/>
  <path d="M9.08 25.63H7.23v1.86h1.85v-1.86zM9.08 23.77H7.23v1.86h1.85v-1.86z" fill="#B38E39"/>
  <path d="M9.08 21.91H7.23v1.86h1.85v-1.86zM7.23 47.94H5.38v1.86h1.85v-1.86z" fill="#181818"/>
  <path d="M7.23 46.08H5.38v1.86h1.85v-1.86zM7.23 44.22H5.38v1.86h1.85v-1.86z" fill="#7F7E7C"/>
  <path d="M7.23 42.36H5.38v1.86h1.85v-1.86z" fill="#72716F"/>
  <path d="M7.23 40.5H5.38v1.86h1.85V40.5zM7.23 25.63H5.38v1.86h1.85v-1.86zM7.23 23.77H5.38v1.86h1.85v-1.86zM7.23 21.91H5.38v1.86h1.85v-1.86zM5.38 47.94H3.52v1.86h1.86v-1.86z" fill="#181818"/>
  <path d="M5.38 46.08H3.52v1.86h1.86v-1.86z" fill="#7F7E7C"/>
  <path d="M5.38 44.22H3.52v1.86h1.86v-1.86z" fill="#72716F"/>
  <path d="M5.38 42.36H3.52v1.86h1.86v-1.86zM3.52 47.94H1.67v1.86h1.85v-1.86zM3.52 46.08H1.67v1.86h1.85v-1.86zM3.52 44.22H1.67v1.86h1.85v-1.86z" fill="#181818"/>
</svg>
