<svg width="145" height="443" viewBox="0 0 145 443" fill="none" xmlns="http://www.w3.org/2000/svg">
<path d="M123.797 429.375H116.583V436.588H123.797V429.375Z" fill="#5B5036"/>
<path d="M123.797 422.234H116.583V429.448H123.797V422.234Z" fill="#5B5036"/>
<path d="M116.656 422.234H109.442V429.448H116.656V422.234Z" fill="#5B5036"/>
<path d="M116.656 415.021H109.442V422.234H116.656V415.021Z" fill="#5B5036"/>
<path d="M109.442 415.021H102.229V422.234H109.442V415.021Z" fill="#5B5036"/>
<path d="M116.656 429.375H109.442V436.588H116.656V429.375Z" fill="#443D2B"/>
<path d="M109.442 429.375H102.229V436.588H109.442V429.375Z" fill="#443D2B"/>
<path d="M109.442 422.234H102.229V429.448H109.442V422.234Z" fill="#443D2B"/>
<path d="M102.229 415.021H95.0151V422.234H102.229V415.021Z" fill="#443D2B"/>
<path d="M102.229 422.234H95.0151V429.448H102.229V422.234Z" fill="#443D2B"/>
<path d="M102.229 429.375H95.0151V436.588H102.229V429.375Z" fill="#443D2B"/>
<path d="M51.8796 429.375H44.666V436.588H51.8796V429.375Z" fill="#443D2B"/>
<path d="M44.666 429.375H37.4524V436.588H44.666V429.375Z" fill="#443D2B"/>
<path d="M44.666 422.234H37.4524V429.448H44.666V422.234Z" fill="#443D2B"/>
<path d="M66.2336 429.375H59.02V436.588H66.2336V429.375Z" fill="#5B5036"/>
<path d="M59.093 429.375H51.8794V436.588H59.093V429.375Z" fill="#5B5036"/>
<path d="M66.2336 422.234H59.02V429.448H66.2336V422.234Z" fill="#5B5036"/>
<path d="M59.093 422.234H51.8794V429.448H59.093V422.234Z" fill="#5B5036"/>
<path d="M51.8796 422.234H44.666V429.448H51.8796V422.234Z" fill="#5B5036"/>
<path d="M59.093 415.021H51.8794V422.234H59.093V415.021Z" fill="#5B5036"/>
<path d="M51.8796 415.021H44.666V422.234H51.8796V415.021Z" fill="#5B5036"/>
<path d="M44.666 415.021H37.4524V422.234H44.666V415.021Z" fill="#5B5036"/>
<path d="M138.224 199.131H131.01V206.345H138.224V199.131Z" fill="#C7B5A6"/>
<path d="M138.224 191.918H131.01V199.131H138.224V191.918Z" fill="#C7B5A6"/>
<path d="M138.224 184.705H131.01V191.918H138.224V184.705Z" fill="#C7B5A6"/>
<path d="M138.224 177.564H131.01V184.778H138.224V177.564Z" fill="#DBC5B4"/>
<path d="M138.224 170.351H131.01V177.564H138.224V170.351Z" fill="#DBC5B4"/>
<path d="M138.224 163.138H131.01V170.351H138.224V163.138Z" fill="#135699"/>
<path d="M138.224 155.924H131.01V163.138H138.224V155.924Z" fill="#135699"/>
<path d="M138.224 148.784H131.01V155.997H138.224V148.784Z" fill="#135699"/>
<path d="M138.224 141.571H131.01V148.784H138.224V141.571Z" fill="#135699"/>
<path d="M138.224 134.357H131.01V141.571H138.224V134.357Z" fill="#135699"/>
<path d="M131.01 206.345H123.797V213.558H131.01V206.345Z" fill="#DBC5B4"/>
<path d="M131.01 199.131H123.797V206.345H131.01V199.131Z" fill="#DBC5B4"/>
<path d="M131.01 191.918H123.797V199.131H131.01V191.918Z" fill="#DBC5B4"/>
<path d="M131.01 184.705H123.797V191.918H131.01V184.705Z" fill="#DBC5B4"/>
<path d="M131.01 177.564H123.797V184.778H131.01V177.564Z" fill="#DBC5B4"/>
<path d="M131.01 170.351H123.797V177.564H131.01V170.351Z" fill="#DBC5B4"/>
<path d="M131.01 163.138H123.797V170.351H131.01V163.138Z" fill="#135699"/>
<path d="M131.01 155.924H123.797V163.138H131.01V155.924Z" fill="#135699"/>
<path d="M131.01 148.784H123.797V155.997H131.01V148.784Z" fill="#135699"/>
<path d="M131.01 141.571H123.797V148.784H131.01V141.571Z" fill="#135699"/>
<path d="M131.01 134.357H123.797V141.571H131.01V134.357Z" fill="#135699"/>
<path d="M131.01 127.144H123.797V134.357H131.01V127.144Z" fill="#13497E"/>
<path d="M131.01 119.931H123.797V127.144H131.01V119.931Z" fill="#13497E"/>
<path d="M123.797 213.485H116.583V220.699H123.797V213.485Z" fill="#DBC5B4"/>
<path d="M123.797 206.345H116.583V213.558H123.797V206.345Z" fill="#DBC5B4"/>
<path d="M123.797 199.131H116.583V206.345H123.797V199.131Z" fill="#DBC5B4"/>
<path d="M123.797 155.924H116.583V163.138H123.797V155.924Z" fill="#135699"/>
<path d="M123.797 148.784H116.583V155.997H123.797V148.784Z" fill="#135699"/>
<path d="M123.797 141.571H116.583V148.784H123.797V141.571Z" fill="#135699"/>
<path d="M123.797 134.357H116.583V141.571H123.797V134.357Z" fill="#135699"/>
<path d="M123.797 127.144H116.583V134.357H123.797V127.144Z" fill="#135699"/>
<path d="M123.797 119.931H116.583V127.144H123.797V119.931Z" fill="#13497E"/>
<path d="M123.797 112.79H116.583V120.003H123.797V112.79Z" fill="#13497E"/>
<path d="M116.656 407.808H109.442V415.021H116.656V407.808Z" fill="#A0B2C3"/>
<path d="M116.656 400.594H109.442V407.808H116.656V400.594Z" fill="#A0B2C3"/>
<path d="M116.656 393.454H109.442V400.667H116.656V393.454Z" fill="#A0B2C3"/>
<path d="M116.656 386.241H109.442V393.454H116.656V386.241Z" fill="#A0B2C3"/>
<path d="M116.656 379.027H109.442V386.241H116.656V379.027Z" fill="#A0B2C3"/>
<path d="M116.656 371.814H109.442V379.027H116.656V371.814Z" fill="#A0B2C3"/>
<path d="M116.656 364.674H109.442V371.887H116.656V364.674Z" fill="#A0B2C3"/>
<path d="M116.656 357.46H109.442V364.674H116.656V357.46Z" fill="#A0B2C3"/>
<path d="M116.656 350.247H109.442V357.46H116.656V350.247Z" fill="#B2C4D6"/>
<path d="M116.656 343.033H109.442V350.247H116.656V343.033Z" fill="#B2C4D6"/>
<path d="M116.656 335.893H109.442V343.106H116.656V335.893Z" fill="#B2C4D6"/>
<path d="M116.656 328.68H109.442V335.893H116.656V328.68Z" fill="#B2C4D6"/>
<path d="M116.656 321.466H109.442V328.68H116.656V321.466Z" fill="#A0B2C3"/>
<path d="M116.656 314.253H109.442V321.466H116.656V314.253Z" fill="#A0B2C3"/>
<path d="M116.656 307.04H109.442V314.253H116.656V307.04Z" fill="#A0B2C3"/>
<path d="M116.656 299.899H109.442V307.113H116.656V299.899Z" fill="#A0B2C3"/>
<path d="M116.656 292.686H109.442V299.899H116.656V292.686Z" fill="#A0B2C3"/>
<path d="M116.656 285.473H109.442V292.686H116.656V285.473Z" fill="#A0B2C3"/>
<path d="M116.656 278.259H109.442V285.473H116.656V278.259Z" fill="#A0B2C3"/>
<path d="M116.656 271.119H109.442V278.332H116.656V271.119Z" fill="#A0B2C3"/>
<path d="M116.656 263.906H109.442V271.119H116.656V263.906Z" fill="#A0B2C3"/>
<path d="M116.656 256.692H109.442V263.906H116.656V256.692Z" fill="#A0B2C3"/>
<path d="M116.656 249.479H109.442V256.692H116.656V249.479Z" fill="#A0B2C3"/>
<path d="M116.656 242.339H109.442V249.552H116.656V242.339Z" fill="#A0B2C3"/>
<path d="M116.656 235.125H109.442V242.339H116.656V235.125Z" fill="#A0B2C3"/>
<path d="M116.656 227.912H109.442V235.125H116.656V227.912Z" fill="#135699"/>
<path d="M116.656 220.698H109.442V227.912H116.656V220.698Z" fill="#DBC5B4"/>
<path d="M116.656 213.485H109.442V220.699H116.656V213.485Z" fill="#DBC5B4"/>
<path d="M116.656 206.345H109.442V213.558H116.656V206.345Z" fill="#DBC5B4"/>
<path d="M116.656 199.131H109.442V206.345H116.656V199.131Z" fill="#135699"/>
<path d="M116.656 191.918H109.442V199.131H116.656V191.918Z" fill="#135699"/>
<path d="M116.656 184.705H109.442V191.918H116.656V184.705Z" fill="#135699"/>
<path d="M116.656 177.564H109.442V184.778H116.656V177.564Z" fill="#135699"/>
<path d="M116.656 170.351H109.442V177.564H116.656V170.351Z" fill="#135699"/>
<path d="M116.656 163.138H109.442V170.351H116.656V163.138Z" fill="#135699"/>
<path d="M116.656 155.924H109.442V163.138H116.656V155.924Z" fill="#135699"/>
<path d="M116.656 148.784H109.442V155.997H116.656V148.784Z" fill="#135699"/>
<path d="M116.656 141.571H109.442V148.784H116.656V141.571Z" fill="#135699"/>
<path d="M116.656 134.357H109.442V141.571H116.656V134.357Z" fill="#135699"/>
<path d="M116.656 127.144H109.442V134.357H116.656V127.144Z" fill="#135699"/>
<path d="M116.656 119.931H109.442V127.144H116.656V119.931Z" fill="#135699"/>
<path d="M116.656 112.79H109.442V120.003H116.656V112.79Z" fill="#135699"/>
<path d="M116.656 105.577H109.442V112.79H116.656V105.577Z" fill="#13497E"/>
<path d="M109.442 407.808H102.229V415.021H109.442V407.808Z" fill="#8C9EAF"/>
<path d="M109.442 400.594H102.229V407.808H109.442V400.594Z" fill="#8C9EAF"/>
<path d="M109.442 393.454H102.229V400.667H109.442V393.454Z" fill="#8C9EAF"/>
<path d="M109.442 386.241H102.229V393.454H109.442V386.241Z" fill="#8C9EAF"/>
<path d="M109.442 379.027H102.229V386.241H109.442V379.027Z" fill="#8C9EAF"/>
<path d="M109.442 371.814H102.229V379.027H109.442V371.814Z" fill="#8C9EAF"/>
<path d="M109.442 364.674H102.229V371.887H109.442V364.674Z" fill="#8C9EAF"/>
<path d="M109.442 357.46H102.229V364.674H109.442V357.46Z" fill="#8C9EAF"/>
<path d="M109.442 350.247H102.229V357.46H109.442V350.247Z" fill="#8C9EAF"/>
<path d="M109.442 343.033H102.229V350.247H109.442V343.033Z" fill="#8C9EAF"/>
<path d="M109.442 335.893H102.229V343.106H109.442V335.893Z" fill="#8C9EAF"/>
<path d="M109.442 328.68H102.229V335.893H109.442V328.68Z" fill="#8C9EAF"/>
<path d="M109.442 321.466H102.229V328.68H109.442V321.466Z" fill="#8C9EAF"/>
<path d="M109.442 314.253H102.229V321.466H109.442V314.253Z" fill="#8C9EAF"/>
<path d="M109.442 307.04H102.229V314.253H109.442V307.04Z" fill="#8C9EAF"/>
<path d="M109.442 299.899H102.229V307.113H109.442V299.899Z" fill="#8C9EAF"/>
<path d="M109.442 292.686H102.229V299.899H109.442V292.686Z" fill="#8C9EAF"/>
<path d="M109.442 285.473H102.229V292.686H109.442V285.473Z" fill="#8C9EAF"/>
<path d="M109.442 278.259H102.229V285.473H109.442V278.259Z" fill="#8C9EAF"/>
<path d="M109.442 271.119H102.229V278.332H109.442V271.119Z" fill="#A0B2C3"/>
<path d="M109.442 263.906H102.229V271.119H109.442V263.906Z" fill="#A0B2C3"/>
<path d="M109.442 256.692H102.229V263.906H109.442V256.692Z" fill="#A0B2C3"/>
<path d="M109.442 249.479H102.229V256.692H109.442V249.479Z" fill="#A0B2C3"/>
<path d="M109.442 242.339H102.229V249.552H109.442V242.339Z" fill="#A0B2C3"/>
<path d="M109.442 235.125H102.229V242.339H109.442V235.125Z" fill="#DBC5B4"/>
<path d="M109.442 227.912H102.229V235.125H109.442V227.912Z" fill="#C7B5A6"/>
<path d="M109.442 220.698H102.229V227.912H109.442V220.698Z" fill="#C7B5A6"/>
<path d="M109.442 213.485H102.229V220.699H109.442V213.485Z" fill="#638B8F"/>
<path d="M109.442 206.345H102.229V213.558H109.442V206.345Z" fill="#BE647D"/>
<path d="M109.442 199.131H102.229V206.345H109.442V199.131Z" fill="#BE647D"/>
<path d="M109.442 191.918H102.229V199.131H109.442V191.918Z" fill="#DF5676"/>
<path d="M109.442 184.705H102.229V191.918H109.442V184.705Z" fill="#1560AB"/>
<path d="M109.442 177.564H102.229V184.778H109.442V177.564Z" fill="#1560AB"/>
<path d="M109.442 170.351H102.229V177.564H109.442V170.351Z" fill="#1560AB"/>
<path d="M109.442 163.138H102.229V170.351H109.442V163.138Z" fill="#1560AB"/>
<path d="M109.442 155.924H102.229V163.138H109.442V155.924Z" fill="#1560AB"/>
<path d="M109.442 148.784H102.229V155.997H109.442V148.784Z" fill="#1560AB"/>
<path d="M109.442 141.571H102.229V148.784H109.442V141.571Z" fill="#1560AB"/>
<path d="M109.442 134.357H102.229V141.571H109.442V134.357Z" fill="#1560AB"/>
<path d="M109.442 127.144H102.229V134.357H109.442V127.144Z" fill="#135699"/>
<path d="M109.442 119.931H102.229V127.144H109.442V119.931Z" fill="#135699"/>
<path d="M109.442 112.79H102.229V120.003H109.442V112.79Z" fill="#135699"/>
<path d="M109.442 105.577H102.229V112.79H109.442V105.577Z" fill="#13497E"/>
<path d="M109.442 33.5894H102.229V40.8027H109.442V33.5894Z" fill="#5F5549"/>
<path d="M109.442 26.4489H102.229V33.6622H109.442V26.4489Z" fill="#5F5549"/>
<path d="M102.229 407.808H95.0151V415.021H102.229V407.808Z" fill="#8A98A6"/>
<path d="M102.229 400.594H95.0151V407.808H102.229V400.594Z" fill="#8A98A6"/>
<path d="M102.229 393.454H95.0151V400.667H102.229V393.454Z" fill="#8A98A6"/>
<path d="M102.229 386.241H95.0151V393.454H102.229V386.241Z" fill="#8A98A6"/>
<path d="M102.229 379.027H95.0151V386.241H102.229V379.027Z" fill="#8A98A6"/>
<path d="M102.229 371.814H95.0151V379.027H102.229V371.814Z" fill="#8A98A6"/>
<path d="M102.229 364.674H95.0151V371.887H102.229V364.674Z" fill="#8A98A6"/>
<path d="M102.229 357.46H95.0151V364.674H102.229V357.46Z" fill="#8A98A6"/>
<path d="M102.229 350.247H95.0151V357.46H102.229V350.247Z" fill="#8A98A6"/>
<path d="M102.229 343.033H95.0151V350.247H102.229V343.033Z" fill="#8A98A6"/>
<path d="M102.229 335.893H95.0151V343.106H102.229V335.893Z" fill="#8A98A6"/>
<path d="M102.229 328.68H95.0151V335.893H102.229V328.68Z" fill="#8A98A6"/>
<path d="M102.229 321.466H95.0151V328.68H102.229V321.466Z" fill="#8A98A6"/>
<path d="M102.229 314.253H95.0151V321.466H102.229V314.253Z" fill="#8A98A6"/>
<path d="M102.229 307.04H95.0151V314.253H102.229V307.04Z" fill="#8A98A6"/>
<path d="M102.229 299.899H95.0151V307.113H102.229V299.899Z" fill="#8A98A6"/>
<path d="M102.229 292.686H95.0151V299.899H102.229V292.686Z" fill="#8A98A6"/>
<path d="M102.229 285.473H95.0151V292.686H102.229V285.473Z" fill="#8A98A6"/>
<path d="M102.229 278.259H95.0151V285.473H102.229V278.259Z" fill="#8A98A6"/>
<path d="M102.229 271.119H95.0151V278.332H102.229V271.119Z" fill="#8A98A6"/>
<path d="M102.229 263.906H95.0151V271.119H102.229V263.906Z" fill="#A0B2C3"/>
<path d="M102.229 256.692H95.0151V263.906H102.229V256.692Z" fill="#A0B2C3"/>
<path d="M102.229 249.479H95.0151V256.692H102.229V249.479Z" fill="#A0B2C3"/>
<path d="M102.229 242.339H95.0151V249.552H102.229V242.339Z" fill="#DBC5B4"/>
<path d="M102.229 235.125H95.0151V242.339H102.229V235.125Z" fill="#C7B5A6"/>
<path d="M102.229 227.912H95.0151V235.125H102.229V227.912Z" fill="#2E958F"/>
<path d="M102.229 220.698H95.0151V227.912H102.229V220.698Z" fill="#31A099"/>
<path d="M102.229 213.485H95.0151V220.699H102.229V213.485Z" fill="#41BB70"/>
<path d="M102.229 206.345H95.0151V213.558H102.229V206.345Z" fill="#BBDED0"/>
<path d="M102.229 199.131H95.0151V206.345H102.229V199.131Z" fill="#CD9EA1"/>
<path d="M102.229 191.918H95.0151V199.131H102.229V191.918Z" fill="#DF5676"/>
<path d="M102.229 184.705H95.0151V191.918H102.229V184.705Z" fill="#DF5676"/>
<path d="M102.229 177.564H95.0151V184.778H102.229V177.564Z" fill="#1560AB"/>
<path d="M102.229 170.351H95.0151V177.564H102.229V170.351Z" fill="#1560AB"/>
<path d="M102.229 163.138H95.0151V170.351H102.229V163.138Z" fill="#1560AB"/>
<path d="M102.229 155.924H95.0151V163.138H102.229V155.924Z" fill="#1560AB"/>
<path d="M102.229 148.784H95.0151V155.997H102.229V148.784Z" fill="#1560AB"/>
<path d="M102.229 141.571H95.0151V148.784H102.229V141.571Z" fill="#1560AB"/>
<path d="M102.229 134.357H95.0151V141.571H102.229V134.357Z" fill="#1560AB"/>
<path d="M102.229 127.144H95.0151V134.357H102.229V127.144Z" fill="#1560AB"/>
<path d="M102.229 119.931H95.0151V127.144H102.229V119.931Z" fill="#135699"/>
<path d="M102.229 112.79H95.0151V120.003H102.229V112.79Z" fill="#135699"/>
<path d="M102.229 105.577H95.0151V112.79H102.229V105.577Z" fill="#13497E"/>
<path d="M102.229 98.3635H95.0151V105.577H102.229V98.3635Z" fill="#13497E"/>
<path d="M102.229 76.7964H95.0151V84.0097H102.229V76.7964Z" fill="#B19D8D"/>
<path d="M102.229 69.583H95.0151V76.7963H102.229V69.583Z" fill="#DBC5B4"/>
<path d="M102.229 62.3698H95.0151V69.5831H102.229V62.3698Z" fill="#DBC5B4"/>
<path d="M102.229 55.2292H95.0151V62.4426H102.229V55.2292Z" fill="#DBC5B4"/>
<path d="M102.229 48.016H95.0151V55.2293H102.229V48.016Z" fill="#93A3A0"/>
<path d="M102.229 40.8026H95.0151V48.0159H102.229V40.8026Z" fill="#B7A493"/>
<path d="M102.229 33.5894H95.0151V40.8027H102.229V33.5894Z" fill="#EFDBCB"/>
<path d="M102.229 26.4489H95.0151V33.6622H102.229V26.4489Z" fill="#5F5549"/>
<path d="M102.229 19.2356H95.0151V26.4489H102.229V19.2356Z" fill="#5F5549"/>
<path d="M95.0151 271.119H87.8015V278.332H95.0151V271.119Z" fill="#8A98A6"/>
<path d="M95.0151 263.906H87.8015V271.119H95.0151V263.906Z" fill="#8A98A6"/>
<path d="M95.0151 256.692H87.8015V263.906H95.0151V256.692Z" fill="#A0B2C3"/>
<path d="M95.0151 249.479H87.8015V256.692H95.0151V249.479Z" fill="#A0B2C3"/>
<path d="M95.0151 242.339H87.8015V249.552H95.0151V242.339Z" fill="#DBC5B4"/>
<path d="M95.0151 235.125H87.8015V242.339H95.0151V235.125Z" fill="#C7B5A6"/>
<path d="M95.0151 227.912H87.8015V235.125H95.0151V227.912Z" fill="#2E958F"/>
<path d="M95.0151 220.698H87.8015V227.912H95.0151V220.698Z" fill="#31A099"/>
<path d="M95.0151 213.485H87.8015V220.699H95.0151V213.485Z" fill="#41BB70"/>
<path d="M95.0151 206.345H87.8015V213.558H95.0151V206.345Z" fill="#BBDED0"/>
<path d="M95.0151 199.131H87.8015V206.345H95.0151V199.131Z" fill="#D47F92"/>
<path d="M95.0151 191.918H87.8015V199.131H95.0151V191.918Z" fill="#ED577A"/>
<path d="M95.0151 184.705H87.8015V191.918H95.0151V184.705Z" fill="#DF5676"/>
<path d="M95.0151 177.564H87.8015V184.778H95.0151V177.564Z" fill="#DF5676"/>
<path d="M95.0151 170.351H87.8015V177.564H95.0151V170.351Z" fill="#1560AB"/>
<path d="M95.0151 163.138H87.8015V170.351H95.0151V163.138Z" fill="#1560AB"/>
<path d="M95.0151 155.924H87.8015V163.138H95.0151V155.924Z" fill="#1560AB"/>
<path d="M95.0151 148.784H87.8015V155.997H95.0151V148.784Z" fill="#1560AB"/>
<path d="M95.0151 141.571H87.8015V148.784H95.0151V141.571Z" fill="#1560AB"/>
<path d="M95.0151 134.357H87.8015V141.571H95.0151V134.357Z" fill="#1560AB"/>
<path d="M95.0151 127.144H87.8015V134.357H95.0151V127.144Z" fill="#1560AB"/>
<path d="M95.0151 119.931H87.8015V127.144H95.0151V119.931Z" fill="#1560AB"/>
<path d="M95.0151 112.79H87.8015V120.003H95.0151V112.79Z" fill="#135699"/>
<path d="M95.0151 105.577H87.8015V112.79H95.0151V105.577Z" fill="#135699"/>
<path d="M95.0151 98.3635H87.8015V105.577H95.0151V98.3635Z" fill="#13497E"/>
<path d="M95.0151 84.0098H87.8015V91.2231H95.0151V84.0098Z" fill="#B19D8D"/>
<path d="M95.0151 76.7964H87.8015V84.0097H95.0151V76.7964Z" fill="#BEAA9A"/>
<path d="M95.0151 69.583H87.8015V76.7963H95.0151V69.583Z" fill="#C8ABA9"/>
<path d="M95.0151 62.3698H87.8015V69.5831H95.0151V62.3698Z" fill="#DBC5B4"/>
<path d="M95.0151 55.2292H87.8015V62.4426H95.0151V55.2292Z" fill="#DBC5B4"/>
<path d="M95.0151 48.016H87.8015V55.2293H95.0151V48.016Z" fill="white"/>
<path d="M95.0151 40.8026H87.8015V48.0159H95.0151V40.8026Z" fill="#B7A493"/>
<path d="M95.0151 33.5894H87.8015V40.8027H95.0151V33.5894Z" fill="#EFDBCB"/>
<path d="M95.0151 26.4489H87.8015V33.6622H95.0151V26.4489Z" fill="#6B6053"/>
<path d="M95.0151 19.2356H87.8015V26.4489H95.0151V19.2356Z" fill="#6B6053"/>
<path d="M95.0151 12.0222H87.8015V19.2355H95.0151V12.0222Z" fill="#5F5549"/>
<path d="M87.8745 256.692H80.6609V263.906H87.8745V256.692Z" fill="#8A98A6"/>
<path d="M87.8745 249.479H80.6609V256.692H87.8745V249.479Z" fill="#A0B2C3"/>
<path d="M87.8745 242.339H80.6609V249.552H87.8745V242.339Z" fill="#DBC5B4"/>
<path d="M87.8745 235.125H80.6609V242.339H87.8745V235.125Z" fill="#C7B5A6"/>
<path d="M87.8745 227.912H80.6609V235.125H87.8745V227.912Z" fill="#2E958F"/>
<path d="M87.8745 220.698H80.6609V227.912H87.8745V220.698Z" fill="#31A099"/>
<path d="M87.8745 213.485H80.6609V220.699H87.8745V213.485Z" fill="#41BB70"/>
<path d="M87.8745 206.345H80.6609V213.558H87.8745V206.345Z" fill="#C9BEBC"/>
<path d="M87.8745 199.131H80.6609V206.345H87.8745V199.131Z" fill="#DF5676"/>
<path d="M87.8745 191.918H80.6609V199.131H87.8745V191.918Z" fill="#DF5676"/>
<path d="M87.8745 184.705H80.6609V191.918H87.8745V184.705Z" fill="#DF5676"/>
<path d="M87.8745 177.564H80.6609V184.778H87.8745V177.564Z" fill="#1560AB"/>
<path d="M87.8745 170.351H80.6609V177.564H87.8745V170.351Z" fill="#1560AB"/>
<path d="M87.8745 163.138H80.6609V170.351H87.8745V163.138Z" fill="#1560AB"/>
<path d="M87.8745 155.924H80.6609V163.138H87.8745V155.924Z" fill="#1560AB"/>
<path d="M87.8745 148.784H80.6609V155.997H87.8745V148.784Z" fill="#1560AB"/>
<path d="M87.8745 141.571H80.6609V148.784H87.8745V141.571Z" fill="#1560AB"/>
<path d="M87.8745 134.357H80.6609V141.571H87.8745V134.357Z" fill="#1560AB"/>
<path d="M87.8745 127.144H80.6609V134.357H87.8745V127.144Z" fill="#1560AB"/>
<path d="M87.8745 119.931H80.6609V127.144H87.8745V119.931Z" fill="#1560AB"/>
<path d="M87.8745 112.79H80.6609V120.003H87.8745V112.79Z" fill="#135699"/>
<path d="M87.8745 105.577H80.6609V112.79H87.8745V105.577Z" fill="#135699"/>
<path d="M87.8745 98.3635H80.6609V105.577H87.8745V98.3635Z" fill="#E0C9B6"/>
<path d="M87.8745 91.1501H80.6609V98.3635H87.8745V91.1501Z" fill="#E0C9B6"/>
<path d="M87.8745 84.0098H80.6609V91.2231H87.8745V84.0098Z" fill="#B19D8D"/>
<path d="M87.8745 76.7964H80.6609V84.0097H87.8745V76.7964Z" fill="#BEAA9A"/>
<path d="M87.8745 69.583H80.6609V76.7963H87.8745V69.583Z" fill="#C8ABA9"/>
<path d="M87.8745 62.3698H80.6609V69.5831H87.8745V62.3698Z" fill="#EFDBCB"/>
<path d="M87.8745 55.2292H80.6609V62.4426H87.8745V55.2292Z" fill="#EFDBCB"/>
<path d="M87.8745 48.016H80.6609V55.2293H87.8745V48.016Z" fill="#EFDBCB"/>
<path d="M87.8745 40.8026H80.6609V48.0159H87.8745V40.8026Z" fill="#EFDBCB"/>
<path d="M87.8745 33.5894H80.6609V40.8027H87.8745V33.5894Z" fill="#5F5549"/>
<path d="M87.8745 26.4489H80.6609V33.6622H87.8745V26.4489Z" fill="#5F5549"/>
<path d="M87.8745 19.2356H80.6609V26.4489H87.8745V19.2356Z" fill="#6B6053"/>
<path d="M87.8745 12.0222H80.6609V19.2355H87.8745V12.0222Z" fill="#6B6053"/>
<path d="M80.6608 256.692H73.4473V263.906H80.6608V256.692Z" fill="#8A98A6"/>
<path d="M80.6608 249.479H73.4473V256.692H80.6608V249.479Z" fill="#A0B2C3"/>
<path d="M80.6608 242.339H73.4473V249.552H80.6608V242.339Z" fill="#A0B2C3"/>
<path d="M80.6608 235.125H73.4473V242.339H80.6608V235.125Z" fill="#DBC5B4"/>
<path d="M80.6608 227.912H73.4473V235.125H80.6608V227.912Z" fill="#C7B5A6"/>
<path d="M80.6608 220.698H73.4473V227.912H80.6608V220.698Z" fill="#2E958F"/>
<path d="M80.6608 213.485H73.4473V220.699H80.6608V213.485Z" fill="#BE647D"/>
<path d="M80.6608 206.345H73.4473V213.558H80.6608V206.345Z" fill="#BE647D"/>
<path d="M80.6608 199.131H73.4473V206.345H80.6608V199.131Z" fill="#DF5676"/>
<path d="M80.6608 191.918H73.4473V199.131H80.6608V191.918Z" fill="#1560AB"/>
<path d="M80.6608 184.705H73.4473V191.918H80.6608V184.705Z" fill="#1560AB"/>
<path d="M80.6608 177.564H73.4473V184.778H80.6608V177.564Z" fill="#1560AB"/>
<path d="M80.6608 170.351H73.4473V177.564H80.6608V170.351Z" fill="#1560AB"/>
<path d="M80.6608 163.138H73.4473V170.351H80.6608V163.138Z" fill="#1560AB"/>
<path d="M80.6608 155.924H73.4473V163.138H80.6608V155.924Z" fill="#1560AB"/>
<path d="M80.6608 148.784H73.4473V155.997H80.6608V148.784Z" fill="#1560AB"/>
<path d="M80.6608 141.571H73.4473V148.784H80.6608V141.571Z" fill="#1560AB"/>
<path d="M80.6608 134.357H73.4473V141.571H80.6608V134.357Z" fill="#1560AB"/>
<path d="M80.6608 127.144H73.4473V134.357H80.6608V127.144Z" fill="#1560AB"/>
<path d="M80.6608 119.931H73.4473V127.144H80.6608V119.931Z" fill="#1560AB"/>
<path d="M80.6608 112.79H73.4473V120.003H80.6608V112.79Z" fill="#135699"/>
<path d="M80.6608 105.577H73.4473V112.79H80.6608V105.577Z" fill="#135699"/>
<path d="M80.6608 98.3635H73.4473V105.577H80.6608V98.3635Z" fill="#E0C9B6"/>
<path d="M80.6608 91.1501H73.4473V98.3635H80.6608V91.1501Z" fill="#E0C9B6"/>
<path d="M80.6608 84.0098H73.4473V91.2231H80.6608V84.0098Z" fill="#B19D8D"/>
<path d="M80.6608 76.7964H73.4473V84.0097H80.6608V76.7964Z" fill="#BEAA9A"/>
<path d="M80.6608 69.583H73.4473V76.7963H80.6608V69.583Z" fill="#DBC5B4"/>
<path d="M80.6608 62.3698H73.4473V69.5831H80.6608V62.3698Z" fill="#DBC5B4"/>
<path d="M80.6608 55.2292H73.4473V62.4426H80.6608V55.2292Z" fill="#DBC5B4"/>
<path d="M80.6608 48.016H73.4473V55.2293H80.6608V48.016Z" fill="#93A3A0"/>
<path d="M80.6608 40.8026H73.4473V48.0159H80.6608V40.8026Z" fill="#B7A493"/>
<path d="M80.6608 33.5894H73.4473V40.8027H80.6608V33.5894Z" fill="#5F5549"/>
<path d="M80.6608 26.4489H73.4473V33.6622H80.6608V26.4489Z" fill="#5F5549"/>
<path d="M80.6608 19.2356H73.4473V26.4489H80.6608V19.2356Z" fill="#5F5549"/>
<path d="M80.6608 12.0222H73.4473V19.2355H80.6608V12.0222Z" fill="#6B6053"/>
<path d="M73.4472 256.692H66.2336V263.906H73.4472V256.692Z" fill="#8A98A6"/>
<path d="M73.4472 249.479H66.2336V256.692H73.4472V249.479Z" fill="#A0B2C3"/>
<path d="M73.4472 242.339H66.2336V249.552H73.4472V242.339Z" fill="#A0B2C3"/>
<path d="M73.4472 235.125H66.2336V242.339H73.4472V235.125Z" fill="#DBC5B4"/>
<path d="M73.4472 227.912H66.2336V235.125H73.4472V227.912Z" fill="#DBC5B4"/>
<path d="M73.4472 220.698H66.2336V227.912H73.4472V220.698Z" fill="#C7B5A6"/>
<path d="M73.4472 213.485H66.2336V220.699H73.4472V213.485Z" fill="#1560AB"/>
<path d="M73.4472 206.345H66.2336V213.558H73.4472V206.345Z" fill="#1560AB"/>
<path d="M73.4472 199.131H66.2336V206.345H73.4472V199.131Z" fill="#1560AB"/>
<path d="M73.4472 191.918H66.2336V199.131H73.4472V191.918Z" fill="#1560AB"/>
<path d="M73.4472 184.705H66.2336V191.918H73.4472V184.705Z" fill="#1560AB"/>
<path d="M73.4472 177.564H66.2336V184.778H73.4472V177.564Z" fill="#1560AB"/>
<path d="M73.4472 170.351H66.2336V177.564H73.4472V170.351Z" fill="#1560AB"/>
<path d="M73.4472 163.138H66.2336V170.351H73.4472V163.138Z" fill="#1560AB"/>
<path d="M73.4472 155.924H66.2336V163.138H73.4472V155.924Z" fill="#1560AB"/>
<path d="M73.4472 148.784H66.2336V155.997H73.4472V148.784Z" fill="#1560AB"/>
<path d="M73.4472 141.571H66.2336V148.784H73.4472V141.571Z" fill="#1560AB"/>
<path d="M73.4472 134.357H66.2336V141.571H73.4472V134.357Z" fill="#1560AB"/>
<path d="M73.4472 127.144H66.2336V134.357H73.4472V127.144Z" fill="#1560AB"/>
<path d="M73.4472 119.931H66.2336V127.144H73.4472V119.931Z" fill="#1560AB"/>
<path d="M73.4472 112.79H66.2336V120.003H73.4472V112.79Z" fill="#135699"/>
<path d="M73.4472 105.577H66.2336V112.79H73.4472V105.577Z" fill="#135699"/>
<path d="M73.4472 98.3635H66.2336V105.577H73.4472V98.3635Z" fill="#EFDBCB"/>
<path d="M73.4472 91.1501H66.2336V98.3635H73.4472V91.1501Z" fill="#E0C9B6"/>
<path d="M73.4472 84.0098H66.2336V91.2231H73.4472V84.0098Z" fill="#E0C9B6"/>
<path d="M73.4472 76.7964H66.2336V84.0097H73.4472V76.7964Z" fill="#B19D8D"/>
<path d="M73.4472 69.583H66.2336V76.7963H73.4472V69.583Z" fill="#DBC5B4"/>
<path d="M73.4472 62.3698H66.2336V69.5831H73.4472V62.3698Z" fill="#DBC5B4"/>
<path d="M73.4472 55.2292H66.2336V62.4426H73.4472V55.2292Z" fill="#DBC5B4"/>
<path d="M73.4472 48.016H66.2336V55.2293H73.4472V48.016Z" fill="white"/>
<path d="M73.4472 40.8026H66.2336V48.0159H73.4472V40.8026Z" fill="#B7A493"/>
<path d="M73.4472 33.5894H66.2336V40.8027H73.4472V33.5894Z" fill="#EFDBCB"/>
<path d="M73.4472 26.4489H66.2336V33.6622H73.4472V26.4489Z" fill="#5F5549"/>
<path d="M73.4472 19.2356H66.2336V26.4489H73.4472V19.2356Z" fill="#5F5549"/>
<path d="M73.4472 12.0222H66.2336V19.2355H73.4472V12.0222Z" fill="#5F5549"/>
<path d="M66.2336 271.119H59.02V278.332H66.2336V271.119Z" fill="#A0B2C3"/>
<path d="M66.2336 263.906H59.02V271.119H66.2336V263.906Z" fill="#A0B2C3"/>
<path d="M66.2336 256.692H59.02V263.906H66.2336V256.692Z" fill="#A0B2C3"/>
<path d="M66.2336 249.479H59.02V256.692H66.2336V249.479Z" fill="#A0B2C3"/>
<path d="M66.2336 242.339H59.02V249.552H66.2336V242.339Z" fill="#A0B2C3"/>
<path d="M66.2336 235.125H59.02V242.339H66.2336V235.125Z" fill="#A0B2C3"/>
<path d="M66.2336 227.912H59.02V235.125H66.2336V227.912Z" fill="#DBC5B4"/>
<path d="M66.2336 220.698H59.02V227.912H66.2336V220.698Z" fill="#DBC5B4"/>
<path d="M66.2336 213.485H59.02V220.699H66.2336V213.485Z" fill="#1560AB"/>
<path d="M66.2336 206.345H59.02V213.558H66.2336V206.345Z" fill="#1560AB"/>
<path d="M66.2336 199.131H59.02V206.345H66.2336V199.131Z" fill="#1560AB"/>
<path d="M66.2336 191.918H59.02V199.131H66.2336V191.918Z" fill="#1560AB"/>
<path d="M66.2336 184.705H59.02V191.918H66.2336V184.705Z" fill="#1560AB"/>
<path d="M66.2336 177.564H59.02V184.778H66.2336V177.564Z" fill="#1560AB"/>
<path d="M66.2336 170.351H59.02V177.564H66.2336V170.351Z" fill="#1560AB"/>
<path d="M66.2336 163.138H59.02V170.351H66.2336V163.138Z" fill="#1560AB"/>
<path d="M66.2336 155.924H59.02V163.138H66.2336V155.924Z" fill="#1560AB"/>
<path d="M66.2336 148.784H59.02V155.997H66.2336V148.784Z" fill="#1560AB"/>
<path d="M66.2336 141.571H59.02V148.784H66.2336V141.571Z" fill="#1560AB"/>
<path d="M66.2336 134.357H59.02V141.571H66.2336V134.357Z" fill="#1560AB"/>
<path d="M66.2336 127.144H59.02V134.357H66.2336V127.144Z" fill="#1560AB"/>
<path d="M66.2336 119.931H59.02V127.144H66.2336V119.931Z" fill="#1560AB"/>
<path d="M66.2336 112.79H59.02V120.003H66.2336V112.79Z" fill="#135699"/>
<path d="M66.2336 105.577H59.02V112.79H66.2336V105.577Z" fill="#135699"/>
<path d="M66.2336 98.3635H59.02V105.577H66.2336V98.3635Z" fill="#EFDBCB"/>
<path d="M66.2336 91.1501H59.02V98.3635H66.2336V91.1501Z" fill="#EFDBCB"/>
<path d="M66.2336 84.0098H59.02V91.2231H66.2336V84.0098Z" fill="#EFDBCB"/>
<path d="M66.2336 76.7964H59.02V84.0097H66.2336V76.7964Z" fill="#EFDBCB"/>
<path d="M66.2336 69.583H59.02V76.7963H66.2336V69.583Z" fill="#B19D8D"/>
<path d="M66.2336 62.3698H59.02V69.5831H66.2336V62.3698Z" fill="#DBC5B4"/>
<path d="M66.2336 55.2292H59.02V62.4426H66.2336V55.2292Z" fill="#DBC5B4"/>
<path d="M66.2336 48.016H59.02V55.2293H66.2336V48.016Z" fill="#5F5549"/>
<path d="M66.2336 40.8026H59.02V48.0159H66.2336V40.8026Z" fill="#5F5549"/>
<path d="M66.2336 33.5894H59.02V40.8027H66.2336V33.5894Z" fill="#5F5549"/>
<path d="M66.2336 26.4489H59.02V33.6622H66.2336V26.4489Z" fill="#5F5549"/>
<path d="M66.2336 19.2356H59.02V26.4489H66.2336V19.2356Z" fill="#5F5549"/>
<path d="M59.093 407.808H51.8794V415.021H59.093V407.808Z" fill="#A0B2C3"/>
<path d="M59.093 400.594H51.8794V407.808H59.093V400.594Z" fill="#A0B2C3"/>
<path d="M59.093 393.454H51.8794V400.667H59.093V393.454Z" fill="#A0B2C3"/>
<path d="M59.093 386.241H51.8794V393.454H59.093V386.241Z" fill="#A0B2C3"/>
<path d="M59.093 379.027H51.8794V386.241H59.093V379.027Z" fill="#A0B2C3"/>
<path d="M59.093 371.814H51.8794V379.027H59.093V371.814Z" fill="#A0B2C3"/>
<path d="M59.093 364.674H51.8794V371.887H59.093V364.674Z" fill="#A0B2C3"/>
<path d="M59.093 357.46H51.8794V364.674H59.093V357.46Z" fill="#A0B2C3"/>
<path d="M59.093 350.247H51.8794V357.46H59.093V350.247Z" fill="#B2C4D6"/>
<path d="M59.093 343.033H51.8794V350.247H59.093V343.033Z" fill="#B2C4D6"/>
<path d="M59.093 335.893H51.8794V343.106H59.093V335.893Z" fill="#B2C4D6"/>
<path d="M59.093 328.68H51.8794V335.893H59.093V328.68Z" fill="#B2C4D6"/>
<path d="M59.093 321.466H51.8794V328.68H59.093V321.466Z" fill="#B2C4D6"/>
<path d="M59.093 314.253H51.8794V321.466H59.093V314.253Z" fill="#A0B2C3"/>
<path d="M59.093 307.04H51.8794V314.253H59.093V307.04Z" fill="#A0B2C3"/>
<path d="M59.093 299.899H51.8794V307.113H59.093V299.899Z" fill="#A0B2C3"/>
<path d="M59.093 292.686H51.8794V299.899H59.093V292.686Z" fill="#A0B2C3"/>
<path d="M59.093 285.473H51.8794V292.686H59.093V285.473Z" fill="#A0B2C3"/>
<path d="M59.093 278.259H51.8794V285.473H59.093V278.259Z" fill="#A0B2C3"/>
<path d="M59.093 271.119H51.8794V278.332H59.093V271.119Z" fill="#A0B2C3"/>
<path d="M59.093 263.906H51.8794V271.119H59.093V263.906Z" fill="#A0B2C3"/>
<path d="M59.093 256.692H51.8794V263.906H59.093V256.692Z" fill="#A0B2C3"/>
<path d="M59.093 249.479H51.8794V256.692H59.093V249.479Z" fill="#A0B2C3"/>
<path d="M59.093 242.339H51.8794V249.552H59.093V242.339Z" fill="#A0B2C3"/>
<path d="M59.093 235.125H51.8794V242.339H59.093V235.125Z" fill="#A0B2C3"/>
<path d="M59.093 227.912H51.8794V235.125H59.093V227.912Z" fill="#DBC5B4"/>
<path d="M59.093 220.698H51.8794V227.912H59.093V220.698Z" fill="#DBC5B4"/>
<path d="M59.093 213.485H51.8794V220.699H59.093V213.485Z" fill="#DBC5B4"/>
<path d="M59.093 206.345H51.8794V213.558H59.093V206.345Z" fill="#1560AB"/>
<path d="M59.093 199.131H51.8794V206.345H59.093V199.131Z" fill="#1560AB"/>
<path d="M59.093 191.918H51.8794V199.131H59.093V191.918Z" fill="#1560AB"/>
<path d="M59.093 184.705H51.8794V191.918H59.093V184.705Z" fill="#1560AB"/>
<path d="M59.093 177.564H51.8794V184.778H59.093V177.564Z" fill="#1560AB"/>
<path d="M59.093 170.351H51.8794V177.564H59.093V170.351Z" fill="#1560AB"/>
<path d="M59.093 163.138H51.8794V170.351H59.093V163.138Z" fill="#1560AB"/>
<path d="M59.093 155.924H51.8794V163.138H59.093V155.924Z" fill="#1560AB"/>
<path d="M59.093 148.784H51.8794V155.997H59.093V148.784Z" fill="#1560AB"/>
<path d="M59.093 141.571H51.8794V148.784H59.093V141.571Z" fill="#1560AB"/>
<path d="M59.093 134.357H51.8794V141.571H59.093V134.357Z" fill="#1560AB"/>
<path d="M59.093 127.144H51.8794V134.357H59.093V127.144Z" fill="#1560AB"/>
<path d="M59.093 119.931H51.8794V127.144H59.093V119.931Z" fill="#135699"/>
<path d="M59.093 112.79H51.8794V120.003H59.093V112.79Z" fill="#135699"/>
<path d="M59.093 105.577H51.8794V112.79H59.093V105.577Z" fill="#135699"/>
<path d="M59.093 98.3635H51.8794V105.577H59.093V98.3635Z" fill="#13497E"/>
<path d="M59.093 62.3698H51.8794V69.5831H59.093V62.3698Z" fill="#5F5549"/>
<path d="M59.093 55.2292H51.8794V62.4426H59.093V55.2292Z" fill="#DBC5B4"/>
<path d="M59.093 48.016H51.8794V55.2293H59.093V48.016Z" fill="#DBC5B4"/>
<path d="M59.093 40.8026H51.8794V48.0159H59.093V40.8026Z" fill="#5F5549"/>
<path d="M59.093 33.5894H51.8794V40.8027H59.093V33.5894Z" fill="#5F5549"/>
<path d="M59.093 26.4489H51.8794V33.6622H59.093V26.4489Z" fill="#5F5549"/>
<path d="M59.093 19.2356H51.8794V26.4489H59.093V19.2356Z" fill="#5F5549"/>
<path d="M51.8796 407.808H44.666V415.021H51.8796V407.808Z" fill="#8C9EAF"/>
<path d="M51.8796 400.594H44.666V407.808H51.8796V400.594Z" fill="#8C9EAF"/>
<path d="M51.8796 393.454H44.666V400.667H51.8796V393.454Z" fill="#8C9EAF"/>
<path d="M51.8796 386.241H44.666V393.454H51.8796V386.241Z" fill="#8C9EAF"/>
<path d="M51.8796 379.027H44.666V386.241H51.8796V379.027Z" fill="#8C9EAF"/>
<path d="M51.8796 371.814H44.666V379.027H51.8796V371.814Z" fill="#8C9EAF"/>
<path d="M51.8796 364.674H44.666V371.887H51.8796V364.674Z" fill="#8C9EAF"/>
<path d="M51.8796 357.46H44.666V364.674H51.8796V357.46Z" fill="#8C9EAF"/>
<path d="M51.8796 350.247H44.666V357.46H51.8796V350.247Z" fill="#8C9EAF"/>
<path d="M51.8796 343.033H44.666V350.247H51.8796V343.033Z" fill="#8C9EAF"/>
<path d="M51.8796 335.893H44.666V343.106H51.8796V335.893Z" fill="#8C9EAF"/>
<path d="M51.8796 328.68H44.666V335.893H51.8796V328.68Z" fill="#8C9EAF"/>
<path d="M51.8796 321.466H44.666V328.68H51.8796V321.466Z" fill="#8C9EAF"/>
<path d="M51.8796 314.253H44.666V321.466H51.8796V314.253Z" fill="#8C9EAF"/>
<path d="M51.8796 307.04H44.666V314.253H51.8796V307.04Z" fill="#8C9EAF"/>
<path d="M51.8796 299.899H44.666V307.113H51.8796V299.899Z" fill="#8C9EAF"/>
<path d="M51.8796 292.686H44.666V299.899H51.8796V292.686Z" fill="#8C9EAF"/>
<path d="M51.8796 285.473H44.666V292.686H51.8796V285.473Z" fill="#A0B2C3"/>
<path d="M51.8796 278.259H44.666V285.473H51.8796V278.259Z" fill="#A0B2C3"/>
<path d="M51.8796 271.119H44.666V278.332H51.8796V271.119Z" fill="#A0B2C3"/>
<path d="M51.8796 263.906H44.666V271.119H51.8796V263.906Z" fill="#A0B2C3"/>
<path d="M51.8796 256.692H44.666V263.906H51.8796V256.692Z" fill="#A0B2C3"/>
<path d="M51.8796 249.479H44.666V256.692H51.8796V249.479Z" fill="#A0B2C3"/>
<path d="M51.8796 242.339H44.666V249.552H51.8796V242.339Z" fill="#A0B2C3"/>
<path d="M51.8796 235.125H44.666V242.339H51.8796V235.125Z" fill="#A0B2C3"/>
<path d="M51.8796 227.912H44.666V235.125H51.8796V227.912Z" fill="#135699"/>
<path d="M51.8796 220.698H44.666V227.912H51.8796V220.698Z" fill="#DBC5B4"/>
<path d="M51.8796 213.485H44.666V220.699H51.8796V213.485Z" fill="#DBC5B4"/>
<path d="M51.8796 206.345H44.666V213.558H51.8796V206.345Z" fill="#DBC5B4"/>
<path d="M51.8796 199.131H44.666V206.345H51.8796V199.131Z" fill="#135699"/>
<path d="M51.8796 191.918H44.666V199.131H51.8796V191.918Z" fill="#135699"/>
<path d="M51.8796 184.705H44.666V191.918H51.8796V184.705Z" fill="#135699"/>
<path d="M51.8796 177.564H44.666V184.778H51.8796V177.564Z" fill="#135699"/>
<path d="M51.8796 170.351H44.666V177.564H51.8796V170.351Z" fill="#135699"/>
<path d="M51.8796 163.138H44.666V170.351H51.8796V163.138Z" fill="#1560AB"/>
<path d="M51.8796 155.924H44.666V163.138H51.8796V155.924Z" fill="#1560AB"/>
<path d="M51.8796 148.784H44.666V155.997H51.8796V148.784Z" fill="#1560AB"/>
<path d="M51.8796 141.571H44.666V148.784H51.8796V141.571Z" fill="#1560AB"/>
<path d="M51.8796 134.357H44.666V141.571H51.8796V134.357Z" fill="#1560AB"/>
<path d="M51.8796 127.144H44.666V134.357H51.8796V127.144Z" fill="#135699"/>
<path d="M51.8796 119.931H44.666V127.144H51.8796V119.931Z" fill="#135699"/>
<path d="M51.8796 112.79H44.666V120.003H51.8796V112.79Z" fill="#135699"/>
<path d="M51.8796 105.577H44.666V112.79H51.8796V105.577Z" fill="#13497E"/>
<path d="M51.8796 98.3635H44.666V105.577H51.8796V98.3635Z" fill="#13497E"/>
<path d="M51.8796 55.2292H44.666V62.4426H51.8796V55.2292Z" fill="#5F5549"/>
<path d="M51.8796 48.016H44.666V55.2293H51.8796V48.016Z" fill="#5F5549"/>
<path d="M51.8796 40.8026H44.666V48.0159H51.8796V40.8026Z" fill="#5F5549"/>
<path d="M51.8796 33.5894H44.666V40.8027H51.8796V33.5894Z" fill="#5F5549"/>
<path d="M44.666 407.808H37.4524V415.021H44.666V407.808Z" fill="#8A98A6"/>
<path d="M44.666 400.594H37.4524V407.808H44.666V400.594Z" fill="#8A98A6"/>
<path d="M44.666 393.454H37.4524V400.667H44.666V393.454Z" fill="#8A98A6"/>
<path d="M44.666 386.241H37.4524V393.454H44.666V386.241Z" fill="#8A98A6"/>
<path d="M44.666 379.027H37.4524V386.241H44.666V379.027Z" fill="#8A98A6"/>
<path d="M44.666 371.814H37.4524V379.027H44.666V371.814Z" fill="#8A98A6"/>
<path d="M44.666 364.674H37.4524V371.887H44.666V364.674Z" fill="#8A98A6"/>
<path d="M44.666 357.46H37.4524V364.674H44.666V357.46Z" fill="#8A98A6"/>
<path d="M44.666 350.247H37.4524V357.46H44.666V350.247Z" fill="#8A98A6"/>
<path d="M44.666 343.033H37.4524V350.247H44.666V343.033Z" fill="#8A98A6"/>
<path d="M44.666 335.893H37.4524V343.106H44.666V335.893Z" fill="#8A98A6"/>
<path d="M44.666 328.68H37.4524V335.893H44.666V328.68Z" fill="#8A98A6"/>
<path d="M44.666 321.466H37.4524V328.68H44.666V321.466Z" fill="#8A98A6"/>
<path d="M44.666 314.253H37.4524V321.466H44.666V314.253Z" fill="#8A98A6"/>
<path d="M44.666 307.04H37.4524V314.253H44.666V307.04Z" fill="#8A98A6"/>
<path d="M44.666 299.899H37.4524V307.113H44.666V299.899Z" fill="#8A98A6"/>
<path d="M44.666 292.686H37.4524V299.899H44.666V292.686Z" fill="#8A98A6"/>
<path d="M44.666 285.473H37.4524V292.686H44.666V285.473Z" fill="#8C9EAF"/>
<path d="M44.666 278.259H37.4524V285.473H44.666V278.259Z" fill="#8C9EAF"/>
<path d="M44.666 271.119H37.4524V278.332H44.666V271.119Z" fill="#8C9EAF"/>
<path d="M44.666 263.906H37.4524V271.119H44.666V263.906Z" fill="#8C9EAF"/>
<path d="M44.666 256.692H37.4524V263.906H44.666V256.692Z" fill="#8C9EAF"/>
<path d="M44.666 249.479H37.4524V256.692H44.666V249.479Z" fill="#8C9EAF"/>
<path d="M44.666 242.339H37.4524V249.552H44.666V242.339Z" fill="#8C9EAF"/>
<path d="M44.666 235.125H37.4524V242.339H44.666V235.125Z" fill="#8C9EAF"/>
<path d="M44.666 227.912H37.4524V235.125H44.666V227.912Z" fill="#135699"/>
<path d="M44.666 220.698H37.4524V227.912H44.666V220.698Z" fill="#135699"/>
<path d="M44.666 213.485H37.4524V220.699H44.666V213.485Z" fill="#DBC5B4"/>
<path d="M44.666 206.345H37.4524V213.558H44.666V206.345Z" fill="#DBC5B4"/>
<path d="M44.666 199.131H37.4524V206.345H44.666V199.131Z" fill="#DBC5B4"/>
<path d="M44.666 191.918H37.4524V199.131H44.666V191.918Z" fill="#135699"/>
<path d="M44.666 184.705H37.4524V191.918H44.666V184.705Z" fill="#135699"/>
<path d="M44.666 177.564H37.4524V184.778H44.666V177.564Z" fill="#135699"/>
<path d="M44.666 170.351H37.4524V177.564H44.666V170.351Z" fill="#135699"/>
<path d="M44.666 163.138H37.4524V170.351H44.666V163.138Z" fill="#135699"/>
<path d="M44.666 155.924H37.4524V163.138H44.666V155.924Z" fill="#135699"/>
<path d="M44.666 148.784H37.4524V155.997H44.666V148.784Z" fill="#135699"/>
<path d="M44.666 141.571H37.4524V148.784H44.666V141.571Z" fill="#135699"/>
<path d="M44.666 134.357H37.4524V141.571H44.666V134.357Z" fill="#135699"/>
<path d="M44.666 127.144H37.4524V134.357H44.666V127.144Z" fill="#135699"/>
<path d="M44.666 119.931H37.4524V127.144H44.666V119.931Z" fill="#135699"/>
<path d="M44.666 112.79H37.4524V120.003H44.666V112.79Z" fill="#135699"/>
<path d="M44.666 105.577H37.4524V112.79H44.666V105.577Z" fill="#13497E"/>
<path d="M37.4523 285.473H30.2388V292.686H37.4523V285.473Z" fill="#8A98A6"/>
<path d="M37.4523 278.259H30.2388V285.473H37.4523V278.259Z" fill="#8A98A6"/>
<path d="M37.4523 271.119H30.2388V278.332H37.4523V271.119Z" fill="#8A98A6"/>
<path d="M37.4523 263.906H30.2388V271.119H37.4523V263.906Z" fill="#8A98A6"/>
<path d="M37.4523 256.692H30.2388V263.906H37.4523V256.692Z" fill="#8A98A6"/>
<path d="M37.4523 249.479H30.2388V256.692H37.4523V249.479Z" fill="#8A98A6"/>
<path d="M37.4523 242.339H30.2388V249.552H37.4523V242.339Z" fill="#8A98A6"/>
<path d="M37.4523 235.125H30.2388V242.339H37.4523V235.125Z" fill="#8A98A6"/>
<path d="M37.4523 227.912H30.2388V235.125H37.4523V227.912Z" fill="#135699"/>
<path d="M37.4523 220.698H30.2388V227.912H37.4523V220.698Z" fill="#135699"/>
<path d="M37.4523 213.485H30.2388V220.699H37.4523V213.485Z" fill="#135699"/>
<path d="M37.4523 206.345H30.2388V213.558H37.4523V206.345Z" fill="#DBC5B4"/>
<path d="M37.4523 199.131H30.2388V206.345H37.4523V199.131Z" fill="#DBC5B4"/>
<path d="M37.4523 191.918H30.2388V199.131H37.4523V191.918Z" fill="#DBC5B4"/>
<path d="M37.4523 184.705H30.2388V191.918H37.4523V184.705Z" fill="#135699"/>
<path d="M37.4523 177.564H30.2388V184.778H37.4523V177.564Z" fill="#135699"/>
<path d="M37.4523 170.351H30.2388V177.564H37.4523V170.351Z" fill="#135699"/>
<path d="M37.4523 163.138H30.2388V170.351H37.4523V163.138Z" fill="#135699"/>
<path d="M37.4523 155.924H30.2388V163.138H37.4523V155.924Z" fill="#135699"/>
<path d="M37.4523 148.784H30.2388V155.997H37.4523V148.784Z" fill="#135699"/>
<path d="M37.4523 141.571H30.2388V148.784H37.4523V141.571Z" fill="#135699"/>
<path d="M37.4523 134.357H30.2388V141.571H37.4523V134.357Z" fill="#135699"/>
<path d="M37.4523 127.144H30.2388V134.357H37.4523V127.144Z" fill="#135699"/>
<path d="M37.4523 119.931H30.2388V127.144H37.4523V119.931Z" fill="#135699"/>
<path d="M37.4523 112.79H30.2388V120.003H37.4523V112.79Z" fill="#13497E"/>
<path d="M37.4523 105.577H30.2388V112.79H37.4523V105.577Z" fill="#13497E"/>
<path d="M30.2387 199.131H23.0251V206.345H30.2387V199.131Z" fill="#DBC5B4"/>
<path d="M30.2387 191.918H23.0251V199.131H30.2387V191.918Z" fill="#DBC5B4"/>
<path d="M30.2387 184.705H23.0251V191.918H30.2387V184.705Z" fill="#DBC5B4"/>
<path d="M30.2387 155.924H23.0251V163.138H30.2387V155.924Z" fill="#135699"/>
<path d="M30.2387 148.784H23.0251V155.997H30.2387V148.784Z" fill="#135699"/>
<path d="M30.2387 141.571H23.0251V148.784H30.2387V141.571Z" fill="#135699"/>
<path d="M30.2387 134.357H23.0251V141.571H30.2387V134.357Z" fill="#135699"/>
<path d="M30.2387 127.144H23.0251V134.357H30.2387V127.144Z" fill="#135699"/>
<path d="M30.2387 119.931H23.0251V127.144H30.2387V119.931Z" fill="#13497E"/>
<path d="M30.2387 112.79H23.0251V120.003H30.2387V112.79Z" fill="#13497E"/>
<path d="M23.0981 191.918H15.8845V199.131H23.0981V191.918Z" fill="#DBC5B4"/>
<path d="M23.0981 184.705H15.8845V191.918H23.0981V184.705Z" fill="#DBC5B4"/>
<path d="M23.0981 177.564H15.8845V184.778H23.0981V177.564Z" fill="#DBC5B4"/>
<path d="M23.0981 170.351H15.8845V177.564H23.0981V170.351Z" fill="#DBC5B4"/>
<path d="M23.0981 163.138H15.8845V170.351H23.0981V163.138Z" fill="#13497E"/>
<path d="M23.0981 155.924H15.8845V163.138H23.0981V155.924Z" fill="#13497E"/>
<path d="M23.0981 148.784H15.8845V155.997H23.0981V148.784Z" fill="#13497E"/>
<path d="M23.0981 141.571H15.8845V148.784H23.0981V141.571Z" fill="#13497E"/>
<path d="M23.0981 134.357H15.8845V141.571H23.0981V134.357Z" fill="#13497E"/>
<path d="M23.0981 127.144H15.8845V134.357H23.0981V127.144Z" fill="#13497E"/>
<path d="M23.0981 119.931H15.8845V127.144H23.0981V119.931Z" fill="#13497E"/>
<path d="M15.8845 184.705H8.6709V191.918H15.8845V184.705Z" fill="#C7B5A6"/>
<path d="M15.8845 177.564H8.6709V184.778H15.8845V177.564Z" fill="#C7B5A6"/>
<path d="M15.8845 170.351H8.6709V177.564H15.8845V170.351Z" fill="#DBC5B4"/>
<path d="M15.8845 163.138H8.6709V170.351H15.8845V163.138Z" fill="#13497E"/>
<path d="M15.8845 155.924H8.6709V163.138H15.8845V155.924Z" fill="#13497E"/>
<path d="M15.8845 148.784H8.6709V155.997H15.8845V148.784Z" fill="#13497E"/>
<path d="M15.8845 141.571H8.6709V148.784H15.8845V141.571Z" fill="#13497E"/>
<path d="M15.8845 134.357H8.6709V141.571H15.8845V134.357Z" fill="#13497E"/>
</svg>
