<svg width="239" height="418" viewBox="0 0 239 418" fill="none" xmlns="http://www.w3.org/2000/svg">
<g clip-path="url(#clip0)">
<path d="M203.875 411.057H196.849V418H203.875V411.057Z" fill="#38302A"/>
<path d="M196.849 411.057H189.824V418H196.849V411.057Z" fill="#493E37"/>
<path d="M196.849 404.043H189.824V411.057H196.849V404.043Z" fill="#3F3630"/>
<path d="M196.849 397.1H189.824V404.043H196.849V397.1Z" fill="#3F3630"/>
<path d="M196.849 390.157H189.824V397.1H196.849V390.157Z" fill="#3F3630"/>
<path d="M196.849 383.143H189.824V390.157H196.849V383.143Z" fill="#3F3630"/>
<path d="M196.849 376.2H189.824V383.143H196.849V376.2Z" fill="#3F3630"/>
<path d="M196.849 369.257H189.824V376.2H196.849V369.257Z" fill="#3F3630"/>
<path d="M196.849 362.243H189.824V369.257H196.849V362.243Z" fill="#3F3630"/>
<path d="M196.849 355.3H189.824V362.243H196.849V355.3Z" fill="#443A35"/>
<path d="M196.849 348.357H189.824V355.3H196.849V348.357Z" fill="#4C423A"/>
<path d="M196.849 341.343H189.824V348.357H196.849V341.343Z" fill="#4C423A"/>
<path d="M196.849 334.4H189.824V341.343H196.849V334.4Z" fill="#4C423A"/>
<path d="M196.849 327.457H189.824V334.4H196.849V327.457Z" fill="#4C423A"/>
<path d="M196.849 320.443H189.824V327.457H196.849V320.443Z" fill="#4C423A"/>
<path d="M196.849 271.7H189.824V278.643H196.849V271.7Z" fill="#38302A"/>
<path d="M196.849 264.757H189.824V271.7H196.849V264.757Z" fill="#38302A"/>
<path d="M196.849 257.743H189.824V264.757H196.849V257.743Z" fill="#38302A"/>
<path d="M196.849 250.8H189.824V257.743H196.849V250.8Z" fill="#38302A"/>
<path d="M189.824 411.057H182.799V418H189.824V411.057Z" fill="#38302A"/>
<path d="M189.824 404.043H182.799V411.057H189.824V404.043Z" fill="#493E37"/>
<path d="M189.824 397.1H182.799V404.043H189.824V397.1Z" fill="#493E37"/>
<path d="M189.824 390.157H182.799V397.1H189.824V390.157Z" fill="#493E37"/>
<path d="M189.824 383.143H182.799V390.157H189.824V383.143Z" fill="#493E37"/>
<path d="M189.824 376.2H182.799V383.143H189.824V376.2Z" fill="#493E37"/>
<path d="M189.824 369.257H182.799V376.2H189.824V369.257Z" fill="#493E37"/>
<path d="M189.824 362.243H182.799V369.257H189.824V362.243Z" fill="#493E37"/>
<path d="M189.824 355.3H182.799V362.243H189.824V355.3Z" fill="#493E37"/>
<path d="M189.824 348.357H182.799V355.3H189.824V348.357Z" fill="#493E37"/>
<path d="M189.824 341.343H182.799V348.357H189.824V341.343Z" fill="#493E37"/>
<path d="M189.824 334.4H182.799V341.343H189.824V334.4Z" fill="#493E37"/>
<path d="M189.824 327.457H182.799V334.4H189.824V327.457Z" fill="#493E37"/>
<path d="M189.824 320.443H182.799V327.457H189.824V320.443Z" fill="#4C423A"/>
<path d="M189.824 313.5H182.799V320.443H189.824V313.5Z" fill="#4C423A"/>
<path d="M189.824 306.557H182.799V313.5H189.824V306.557Z" fill="#4C423A"/>
<path d="M189.824 285.657H182.799V292.6H189.824V285.657Z" fill="#4C423A"/>
<path d="M189.824 278.643H182.799V285.657H189.824V278.643Z" fill="#4C423A"/>
<path d="M189.824 271.7H182.799V278.643H189.824V271.7Z" fill="#4C423A"/>
<path d="M189.824 264.757H182.799V271.7H189.824V264.757Z" fill="#4C423A"/>
<path d="M189.824 257.743H182.799V264.757H189.824V257.743Z" fill="#4C423A"/>
<path d="M189.824 250.8H182.799V257.743H189.824V250.8Z" fill="#38302A"/>
<path d="M189.824 243.857H182.799V250.8H189.824V243.857Z" fill="#38302A"/>
<path d="M189.824 236.843H182.799V243.857H189.824V236.843Z" fill="#38302A"/>
<path d="M182.799 404.043H175.774V411.057H182.799V404.043Z" fill="#3F3630"/>
<path d="M182.799 397.1H175.774V404.043H182.799V397.1Z" fill="#3F3630"/>
<path d="M182.799 390.157H175.774V397.1H182.799V390.157Z" fill="#3F3630"/>
<path d="M182.799 383.143H175.774V390.157H182.799V383.143Z" fill="#3F3630"/>
<path d="M182.799 376.2H175.774V383.143H182.799V376.2Z" fill="#3F3630"/>
<path d="M182.799 369.257H175.774V376.2H182.799V369.257Z" fill="#3F3630"/>
<path d="M182.799 362.243H175.774V369.257H182.799V362.243Z" fill="#3F3630"/>
<path d="M182.799 355.3H175.774V362.243H182.799V355.3Z" fill="#443A35"/>
<path d="M182.799 348.357H175.774V355.3H182.799V348.357Z" fill="#493E37"/>
<path d="M182.799 341.343H175.774V348.357H182.799V341.343Z" fill="#493E37"/>
<path d="M182.799 334.4H175.774V341.343H182.799V334.4Z" fill="#493E37"/>
<path d="M182.799 327.457H175.774V334.4H182.799V327.457Z" fill="#493E37"/>
<path d="M182.799 320.443H175.774V327.457H182.799V320.443Z" fill="#493E37"/>
<path d="M182.799 313.5H175.774V320.443H182.799V313.5Z" fill="#493E37"/>
<path d="M182.799 306.557H175.774V313.5H182.799V306.557Z" fill="#493E37"/>
<path d="M182.799 299.543H175.774V306.557H182.799V299.543Z" fill="#4C423A"/>
<path d="M182.799 292.6H175.774V299.543H182.799V292.6Z" fill="#51453C"/>
<path d="M182.799 285.657H175.774V292.6H182.799V285.657Z" fill="#51453C"/>
<path d="M182.799 278.643H175.774V285.657H182.799V278.643Z" fill="#211D1A"/>
<path d="M182.799 271.7H175.774V278.643H182.799V271.7Z" fill="#4C423A"/>
<path d="M182.799 264.757H175.774V271.7H182.799V264.757Z" fill="#51453C"/>
<path d="M182.799 257.743H175.774V264.757H182.799V257.743Z" fill="#211D1A"/>
<path d="M182.799 250.8H175.774V257.743H182.799V250.8Z" fill="#51453C"/>
<path d="M182.799 243.857H175.774V250.8H182.799V243.857Z" fill="#38302A"/>
<path d="M182.799 236.843H175.774V243.857H182.799V236.843Z" fill="#38302A"/>
<path d="M175.774 383.143H168.676V390.157H175.774V383.143Z" fill="#493E37"/>
<path d="M175.774 376.2H168.676V383.143H175.774V376.2Z" fill="#493E37"/>
<path d="M175.774 369.257H168.676V376.2H175.774V369.257Z" fill="#493E37"/>
<path d="M175.774 362.243H168.676V369.257H175.774V362.243Z" fill="#493E37"/>
<path d="M175.774 355.3H168.676V362.243H175.774V355.3Z" fill="#493E37"/>
<path d="M175.774 348.357H168.676V355.3H175.774V348.357Z" fill="#493E37"/>
<path d="M175.774 341.343H168.676V348.357H175.774V341.343Z" fill="#493E37"/>
<path d="M175.774 334.4H168.676V341.343H175.774V334.4Z" fill="#493E37"/>
<path d="M175.774 327.457H168.676V334.4H175.774V327.457Z" fill="#493E37"/>
<path d="M175.774 320.443H168.676V327.457H175.774V320.443Z" fill="#493E37"/>
<path d="M175.774 313.5H168.676V320.443H175.774V313.5Z" fill="#493E37"/>
<path d="M175.774 306.557H168.676V313.5H175.774V306.557Z" fill="#493E37"/>
<path d="M175.774 299.543H168.676V306.557H175.774V299.543Z" fill="#493E37"/>
<path d="M175.774 292.6H168.676V299.543H175.774V292.6Z" fill="#51453C"/>
<path d="M175.774 285.657H168.676V292.6H175.774V285.657Z" fill="#211D1A"/>
<path d="M175.774 278.643H168.676V285.657H175.774V278.643Z" fill="#211D1A"/>
<path d="M175.774 271.7H168.676V278.643H175.774V271.7Z" fill="#51453C"/>
<path d="M175.774 264.757H168.676V271.7H175.774V264.757Z" fill="#51453C"/>
<path d="M175.774 257.743H168.676V264.757H175.774V257.743Z" fill="#51453C"/>
<path d="M175.774 250.8H168.676V257.743H175.774V250.8Z" fill="#51453C"/>
<path d="M175.774 243.857H168.676V250.8H175.774V243.857Z" fill="#4C423A"/>
<path d="M168.676 411.057H161.651V418H168.676V411.057Z" fill="#38302A"/>
<path d="M168.676 390.157H161.651V397.1H168.676V390.157Z" fill="#493E37"/>
<path d="M168.676 383.143H161.651V390.157H168.676V383.143Z" fill="#493E37"/>
<path d="M168.676 376.2H161.651V383.143H168.676V376.2Z" fill="#493E37"/>
<path d="M168.676 369.257H161.651V376.2H168.676V369.257Z" fill="#493E37"/>
<path d="M168.676 362.243H161.651V369.257H168.676V362.243Z" fill="#493E37"/>
<path d="M168.676 355.3H161.651V362.243H168.676V355.3Z" fill="#493E37"/>
<path d="M168.676 348.357H161.651V355.3H168.676V348.357Z" fill="#493E37"/>
<path d="M168.676 341.343H161.651V348.357H168.676V341.343Z" fill="#493E37"/>
<path d="M168.676 334.4H161.651V341.343H168.676V334.4Z" fill="#493E37"/>
<path d="M168.676 327.457H161.651V334.4H168.676V327.457Z" fill="#493E37"/>
<path d="M168.676 320.443H161.651V327.457H168.676V320.443Z" fill="#493E37"/>
<path d="M168.676 313.5H161.651V320.443H168.676V313.5Z" fill="#493E37"/>
<path d="M168.676 306.557H161.651V313.5H168.676V306.557Z" fill="#493E37"/>
<path d="M168.676 299.543H161.651V306.557H168.676V299.543Z" fill="#3F3531"/>
<path d="M168.676 292.6H161.651V299.543H168.676V292.6Z" fill="#51453C"/>
<path d="M168.676 285.657H161.651V292.6H168.676V285.657Z" fill="#51453C"/>
<path d="M168.676 278.643H161.651V285.657H168.676V278.643Z" fill="#211D1A"/>
<path d="M168.676 271.7H161.651V278.643H168.676V271.7Z" fill="#51453C"/>
<path d="M168.676 264.757H161.651V271.7H168.676V264.757Z" fill="#51453C"/>
<path d="M168.676 257.743H161.651V264.757H168.676V257.743Z" fill="#51453C"/>
<path d="M168.676 250.8H161.651V257.743H168.676V250.8Z" fill="#51453C"/>
<path d="M168.676 243.857H161.651V250.8H168.676V243.857Z" fill="#4C423A"/>
<path d="M161.651 411.057H154.626V418H161.651V411.057Z" fill="#493E37"/>
<path d="M161.651 404.043H154.626V411.057H161.651V404.043Z" fill="#3F3630"/>
<path d="M161.651 397.1H154.626V404.043H161.651V397.1Z" fill="#3F3630"/>
<path d="M161.651 390.157H154.626V397.1H161.651V390.157Z" fill="#3F3630"/>
<path d="M161.651 383.143H154.626V390.157H161.651V383.143Z" fill="#3F3630"/>
<path d="M161.651 376.2H154.626V383.143H161.651V376.2Z" fill="#3F3630"/>
<path d="M161.651 369.257H154.626V376.2H161.651V369.257Z" fill="#3F3630"/>
<path d="M161.651 362.243H154.626V369.257H161.651V362.243Z" fill="#443A35"/>
<path d="M161.651 355.3H154.626V362.243H161.651V355.3Z" fill="#443A35"/>
<path d="M161.651 348.357H154.626V355.3H161.651V348.357Z" fill="#493E37"/>
<path d="M161.651 341.343H154.626V348.357H161.651V341.343Z" fill="#493E37"/>
<path d="M161.651 334.4H154.626V341.343H161.651V334.4Z" fill="#493E37"/>
<path d="M161.651 327.457H154.626V334.4H161.651V327.457Z" fill="#493E37"/>
<path d="M161.651 320.443H154.626V327.457H161.651V320.443Z" fill="#493E37"/>
<path d="M161.651 313.5H154.626V320.443H161.651V313.5Z" fill="#493E37"/>
<path d="M161.651 306.557H154.626V313.5H161.651V306.557Z" fill="#493E37"/>
<path d="M161.651 299.543H154.626V306.557H161.651V299.543Z" fill="#3F3531"/>
<path d="M161.651 292.6H154.626V299.543H161.651V292.6Z" fill="#4C423A"/>
<path d="M161.651 285.657H154.626V292.6H161.651V285.657Z" fill="#51453C"/>
<path d="M161.651 278.643H154.626V285.657H161.651V278.643Z" fill="#51453C"/>
<path d="M161.651 271.7H154.626V278.643H161.651V271.7Z" fill="#51453C"/>
<path d="M161.651 264.757H154.626V271.7H161.651V264.757Z" fill="#51453C"/>
<path d="M161.651 257.743H154.626V264.757H161.651V257.743Z" fill="#51453C"/>
<path d="M161.651 250.8H154.626V257.743H161.651V250.8Z" fill="#51453C"/>
<path d="M161.651 243.857H154.626V250.8H161.651V243.857Z" fill="#4C423A"/>
<path d="M154.626 411.057H147.601V418H154.626V411.057Z" fill="#38302A"/>
<path d="M154.626 404.043H147.601V411.057H154.626V404.043Z" fill="#493E37"/>
<path d="M154.626 397.1H147.601V404.043H154.626V397.1Z" fill="#493E37"/>
<path d="M154.626 390.157H147.601V397.1H154.626V390.157Z" fill="#493E37"/>
<path d="M154.626 383.143H147.601V390.157H154.626V383.143Z" fill="#493E37"/>
<path d="M154.626 376.2H147.601V383.143H154.626V376.2Z" fill="#493E37"/>
<path d="M154.626 369.257H147.601V376.2H154.626V369.257Z" fill="#493E37"/>
<path d="M154.626 362.243H147.601V369.257H154.626V362.243Z" fill="#493E37"/>
<path d="M154.626 355.3H147.601V362.243H154.626V355.3Z" fill="#493E37"/>
<path d="M154.626 348.357H147.601V355.3H154.626V348.357Z" fill="#493E37"/>
<path d="M154.626 341.343H147.601V348.357H154.626V341.343Z" fill="#493E37"/>
<path d="M154.626 334.4H147.601V341.343H154.626V334.4Z" fill="#493E37"/>
<path d="M154.626 327.457H147.601V334.4H154.626V327.457Z" fill="#493E37"/>
<path d="M154.626 320.443H147.601V327.457H154.626V320.443Z" fill="#493E37"/>
<path d="M154.626 313.5H147.601V320.443H154.626V313.5Z" fill="#493E37"/>
<path d="M154.626 306.557H147.601V313.5H154.626V306.557Z" fill="#493E37"/>
<path d="M154.626 299.543H147.601V306.557H154.626V299.543Z" fill="#493E37"/>
<path d="M154.626 292.6H147.601V299.543H154.626V292.6Z" fill="#3F3531"/>
<path d="M154.626 285.657H147.601V292.6H154.626V285.657Z" fill="#4C423A"/>
<path d="M154.626 278.643H147.601V285.657H154.626V278.643Z" fill="#51453C"/>
<path d="M154.626 271.7H147.601V278.643H154.626V271.7Z" fill="#51453C"/>
<path d="M154.626 264.757H147.601V271.7H154.626V264.757Z" fill="#51453C"/>
<path d="M154.626 257.743H147.601V264.757H154.626V257.743Z" fill="#211D1A"/>
<path d="M154.626 250.8H147.601V257.743H154.626V250.8Z" fill="#4C423A"/>
<path d="M154.626 243.857H147.601V250.8H154.626V243.857Z" fill="#38302A"/>
<path d="M154.626 236.843H147.601V243.857H154.626V236.843Z" fill="#38302A"/>
<path d="M147.601 411.057H140.576V418H147.601V411.057Z" fill="#493E37"/>
<path d="M147.601 404.043H140.576V411.057H147.601V404.043Z" fill="#3F3531"/>
<path d="M147.601 397.1H140.576V404.043H147.601V397.1Z" fill="#3F3531"/>
<path d="M147.601 390.157H140.576V397.1H147.601V390.157Z" fill="#3F3630"/>
<path d="M147.601 383.143H140.576V390.157H147.601V383.143Z" fill="#3F3531"/>
<path d="M147.601 376.2H140.576V383.143H147.601V376.2Z" fill="#443A35"/>
<path d="M147.601 369.257H140.576V376.2H147.601V369.257Z" fill="#443A35"/>
<path d="M147.601 362.243H140.576V369.257H147.601V362.243Z" fill="#443A35"/>
<path d="M147.601 355.3H140.576V362.243H147.601V355.3Z" fill="#493E37"/>
<path d="M147.601 348.357H140.576V355.3H147.601V348.357Z" fill="#493E37"/>
<path d="M147.601 341.343H140.576V348.357H147.601V341.343Z" fill="#493E37"/>
<path d="M147.601 334.4H140.576V341.343H147.601V334.4Z" fill="#493E37"/>
<path d="M147.601 327.457H140.576V334.4H147.601V327.457Z" fill="#493E37"/>
<path d="M147.601 320.443H140.576V327.457H147.601V320.443Z" fill="#493E37"/>
<path d="M147.601 313.5H140.576V320.443H147.601V313.5Z" fill="#493E37"/>
<path d="M147.601 306.557H140.576V313.5H147.601V306.557Z" fill="#493E37"/>
<path d="M147.601 299.543H140.576V306.557H147.601V299.543Z" fill="#443A35"/>
<path d="M147.601 292.6H140.576V299.543H147.601V292.6Z" fill="#443A35"/>
<path d="M147.601 285.657H140.576V292.6H147.601V285.657Z" fill="#3F3531"/>
<path d="M147.601 278.643H140.576V285.657H147.601V278.643Z" fill="#4C423A"/>
<path d="M147.601 271.7H140.576V278.643H147.601V271.7Z" fill="#38302A"/>
<path d="M147.601 264.757H140.576V271.7H147.601V264.757Z" fill="#38302A"/>
<path d="M147.601 257.743H140.576V264.757H147.601V257.743Z" fill="#38302A"/>
<path d="M147.601 250.8H140.576V257.743H147.601V250.8Z" fill="#38302A"/>
<path d="M147.601 243.857H140.576V250.8H147.601V243.857Z" fill="#38302A"/>
<path d="M147.601 236.843H140.576V243.857H147.601V236.843Z" fill="#38302A"/>
<path d="M140.575 411.057H133.55V418H140.575V411.057Z" fill="#493E37"/>
<path d="M140.575 404.043H133.55V411.057H140.575V404.043Z" fill="#493E37"/>
<path d="M140.575 397.1H133.55V404.043H140.575V397.1Z" fill="#493E37"/>
<path d="M140.575 390.157H133.55V397.1H140.575V390.157Z" fill="#493E37"/>
<path d="M140.575 383.143H133.55V390.157H140.575V383.143Z" fill="#493E37"/>
<path d="M140.575 376.2H133.55V383.143H140.575V376.2Z" fill="#493E37"/>
<path d="M140.575 369.257H133.55V376.2H140.575V369.257Z" fill="#493E37"/>
<path d="M140.575 362.243H133.55V369.257H140.575V362.243Z" fill="#493E37"/>
<path d="M140.575 355.3H133.55V362.243H140.575V355.3Z" fill="#493E37"/>
<path d="M140.575 348.357H133.55V355.3H140.575V348.357Z" fill="#493E37"/>
<path d="M140.575 341.343H133.55V348.357H140.575V341.343Z" fill="#493E37"/>
<path d="M140.575 334.4H133.55V341.343H140.575V334.4Z" fill="#493E37"/>
<path d="M140.575 327.457H133.55V334.4H140.575V327.457Z" fill="#493E37"/>
<path d="M140.575 320.443H133.55V327.457H140.575V320.443Z" fill="#493E37"/>
<path d="M140.575 313.5H133.55V320.443H140.575V313.5Z" fill="#493E37"/>
<path d="M140.575 306.557H133.55V313.5H140.575V306.557Z" fill="#443A35"/>
<path d="M140.575 299.543H133.55V306.557H140.575V299.543Z" fill="#3A312E"/>
<path d="M140.575 271.7H133.55V278.643H140.575V271.7Z" fill="#38302A"/>
<path d="M140.575 264.757H133.55V271.7H140.575V264.757Z" fill="#38302A"/>
<path d="M140.575 257.743H133.55V264.757H140.575V257.743Z" fill="#38302A"/>
<path d="M140.575 250.8H133.55V257.743H140.575V250.8Z" fill="#38302A"/>
<path d="M140.575 243.857H133.55V250.8H140.575V243.857Z" fill="#38302A"/>
<path d="M140.575 195.043H133.55V202.057H140.575V195.043Z" fill="#DBBCA7"/>
<path d="M140.575 188.1H133.55V195.043H140.575V188.1Z" fill="#DBBCA7"/>
<path d="M140.575 181.157H133.55V188.1H140.575V181.157Z" fill="#B79688"/>
<path d="M140.575 174.143H133.55V181.157H140.575V174.143Z" fill="#B79688"/>
<path d="M140.575 167.2H133.55V174.143H140.575V167.2Z" fill="#D1B39F"/>
<path d="M140.575 160.257H133.55V167.2H140.575V160.257Z" fill="#DBBCA7"/>
<path d="M140.575 153.243H133.55V160.257H140.575V153.243Z" fill="#DBBCA7"/>
<path d="M140.575 146.3H133.55V153.243H140.575V146.3Z" fill="#DBBCA7"/>
<path d="M140.575 139.357H133.55V146.3H140.575V139.357Z" fill="#DBBCA7"/>
<path d="M140.575 132.343H133.55V139.357H140.575V132.343Z" fill="#DBBCA7"/>
<path d="M140.575 125.4H133.55V132.343H140.575V125.4Z" fill="#935328"/>
<path d="M140.575 118.457H133.55V125.4H140.575V118.457Z" fill="#935328"/>
<path d="M140.575 111.443H133.55V118.457H140.575V111.443Z" fill="#935328"/>
<path d="M140.575 104.5H133.55V111.443H140.575V104.5Z" fill="#935328"/>
<path d="M133.55 411.057H126.525V418H133.55V411.057Z" fill="#493E37"/>
<path d="M133.55 404.043H126.525V411.057H133.55V404.043Z" fill="#493E37"/>
<path d="M133.55 397.1H126.525V404.043H133.55V397.1Z" fill="#493E37"/>
<path d="M133.55 390.157H126.525V397.1H133.55V390.157Z" fill="#493E37"/>
<path d="M133.55 383.143H126.525V390.157H133.55V383.143Z" fill="#493E37"/>
<path d="M133.55 376.2H126.525V383.143H133.55V376.2Z" fill="#493E37"/>
<path d="M133.55 369.257H126.525V376.2H133.55V369.257Z" fill="#493E37"/>
<path d="M133.55 362.243H126.525V369.257H133.55V362.243Z" fill="#493E37"/>
<path d="M133.55 355.3H126.525V362.243H133.55V355.3Z" fill="#493E37"/>
<path d="M133.55 348.357H126.525V355.3H133.55V348.357Z" fill="#493E37"/>
<path d="M133.55 341.343H126.525V348.357H133.55V341.343Z" fill="#493E37"/>
<path d="M133.55 334.4H126.525V341.343H133.55V334.4Z" fill="#493E37"/>
<path d="M133.55 327.457H126.525V334.4H133.55V327.457Z" fill="#443A35"/>
<path d="M133.55 320.443H126.525V327.457H133.55V320.443Z" fill="#443A35"/>
<path d="M133.55 313.5H126.525V320.443H133.55V313.5Z" fill="#3F3630"/>
<path d="M133.55 306.557H126.525V313.5H133.55V306.557Z" fill="#3A312E"/>
<path d="M133.55 299.543H126.525V306.557H133.55V299.543Z" fill="#394726"/>
<path d="M133.55 292.6H126.525V299.543H133.55V292.6Z" fill="#394726"/>
<path d="M133.55 285.657H126.525V292.6H133.55V285.657Z" fill="#394726"/>
<path d="M133.55 278.643H126.525V285.657H133.55V278.643Z" fill="#394726"/>
<path d="M133.55 271.7H126.525V278.643H133.55V271.7Z" fill="#394726"/>
<path d="M133.55 264.757H126.525V271.7H133.55V264.757Z" fill="#38302A"/>
<path d="M133.55 257.743H126.525V264.757H133.55V257.743Z" fill="#38302A"/>
<path d="M133.55 250.8H126.525V257.743H133.55V250.8Z" fill="#38302A"/>
<path d="M133.55 243.857H126.525V250.8H133.55V243.857Z" fill="#394726"/>
<path d="M133.55 236.843H126.525V243.857H133.55V236.843Z" fill="#394726"/>
<path d="M133.55 229.9H126.525V236.843H133.55V229.9Z" fill="#394726"/>
<path d="M133.55 222.957H126.525V229.9H133.55V222.957Z" fill="#363F23"/>
<path d="M133.55 215.943H126.525V222.957H133.55V215.943Z" fill="#DBBCA7"/>
<path d="M133.55 209H126.525V215.943H133.55V209Z" fill="#DBBCA7"/>
<path d="M133.55 202.057H126.525V209H133.55V202.057Z" fill="#DBBCA7"/>
<path d="M133.55 195.043H126.525V202.057H133.55V195.043Z" fill="#DBBCA7"/>
<path d="M133.55 188.1H126.525V195.043H133.55V188.1Z" fill="#DBBCA7"/>
<path d="M133.55 181.157H126.525V188.1H133.55V181.157Z" fill="#DBBCA7"/>
<path d="M133.55 174.143H126.525V181.157H133.55V174.143Z" fill="#DBBCA7"/>
<path d="M133.55 167.2H126.525V174.143H133.55V167.2Z" fill="#DBBCA7"/>
<path d="M133.55 160.257H126.525V167.2H133.55V160.257Z" fill="#DBBCA7"/>
<path d="M133.55 153.243H126.525V160.257H133.55V153.243Z" fill="#DBBCA7"/>
<path d="M133.55 146.3H126.525V153.243H133.55V146.3Z" fill="#DBBCA7"/>
<path d="M133.55 139.357H126.525V146.3H133.55V139.357Z" fill="#DBBCA7"/>
<path d="M133.55 132.343H126.525V139.357H133.55V132.343Z" fill="#DBBCA7"/>
<path d="M133.55 125.4H126.525V132.343H133.55V125.4Z" fill="#935328"/>
<path d="M133.55 118.457H126.525V125.4H133.55V118.457Z" fill="#935328"/>
<path d="M133.55 111.443H126.525V118.457H133.55V111.443Z" fill="#935328"/>
<path d="M133.55 104.5H126.525V111.443H133.55V104.5Z" fill="#935328"/>
<path d="M133.55 97.5571H126.525V104.5H133.55V97.5571Z" fill="#8C4F25"/>
<path d="M126.525 411.057H119.5V418H126.525V411.057Z" fill="#38302A"/>
<path d="M126.525 404.043H119.5V411.057H126.525V404.043Z" fill="#493E37"/>
<path d="M126.525 397.1H119.5V404.043H126.525V397.1Z" fill="#3F3630"/>
<path d="M126.525 390.157H119.5V397.1H126.525V390.157Z" fill="#3F3630"/>
<path d="M126.525 383.143H119.5V390.157H126.525V383.143Z" fill="#3F3630"/>
<path d="M126.525 376.2H119.5V383.143H126.525V376.2Z" fill="#493E37"/>
<path d="M126.525 369.257H119.5V376.2H126.525V369.257Z" fill="#493E37"/>
<path d="M126.525 362.243H119.5V369.257H126.525V362.243Z" fill="#493E37"/>
<path d="M126.525 355.3H119.5V362.243H126.525V355.3Z" fill="#493E37"/>
<path d="M126.525 348.357H119.5V355.3H126.525V348.357Z" fill="#493E37"/>
<path d="M126.525 341.343H119.5V348.357H126.525V341.343Z" fill="#443A35"/>
<path d="M126.525 334.4H119.5V341.343H126.525V334.4Z" fill="#443A35"/>
<path d="M126.525 327.457H119.5V334.4H126.525V327.457Z" fill="#3F3630"/>
<path d="M126.525 320.443H119.5V327.457H126.525V320.443Z" fill="#3F3630"/>
<path d="M126.525 313.5H119.5V320.443H126.525V313.5Z" fill="#3A312E"/>
<path d="M126.525 306.557H119.5V313.5H126.525V306.557Z" fill="#363F23"/>
<path d="M126.525 299.543H119.5V306.557H126.525V299.543Z" fill="#363F23"/>
<path d="M126.525 292.6H119.5V299.543H126.525V292.6Z" fill="#363F23"/>
<path d="M126.525 285.657H119.5V292.6H126.525V285.657Z" fill="#363F23"/>
<path d="M126.525 278.643H119.5V285.657H126.525V278.643Z" fill="#363F23"/>
<path d="M126.525 271.7H119.5V278.643H126.525V271.7Z" fill="#363F23"/>
<path d="M126.525 264.757H119.5V271.7H126.525V264.757Z" fill="#363F23"/>
<path d="M126.525 257.743H119.5V264.757H126.525V257.743Z" fill="#363F23"/>
<path d="M126.525 250.8H119.5V257.743H126.525V250.8Z" fill="#363F23"/>
<path d="M126.525 243.857H119.5V250.8H126.525V243.857Z" fill="#363F23"/>
<path d="M126.525 236.843H119.5V243.857H126.525V236.843Z" fill="#394726"/>
<path d="M126.525 229.9H119.5V236.843H126.525V229.9Z" fill="#394726"/>
<path d="M126.525 222.957H119.5V229.9H126.525V222.957Z" fill="#363F23"/>
<path d="M126.525 215.943H119.5V222.957H126.525V215.943Z" fill="#D1B39F"/>
<path d="M126.525 209H119.5V215.943H126.525V209Z" fill="#D1B39F"/>
<path d="M126.525 202.057H119.5V209H126.525V202.057Z" fill="#DBBCA7"/>
<path d="M126.525 195.043H119.5V202.057H126.525V195.043Z" fill="#9B5929"/>
<path d="M126.525 188.1H119.5V195.043H126.525V188.1Z" fill="#9B5929"/>
<path d="M126.525 181.157H119.5V188.1H126.525V181.157Z" fill="#935328"/>
<path d="M126.525 174.143H119.5V181.157H126.525V174.143Z" fill="#935328"/>
<path d="M126.525 167.2H119.5V174.143H126.525V167.2Z" fill="#935328"/>
<path d="M126.525 160.257H119.5V167.2H126.525V160.257Z" fill="#935328"/>
<path d="M126.525 153.243H119.5V160.257H126.525V153.243Z" fill="#935328"/>
<path d="M126.525 146.3H119.5V153.243H126.525V146.3Z" fill="#935328"/>
<path d="M126.525 139.357H119.5V146.3H126.525V139.357Z" fill="#935328"/>
<path d="M126.525 132.343H119.5V139.357H126.525V132.343Z" fill="#935328"/>
<path d="M126.525 125.4H119.5V132.343H126.525V125.4Z" fill="#9B5929"/>
<path d="M126.525 118.457H119.5V125.4H126.525V118.457Z" fill="#9B5929"/>
<path d="M126.525 111.443H119.5V118.457H126.525V111.443Z" fill="#9B5929"/>
<path d="M126.525 104.5H119.5V111.443H126.525V104.5Z" fill="#935328"/>
<path d="M126.525 97.5571H119.5V104.5H126.525V97.5571Z" fill="#935328"/>
<path d="M126.525 90.5432H119.5V97.5571H126.525V90.5432Z" fill="#8C4F25"/>
<path d="M126.525 20.8997H119.5V27.8427H126.525V20.8997Z" fill="#7C625B"/>
<path d="M126.525 13.9568H119.5V20.8998H126.525V13.9568Z" fill="#7C625B"/>
<path d="M119.5 411.057H112.475V418H119.5V411.057Z" fill="#443A35"/>
<path d="M119.5 404.043H112.475V411.057H119.5V404.043Z" fill="#3F3630"/>
<path d="M119.5 397.1H112.475V404.043H119.5V397.1Z" fill="#443A35"/>
<path d="M119.5 390.157H112.475V397.1H119.5V390.157Z" fill="#443A35"/>
<path d="M119.5 383.143H112.475V390.157H119.5V383.143Z" fill="#443A35"/>
<path d="M119.5 376.2H112.475V383.143H119.5V376.2Z" fill="#443A35"/>
<path d="M119.5 369.257H112.475V376.2H119.5V369.257Z" fill="#493E37"/>
<path d="M119.5 362.243H112.475V369.257H119.5V362.243Z" fill="#493E37"/>
<path d="M119.5 355.3H112.475V362.243H119.5V355.3Z" fill="#443A35"/>
<path d="M119.5 348.357H112.475V355.3H119.5V348.357Z" fill="#443A35"/>
<path d="M119.5 341.343H112.475V348.357H119.5V341.343Z" fill="#443A35"/>
<path d="M119.5 334.4H112.475V341.343H119.5V334.4Z" fill="#3F3630"/>
<path d="M119.5 327.457H112.475V334.4H119.5V327.457Z" fill="#3F3630"/>
<path d="M119.5 320.443H112.475V327.457H119.5V320.443Z" fill="#3A312E"/>
<path d="M119.5 313.5H112.475V320.443H119.5V313.5Z" fill="#303A1F"/>
<path d="M119.5 306.557H112.475V313.5H119.5V306.557Z" fill="#303A1F"/>
<path d="M119.5 299.543H112.475V306.557H119.5V299.543Z" fill="#303A1F"/>
<path d="M119.5 292.6H112.475V299.543H119.5V292.6Z" fill="#303A1F"/>
<path d="M119.5 285.657H112.475V292.6H119.5V285.657Z" fill="#303A1F"/>
<path d="M119.5 278.643H112.475V285.657H119.5V278.643Z" fill="#303A1F"/>
<path d="M119.5 271.7H112.475V278.643H119.5V271.7Z" fill="#303A1F"/>
<path d="M119.5 264.757H112.475V271.7H119.5V264.757Z" fill="#303A1F"/>
<path d="M119.5 257.743H112.475V264.757H119.5V257.743Z" fill="#303A1F"/>
<path d="M119.5 250.8H112.475V257.743H119.5V250.8Z" fill="#303A1F"/>
<path d="M119.5 243.857H112.475V250.8H119.5V243.857Z" fill="#303A1F"/>
<path d="M119.5 236.843H112.475V243.857H119.5V236.843Z" fill="#363F23"/>
<path d="M119.5 229.9H112.475V236.843H119.5V229.9Z" fill="#394726"/>
<path d="M119.5 222.957H112.475V229.9H119.5V222.957Z" fill="#394726"/>
<path d="M119.5 215.943H112.475V222.957H119.5V215.943Z" fill="#363F23"/>
<path d="M119.5 209H112.475V215.943H119.5V209Z" fill="#363F23"/>
<path d="M119.5 202.057H112.475V209H119.5V202.057Z" fill="#9B5929"/>
<path d="M119.5 195.043H112.475V202.057H119.5V195.043Z" fill="#9B5929"/>
<path d="M119.5 188.1H112.475V195.043H119.5V188.1Z" fill="#9B5929"/>
<path d="M119.5 181.157H112.475V188.1H119.5V181.157Z" fill="#9B5929"/>
<path d="M119.5 174.143H112.475V181.157H119.5V174.143Z" fill="#9B5929"/>
<path d="M119.5 167.2H112.475V174.143H119.5V167.2Z" fill="#9B5929"/>
<path d="M119.5 160.257H112.475V167.2H119.5V160.257Z" fill="#9B5929"/>
<path d="M119.5 153.243H112.475V160.257H119.5V153.243Z" fill="#9B5929"/>
<path d="M119.5 146.3H112.475V153.243H119.5V146.3Z" fill="#9B5929"/>
<path d="M119.5 139.357H112.475V146.3H119.5V139.357Z" fill="#9B5929"/>
<path d="M119.5 132.343H112.475V139.357H119.5V132.343Z" fill="#9B5929"/>
<path d="M119.5 125.4H112.475V132.343H119.5V125.4Z" fill="#9B5929"/>
<path d="M119.5 118.457H112.475V125.4H119.5V118.457Z" fill="#9B5929"/>
<path d="M119.5 111.443H112.475V118.457H119.5V111.443Z" fill="#9B5929"/>
<path d="M119.5 104.5H112.475V111.443H119.5V104.5Z" fill="#9B5929"/>
<path d="M119.5 97.5571H112.475V104.5H119.5V97.5571Z" fill="#935328"/>
<path d="M119.5 90.5432H112.475V97.5571H119.5V90.5432Z" fill="#935328"/>
<path d="M119.5 83.6003H112.475V90.5434H119.5V83.6003Z" fill="#8C4F25"/>
<path d="M119.5 55.757H112.475V62.7H119.5V55.757Z" fill="#DBBCA7"/>
<path d="M119.5 48.743H112.475V55.7569H119.5V48.743Z" fill="#DBBCA7"/>
<path d="M119.5 41.8002H112.475V48.7432H119.5V41.8002Z" fill="#DBBCA7"/>
<path d="M119.5 34.8572H112.475V41.8002H119.5V34.8572Z" fill="#54473B"/>
<path d="M119.5 27.8434H112.475V34.8573H119.5V27.8434Z" fill="#B79688"/>
<path d="M119.5 20.8997H112.475V27.8427H119.5V20.8997Z" fill="#68504A"/>
<path d="M119.5 13.9568H112.475V20.8998H119.5V13.9568Z" fill="#705850"/>
<path d="M119.5 6.94287H112.475V13.9568H119.5V6.94287Z" fill="#7C625B"/>
<path d="M112.475 411.057H105.45V418H112.475V411.057Z" fill="#443A35"/>
<path d="M112.475 404.043H105.45V411.057H112.475V404.043Z" fill="#443A35"/>
<path d="M112.475 397.1H105.45V404.043H112.475V397.1Z" fill="#443A35"/>
<path d="M112.475 390.157H105.45V397.1H112.475V390.157Z" fill="#443A35"/>
<path d="M112.475 383.143H105.45V390.157H112.475V383.143Z" fill="#443A35"/>
<path d="M112.475 376.2H105.45V383.143H112.475V376.2Z" fill="#443A35"/>
<path d="M112.475 369.257H105.45V376.2H112.475V369.257Z" fill="#443A35"/>
<path d="M112.475 362.243H105.45V369.257H112.475V362.243Z" fill="#443A35"/>
<path d="M112.475 355.3H105.45V362.243H112.475V355.3Z" fill="#443A35"/>
<path d="M112.475 348.357H105.45V355.3H112.475V348.357Z" fill="#3F3630"/>
<path d="M112.475 341.343H105.45V348.357H112.475V341.343Z" fill="#3F3630"/>
<path d="M112.475 334.4H105.45V341.343H112.475V334.4Z" fill="#3A312E"/>
<path d="M112.475 236.843H105.45V243.857H112.475V236.843Z" fill="#303A1F"/>
<path d="M112.475 229.9H105.45V236.843H112.475V229.9Z" fill="#394726"/>
<path d="M112.475 222.957H105.45V229.9H112.475V222.957Z" fill="#394726"/>
<path d="M112.475 215.943H105.45V222.957H112.475V215.943Z" fill="#394726"/>
<path d="M112.475 209H105.45V215.943H112.475V209Z" fill="#394726"/>
<path d="M112.475 202.057H105.45V209H112.475V202.057Z" fill="#9B5929"/>
<path d="M112.475 195.043H105.45V202.057H112.475V195.043Z" fill="#9B5929"/>
<path d="M112.475 188.1H105.45V195.043H112.475V188.1Z" fill="#9B5929"/>
<path d="M112.475 181.157H105.45V188.1H112.475V181.157Z" fill="#9B5929"/>
<path d="M112.475 174.143H105.45V181.157H112.475V174.143Z" fill="#9B5929"/>
<path d="M112.475 167.2H105.45V174.143H112.475V167.2Z" fill="#9B5929"/>
<path d="M112.475 160.257H105.45V167.2H112.475V160.257Z" fill="#9B5929"/>
<path d="M112.475 153.243H105.45V160.257H112.475V153.243Z" fill="#9B5929"/>
<path d="M112.475 146.3H105.45V153.243H112.475V146.3Z" fill="#9B5929"/>
<path d="M112.475 139.357H105.45V146.3H112.475V139.357Z" fill="#9B5929"/>
<path d="M112.475 132.343H105.45V139.357H112.475V132.343Z" fill="#9B5929"/>
<path d="M112.475 125.4H105.45V132.343H112.475V125.4Z" fill="#9B5929"/>
<path d="M112.475 118.457H105.45V125.4H112.475V118.457Z" fill="#9B5929"/>
<path d="M112.475 111.443H105.45V118.457H112.475V111.443Z" fill="#9B5929"/>
<path d="M112.475 104.5H105.45V111.443H112.475V104.5Z" fill="#9B5929"/>
<path d="M112.475 97.5571H105.45V104.5H112.475V97.5571Z" fill="#9B5929"/>
<path d="M112.475 90.5432H105.45V97.5571H112.475V90.5432Z" fill="#935328"/>
<path d="M112.475 83.6003H105.45V90.5434H112.475V83.6003Z" fill="#8C4F25"/>
<path d="M112.475 69.6428H105.45V76.6567H112.475V69.6428Z" fill="#B79688"/>
<path d="M112.475 62.6998H105.45V69.6429H112.475V62.6998Z" fill="#D1B39F"/>
<path d="M112.475 55.757H105.45V62.7H112.475V55.757Z" fill="#DBAF9E"/>
<path d="M112.475 48.743H105.45V55.7569H112.475V48.743Z" fill="#DBBCA7"/>
<path d="M112.475 41.8002H105.45V48.7432H112.475V41.8002Z" fill="#DBBCA7"/>
<path d="M112.475 34.8572H105.45V41.8002H112.475V34.8572Z" fill="#FFFEFD"/>
<path d="M112.475 27.8434H105.45V34.8573H112.475V27.8434Z" fill="#B79688"/>
<path d="M112.475 20.8997H105.45V27.8427H112.475V20.8997Z" fill="#DBBCA7"/>
<path d="M112.475 13.9568H105.45V20.8998H112.475V13.9568Z" fill="#68524C"/>
<path d="M112.475 6.94287H105.45V13.9568H112.475V6.94287Z" fill="#705850"/>
<path d="M112.475 0H105.45V6.94305H112.475V0Z" fill="#705850"/>
<path d="M105.449 411.057H98.4243V418H105.449V411.057Z" fill="#443A35"/>
<path d="M105.449 404.043H98.4243V411.057H105.449V404.043Z" fill="#443A35"/>
<path d="M105.449 397.1H98.4243V404.043H105.449V397.1Z" fill="#443A35"/>
<path d="M105.449 390.157H98.4243V397.1H105.449V390.157Z" fill="#443A35"/>
<path d="M105.449 383.143H98.4243V390.157H105.449V383.143Z" fill="#443A35"/>
<path d="M105.449 376.2H98.4243V383.143H105.449V376.2Z" fill="#443A35"/>
<path d="M105.449 369.257H98.4243V376.2H105.449V369.257Z" fill="#443A35"/>
<path d="M105.449 362.243H98.4243V369.257H105.449V362.243Z" fill="#443A35"/>
<path d="M105.449 355.3H98.4243V362.243H105.449V355.3Z" fill="#3A312E"/>
<path d="M105.449 348.357H98.4243V355.3H105.449V348.357Z" fill="#3A312E"/>
<path d="M105.449 236.843H98.4243V243.857H105.449V236.843Z" fill="#303A1F"/>
<path d="M105.449 229.9H98.4243V236.843H105.449V229.9Z" fill="#363F23"/>
<path d="M105.449 222.957H98.4243V229.9H105.449V222.957Z" fill="#394726"/>
<path d="M105.449 215.943H98.4243V222.957H105.449V215.943Z" fill="#394726"/>
<path d="M105.449 209H98.4243V215.943H105.449V209Z" fill="#394726"/>
<path d="M105.449 202.057H98.4243V209H105.449V202.057Z" fill="#9B5929"/>
<path d="M105.449 195.043H98.4243V202.057H105.449V195.043Z" fill="#9B5929"/>
<path d="M105.449 188.1H98.4243V195.043H105.449V188.1Z" fill="#9B5929"/>
<path d="M105.449 181.157H98.4243V188.1H105.449V181.157Z" fill="#9B5929"/>
<path d="M105.449 174.143H98.4243V181.157H105.449V174.143Z" fill="#9B5929"/>
<path d="M105.449 167.2H98.4243V174.143H105.449V167.2Z" fill="#9B5929"/>
<path d="M105.449 160.257H98.4243V167.2H105.449V160.257Z" fill="#9B5929"/>
<path d="M105.449 153.243H98.4243V160.257H105.449V153.243Z" fill="#9B5929"/>
<path d="M105.449 146.3H98.4243V153.243H105.449V146.3Z" fill="#9B5929"/>
<path d="M105.449 139.357H98.4243V146.3H105.449V139.357Z" fill="#9B5929"/>
<path d="M105.449 132.343H98.4243V139.357H105.449V132.343Z" fill="#9B5929"/>
<path d="M105.449 125.4H98.4243V132.343H105.449V125.4Z" fill="#9B5929"/>
<path d="M105.449 118.457H98.4243V125.4H105.449V118.457Z" fill="#9B5929"/>
<path d="M105.449 111.443H98.4243V118.457H105.449V111.443Z" fill="#9B5929"/>
<path d="M105.449 104.5H98.4243V111.443H105.449V104.5Z" fill="#9B5929"/>
<path d="M105.449 97.5571H98.4243V104.5H105.449V97.5571Z" fill="#9B5929"/>
<path d="M105.449 90.5432H98.4243V97.5571H105.449V90.5432Z" fill="#9B5929"/>
<path d="M105.449 83.6003H98.4243V90.5434H105.449V83.6003Z" fill="#DBBCA7"/>
<path d="M105.449 76.6566H98.4243V83.5997H105.449V76.6566Z" fill="#DBBCA7"/>
<path d="M105.449 69.6428H98.4243V76.6567H105.449V69.6428Z" fill="#B79688"/>
<path d="M105.449 62.6998H98.4243V69.6429H105.449V62.6998Z" fill="#D1B39F"/>
<path d="M105.449 55.757H98.4243V62.7H105.449V55.757Z" fill="#DBAF9E"/>
<path d="M105.449 48.743H98.4243V55.7569H105.449V48.743Z" fill="#EACCB7"/>
<path d="M105.449 41.8002H98.4243V48.7432H105.449V41.8002Z" fill="#EACCB7"/>
<path d="M105.449 34.8572H98.4243V41.8002H105.449V34.8572Z" fill="#EACCB7"/>
<path d="M105.449 27.8434H98.4243V34.8573H105.449V27.8434Z" fill="#DBBCA7"/>
<path d="M105.449 20.8997H98.4243V27.8427H105.449V20.8997Z" fill="#DBBCA7"/>
<path d="M105.449 13.9568H98.4243V20.8998H105.449V13.9568Z" fill="#68504A"/>
<path d="M105.449 6.94287H98.4243V13.9568H105.449V6.94287Z" fill="#68524C"/>
<path d="M105.449 0H98.4243V6.94305H105.449V0Z" fill="#705850"/>
<path d="M98.4246 404.043H91.3994V411.057H98.4246V404.043Z" fill="#443A35"/>
<path d="M98.4246 397.1H91.3994V404.043H98.4246V397.1Z" fill="#443A35"/>
<path d="M98.4246 390.157H91.3994V397.1H98.4246V390.157Z" fill="#3F3630"/>
<path d="M98.4246 383.143H91.3994V390.157H98.4246V383.143Z" fill="#3F3630"/>
<path d="M98.4246 376.2H91.3994V383.143H98.4246V376.2Z" fill="#3A312E"/>
<path d="M98.4246 369.257H91.3994V376.2H98.4246V369.257Z" fill="#3A312E"/>
<path d="M98.4246 236.843H91.3994V243.857H98.4246V236.843Z" fill="#303A1F"/>
<path d="M98.4246 229.9H91.3994V236.843H98.4246V229.9Z" fill="#363F23"/>
<path d="M98.4246 222.957H91.3994V229.9H98.4246V222.957Z" fill="#394726"/>
<path d="M98.4246 215.943H91.3994V222.957H98.4246V215.943Z" fill="#394726"/>
<path d="M98.4246 209H91.3994V215.943H98.4246V209Z" fill="#394726"/>
<path d="M98.4246 202.057H91.3994V209H98.4246V202.057Z" fill="#9B5929"/>
<path d="M98.4246 195.043H91.3994V202.057H98.4246V195.043Z" fill="#9B5929"/>
<path d="M98.4246 188.1H91.3994V195.043H98.4246V188.1Z" fill="#9B5929"/>
<path d="M98.4246 181.157H91.3994V188.1H98.4246V181.157Z" fill="#9B5929"/>
<path d="M98.4246 174.143H91.3994V181.157H98.4246V174.143Z" fill="#9B5929"/>
<path d="M98.4246 167.2H91.3994V174.143H98.4246V167.2Z" fill="#9B5929"/>
<path d="M98.4246 160.257H91.3994V167.2H98.4246V160.257Z" fill="#9B5929"/>
<path d="M98.4246 153.243H91.3994V160.257H98.4246V153.243Z" fill="#9B5929"/>
<path d="M98.4246 146.3H91.3994V153.243H98.4246V146.3Z" fill="#9B5929"/>
<path d="M98.4246 139.357H91.3994V146.3H98.4246V139.357Z" fill="#9B5929"/>
<path d="M98.4246 132.343H91.3994V139.357H98.4246V132.343Z" fill="#9B5929"/>
<path d="M98.4246 125.4H91.3994V132.343H98.4246V125.4Z" fill="#9B5929"/>
<path d="M98.4246 118.457H91.3994V125.4H98.4246V118.457Z" fill="#9B5929"/>
<path d="M98.4246 111.443H91.3994V118.457H98.4246V111.443Z" fill="#9B5929"/>
<path d="M98.4246 104.5H91.3994V111.443H98.4246V104.5Z" fill="#9B5929"/>
<path d="M98.4246 97.5571H91.3994V104.5H98.4246V97.5571Z" fill="#9B5929"/>
<path d="M98.4246 90.5432H91.3994V97.5571H98.4246V90.5432Z" fill="#DBBCA7"/>
<path d="M98.4246 83.6003H91.3994V90.5434H98.4246V83.6003Z" fill="#CCAB96"/>
<path d="M98.4246 76.6566H91.3994V83.5997H98.4246V76.6566Z" fill="#CCAB96"/>
<path d="M98.4246 69.6428H91.3994V76.6567H98.4246V69.6428Z" fill="#B79688"/>
<path d="M98.4246 62.6998H91.3994V69.6429H98.4246V62.6998Z" fill="#D1B39F"/>
<path d="M98.4246 55.757H91.3994V62.7H98.4246V55.757Z" fill="#DBBCA7"/>
<path d="M98.4246 48.743H91.3994V55.7569H98.4246V48.743Z" fill="#DBBCA7"/>
<path d="M98.4246 41.8002H91.3994V48.7432H98.4246V41.8002Z" fill="#DBBCA7"/>
<path d="M98.4246 34.8572H91.3994V41.8002H98.4246V34.8572Z" fill="#54473B"/>
<path d="M98.4246 27.8434H91.3994V34.8573H98.4246V27.8434Z" fill="#B79688"/>
<path d="M98.4246 20.8997H91.3994V27.8427H98.4246V20.8997Z" fill="#DBBCA7"/>
<path d="M98.4246 13.9568H91.3994V20.8998H98.4246V13.9568Z" fill="#604C46"/>
<path d="M98.4246 6.94287H91.3994V13.9568H98.4246V6.94287Z" fill="#68504A"/>
<path d="M98.4246 0H91.3994V6.94305H98.4246V0Z" fill="#68524C"/>
<path d="M91.3996 404.043H84.3744V411.057H91.3996V404.043Z" fill="#38302A"/>
<path d="M91.3996 397.1H84.3744V404.043H91.3996V397.1Z" fill="#38302A"/>
<path d="M91.3996 390.157H84.3744V397.1H91.3996V390.157Z" fill="#38302A"/>
<path d="M91.3996 243.857H84.3744V250.8H91.3996V243.857Z" fill="#303A1F"/>
<path d="M91.3996 236.843H84.3744V243.857H91.3996V236.843Z" fill="#303A1F"/>
<path d="M91.3996 229.9H84.3744V236.843H91.3996V229.9Z" fill="#363F23"/>
<path d="M91.3996 222.957H84.3744V229.9H91.3996V222.957Z" fill="#394726"/>
<path d="M91.3996 215.943H84.3744V222.957H91.3996V215.943Z" fill="#394726"/>
<path d="M91.3996 209H84.3744V215.943H91.3996V209Z" fill="#394726"/>
<path d="M91.3996 202.057H84.3744V209H91.3996V202.057Z" fill="#9B5929"/>
<path d="M91.3996 195.043H84.3744V202.057H91.3996V195.043Z" fill="#9B5929"/>
<path d="M91.3996 188.1H84.3744V195.043H91.3996V188.1Z" fill="#9B5929"/>
<path d="M91.3996 181.157H84.3744V188.1H91.3996V181.157Z" fill="#9B5929"/>
<path d="M91.3996 174.143H84.3744V181.157H91.3996V174.143Z" fill="#9B5929"/>
<path d="M91.3996 167.2H84.3744V174.143H91.3996V167.2Z" fill="#9B5929"/>
<path d="M91.3996 160.257H84.3744V167.2H91.3996V160.257Z" fill="#9B5929"/>
<path d="M91.3996 153.243H84.3744V160.257H91.3996V153.243Z" fill="#9B5929"/>
<path d="M91.3996 146.3H84.3744V153.243H91.3996V146.3Z" fill="#9B5929"/>
<path d="M91.3996 139.357H84.3744V146.3H91.3996V139.357Z" fill="#9B5929"/>
<path d="M91.3996 132.343H84.3744V139.357H91.3996V132.343Z" fill="#9B5929"/>
<path d="M91.3996 125.4H84.3744V132.343H91.3996V125.4Z" fill="#9B5929"/>
<path d="M91.3996 118.457H84.3744V125.4H91.3996V118.457Z" fill="#9B5929"/>
<path d="M91.3996 111.443H84.3744V118.457H91.3996V111.443Z" fill="#9B5929"/>
<path d="M91.3996 104.5H84.3744V111.443H91.3996V104.5Z" fill="#9B5929"/>
<path d="M91.3996 97.5571H84.3744V104.5H91.3996V97.5571Z" fill="#9B5929"/>
<path d="M91.3996 90.5432H84.3744V97.5571H91.3996V90.5432Z" fill="#9B5929"/>
<path d="M91.3996 83.6003H84.3744V90.5434H91.3996V83.6003Z" fill="#CCAB96"/>
<path d="M91.3996 76.6566H84.3744V83.5997H91.3996V76.6566Z" fill="#CCAB96"/>
<path d="M91.3996 69.6428H84.3744V76.6567H91.3996V69.6428Z" fill="#CCAB96"/>
<path d="M91.3996 62.6998H84.3744V69.6429H91.3996V62.6998Z" fill="#B79688"/>
<path d="M91.3996 55.757H84.3744V62.7H91.3996V55.757Z" fill="#D1B39F"/>
<path d="M91.3996 48.743H84.3744V55.7569H91.3996V48.743Z" fill="#DBBCA7"/>
<path d="M91.3996 41.8002H84.3744V48.7432H91.3996V41.8002Z" fill="#DBBCA7"/>
<path d="M91.3996 34.8572H84.3744V41.8002H91.3996V34.8572Z" fill="#FFFEFD"/>
<path d="M91.3996 27.8434H84.3744V34.8573H91.3996V27.8434Z" fill="#B79688"/>
<path d="M91.3996 20.8997H84.3744V27.8427H91.3996V20.8997Z" fill="#DBBCA7"/>
<path d="M91.3996 13.9568H84.3744V20.8998H91.3996V13.9568Z" fill="#604C46"/>
<path d="M91.3996 6.94287H84.3744V13.9568H91.3996V6.94287Z" fill="#68504A"/>
<path d="M84.3745 397.1H77.3494V404.043H84.3745V397.1Z" fill="#38302A"/>
<path d="M84.3745 390.157H77.3494V397.1H84.3745V390.157Z" fill="#38302A"/>
<path d="M84.3745 383.143H77.3494V390.157H84.3745V383.143Z" fill="#38302A"/>
<path d="M84.3745 376.2H77.3494V383.143H84.3745V376.2Z" fill="#38302A"/>
<path d="M84.3745 369.257H77.3494V376.2H84.3745V369.257Z" fill="#38302A"/>
<path d="M84.3745 362.243H77.3494V369.257H84.3745V362.243Z" fill="#38302A"/>
<path d="M84.3745 355.3H77.3494V362.243H84.3745V355.3Z" fill="#38302A"/>
<path d="M84.3745 271.7H77.3494V278.643H84.3745V271.7Z" fill="#303A1F"/>
<path d="M84.3745 264.757H77.3494V271.7H84.3745V264.757Z" fill="#303A1F"/>
<path d="M84.3745 257.743H77.3494V264.757H84.3745V257.743Z" fill="#303A1F"/>
<path d="M84.3745 250.8H77.3494V257.743H84.3745V250.8Z" fill="#303A1F"/>
<path d="M84.3745 243.857H77.3494V250.8H84.3745V243.857Z" fill="#303A1F"/>
<path d="M84.3745 236.843H77.3494V243.857H84.3745V236.843Z" fill="#363F23"/>
<path d="M84.3745 229.9H77.3494V236.843H84.3745V229.9Z" fill="#394726"/>
<path d="M84.3745 222.957H77.3494V229.9H84.3745V222.957Z" fill="#394726"/>
<path d="M84.3745 215.943H77.3494V222.957H84.3745V215.943Z" fill="#394726"/>
<path d="M84.3745 209H77.3494V215.943H84.3745V209Z" fill="#394726"/>
<path d="M84.3745 202.057H77.3494V209H84.3745V202.057Z" fill="#9B5929"/>
<path d="M84.3745 195.043H77.3494V202.057H84.3745V195.043Z" fill="#9B5929"/>
<path d="M84.3745 188.1H77.3494V195.043H84.3745V188.1Z" fill="#9B5929"/>
<path d="M84.3745 181.157H77.3494V188.1H84.3745V181.157Z" fill="#9B5929"/>
<path d="M84.3745 174.143H77.3494V181.157H84.3745V174.143Z" fill="#9B5929"/>
<path d="M84.3745 167.2H77.3494V174.143H84.3745V167.2Z" fill="#9B5929"/>
<path d="M84.3745 160.257H77.3494V167.2H84.3745V160.257Z" fill="#9B5929"/>
<path d="M84.3745 153.243H77.3494V160.257H84.3745V153.243Z" fill="#9B5929"/>
<path d="M84.3745 146.3H77.3494V153.243H84.3745V146.3Z" fill="#9B5929"/>
<path d="M84.3745 139.357H77.3494V146.3H84.3745V139.357Z" fill="#9B5929"/>
<path d="M84.3745 132.343H77.3494V139.357H84.3745V132.343Z" fill="#9B5929"/>
<path d="M84.3745 125.4H77.3494V132.343H84.3745V125.4Z" fill="#9B5929"/>
<path d="M84.3745 118.457H77.3494V125.4H84.3745V118.457Z" fill="#9B5929"/>
<path d="M84.3745 111.443H77.3494V118.457H84.3745V111.443Z" fill="#9B5929"/>
<path d="M84.3745 104.5H77.3494V111.443H84.3745V104.5Z" fill="#9B5929"/>
<path d="M84.3745 97.5571H77.3494V104.5H84.3745V97.5571Z" fill="#9B5929"/>
<path d="M84.3745 90.5432H77.3494V97.5571H84.3745V90.5432Z" fill="#935328"/>
<path d="M84.3745 83.6003H77.3494V90.5434H84.3745V83.6003Z" fill="#8C4F25"/>
<path d="M84.3745 76.6566H77.3494V83.5997H84.3745V76.6566Z" fill="#CCAB96"/>
<path d="M84.3745 69.6428H77.3494V76.6567H84.3745V69.6428Z" fill="#CCAB96"/>
<path d="M84.3745 62.6998H77.3494V69.6429H84.3745V62.6998Z" fill="#B79688"/>
<path d="M84.3745 55.757H77.3494V62.7H84.3745V55.757Z" fill="#B79688"/>
<path d="M84.3745 48.743H77.3494V55.7569H84.3745V48.743Z" fill="#DBBCA7"/>
<path d="M84.3745 41.8002H77.3494V48.7432H84.3745V41.8002Z" fill="#DBBCA7"/>
<path d="M84.3745 34.8572H77.3494V41.8002H84.3745V34.8572Z" fill="#DBBCA7"/>
<path d="M84.3745 27.8434H77.3494V34.8573H84.3745V27.8434Z" fill="#DBBCA7"/>
<path d="M84.3745 20.8997H77.3494V27.8427H84.3745V20.8997Z" fill="#5E4842"/>
<path d="M84.3745 13.9568H77.3494V20.8998H84.3745V13.9568Z" fill="#604C46"/>
<path d="M84.3745 6.94287H77.3494V13.9568H84.3745V6.94287Z" fill="#604C46"/>
<path d="M77.3489 411.057H70.3237V418H77.3489V411.057Z" fill="#9F9FA0"/>
<path d="M77.3489 404.043H70.3237V411.057H77.3489V404.043Z" fill="#D3D3D3"/>
<path d="M77.3489 397.1H70.3237V404.043H77.3489V397.1Z" fill="#D3D3D3"/>
<path d="M77.3489 390.157H70.3237V397.1H77.3489V390.157Z" fill="#A7C4C1"/>
<path d="M77.3489 383.143H70.3237V390.157H77.3489V383.143Z" fill="#38302A"/>
<path d="M77.3489 376.2H70.3237V383.143H77.3489V376.2Z" fill="#38302A"/>
<path d="M77.3489 369.257H70.3237V376.2H77.3489V369.257Z" fill="#38302A"/>
<path d="M77.3489 362.243H70.3237V369.257H77.3489V362.243Z" fill="#38302A"/>
<path d="M77.3489 355.3H70.3237V362.243H77.3489V355.3Z" fill="#303A1F"/>
<path d="M77.3489 348.357H70.3237V355.3H77.3489V348.357Z" fill="#303A1F"/>
<path d="M77.3489 341.343H70.3237V348.357H77.3489V341.343Z" fill="#303A1F"/>
<path d="M77.3489 334.4H70.3237V341.343H77.3489V334.4Z" fill="#303A1F"/>
<path d="M77.3489 327.457H70.3237V334.4H77.3489V327.457Z" fill="#303A1F"/>
<path d="M77.3489 320.443H70.3237V327.457H77.3489V320.443Z" fill="#303A1F"/>
<path d="M77.3489 313.5H70.3237V320.443H77.3489V313.5Z" fill="#303A1F"/>
<path d="M77.3489 306.557H70.3237V313.5H77.3489V306.557Z" fill="#303A1F"/>
<path d="M77.3489 299.543H70.3237V306.557H77.3489V299.543Z" fill="#303A1F"/>
<path d="M77.3489 292.6H70.3237V299.543H77.3489V292.6Z" fill="#303A1F"/>
<path d="M77.3489 285.657H70.3237V292.6H77.3489V285.657Z" fill="#303A1F"/>
<path d="M77.3489 278.643H70.3237V285.657H77.3489V278.643Z" fill="#303A1F"/>
<path d="M77.3489 271.7H70.3237V278.643H77.3489V271.7Z" fill="#303A1F"/>
<path d="M77.3489 264.757H70.3237V271.7H77.3489V264.757Z" fill="#363F23"/>
<path d="M77.3489 257.743H70.3237V264.757H77.3489V257.743Z" fill="#363F23"/>
<path d="M77.3489 250.8H70.3237V257.743H77.3489V250.8Z" fill="#363F23"/>
<path d="M77.3489 243.857H70.3237V250.8H77.3489V243.857Z" fill="#363F23"/>
<path d="M77.3489 236.843H70.3237V243.857H77.3489V236.843Z" fill="#394726"/>
<path d="M77.3489 229.9H70.3237V236.843H77.3489V229.9Z" fill="#394726"/>
<path d="M77.3489 222.957H70.3237V229.9H77.3489V222.957Z" fill="#394726"/>
<path d="M77.3489 215.943H70.3237V222.957H77.3489V215.943Z" fill="#363F23"/>
<path d="M77.3489 209H70.3237V215.943H77.3489V209Z" fill="#363F23"/>
<path d="M77.3489 202.057H70.3237V209H77.3489V202.057Z" fill="#9B5929"/>
<path d="M77.3489 195.043H70.3237V202.057H77.3489V195.043Z" fill="#9B5929"/>
<path d="M77.3489 188.1H70.3237V195.043H77.3489V188.1Z" fill="#9B5929"/>
<path d="M77.3489 181.157H70.3237V188.1H77.3489V181.157Z" fill="#9B5929"/>
<path d="M77.3489 174.143H70.3237V181.157H77.3489V174.143Z" fill="#9B5929"/>
<path d="M77.3489 167.2H70.3237V174.143H77.3489V167.2Z" fill="#9B5929"/>
<path d="M77.3489 160.257H70.3237V167.2H77.3489V160.257Z" fill="#9B5929"/>
<path d="M77.3489 153.243H70.3237V160.257H77.3489V153.243Z" fill="#9B5929"/>
<path d="M77.3489 146.3H70.3237V153.243H77.3489V146.3Z" fill="#9B5929"/>
<path d="M77.3489 139.357H70.3237V146.3H77.3489V139.357Z" fill="#9B5929"/>
<path d="M77.3489 132.343H70.3237V139.357H77.3489V132.343Z" fill="#9B5929"/>
<path d="M77.3489 125.4H70.3237V132.343H77.3489V125.4Z" fill="#9B5929"/>
<path d="M77.3489 118.457H70.3237V125.4H77.3489V118.457Z" fill="#9B5929"/>
<path d="M77.3489 111.443H70.3237V118.457H77.3489V111.443Z" fill="#9B5929"/>
<path d="M77.3489 104.5H70.3237V111.443H77.3489V104.5Z" fill="#9B5929"/>
<path d="M77.3489 97.5571H70.3237V104.5H77.3489V97.5571Z" fill="#9B5929"/>
<path d="M77.3489 90.5432H70.3237V97.5571H77.3489V90.5432Z" fill="#935328"/>
<path d="M77.3489 83.6003H70.3237V90.5434H77.3489V83.6003Z" fill="#8C4F25"/>
<path d="M77.3489 41.8002H70.3237V48.7432H77.3489V41.8002Z" fill="#EACCB7"/>
<path d="M77.3489 34.8572H70.3237V41.8002H77.3489V34.8572Z" fill="#EACCB7"/>
<path d="M77.3489 27.8434H70.3237V34.8573H77.3489V27.8434Z" fill="#5E4842"/>
<path d="M77.3489 20.8997H70.3237V27.8427H77.3489V20.8997Z" fill="#5E4842"/>
<path d="M77.3489 13.9568H70.3237V20.8998H77.3489V13.9568Z" fill="#5E4842"/>
<path d="M70.3239 411.057H63.2987V418H70.3239V411.057Z" fill="#9F9FA0"/>
<path d="M70.3239 404.043H63.2987V411.057H70.3239V404.043Z" fill="#D3D3D3"/>
<path d="M70.3239 397.1H63.2987V404.043H70.3239V397.1Z" fill="#D3D3D3"/>
<path d="M70.3239 390.157H63.2987V397.1H70.3239V390.157Z" fill="#A7C4C1"/>
<path d="M70.3239 383.143H63.2987V390.157H70.3239V383.143Z" fill="#363F23"/>
<path d="M70.3239 376.2H63.2987V383.143H70.3239V376.2Z" fill="#363F23"/>
<path d="M70.3239 369.257H63.2987V376.2H70.3239V369.257Z" fill="#363F23"/>
<path d="M70.3239 362.243H63.2987V369.257H70.3239V362.243Z" fill="#363F23"/>
<path d="M70.3239 355.3H63.2987V362.243H70.3239V355.3Z" fill="#363F23"/>
<path d="M70.3239 348.357H63.2987V355.3H70.3239V348.357Z" fill="#363F23"/>
<path d="M70.3239 341.343H63.2987V348.357H70.3239V341.343Z" fill="#363F23"/>
<path d="M70.3239 334.4H63.2987V341.343H70.3239V334.4Z" fill="#363F23"/>
<path d="M70.3239 327.457H63.2987V334.4H70.3239V327.457Z" fill="#363F23"/>
<path d="M70.3239 320.443H63.2987V327.457H70.3239V320.443Z" fill="#445130"/>
<path d="M70.3239 313.5H63.2987V320.443H70.3239V313.5Z" fill="#445130"/>
<path d="M70.3239 306.557H63.2987V313.5H70.3239V306.557Z" fill="#445130"/>
<path d="M70.3239 299.543H63.2987V306.557H70.3239V299.543Z" fill="#445130"/>
<path d="M70.3239 292.6H63.2987V299.543H70.3239V292.6Z" fill="#363F23"/>
<path d="M70.3239 285.657H63.2987V292.6H70.3239V285.657Z" fill="#363F23"/>
<path d="M70.3239 278.643H63.2987V285.657H70.3239V278.643Z" fill="#363F23"/>
<path d="M70.3239 271.7H63.2987V278.643H70.3239V271.7Z" fill="#363F23"/>
<path d="M70.3239 264.757H63.2987V271.7H70.3239V264.757Z" fill="#363F23"/>
<path d="M70.3239 257.743H63.2987V264.757H70.3239V257.743Z" fill="#394726"/>
<path d="M70.3239 250.8H63.2987V257.743H70.3239V250.8Z" fill="#394726"/>
<path d="M70.3239 243.857H63.2987V250.8H70.3239V243.857Z" fill="#394726"/>
<path d="M70.3239 236.843H63.2987V243.857H70.3239V236.843Z" fill="#394726"/>
<path d="M70.3239 229.9H63.2987V236.843H70.3239V229.9Z" fill="#394726"/>
<path d="M70.3239 222.957H63.2987V229.9H70.3239V222.957Z" fill="#363F23"/>
<path d="M70.3239 215.943H63.2987V222.957H70.3239V215.943Z" fill="#D1B39F"/>
<path d="M70.3239 209H63.2987V215.943H70.3239V209Z" fill="#D1B39F"/>
<path d="M70.3239 202.057H63.2987V209H70.3239V202.057Z" fill="#DBBCA7"/>
<path d="M70.3239 195.043H63.2987V202.057H70.3239V195.043Z" fill="#935328"/>
<path d="M70.3239 188.1H63.2987V195.043H70.3239V188.1Z" fill="#935328"/>
<path d="M70.3239 181.157H63.2987V188.1H70.3239V181.157Z" fill="#935328"/>
<path d="M70.3239 174.143H63.2987V181.157H70.3239V174.143Z" fill="#935328"/>
<path d="M70.3239 167.2H63.2987V174.143H70.3239V167.2Z" fill="#935328"/>
<path d="M70.3239 160.257H63.2987V167.2H70.3239V160.257Z" fill="#935328"/>
<path d="M70.3239 153.243H63.2987V160.257H70.3239V153.243Z" fill="#935328"/>
<path d="M70.3239 146.3H63.2987V153.243H70.3239V146.3Z" fill="#9B5929"/>
<path d="M70.3239 139.357H63.2987V146.3H70.3239V139.357Z" fill="#9B5929"/>
<path d="M70.3239 132.343H63.2987V139.357H70.3239V132.343Z" fill="#9B5929"/>
<path d="M70.3239 125.4H63.2987V132.343H70.3239V125.4Z" fill="#9B5929"/>
<path d="M70.3239 118.457H63.2987V125.4H70.3239V118.457Z" fill="#9B5929"/>
<path d="M70.3239 111.443H63.2987V118.457H70.3239V111.443Z" fill="#9B5929"/>
<path d="M70.3239 104.5H63.2987V111.443H70.3239V104.5Z" fill="#9B5929"/>
<path d="M70.3239 97.5571H63.2987V104.5H70.3239V97.5571Z" fill="#9B5929"/>
<path d="M70.3239 90.5432H63.2987V97.5571H70.3239V90.5432Z" fill="#935328"/>
<path d="M70.3239 83.6003H63.2987V90.5434H70.3239V83.6003Z" fill="#8C4F25"/>
<path d="M63.299 411.057H56.2738V418H63.299V411.057Z" fill="#9F9FA0"/>
<path d="M63.299 404.043H56.2738V411.057H63.299V404.043Z" fill="#D3D3D3"/>
<path d="M63.299 397.1H56.2738V404.043H63.299V397.1Z" fill="#D3D3D3"/>
<path d="M63.299 390.157H56.2738V397.1H63.299V390.157Z" fill="#A7C4C1"/>
<path d="M63.299 383.143H56.2738V390.157H63.299V383.143Z" fill="#394726"/>
<path d="M63.299 376.2H56.2738V383.143H63.299V376.2Z" fill="#394726"/>
<path d="M63.299 369.257H56.2738V376.2H63.299V369.257Z" fill="#394726"/>
<path d="M63.299 362.243H56.2738V369.257H63.299V362.243Z" fill="#394726"/>
<path d="M63.299 355.3H56.2738V362.243H63.299V355.3Z" fill="#394726"/>
<path d="M63.299 348.357H56.2738V355.3H63.299V348.357Z" fill="#394726"/>
<path d="M63.299 341.343H56.2738V348.357H63.299V341.343Z" fill="#394726"/>
<path d="M63.299 334.4H56.2738V341.343H63.299V334.4Z" fill="#394726"/>
<path d="M63.299 327.457H56.2738V334.4H63.299V327.457Z" fill="#394726"/>
<path d="M63.299 320.443H56.2738V327.457H63.299V320.443Z" fill="#394726"/>
<path d="M63.299 313.5H56.2738V320.443H63.299V313.5Z" fill="#394726"/>
<path d="M63.299 306.557H56.2738V313.5H63.299V306.557Z" fill="#394726"/>
<path d="M63.299 299.543H56.2738V306.557H63.299V299.543Z" fill="#394726"/>
<path d="M63.299 292.6H56.2738V299.543H63.299V292.6Z" fill="#394726"/>
<path d="M63.299 285.657H56.2738V292.6H63.299V285.657Z" fill="#394726"/>
<path d="M63.299 278.643H56.2738V285.657H63.299V278.643Z" fill="#394726"/>
<path d="M63.299 271.7H56.2738V278.643H63.299V271.7Z" fill="#394726"/>
<path d="M63.299 264.757H56.2738V271.7H63.299V264.757Z" fill="#394726"/>
<path d="M63.299 257.743H56.2738V264.757H63.299V257.743Z" fill="#394726"/>
<path d="M63.299 250.8H56.2738V257.743H63.299V250.8Z" fill="#394726"/>
<path d="M63.299 243.857H56.2738V250.8H63.299V243.857Z" fill="#394726"/>
<path d="M63.299 236.843H56.2738V243.857H63.299V236.843Z" fill="#394726"/>
<path d="M63.299 229.9H56.2738V236.843H63.299V229.9Z" fill="#363F23"/>
<path d="M63.299 222.957H56.2738V229.9H63.299V222.957Z" fill="#363F23"/>
<path d="M63.299 215.943H56.2738V222.957H63.299V215.943Z" fill="#DBBCA7"/>
<path d="M63.299 209H56.2738V215.943H63.299V209Z" fill="#DBBCA7"/>
<path d="M63.299 202.057H56.2738V209H63.299V202.057Z" fill="#DBBCA7"/>
<path d="M63.299 195.043H56.2738V202.057H63.299V195.043Z" fill="#DBBCA7"/>
<path d="M63.299 188.1H56.2738V195.043H63.299V188.1Z" fill="#935328"/>
<path d="M63.299 181.157H56.2738V188.1H63.299V181.157Z" fill="#935328"/>
<path d="M63.299 174.143H56.2738V181.157H63.299V174.143Z" fill="#935328"/>
<path d="M63.299 167.2H56.2738V174.143H63.299V167.2Z" fill="#935328"/>
<path d="M63.299 160.257H56.2738V167.2H63.299V160.257Z" fill="#935328"/>
<path d="M63.299 153.243H56.2738V160.257H63.299V153.243Z" fill="#935328"/>
<path d="M63.299 146.3H56.2738V153.243H63.299V146.3Z" fill="#935328"/>
<path d="M63.299 139.357H56.2738V146.3H63.299V139.357Z" fill="#935328"/>
<path d="M63.299 132.343H56.2738V139.357H63.299V132.343Z" fill="#935328"/>
<path d="M63.299 125.4H56.2738V132.343H63.299V125.4Z" fill="#9B5929"/>
<path d="M63.299 118.457H56.2738V125.4H63.299V118.457Z" fill="#9B5929"/>
<path d="M63.299 111.443H56.2738V118.457H63.299V111.443Z" fill="#9B5929"/>
<path d="M63.299 104.5H56.2738V111.443H63.299V104.5Z" fill="#9B5929"/>
<path d="M63.299 97.5571H56.2738V104.5H63.299V97.5571Z" fill="#935328"/>
<path d="M63.299 90.5432H56.2738V97.5571H63.299V90.5432Z" fill="#935328"/>
<path d="M56.2738 202.057H49.1763V209H56.2738V202.057Z" fill="#DBBCA7"/>
<path d="M56.2738 195.043H49.1763V202.057H56.2738V195.043Z" fill="#DBBCA7"/>
<path d="M56.2738 188.1H49.1763V195.043H56.2738V188.1Z" fill="#DBBCA7"/>
<path d="M56.2738 125.4H49.1763V132.343H56.2738V125.4Z" fill="#9B5929"/>
<path d="M56.2738 118.457H49.1763V125.4H56.2738V118.457Z" fill="#9B5929"/>
<path d="M56.2738 111.443H49.1763V118.457H56.2738V111.443Z" fill="#9B5929"/>
<path d="M56.2738 104.5H49.1763V111.443H56.2738V104.5Z" fill="#935328"/>
<path d="M56.2738 97.5571H49.1763V104.5H56.2738V97.5571Z" fill="#935328"/>
<path d="M56.2738 90.5432H49.1763V97.5571H56.2738V90.5432Z" fill="#8C4F25"/>
<path d="M49.1757 195.043H42.1505V202.057H49.1757V195.043Z" fill="#DBBCA7"/>
<path d="M49.1757 188.1H42.1505V195.043H49.1757V188.1Z" fill="#DBBCA7"/>
<path d="M49.1757 181.157H42.1505V188.1H49.1757V181.157Z" fill="#DBBCA7"/>
<path d="M49.1757 174.143H42.1505V181.157H49.1757V174.143Z" fill="#DBBCA7"/>
<path d="M49.1757 167.2H42.1505V174.143H49.1757V167.2Z" fill="#DBBCA7"/>
<path d="M49.1757 160.257H42.1505V167.2H49.1757V160.257Z" fill="#DBBCA7"/>
<path d="M49.1757 153.243H42.1505V160.257H49.1757V153.243Z" fill="#DBBCA7"/>
<path d="M49.1757 146.3H42.1505V153.243H49.1757V146.3Z" fill="#DBBCA7"/>
<path d="M49.1757 139.357H42.1505V146.3H49.1757V139.357Z" fill="#DBBCA7"/>
<path d="M49.1757 132.343H42.1505V139.357H49.1757V132.343Z" fill="#935328"/>
<path d="M49.1757 125.4H42.1505V132.343H49.1757V125.4Z" fill="#935328"/>
<path d="M49.1757 118.457H42.1505V125.4H49.1757V118.457Z" fill="#935328"/>
<path d="M49.1757 111.443H42.1505V118.457H49.1757V111.443Z" fill="#935328"/>
<path d="M49.1757 104.5H42.1505V111.443H49.1757V104.5Z" fill="#935328"/>
<path d="M49.1757 97.5571H42.1505V104.5H49.1757V97.5571Z" fill="#8C4F25"/>
<path d="M42.1508 181.157H35.1256V188.1H42.1508V181.157Z" fill="#B79688"/>
<path d="M42.1508 174.143H35.1256V181.157H42.1508V174.143Z" fill="#B79688"/>
<path d="M42.1508 167.2H35.1256V174.143H42.1508V167.2Z" fill="#D1B39F"/>
<path d="M42.1508 160.257H35.1256V167.2H42.1508V160.257Z" fill="#DBBCA7"/>
<path d="M42.1508 153.243H35.1256V160.257H42.1508V153.243Z" fill="#DBBCA7"/>
<path d="M42.1508 146.3H35.1256V153.243H42.1508V146.3Z" fill="#DBBCA7"/>
<path d="M42.1508 139.357H35.1256V146.3H42.1508V139.357Z" fill="#DBBCA7"/>
<path d="M42.1508 132.343H35.1256V139.357H42.1508V132.343Z" fill="#935328"/>
<path d="M42.1508 125.4H35.1256V132.343H42.1508V125.4Z" fill="#935328"/>
<path d="M42.1508 118.457H35.1256V125.4H42.1508V118.457Z" fill="#935328"/>
<path d="M42.1508 111.443H35.1256V118.457H42.1508V111.443Z" fill="#8C4F25"/>
<path d="M42.1508 104.5H35.1256V111.443H42.1508V104.5Z" fill="#8C4F25"/>
</g>
<defs>
<clipPath id="clip0">
<rect width="239" height="418" fill="white"/>
</clipPath>
</defs>
</svg>
