
<svg width="172" height="412" viewBox="0 0 172 412" fill="none" xmlns="http://www.w3.org/2000/svg">
<path d="M164.926 178.579H158.06V185.435H164.926V178.579Z" fill="#939394"/>
<path d="M164.926 171.724H158.06V178.579H164.926V171.724Z" fill="#939394"/>
<path d="M164.926 164.938H158.06V171.794H164.926V164.938Z" fill="#939394"/>
<path d="M164.926 158.083H158.06V164.938H164.926V158.083Z" fill="#939394"/>
<path d="M164.926 151.228H158.06V158.083H164.926V151.228Z" fill="#939394"/>
<path d="M164.926 144.373H158.06V151.228H164.926V144.373Z" fill="#9F9FA0"/>
<path d="M164.926 137.587H158.06V144.442H164.926V137.587Z" fill="#9F9FA0"/>
<path d="M164.926 130.732H158.06V137.587H164.926V130.732Z" fill="#B5B5B6"/>
<path d="M158.06 185.435H151.194V192.29H158.06V185.435Z" fill="#DBC5B4"/>
<path d="M158.06 178.579H151.194V185.435H158.06V178.579Z" fill="#CEB8A7"/>
<path d="M158.06 171.724H151.194V178.579H158.06V171.724Z" fill="#939394"/>
<path d="M158.06 164.938H151.194V171.794H158.06V164.938Z" fill="#9A9A9D"/>
<path d="M158.06 158.083H151.194V164.938H158.06V158.083Z" fill="#9F9FA0"/>
<path d="M158.06 151.228H151.194V158.083H158.06V151.228Z" fill="#9F9FA0"/>
<path d="M158.06 144.373H151.194V151.228H158.06V144.373Z" fill="#9F9FA0"/>
<path d="M158.06 137.587H151.194V144.442H158.06V137.587Z" fill="#9F9FA0"/>
<path d="M158.06 130.732H151.194V137.587H158.06V130.732Z" fill="#B5B5B6"/>
<path d="M151.194 185.435H144.327V192.29H151.194V185.435Z" fill="#DBC5B4"/>
<path d="M151.194 178.579H144.327V185.435H151.194V178.579Z" fill="#DBC5B4"/>
<path d="M151.194 171.724H144.327V178.579H151.194V171.724Z" fill="#9A9A9D"/>
<path d="M151.194 164.938H144.327V171.794H151.194V164.938Z" fill="#9F9FA0"/>
<path d="M151.194 158.083H144.327V164.938H151.194V158.083Z" fill="#5DAD89"/>
<path d="M151.194 151.228H144.327V158.083H151.194V151.228Z" fill="#9F9FA0"/>
<path d="M151.194 144.373H144.327V151.228H151.194V144.373Z" fill="#9F9FA0"/>
<path d="M151.194 137.587H144.327V144.442H151.194V137.587Z" fill="#9F9FA0"/>
<path d="M151.194 130.732H144.327V137.587H151.194V130.732Z" fill="#B5B5B6"/>
<path d="M144.397 185.435H137.531V192.29H144.397V185.435Z" fill="#DBC5B4"/>
<path d="M144.397 178.579H137.531V185.435H144.397V178.579Z" fill="#939394"/>
<path d="M144.397 171.724H137.531V178.579H144.397V171.724Z" fill="#9F9FA0"/>
<path d="M144.397 164.938H137.531V171.794H144.397V164.938Z" fill="#9F9FA0"/>
<path d="M144.397 158.083H137.531V164.938H144.397V158.083Z" fill="#9F9FA0"/>
<path d="M144.397 151.228H137.531V158.083H144.397V151.228Z" fill="#6AB995"/>
<path d="M144.397 144.373H137.531V151.228H144.397V144.373Z" fill="#9F9FA0"/>
<path d="M144.397 137.587H137.531V144.442H144.397V137.587Z" fill="#9F9FA0"/>
<path d="M144.397 130.732H137.531V137.587H144.397V130.732Z" fill="#B5B5B6"/>
<path d="M137.531 185.435H130.665V192.29H137.531V185.435Z" fill="#DBC5B4"/>
<path d="M137.531 178.579H130.665V185.435H137.531V178.579Z" fill="#939394"/>
<path d="M137.531 171.724H130.665V178.579H137.531V171.724Z" fill="#9F9FA0"/>
<path d="M137.531 164.938H130.665V171.794H137.531V164.938Z" fill="#9F9FA0"/>
<path d="M137.531 158.083H130.665V164.938H137.531V158.083Z" fill="#73C19E"/>
<path d="M137.531 151.228H130.665V158.083H137.531V151.228Z" fill="#9F9FA0"/>
<path d="M137.531 144.373H130.665V151.228H137.531V144.373Z" fill="#9F9FA0"/>
<path d="M137.531 137.587H130.665V144.442H137.531V137.587Z" fill="#9F9FA0"/>
<path d="M137.531 130.732H130.665V137.587H137.531V130.732Z" fill="#B5B5B6"/>
<path d="M130.664 185.435H123.798V192.29H130.664V185.435Z" fill="#DBC5B4"/>
<path d="M130.664 178.579H123.798V185.435H130.664V178.579Z" fill="#9F9FA0"/>
<path d="M130.664 171.724H123.798V178.579H130.664V171.724Z" fill="#9F9FA0"/>
<path d="M130.664 164.938H123.798V171.794H130.664V164.938Z" fill="#9F9FA0"/>
<path d="M130.664 158.083H123.798V164.938H130.664V158.083Z" fill="#9F9FA0"/>
<path d="M130.664 151.228H123.798V158.083H130.664V151.228Z" fill="#85DCB5"/>
<path d="M130.664 144.373H123.798V151.228H130.664V144.373Z" fill="#9F9FA0"/>
<path d="M130.664 137.587H123.798V144.442H130.664V137.587Z" fill="#9F9FA0"/>
<path d="M130.664 130.732H123.798V137.587H130.664V130.732Z" fill="#B5B5B6"/>
<path d="M123.799 185.435H116.932V192.29H123.799V185.435Z" fill="#CEB8A7"/>
<path d="M123.799 178.579H116.932V185.435H123.799V178.579Z" fill="#9F9FA0"/>
<path d="M123.799 171.724H116.932V178.579H123.799V171.724Z" fill="#9F9FA0"/>
<path d="M123.799 164.938H116.932V171.794H123.799V164.938Z" fill="#9F9FA0"/>
<path d="M123.799 158.083H116.932V164.938H123.799V158.083Z" fill="#96E2BE"/>
<path d="M123.799 151.228H116.932V158.083H123.799V151.228Z" fill="#9F9FA0"/>
<path d="M123.799 144.373H116.932V151.228H123.799V144.373Z" fill="#9F9FA0"/>
<path d="M123.799 137.587H116.932V144.442H123.799V137.587Z" fill="#A5A5A8"/>
<path d="M123.799 130.732H116.932V137.587H123.799V130.732Z" fill="#B5B5B6"/>
<path d="M123.799 123.877H116.932V130.732H123.799V123.877Z" fill="#B59F13"/>
<path d="M123.799 117.022H116.932V123.877H123.799V117.022Z" fill="#A69214"/>
<path d="M123.799 110.236H116.932V117.091H123.799V110.236Z" fill="#A69214"/>
<path d="M117.002 185.435H110.135V192.29H117.002V185.435Z" fill="#CEB8A7"/>
<path d="M117.002 178.579H110.135V185.435H117.002V178.579Z" fill="#9F9FA0"/>
<path d="M117.002 171.724H110.135V178.579H117.002V171.724Z" fill="#9F9FA0"/>
<path d="M117.002 164.938H110.135V171.794H117.002V164.938Z" fill="#9F9FA0"/>
<path d="M117.002 158.083H110.135V164.938H117.002V158.083Z" fill="#9F9FA0"/>
<path d="M117.002 151.228H110.135V158.083H117.002V151.228Z" fill="#9F9FA0"/>
<path d="M117.002 144.373H110.135V151.228H117.002V144.373Z" fill="#9F9FA0"/>
<path d="M117.002 137.587H110.135V144.442H117.002V137.587Z" fill="#A5A5A8"/>
<path d="M117.002 130.732H110.135V137.587H117.002V130.732Z" fill="#B5B5B6"/>
<path d="M117.002 123.877H110.135V130.732H117.002V123.877Z" fill="#B59F13"/>
<path d="M117.002 117.022H110.135V123.877H117.002V117.022Z" fill="#B59F13"/>
<path d="M117.002 110.236H110.135V117.091H117.002V110.236Z" fill="#A69214"/>
<path d="M117.002 103.381H110.135V110.236H117.002V103.381Z" fill="#A69214"/>
<path d="M117.071 397.459H110.205V404.314H117.071V397.459Z" fill="#817F6B"/>
<path d="M117.071 390.604H110.205V397.459H117.071V390.604Z" fill="#817F6B"/>
<path d="M110.136 226.496H103.269V233.351H110.136V226.496Z" fill="#2D655A"/>
<path d="M110.136 219.641H103.269V226.496H110.136V219.641Z" fill="#2D655A"/>
<path d="M110.136 212.786H103.269V219.641H110.136V212.786Z" fill="#357767"/>
<path d="M110.136 205.931H103.269V212.786H110.136V205.931Z" fill="#357767"/>
<path d="M110.136 199.145H103.269V206H110.136V199.145Z" fill="#357767"/>
<path d="M110.136 192.29H103.269V199.145H110.136V192.29Z" fill="#357767"/>
<path d="M110.136 185.435H103.269V192.29H110.136V185.435Z" fill="#C3AC17"/>
<path d="M110.136 178.579H103.269V185.435H110.136V178.579Z" fill="#A5A5A8"/>
<path d="M110.136 171.724H103.269V178.579H110.136V171.724Z" fill="#A5A5A8"/>
<path d="M110.136 164.938H103.269V171.794H110.136V164.938Z" fill="#A5A5A8"/>
<path d="M110.136 158.083H103.269V164.938H110.136V158.083Z" fill="#A5A5A8"/>
<path d="M110.136 151.228H103.269V158.083H110.136V151.228Z" fill="#A5A5A8"/>
<path d="M110.136 144.373H103.269V151.228H110.136V144.373Z" fill="#A5A5A8"/>
<path d="M110.136 137.587H103.269V144.442H110.136V137.587Z" fill="#A5A5A8"/>
<path d="M110.136 130.732H103.269V137.587H110.136V130.732Z" fill="#B5B5B6"/>
<path d="M110.136 123.877H103.269V130.732H110.136V123.877Z" fill="#A69214"/>
<path d="M110.136 117.022H103.269V123.877H110.136V117.022Z" fill="#B59F13"/>
<path d="M110.136 110.236H103.269V117.091H110.136V110.236Z" fill="#B59F13"/>
<path d="M110.136 103.381H103.269V110.236H110.136V103.381Z" fill="#B59F13"/>
<path d="M110.136 96.5258H103.269V103.381H110.136V96.5258Z" fill="#A69214"/>
<path d="M110.205 397.459H103.339V404.314H110.205V397.459Z" fill="#676659"/>
<path d="M110.205 390.604H103.339V397.459H110.205V390.604Z" fill="#817F6B"/>
<path d="M110.205 383.749H103.339V390.604H110.205V383.749Z" fill="#A3962E"/>
<path d="M110.205 376.893H103.339V383.749H110.205V376.893Z" fill="#DBC5B4"/>
<path d="M110.205 370.108H103.339V376.963H110.205V370.108Z" fill="#295B51"/>
<path d="M110.205 363.252H103.339V370.108H110.205V363.252Z" fill="#2D655A"/>
<path d="M110.205 356.397H103.339V363.252H110.205V356.397Z" fill="#2D655A"/>
<path d="M110.205 349.542H103.339V356.397H110.205V349.542Z" fill="#2D655A"/>
<path d="M110.205 342.756H103.339V349.611H110.205V342.756Z" fill="#2D655A"/>
<path d="M110.205 335.901H103.339V342.756H110.205V335.901Z" fill="#2D655A"/>
<path d="M110.205 329.046H103.339V335.901H110.205V329.046Z" fill="#2D655A"/>
<path d="M110.205 322.191H103.339V329.046H110.205V322.191Z" fill="#2D655A"/>
<path d="M110.205 315.405H103.339V322.26H110.205V315.405Z" fill="#378071"/>
<path d="M110.205 308.55H103.339V315.405H110.205V308.55Z" fill="#378071"/>
<path d="M110.205 301.695H103.339V308.55H110.205V301.695Z" fill="#378071"/>
<path d="M110.205 294.84H103.339V301.695H110.205V294.84Z" fill="#378071"/>
<path d="M110.205 288.054H103.339V294.909H110.205V288.054Z" fill="#378071"/>
<path d="M110.205 281.199H103.339V288.054H110.205V281.199Z" fill="#2D655A"/>
<path d="M110.205 274.344H103.339V281.199H110.205V274.344Z" fill="#2D655A"/>
<path d="M110.205 267.488H103.339V274.344H110.205V267.488Z" fill="#2D655A"/>
<path d="M110.205 260.703H103.339V267.558H110.205V260.703Z" fill="#2D655A"/>
<path d="M110.205 253.847H103.339V260.703H110.205V253.847Z" fill="#2D655A"/>
<path d="M110.205 246.992H103.339V253.847H110.205V246.992Z" fill="#2D655A"/>
<path d="M110.205 240.137H103.339V246.992H110.205V240.137Z" fill="#2D655A"/>
<path d="M103.269 233.282H96.4032V240.137H103.269V233.282Z" fill="#2D655A"/>
<path d="M110.205 233.282H103.339V240.137H110.205V233.282Z" fill="#2D655A"/>
<path d="M103.269 226.496H96.4032V233.351H103.269V226.496Z" fill="#2D655A"/>
<path d="M103.269 219.641H96.4032V226.496H103.269V219.641Z" fill="#2D655A"/>
<path d="M103.269 212.786H96.4032V219.641H103.269V212.786Z" fill="#2D655A"/>
<path d="M104.171 204.269H95.5709V212.855H104.171V204.269Z" fill="#357767"/>
<path d="M104.171 195.683H95.5709V204.2H104.171V195.683Z" fill="#357767"/>
<path d="M103.269 192.29H96.4032V199.145H103.269V192.29Z" fill="#357767"/>
<path d="M103.269 185.435H96.4032V192.29H103.269V185.435Z" fill="#DBC5B4"/>
<path d="M103.269 178.579H96.4032V185.435H103.269V178.579Z" fill="#B5B5B6"/>
<path d="M103.269 171.724H96.4032V178.579H103.269V171.724Z" fill="#B5B5B6"/>
<path d="M103.269 164.938H96.4032V171.794H103.269V164.938Z" fill="#B5B5B6"/>
<path d="M103.269 158.083H96.4032V164.938H103.269V158.083Z" fill="#B5B5B6"/>
<path d="M103.269 151.228H96.4032V158.083H103.269V151.228Z" fill="#B5B5B6"/>
<path d="M103.269 144.373H96.4032V151.228H103.269V144.373Z" fill="#B5B5B6"/>
<path d="M103.269 137.587H96.4032V144.442H103.269V137.587Z" fill="#B5B5B6"/>
<path d="M103.269 130.732H96.4032V137.587H103.269V130.732Z" fill="#B5B5B6"/>
<path d="M103.269 123.877H96.4032V130.732H103.269V123.877Z" fill="#C3AC17"/>
<path d="M103.269 117.022H96.4032V123.877H103.269V117.022Z" fill="#B59F13"/>
<path d="M103.269 110.236H96.4032V117.091H103.269V110.236Z" fill="#B59F13"/>
<path d="M103.269 103.381H96.4032V110.236H103.269V103.381Z" fill="#B59F13"/>
<path d="M103.269 96.5258H96.4032V103.381H103.269V96.5258Z" fill="#A69214"/>
<path d="M103.269 89.6707H96.4032V96.5258H103.269V89.6707Z" fill="#675E54"/>
<path d="M103.269 82.8848H96.4032V89.7399H103.269V82.8848Z" fill="#675E54"/>
<path d="M103.269 76.0295H96.4032V82.8847H103.269V76.0295Z" fill="#675E54"/>
<path d="M103.269 69.1744H96.4032V76.0296H103.269V69.1744Z" fill="#675E54"/>
<path d="M103.269 62.3193H96.4032V69.1745H103.269V62.3193Z" fill="#675E54"/>
<path d="M103.269 55.4642H96.4032V62.3194H103.269V55.4642Z" fill="#675E54"/>
<path d="M103.269 48.6783H96.4032V55.5335H103.269V48.6783Z" fill="#675E54"/>
<path d="M103.269 41.8232H96.4032V48.6784H103.269V41.8232Z" fill="#675E54"/>
<path d="M103.269 34.9681H96.4032V41.8233H103.269V34.9681Z" fill="#675E54"/>
<path d="M103.269 28.1129H96.4032V34.968H103.269V28.1129Z" fill="#675E54"/>
<path d="M103.269 21.327H96.4032V28.1822H103.269V21.327Z" fill="#675E54"/>
<path d="M103.339 397.459H96.4727V404.314H103.339V397.459Z" fill="#676659"/>
<path d="M103.339 390.604H96.4727V397.459H103.339V390.604Z" fill="#676659"/>
<path d="M103.339 383.749H96.4727V390.604H103.339V383.749Z" fill="#A3962E"/>
<path d="M103.339 376.893H96.4727V383.749H103.339V376.893Z" fill="#DBC5B4"/>
<path d="M103.339 370.108H96.4727V376.963H103.339V370.108Z" fill="#295B51"/>
<path d="M103.339 363.252H96.4727V370.108H103.339V363.252Z" fill="#295B51"/>
<path d="M103.339 356.397H96.4727V363.252H103.339V356.397Z" fill="#295B51"/>
<path d="M103.339 349.542H96.4727V356.397H103.339V349.542Z" fill="#295B51"/>
<path d="M103.339 342.756H96.4727V349.611H103.339V342.756Z" fill="#295B51"/>
<path d="M103.339 335.901H96.4727V342.756H103.339V335.901Z" fill="#295B51"/>
<path d="M103.339 329.046H96.4727V335.901H103.339V329.046Z" fill="#295B51"/>
<path d="M103.339 322.191H96.4727V329.046H103.339V322.191Z" fill="#295B51"/>
<path d="M103.339 315.405H96.4727V322.26H103.339V315.405Z" fill="#295B51"/>
<path d="M103.339 308.55H96.4727V315.405H103.339V308.55Z" fill="#295B51"/>
<path d="M103.339 301.695H96.4727V308.55H103.339V301.695Z" fill="#295B51"/>
<path d="M103.339 294.84H96.4727V301.695H103.339V294.84Z" fill="#295B51"/>
<path d="M103.339 288.054H96.4727V294.909H103.339V288.054Z" fill="#295B51"/>
<path d="M103.339 281.199H96.4727V288.054H103.339V281.199Z" fill="#295B51"/>
<path d="M103.339 274.344H96.4727V281.199H103.339V274.344Z" fill="#2D655A"/>
<path d="M103.339 267.488H96.4727V274.344H103.339V267.488Z" fill="#2D655A"/>
<path d="M103.339 260.703H96.4727V267.558H103.339V260.703Z" fill="#2D655A"/>
<path d="M103.339 253.847H96.4727V260.703H103.339V253.847Z" fill="#2D655A"/>
<path d="M103.339 246.992H96.4727V253.847H103.339V246.992Z" fill="#2D655A"/>
<path d="M103.339 240.137H96.4727V246.992H103.339V240.137Z" fill="#2D655A"/>
<path d="M96.4032 233.282H89.5371V240.137H96.4032V233.282Z" fill="#2D655A"/>
<path d="M96.4032 226.496H89.5371V233.351H96.4032V226.496Z" fill="#2D655A"/>
<path d="M96.4032 219.641H89.5371V226.496H96.4032V219.641Z" fill="#2D655A"/>
<path d="M96.4032 212.786H89.5371V219.641H96.4032V212.786Z" fill="#2D655A"/>
<path d="M96.4032 205.931H89.5371V212.786H96.4032V205.931Z" fill="#2D655A"/>
<path d="M96.4032 199.145H89.5371V206H96.4032V199.145Z" fill="#2D655A"/>
<path d="M96.4032 192.29H89.5371V199.145H96.4032V192.29Z" fill="#DBC5B4"/>
<path d="M96.4032 185.435H89.5371V192.29H96.4032V185.435Z" fill="#DBC5B4"/>
<path d="M96.4032 178.579H89.5371V185.435H96.4032V178.579Z" fill="#ADADAF"/>
<path d="M96.4032 171.724H89.5371V178.579H96.4032V171.724Z" fill="#9F9FA0"/>
<path d="M96.4032 164.938H89.5371V171.794H96.4032V164.938Z" fill="#C3AC17"/>
<path d="M96.4032 158.083H89.5371V164.938H96.4032V158.083Z" fill="#C3AC17"/>
<path d="M96.4032 151.228H89.5371V158.083H96.4032V151.228Z" fill="#C3AC17"/>
<path d="M96.4032 144.373H89.5371V151.228H96.4032V144.373Z" fill="#C3AC17"/>
<path d="M96.4032 137.587H89.5371V144.442H96.4032V137.587Z" fill="#C3AC17"/>
<path d="M96.4032 130.732H89.5371V137.587H96.4032V130.732Z" fill="#C3AC17"/>
<path d="M96.4032 123.877H89.5371V130.732H96.4032V123.877Z" fill="#C3AC17"/>
<path d="M96.4032 117.022H89.5371V123.877H96.4032V117.022Z" fill="#C3AC17"/>
<path d="M96.4032 110.236H89.5371V117.091H96.4032V110.236Z" fill="#B59F13"/>
<path d="M96.4032 103.381H89.5371V110.236H96.4032V103.381Z" fill="#B59F13"/>
<path d="M96.4032 96.5258H89.5371V103.381H96.4032V96.5258Z" fill="#A69214"/>
<path d="M96.4032 89.6707H89.5371V96.5258H96.4032V89.6707Z" fill="#A69214"/>
<path d="M96.4032 82.8848H89.5371V89.7399H96.4032V82.8848Z" fill="#675E54"/>
<path d="M96.4032 76.0295H89.5371V82.8847H96.4032V76.0295Z" fill="#675E54"/>
<path d="M96.4032 69.1744H89.5371V76.0296H96.4032V69.1744Z" fill="#675E54"/>
<path d="M96.4032 62.3193H89.5371V69.1745H96.4032V62.3193Z" fill="#DBC5B4"/>
<path d="M96.4032 55.4642H89.5371V62.3194H96.4032V55.4642Z" fill="#DBC5B4"/>
<path d="M96.4032 48.6783H89.5371V55.5335H96.4032V48.6783Z" fill="#DBC5B4"/>
<path d="M96.4032 41.8232H89.5371V48.6784H96.4032V41.8232Z" fill="#B9D8DC"/>
<path d="M96.4032 34.9681H89.5371V41.8233H96.4032V34.9681Z" fill="#C6AF9D"/>
<path d="M96.4032 28.1129H89.5371V34.968H96.4032V28.1129Z" fill="#EFDBCB"/>
<path d="M96.4032 21.327H89.5371V28.1822H96.4032V21.327Z" fill="#675E54"/>
<path d="M96.4032 14.4719H89.5371V21.3271H96.4032V14.4719Z" fill="#675E54"/>
<path d="M96.5419 397.459H89.6758V404.314H96.5419V397.459Z" fill="#676659"/>
<path d="M96.5419 390.604H89.6758V397.459H96.5419V390.604Z" fill="#676659"/>
<path d="M96.5419 383.749H89.6758V390.604H96.5419V383.749Z" fill="#A3962E"/>
<path d="M96.5419 376.893H89.6758V383.749H96.5419V376.893Z" fill="#CEB8A7"/>
<path d="M96.5419 370.108H89.6758V376.963H96.5419V370.108Z" fill="#265249"/>
<path d="M96.5419 363.252H89.6758V370.108H96.5419V363.252Z" fill="#265249"/>
<path d="M96.5419 356.397H89.6758V363.252H96.5419V356.397Z" fill="#265249"/>
<path d="M96.5419 349.542H89.6758V356.397H96.5419V349.542Z" fill="#265249"/>
<path d="M96.5419 342.756H89.6758V349.611H96.5419V342.756Z" fill="#265249"/>
<path d="M96.5419 335.901H89.6758V342.756H96.5419V335.901Z" fill="#265249"/>
<path d="M96.5419 329.046H89.6758V335.901H96.5419V329.046Z" fill="#265249"/>
<path d="M96.5419 322.191H89.6758V329.046H96.5419V322.191Z" fill="#265249"/>
<path d="M96.5419 315.405H89.6758V322.26H96.5419V315.405Z" fill="#265249"/>
<path d="M96.5419 308.55H89.6758V315.405H96.5419V308.55Z" fill="#265249"/>
<path d="M96.5419 301.695H89.6758V308.55H96.5419V301.695Z" fill="#265249"/>
<path d="M96.5419 294.84H89.6758V301.695H96.5419V294.84Z" fill="#265249"/>
<path d="M96.5419 288.054H89.6758V294.909H96.5419V288.054Z" fill="#265249"/>
<path d="M96.5419 281.199H89.6758V288.054H96.5419V281.199Z" fill="#265249"/>
<path d="M96.5419 274.344H89.6758V281.199H96.5419V274.344Z" fill="#295B51"/>
<path d="M96.5419 267.488H89.6758V274.344H96.5419V267.488Z" fill="#295B51"/>
<path d="M96.5419 260.703H89.6758V267.558H96.5419V260.703Z" fill="#295B51"/>
<path d="M96.5419 253.847H89.6758V260.703H96.5419V253.847Z" fill="#295B51"/>
<path d="M96.5419 246.992H89.6758V253.847H96.5419V246.992Z" fill="#295B51"/>
<path d="M96.5419 240.137H89.6758V246.992H96.5419V240.137Z" fill="#2D655A"/>
<path d="M89.6065 233.282H82.7404V240.137H89.6065V233.282Z" fill="#2D655A"/>
<path d="M89.6065 226.496H82.7404V233.351H89.6065V226.496Z" fill="#2D655A"/>
<path d="M89.6065 219.641H82.7404V226.496H89.6065V219.641Z" fill="#2D655A"/>
<path d="M89.6065 212.786H82.7404V219.641H89.6065V212.786Z" fill="#2D655A"/>
<path d="M89.6065 205.931H82.7404V212.786H89.6065V205.931Z" fill="#2D655A"/>
<path d="M89.6065 199.145H82.7404V206H89.6065V199.145Z" fill="#2D655A"/>
<path d="M89.6065 192.29H82.7404V199.145H89.6065V192.29Z" fill="#DBC5B4"/>
<path d="M89.6065 185.435H82.7404V192.29H89.6065V185.435Z" fill="#DBC5B4"/>
<path d="M89.6065 178.579H82.7404V185.435H89.6065V178.579Z" fill="#DBC5B4"/>
<path d="M89.6065 171.724H82.7404V178.579H89.6065V171.724Z" fill="#9F9FA0"/>
<path d="M89.6065 164.938H82.7404V171.794H89.6065V164.938Z" fill="#C3AC17"/>
<path d="M89.6065 158.083H82.7404V164.938H89.6065V158.083Z" fill="#C3AC17"/>
<path d="M89.6065 151.228H82.7404V158.083H89.6065V151.228Z" fill="#C3AC17"/>
<path d="M89.6065 144.373H82.7404V151.228H89.6065V144.373Z" fill="#C3AC17"/>
<path d="M89.6065 137.587H82.7404V144.442H89.6065V137.587Z" fill="#C3AC17"/>
<path d="M89.6065 130.732H82.7404V137.587H89.6065V130.732Z" fill="#C3AC17"/>
<path d="M89.6065 123.877H82.7404V130.732H89.6065V123.877Z" fill="#C3AC17"/>
<path d="M89.6065 117.022H82.7404V123.877H89.6065V117.022Z" fill="#C3AC17"/>
<path d="M89.6065 110.236H82.7404V117.091H89.6065V110.236Z" fill="#C3AC17"/>
<path d="M89.6065 103.381H82.7404V110.236H89.6065V103.381Z" fill="#B59F13"/>
<path d="M89.6065 96.5258H82.7404V103.381H89.6065V96.5258Z" fill="#B59F13"/>
<path d="M89.6065 89.6707H82.7404V96.5258H89.6065V89.6707Z" fill="#A69214"/>
<path d="M89.6065 82.8848H82.7404V89.7399H89.6065V82.8848Z" fill="#675E54"/>
<path d="M89.6065 76.0295H82.7404V82.8847H89.6065V76.0295Z" fill="#675E54"/>
<path d="M89.6065 69.1744H82.7404V76.0296H89.6065V69.1744Z" fill="#DBC5B4"/>
<path d="M89.6065 62.3193H82.7404V69.1745H89.6065V62.3193Z" fill="#CD8974"/>
<path d="M89.6065 55.4642H82.7404V62.3194H89.6065V55.4642Z" fill="#DBC5B4"/>
<path d="M89.6065 48.6783H82.7404V55.5335H89.6065V48.6783Z" fill="#DBC5B4"/>
<path d="M89.6065 41.8232H82.7404V48.6784H89.6065V41.8232Z" fill="white"/>
<path d="M89.6065 34.9681H82.7404V41.8233H89.6065V34.9681Z" fill="#C6AF9D"/>
<path d="M89.6065 28.1129H82.7404V34.968H89.6065V28.1129Z" fill="#EFDBCB"/>
<path d="M89.6065 21.327H82.7404V28.1822H89.6065V21.327Z" fill="#746759"/>
<path d="M89.6065 14.4719H82.7404V21.3271H89.6065V14.4719Z" fill="#7C6E5C"/>
<path d="M89.6065 7.61682H82.7404V14.4719H89.6065V7.61682Z" fill="#746759"/>
<path d="M89.6758 246.992H82.8097V253.847H89.6758V246.992Z" fill="#265249"/>
<path d="M89.6758 240.137H82.8097V246.992H89.6758V240.137Z" fill="#265249"/>
<path d="M82.7404 233.282H75.8743V240.137H82.7404V233.282Z" fill="#265249"/>
<path d="M82.7404 226.496H75.8743V233.351H82.7404V226.496Z" fill="#2D655A"/>
<path d="M82.7404 219.641H75.8743V226.496H82.7404V219.641Z" fill="#2D655A"/>
<path d="M82.7404 212.786H75.8743V219.641H82.7404V212.786Z" fill="#2D655A"/>
<path d="M82.7404 205.931H75.8743V212.786H82.7404V205.931Z" fill="#2D655A"/>
<path d="M82.7404 199.145H75.8743V206H82.7404V199.145Z" fill="#2D655A"/>
<path d="M82.7404 192.29H75.8743V199.145H82.7404V192.29Z" fill="#DBC5B4"/>
<path d="M82.7404 185.435H75.8743V192.29H82.7404V185.435Z" fill="#DBC5B4"/>
<path d="M82.7404 178.579H75.8743V185.435H82.7404V178.579Z" fill="#ADADAF"/>
<path d="M82.7404 171.724H75.8743V178.579H82.7404V171.724Z" fill="#C3AC17"/>
<path d="M82.7404 164.938H75.8743V171.794H82.7404V164.938Z" fill="#C3AC17"/>
<path d="M82.7404 158.083H75.8743V164.938H82.7404V158.083Z" fill="#C3AC17"/>
<path d="M82.7404 151.228H75.8743V158.083H82.7404V151.228Z" fill="#C3AC17"/>
<path d="M82.7404 144.373H75.8743V151.228H82.7404V144.373Z" fill="#C3AC17"/>
<path d="M82.7404 137.587H75.8743V144.442H82.7404V137.587Z" fill="#C3AC17"/>
<path d="M82.7404 130.732H75.8743V137.587H82.7404V130.732Z" fill="#C3AC17"/>
<path d="M82.7404 123.877H75.8743V130.732H82.7404V123.877Z" fill="#C3AC17"/>
<path d="M82.7404 117.022H75.8743V123.877H82.7404V117.022Z" fill="#C3AC17"/>
<path d="M82.7404 110.236H75.8743V117.091H82.7404V110.236Z" fill="#C3AC17"/>
<path d="M82.7404 103.381H75.8743V110.236H82.7404V103.381Z" fill="#B59F13"/>
<path d="M82.7404 96.5258H75.8743V103.381H82.7404V96.5258Z" fill="#B59F13"/>
<path d="M82.7404 89.6707H75.8743V96.5258H82.7404V89.6707Z" fill="#DBC5B4"/>
<path d="M82.7404 82.8848H75.8743V89.7399H82.7404V82.8848Z" fill="#DBC5B4"/>
<path d="M82.7404 76.0295H75.8743V82.8847H82.7404V76.0295Z" fill="#CEB9AA"/>
<path d="M82.7404 69.1744H75.8743V76.0296H82.7404V69.1744Z" fill="#DBC5B4"/>
<path d="M82.7404 62.3193H75.8743V69.1745H82.7404V62.3193Z" fill="#CD8974"/>
<path d="M82.7404 55.4642H75.8743V62.3194H82.7404V55.4642Z" fill="#EFDBCB"/>
<path d="M82.7404 48.6783H75.8743V55.5335H82.7404V48.6783Z" fill="#EFDBCB"/>
<path d="M82.7404 41.8232H75.8743V48.6784H82.7404V41.8232Z" fill="#EFDBCB"/>
<path d="M82.7404 34.9681H75.8743V41.8233H82.7404V34.9681Z" fill="#EFDBCB"/>
<path d="M82.7404 28.1129H75.8743V34.968H82.7404V28.1129Z" fill="#EFDBCB"/>
<path d="M82.7404 21.327H75.8743V28.1822H82.7404V21.327Z" fill="#746759"/>
<path d="M82.7404 14.4719H75.8743V21.3271H82.7404V14.4719Z" fill="#7C6E5C"/>
<path d="M82.7404 7.61682H75.8743V14.4719H82.7404V7.61682Z" fill="#7C6E5C"/>
<path d="M75.8742 233.282H69.0081V240.137H75.8742V233.282Z" fill="#265249"/>
<path d="M75.8742 226.496H69.0081V233.351H75.8742V226.496Z" fill="#2D655A"/>
<path d="M75.8742 219.641H69.0081V226.496H75.8742V219.641Z" fill="#2D655A"/>
<path d="M75.8742 212.786H69.0081V219.641H75.8742V212.786Z" fill="#2D655A"/>
<path d="M75.8742 205.931H69.0081V212.786H75.8742V205.931Z" fill="#2D655A"/>
<path d="M75.8742 199.145H69.0081V206H75.8742V199.145Z" fill="#2D655A"/>
<path d="M75.8742 192.29H69.0081V199.145H75.8742V192.29Z" fill="#DBC5B4"/>
<path d="M75.8742 185.435H69.0081V192.29H75.8742V185.435Z" fill="#DBC5B4"/>
<path d="M75.8742 178.579H69.0081V185.435H75.8742V178.579Z" fill="#ADADAF"/>
<path d="M75.8742 171.724H69.0081V178.579H75.8742V171.724Z" fill="#C3AC17"/>
<path d="M75.8742 164.938H69.0081V171.794H75.8742V164.938Z" fill="#C3AC17"/>
<path d="M75.8742 158.083H69.0081V164.938H75.8742V158.083Z" fill="#C3AC17"/>
<path d="M75.8742 151.228H69.0081V158.083H75.8742V151.228Z" fill="#C3AC17"/>
<path d="M75.8742 144.373H69.0081V151.228H75.8742V144.373Z" fill="#C3AC17"/>
<path d="M75.8742 137.587H69.0081V144.442H75.8742V137.587Z" fill="#C3AC17"/>
<path d="M75.8742 130.732H69.0081V137.587H75.8742V130.732Z" fill="#C3AC17"/>
<path d="M75.8742 123.877H69.0081V130.732H75.8742V123.877Z" fill="#C3AC17"/>
<path d="M75.8742 117.022H69.0081V123.877H75.8742V117.022Z" fill="#C3AC17"/>
<path d="M75.8742 110.236H69.0081V117.091H75.8742V110.236Z" fill="#C3AC17"/>
<path d="M75.8742 103.381H69.0081V110.236H75.8742V103.381Z" fill="#B59F13"/>
<path d="M75.8742 96.5258H69.0081V103.381H75.8742V96.5258Z" fill="#B59F13"/>
<path d="M75.8742 89.6707H69.0081V96.5258H75.8742V89.6707Z" fill="#DBC5B4"/>
<path d="M75.8742 82.8848H69.0081V89.7399H75.8742V82.8848Z" fill="#DBC5B4"/>
<path d="M75.8742 76.0295H69.0081V82.8847H75.8742V76.0295Z" fill="#CEB9AA"/>
<path d="M75.8742 69.1744H69.0081V76.0296H75.8742V69.1744Z" fill="#DBC5B4"/>
<path d="M75.8742 62.3193H69.0081V69.1745H75.8742V62.3193Z" fill="#DBC5B4"/>
<path d="M75.8742 55.4642H69.0081V62.3194H75.8742V55.4642Z" fill="#DBC5B4"/>
<path d="M75.8742 48.6783H69.0081V55.5335H75.8742V48.6783Z" fill="#DBC5B4"/>
<path d="M75.8742 41.8232H69.0081V48.6784H75.8742V41.8232Z" fill="#B9D8DC"/>
<path d="M75.8742 34.9681H69.0081V41.8233H75.8742V34.9681Z" fill="#C6AF9D"/>
<path d="M75.8742 28.1129H69.0081V34.968H75.8742V28.1129Z" fill="#EFDBCB"/>
<path d="M75.8742 21.327H69.0081V28.1822H75.8742V21.327Z" fill="#746759"/>
<path d="M75.8742 14.4719H69.0081V21.3271H75.8742V14.4719Z" fill="#7C6E5C"/>
<path d="M75.8742 7.61682H69.0081V14.4719H75.8742V7.61682Z" fill="#7C6E5C"/>
<path d="M69.0081 397.459H62.142V404.314H69.0081V397.459Z" fill="#817F6B"/>
<path d="M69.0081 390.604H62.142V397.459H69.0081V390.604Z" fill="#817F6B"/>
<path d="M69.0081 233.282H62.142V240.137H69.0081V233.282Z" fill="#265249"/>
<path d="M69.0081 226.496H62.142V233.351H69.0081V226.496Z" fill="#2D655A"/>
<path d="M69.0081 219.641H62.142V226.496H69.0081V219.641Z" fill="#2D655A"/>
<path d="M69.0081 212.786H62.142V219.641H69.0081V212.786Z" fill="#2D655A"/>
<path d="M69.0081 205.931H62.142V212.786H69.0081V205.931Z" fill="#2D655A"/>
<path d="M69.0081 199.145H62.142V206H69.0081V199.145Z" fill="#2D655A"/>
<path d="M69.0081 192.29H62.142V199.145H69.0081V192.29Z" fill="#DBC5B4"/>
<path d="M69.0081 185.435H62.142V192.29H69.0081V185.435Z" fill="#DBC5B4"/>
<path d="M69.0081 178.579H62.142V185.435H69.0081V178.579Z" fill="#C3AC17"/>
<path d="M69.0081 171.724H62.142V178.579H69.0081V171.724Z" fill="#C3AC17"/>
<path d="M69.0081 164.938H62.142V171.794H69.0081V164.938Z" fill="#C3AC17"/>
<path d="M69.0081 158.083H62.142V164.938H69.0081V158.083Z" fill="#C3AC17"/>
<path d="M69.0081 151.228H62.142V158.083H69.0081V151.228Z" fill="#C3AC17"/>
<path d="M69.0081 144.373H62.142V151.228H69.0081V144.373Z" fill="#C3AC17"/>
<path d="M69.0081 137.587H62.142V144.442H69.0081V137.587Z" fill="#C3AC17"/>
<path d="M69.0081 130.732H62.142V137.587H69.0081V130.732Z" fill="#C3AC17"/>
<path d="M69.0081 123.877H62.142V130.732H69.0081V123.877Z" fill="#C3AC17"/>
<path d="M69.0081 117.022H62.142V123.877H69.0081V117.022Z" fill="#C3AC17"/>
<path d="M69.0081 110.236H62.142V117.091H69.0081V110.236Z" fill="#C3AC17"/>
<path d="M69.0081 103.381H62.142V110.236H69.0081V103.381Z" fill="#B59F13"/>
<path d="M69.0081 96.5258H62.142V103.381H69.0081V96.5258Z" fill="#B59F13"/>
<path d="M69.0081 89.6707H62.142V96.5258H69.0081V89.6707Z" fill="#E8D0BC"/>
<path d="M69.0081 82.8848H62.142V89.7399H69.0081V82.8848Z" fill="#E0C9B6"/>
<path d="M69.0081 76.0295H62.142V82.8847H69.0081V76.0295Z" fill="#E0C9B6"/>
<path d="M69.0081 69.1744H62.142V76.0296H69.0081V69.1744Z" fill="#CEB9AA"/>
<path d="M69.0081 62.3193H62.142V69.1745H69.0081V62.3193Z" fill="#DBC5B4"/>
<path d="M69.0081 55.4642H62.142V62.3194H69.0081V55.4642Z" fill="#DBC5B4"/>
<path d="M69.0081 48.6783H62.142V55.5335H69.0081V48.6783Z" fill="#DBC5B4"/>
<path d="M69.0081 41.8232H62.142V48.6784H69.0081V41.8232Z" fill="white"/>
<path d="M69.0081 34.9681H62.142V41.8233H69.0081V34.9681Z" fill="#C6AF9D"/>
<path d="M69.0081 28.1129H62.142V34.968H69.0081V28.1129Z" fill="#675E54"/>
<path d="M69.0081 21.327H62.142V28.1822H69.0081V21.327Z" fill="#746759"/>
<path d="M69.0081 14.4719H62.142V21.3271H69.0081V14.4719Z" fill="#7C6E5C"/>
<path d="M69.0081 7.61682H62.142V14.4719H69.0081V7.61682Z" fill="#8B7E6E"/>
<path d="M62.142 397.459H55.2759V404.314H62.142V397.459Z" fill="#817F6B"/>
<path d="M62.142 390.604H55.2759V397.459H62.142V390.604Z" fill="#817F6B"/>
<path d="M62.142 383.749H55.2759V390.604H62.142V383.749Z" fill="#A3962E"/>
<path d="M62.142 376.893H55.2759V383.749H62.142V376.893Z" fill="#DBC5B4"/>
<path d="M62.142 370.108H55.2759V376.963H62.142V370.108Z" fill="#295B51"/>
<path d="M62.142 363.252H55.2759V370.108H62.142V363.252Z" fill="#2D655A"/>
<path d="M62.142 356.397H55.2759V363.252H62.142V356.397Z" fill="#2D655A"/>
<path d="M62.142 349.542H55.2759V356.397H62.142V349.542Z" fill="#2D655A"/>
<path d="M62.142 342.756H55.2759V349.611H62.142V342.756Z" fill="#2D655A"/>
<path d="M62.142 335.901H55.2759V342.756H62.142V335.901Z" fill="#2D655A"/>
<path d="M62.142 329.046H55.2759V335.901H62.142V329.046Z" fill="#2D655A"/>
<path d="M62.142 322.191H55.2759V329.046H62.142V322.191Z" fill="#2D655A"/>
<path d="M62.142 315.405H55.2759V322.26H62.142V315.405Z" fill="#378071"/>
<path d="M62.142 308.55H55.2759V315.405H62.142V308.55Z" fill="#378071"/>
<path d="M62.142 301.695H55.2759V308.55H62.142V301.695Z" fill="#378071"/>
<path d="M62.142 294.84H55.2759V301.695H62.142V294.84Z" fill="#378071"/>
<path d="M62.142 288.054H55.2759V294.909H62.142V288.054Z" fill="#378071"/>
<path d="M62.142 281.199H55.2759V288.054H62.142V281.199Z" fill="#378071"/>
<path d="M62.142 274.344H55.2759V281.199H62.142V274.344Z" fill="#2D655A"/>
<path d="M62.142 267.488H55.2759V274.344H62.142V267.488Z" fill="#2D655A"/>
<path d="M62.142 260.703H55.2759V267.558H62.142V260.703Z" fill="#2D655A"/>
<path d="M62.142 253.847H55.2759V260.703H62.142V253.847Z" fill="#2D655A"/>
<path d="M62.142 246.992H55.2759V253.847H62.142V246.992Z" fill="#2D655A"/>
<path d="M62.142 240.137H55.2759V246.992H62.142V240.137Z" fill="#2D655A"/>
<path d="M62.142 233.282H55.2759V240.137H62.142V233.282Z" fill="#2D655A"/>
<path d="M62.142 226.496H55.2759V233.351H62.142V226.496Z" fill="#2D655A"/>
<path d="M62.142 219.641H55.2759V226.496H62.142V219.641Z" fill="#2D655A"/>
<path d="M62.142 212.786H55.2759V219.641H62.142V212.786Z" fill="#2D655A"/>
<path d="M62.142 205.931H55.2759V212.786H62.142V205.931Z" fill="#2D655A"/>
<path d="M62.142 199.145H55.2759V206H62.142V199.145Z" fill="#2D655A"/>
<path d="M62.142 192.29H55.2759V199.145H62.142V192.29Z" fill="#DBC5B4"/>
<path d="M62.142 185.435H55.2759V192.29H62.142V185.435Z" fill="#DBC5B4"/>
<path d="M62.142 178.579H55.2759V185.435H62.142V178.579Z" fill="#C3AC17"/>
<path d="M62.142 171.724H55.2759V178.579H62.142V171.724Z" fill="#C3AC17"/>
<path d="M62.142 164.938H55.2759V171.794H62.142V164.938Z" fill="#C3AC17"/>
<path d="M62.142 158.083H55.2759V164.938H62.142V158.083Z" fill="#C3AC17"/>
<path d="M62.142 151.228H55.2759V158.083H62.142V151.228Z" fill="#C3AC17"/>
<path d="M62.142 144.373H55.2759V151.228H62.142V144.373Z" fill="#C3AC17"/>
<path d="M62.142 137.587H55.2759V144.442H62.142V137.587Z" fill="#C3AC17"/>
<path d="M62.142 130.732H55.2759V137.587H62.142V130.732Z" fill="#C3AC17"/>
<path d="M62.142 123.877H55.2759V130.732H62.142V123.877Z" fill="#C3AC17"/>
<path d="M62.142 117.022H55.2759V123.877H62.142V117.022Z" fill="#C3AC17"/>
<path d="M62.142 110.236H55.2759V117.091H62.142V110.236Z" fill="#C3AC17"/>
<path d="M62.142 103.381H55.2759V110.236H62.142V103.381Z" fill="#B59F13"/>
<path d="M62.142 96.5258H55.2759V103.381H62.142V96.5258Z" fill="#B59F13"/>
<path d="M62.142 89.6707H55.2759V96.5258H62.142V89.6707Z" fill="#E8D0BC"/>
<path d="M62.142 82.8848H55.2759V89.7399H62.142V82.8848Z" fill="#E8D0BC"/>
<path d="M62.142 76.0295H55.2759V82.8847H62.142V76.0295Z" fill="#E0C9B6"/>
<path d="M62.142 69.1744H55.2759V76.0296H62.142V69.1744Z" fill="#E0C9B6"/>
<path d="M62.142 62.3193H55.2759V69.1745H62.142V62.3193Z" fill="#CEB9AA"/>
<path d="M62.142 55.4642H55.2759V62.3194H62.142V55.4642Z" fill="#DBC5B4"/>
<path d="M62.142 48.6783H55.2759V55.5335H62.142V48.6783Z" fill="#DBC5B4"/>
<path d="M62.142 41.8232H55.2759V48.6784H62.142V41.8232Z" fill="#675E54"/>
<path d="M62.142 34.9681H55.2759V41.8233H62.142V34.9681Z" fill="#675E54"/>
<path d="M62.142 28.1129H55.2759V34.968H62.142V28.1129Z" fill="#746759"/>
<path d="M62.142 21.327H55.2759V28.1822H62.142V21.327Z" fill="#7C6E5C"/>
<path d="M62.142 14.4719H55.2759V21.3271H62.142V14.4719Z" fill="#7C6E5C"/>
<path d="M62.142 7.61682H55.2759V14.4719H62.142V7.61682Z" fill="#8B7E6E"/>
<path d="M55.3451 397.459H48.479V404.314H55.3451V397.459Z" fill="#676659"/>
<path d="M55.3451 390.604H48.479V397.459H55.3451V390.604Z" fill="#817F6B"/>
<path d="M55.3451 383.749H48.479V390.604H55.3451V383.749Z" fill="#A3962E"/>
<path d="M55.3451 376.893H48.479V383.749H55.3451V376.893Z" fill="#DBC5B4"/>
<path d="M55.3451 370.108H48.479V376.963H55.3451V370.108Z" fill="#295B51"/>
<path d="M55.3451 363.252H48.479V370.108H55.3451V363.252Z" fill="#295B51"/>
<path d="M55.3451 356.397H48.479V363.252H55.3451V356.397Z" fill="#295B51"/>
<path d="M55.3451 349.542H48.479V356.397H55.3451V349.542Z" fill="#295B51"/>
<path d="M55.3451 342.756H48.479V349.611H55.3451V342.756Z" fill="#295B51"/>
<path d="M55.3451 335.901H48.479V342.756H55.3451V335.901Z" fill="#295B51"/>
<path d="M55.3451 329.046H48.479V335.901H55.3451V329.046Z" fill="#295B51"/>
<path d="M55.3451 322.191H48.479V329.046H55.3451V322.191Z" fill="#295B51"/>
<path d="M55.3451 315.405H48.479V322.26H55.3451V315.405Z" fill="#295B51"/>
<path d="M55.3451 308.55H48.479V315.405H55.3451V308.55Z" fill="#295B51"/>
<path d="M55.3451 301.695H48.479V308.55H55.3451V301.695Z" fill="#295B51"/>
<path d="M55.3451 294.84H48.479V301.695H55.3451V294.84Z" fill="#295B51"/>
<path d="M55.3451 288.054H48.479V294.909H55.3451V288.054Z" fill="#295B51"/>
<path d="M55.3451 281.199H48.479V288.054H55.3451V281.199Z" fill="#295B51"/>
<path d="M55.3451 274.344H48.479V281.199H55.3451V274.344Z" fill="#295B51"/>
<path d="M55.3451 267.488H48.479V274.344H55.3451V267.488Z" fill="#2D655A"/>
<path d="M55.3451 260.703H48.479V267.558H55.3451V260.703Z" fill="#2D655A"/>
<path d="M55.3451 253.847H48.479V260.703H55.3451V253.847Z" fill="#2D655A"/>
<path d="M55.3451 246.992H48.479V253.847H55.3451V246.992Z" fill="#2D655A"/>
<path d="M55.3451 240.137H48.479V246.992H55.3451V240.137Z" fill="#2D655A"/>
<path d="M55.3451 233.282H48.479V240.137H55.3451V233.282Z" fill="#2D655A"/>
<path d="M55.3451 226.496H48.479V233.351H55.3451V226.496Z" fill="#2D655A"/>
<path d="M55.3451 219.641H48.479V226.496H55.3451V219.641Z" fill="#2D655A"/>
<path d="M55.3451 212.786H48.479V219.641H55.3451V212.786Z" fill="#2D655A"/>
<path d="M55.3451 205.931H48.479V212.786H55.3451V205.931Z" fill="#2D655A"/>
<path d="M55.3451 199.145H48.479V206H55.3451V199.145Z" fill="#2D655A"/>
<path d="M55.3451 192.29H48.479V199.145H55.3451V192.29Z" fill="#DBC5B4"/>
<path d="M55.3451 185.435H48.479V192.29H55.3451V185.435Z" fill="#DBC5B4"/>
<path d="M55.3451 178.579H48.479V185.435H55.3451V178.579Z" fill="#C3AC17"/>
<path d="M55.3451 171.724H48.479V178.579H55.3451V171.724Z" fill="#C3AC17"/>
<path d="M55.3451 164.938H48.479V171.794H55.3451V164.938Z" fill="#C3AC17"/>
<path d="M55.3451 158.083H48.479V164.938H55.3451V158.083Z" fill="#C3AC17"/>
<path d="M55.3451 151.228H48.479V158.083H55.3451V151.228Z" fill="#C3AC17"/>
<path d="M55.3451 144.373H48.479V151.228H55.3451V144.373Z" fill="#C3AC17"/>
<path d="M55.3451 137.587H48.479V144.442H55.3451V137.587Z" fill="#C3AC17"/>
<path d="M55.3451 130.732H48.479V137.587H55.3451V130.732Z" fill="#C3AC17"/>
<path d="M55.3451 123.877H48.479V130.732H55.3451V123.877Z" fill="#C3AC17"/>
<path d="M55.3451 117.022H48.479V123.877H55.3451V117.022Z" fill="#C3AC17"/>
<path d="M55.3451 110.236H48.479V117.091H55.3451V110.236Z" fill="#C3AC17"/>
<path d="M55.3451 103.381H48.479V110.236H55.3451V103.381Z" fill="#B59F13"/>
<path d="M55.3451 96.5258H48.479V103.381H55.3451V96.5258Z" fill="#B59F13"/>
<path d="M55.3451 89.6707H48.479V96.5258H55.3451V89.6707Z" fill="#A69214"/>
<path d="M55.3451 82.8848H48.479V89.7399H55.3451V82.8848Z" fill="#7C6E5C"/>
<path d="M55.3451 76.0295H48.479V82.8847H55.3451V76.0295Z" fill="#675E54"/>
<path d="M55.3451 69.1744H48.479V76.0296H55.3451V69.1744Z" fill="#675E54"/>
<path d="M55.3451 62.3193H48.479V69.1745H55.3451V62.3193Z" fill="#675E54"/>
<path d="M55.3451 55.4642H48.479V62.3194H55.3451V55.4642Z" fill="#675E54"/>
<path d="M55.3451 48.6783H48.479V55.5335H55.3451V48.6783Z" fill="#DBC5B4"/>
<path d="M55.3451 41.8232H48.479V48.6784H55.3451V41.8232Z" fill="#DBC5B4"/>
<path d="M55.3451 34.9681H48.479V41.8233H55.3451V34.9681Z" fill="#7C6E5C"/>
<path d="M55.3451 28.1129H48.479V34.968H55.3451V28.1129Z" fill="#7C6E5C"/>
<path d="M55.3451 21.327H48.479V28.1822H55.3451V21.327Z" fill="#8B7E6E"/>
<path d="M55.3451 14.4719H48.479V21.3271H55.3451V14.4719Z" fill="#8B7E6E"/>
<path d="M48.479 397.459H41.6129V404.314H48.479V397.459Z" fill="#676659"/>
<path d="M48.479 390.604H41.6129V397.459H48.479V390.604Z" fill="#676659"/>
<path d="M48.479 383.749H41.6129V390.604H48.479V383.749Z" fill="#A3962E"/>
<path d="M48.479 376.893H41.6129V383.749H48.479V376.893Z" fill="#CEB8A7"/>
<path d="M48.479 370.108H41.6129V376.963H48.479V370.108Z" fill="#265249"/>
<path d="M48.479 363.252H41.6129V370.108H48.479V363.252Z" fill="#265249"/>
<path d="M48.479 356.397H41.6129V363.252H48.479V356.397Z" fill="#265249"/>
<path d="M48.479 349.542H41.6129V356.397H48.479V349.542Z" fill="#265249"/>
<path d="M48.479 342.756H41.6129V349.611H48.479V342.756Z" fill="#265249"/>
<path d="M48.479 335.901H41.6129V342.756H48.479V335.901Z" fill="#265249"/>
<path d="M48.479 329.046H41.6129V335.901H48.479V329.046Z" fill="#265249"/>
<path d="M48.479 322.191H41.6129V329.046H48.479V322.191Z" fill="#265249"/>
<path d="M48.479 315.405H41.6129V322.26H48.479V315.405Z" fill="#265249"/>
<path d="M48.479 308.55H41.6129V315.405H48.479V308.55Z" fill="#265249"/>
<path d="M48.479 301.695H41.6129V308.55H48.479V301.695Z" fill="#265249"/>
<path d="M48.479 294.84H41.6129V301.695H48.479V294.84Z" fill="#265249"/>
<path d="M48.479 288.054H41.6129V294.909H48.479V288.054Z" fill="#265249"/>
<path d="M48.479 281.199H41.6129V288.054H48.479V281.199Z" fill="#265249"/>
<path d="M48.479 274.344H41.6129V281.199H48.479V274.344Z" fill="#265249"/>
<path d="M48.479 267.488H41.6129V274.344H48.479V267.488Z" fill="#265249"/>
<path d="M48.479 260.703H41.6129V267.558H48.479V260.703Z" fill="#265249"/>
<path d="M48.479 253.847H41.6129V260.703H48.479V253.847Z" fill="#295B51"/>
<path d="M48.479 246.992H41.6129V253.847H48.479V246.992Z" fill="#295B51"/>
<path d="M48.479 240.137H41.6129V246.992H48.479V240.137Z" fill="#295B51"/>
<path d="M48.479 233.282H41.6129V240.137H48.479V233.282Z" fill="#295B51"/>
<path d="M48.479 226.496H41.6129V233.351H48.479V226.496Z" fill="#295B51"/>
<path d="M48.479 219.641H41.6129V226.496H48.479V219.641Z" fill="#2D655A"/>
<path d="M48.479 212.786H41.6129V219.641H48.479V212.786Z" fill="#2D655A"/>
<path d="M48.479 205.931H41.6129V212.786H48.479V205.931Z" fill="#2D655A"/>
<path d="M48.479 199.145H41.6129V206H48.479V199.145Z" fill="#2D655A"/>
<path d="M48.479 192.29H41.6129V199.145H48.479V192.29Z" fill="#DBC5B4"/>
<path d="M48.479 185.435H41.6129V192.29H48.479V185.435Z" fill="#DBC5B4"/>
<path d="M48.479 178.579H41.6129V185.435H48.479V178.579Z" fill="#DBC5B4"/>
<path d="M48.479 171.724H41.6129V178.579H48.479V171.724Z" fill="#C3AC17"/>
<path d="M48.479 164.938H41.6129V171.794H48.479V164.938Z" fill="#C3AC17"/>
<path d="M48.479 158.083H41.6129V164.938H48.479V158.083Z" fill="#C3AC17"/>
<path d="M48.479 151.228H41.6129V158.083H48.479V151.228Z" fill="#C3AC17"/>
<path d="M48.479 144.373H41.6129V151.228H48.479V144.373Z" fill="#C3AC17"/>
<path d="M48.479 137.587H41.6129V144.442H48.479V137.587Z" fill="#C3AC17"/>
<path d="M48.479 130.732H41.6129V137.587H48.479V130.732Z" fill="#C3AC17"/>
<path d="M48.479 123.877H41.6129V130.732H48.479V123.877Z" fill="#C3AC17"/>
<path d="M48.479 117.022H41.6129V123.877H48.479V117.022Z" fill="#C3AC17"/>
<path d="M48.479 110.236H41.6129V117.091H48.479V110.236Z" fill="#B59F13"/>
<path d="M48.479 103.381H41.6129V110.236H48.479V103.381Z" fill="#B59F13"/>
<path d="M48.479 96.5258H41.6129V103.381H48.479V96.5258Z" fill="#A69214"/>
<path d="M48.479 89.6707H41.6129V96.5258H48.479V89.6707Z" fill="#A69214"/>
<path d="M48.479 82.8848H41.6129V89.7399H48.479V82.8848Z" fill="#7C6E5C"/>
<path d="M48.479 76.0295H41.6129V82.8847H48.479V76.0295Z" fill="#7C6E5C"/>
<path d="M48.479 69.1744H41.6129V76.0296H48.479V69.1744Z" fill="#7C6E5C"/>
<path d="M48.479 62.3193H41.6129V69.1745H48.479V62.3193Z" fill="#7C6E5C"/>
<path d="M48.479 55.4642H41.6129V62.3194H48.479V55.4642Z" fill="#7C6E5C"/>
<path d="M48.479 48.6783H41.6129V55.5335H48.479V48.6783Z" fill="#675E54"/>
<path d="M48.479 41.8232H41.6129V48.6784H48.479V41.8232Z" fill="#675E54"/>
<path d="M48.479 34.9681H41.6129V41.8233H48.479V34.9681Z" fill="#7C6E5C"/>
<path d="M48.479 28.1129H41.6129V34.968H48.479V28.1129Z" fill="#8B7E6E"/>
<path d="M41.613 246.992H34.7468V253.847H41.613V246.992Z" fill="#265249"/>
<path d="M41.613 253.847H34.7468V260.703H41.613V253.847Z" fill="#265249"/>
<path d="M41.613 240.137H34.7468V246.992H41.613V240.137Z" fill="#265249"/>
<path d="M41.613 233.282H34.7468V240.137H41.613V233.282Z" fill="#265249"/>
<path d="M41.613 226.496H34.7468V233.351H41.613V226.496Z" fill="#265249"/>
<path d="M41.613 219.641H34.7468V226.496H41.613V219.641Z" fill="#295B51"/>
<path d="M41.613 212.786H34.7468V219.641H41.613V212.786Z" fill="#295B51"/>
<path d="M41.613 205.931H34.7468V212.786H41.613V205.931Z" fill="#295B51"/>
<path d="M41.613 199.145H34.7468V206H41.613V199.145Z" fill="#295B51"/>
<path d="M41.613 192.29H34.7468V199.145H41.613V192.29Z" fill="#295B51"/>
<path d="M41.613 185.435H34.7468V192.29H41.613V185.435Z" fill="#DBC5B4"/>
<path d="M41.613 178.579H34.7468V185.435H41.613V178.579Z" fill="#DBC5B4"/>
<path d="M41.613 171.724H34.7468V178.579H41.613V171.724Z" fill="#B59F13"/>
<path d="M41.613 164.938H34.7468V171.794H41.613V164.938Z" fill="#B59F13"/>
<path d="M41.613 158.083H34.7468V164.938H41.613V158.083Z" fill="#B59F13"/>
<path d="M41.613 151.228H34.7468V158.083H41.613V151.228Z" fill="#B59F13"/>
<path d="M41.613 144.373H34.7468V151.228H41.613V144.373Z" fill="#B59F13"/>
<path d="M41.613 137.587H34.7468V144.442H41.613V137.587Z" fill="#B59F13"/>
<path d="M41.613 130.732H34.7468V137.587H41.613V130.732Z" fill="#B59F13"/>
<path d="M41.613 123.877H34.7468V130.732H41.613V123.877Z" fill="#B59F13"/>
<path d="M41.613 117.022H34.7468V123.877H41.613V117.022Z" fill="#B59F13"/>
<path d="M41.613 110.236H34.7468V117.091H41.613V110.236Z" fill="#B59F13"/>
<path d="M41.613 103.381H34.7468V110.236H41.613V103.381Z" fill="#B59F13"/>
<path d="M41.613 96.5258H34.7468V103.381H41.613V96.5258Z" fill="#A69214"/>
<path d="M41.613 89.6707H34.7468V96.5258H41.613V89.6707Z" fill="#7C6E5C"/>
<path d="M41.613 82.8848H34.7468V89.7399H41.613V82.8848Z" fill="#7C6E5C"/>
<path d="M41.613 76.0295H34.7468V82.8847H41.613V76.0295Z" fill="#7C6E5C"/>
<path d="M41.613 69.1744H34.7468V76.0296H41.613V69.1744Z" fill="#7C6E5C"/>
<path d="M34.7469 233.282H27.8807V240.137H34.7469V233.282Z" fill="#265249"/>
<path d="M34.7469 226.496H27.8807V233.351H34.7469V226.496Z" fill="#265249"/>
<path d="M34.7469 219.641H27.8807V226.496H34.7469V219.641Z" fill="#265249"/>
<path d="M34.7469 212.786H27.8807V219.641H34.7469V212.786Z" fill="#265249"/>
<path d="M34.7469 205.931H27.8807V212.786H34.7469V205.931Z" fill="#265249"/>
<path d="M34.7469 199.145H27.8807V206H34.7469V199.145Z" fill="#265249"/>
<path d="M34.7469 185.435H27.8807V192.29H34.7469V185.435Z" fill="#CEB8A7"/>
<path d="M34.7469 178.579H27.8807V185.435H34.7469V178.579Z" fill="#DBC5B4"/>
<path d="M34.7469 171.724H27.8807V178.579H34.7469V171.724Z" fill="#DBC5B4"/>
<path d="M34.7469 151.228H27.8807V158.083H34.7469V151.228Z" fill="#A69214"/>
<path d="M34.7469 144.373H27.8807V151.228H34.7469V144.373Z" fill="#A69214"/>
<path d="M34.7469 137.587H27.8807V144.442H34.7469V137.587Z" fill="#A69214"/>
<path d="M34.7469 130.732H27.8807V137.587H34.7469V130.732Z" fill="#A69214"/>
<path d="M34.7469 123.877H27.8807V130.732H34.7469V123.877Z" fill="#B59F13"/>
<path d="M34.7469 117.022H27.8807V123.877H34.7469V117.022Z" fill="#B59F13"/>
<path d="M34.7469 110.236H27.8807V117.091H34.7469V110.236Z" fill="#B59F13"/>
<path d="M34.7469 103.381H27.8807V110.236H34.7469V103.381Z" fill="#A69214"/>
<path d="M34.7469 96.5258H27.8807V103.381H34.7469V96.5258Z" fill="#A69214"/>
<path d="M27.95 178.579H21.0839V185.435H27.95V178.579Z" fill="#CEB8A7"/>
<path d="M27.95 171.724H21.0839V178.579H27.95V171.724Z" fill="#DBC5B4"/>
<path d="M27.95 164.938H21.0839V171.794H27.95V164.938Z" fill="#DBC5B4"/>
<path d="M27.95 158.083H21.0839V164.938H27.95V158.083Z" fill="#DBC5B4"/>
<path d="M27.95 151.228H21.0839V158.083H27.95V151.228Z" fill="#B59F13"/>
<path d="M27.95 144.373H21.0839V151.228H27.95V144.373Z" fill="#B59F13"/>
<path d="M27.95 137.587H21.0839V144.442H27.95V137.587Z" fill="#B59F13"/>
<path d="M27.95 130.732H21.0839V137.587H27.95V130.732Z" fill="#B59F13"/>
<path d="M27.95 123.877H21.0839V130.732H27.95V123.877Z" fill="#B59F13"/>
<path d="M27.95 117.022H21.0839V123.877H27.95V117.022Z" fill="#B59F13"/>
<path d="M27.95 110.236H21.0839V117.091H27.95V110.236Z" fill="#A69214"/>
<path d="M27.95 103.381H21.0839V110.236H27.95V103.381Z" fill="#A69214"/>
<path d="M21.0839 171.724H14.2178V178.579H21.0839V171.724Z" fill="#CEB8A7"/>
<path d="M21.0839 164.938H14.2178V171.794H21.0839V164.938Z" fill="#DBC5B4"/>
<path d="M21.0839 158.083H14.2178V164.938H21.0839V158.083Z" fill="#DBC5B4"/>
<path d="M21.0839 151.228H14.2178V158.083H21.0839V151.228Z" fill="#B59F13"/>
<path d="M21.0839 144.373H14.2178V151.228H21.0839V144.373Z" fill="#B59F13"/>
<path d="M21.0839 137.587H14.2178V144.442H21.0839V137.587Z" fill="#B59F13"/>
<path d="M21.0839 130.732H14.2178V137.587H21.0839V130.732Z" fill="#B59F13"/>
<path d="M21.0839 123.877H14.2178V130.732H21.0839V123.877Z" fill="#A69214"/>
<path d="M21.0839 117.022H14.2178V123.877H21.0839V117.022Z" fill="#A69214"/>
<path d="M21.0839 110.236H14.2178V117.091H21.0839V110.236Z" fill="#A69214"/>
</svg>