<svg width="234" height="418" viewBox="0 0 234 418" fill="none" xmlns="http://www.w3.org/2000/svg">
<g clip-path="url(#clip0)">
<path d="M219.818 83.6003H212.94V90.5434H219.818V83.6003Z" fill="#E5E5E5"/>
<path d="M219.818 76.6566H212.94V83.5997H219.818V76.6566Z" fill="#262626"/>
<path d="M219.818 69.6428H212.94V76.6567H219.818V69.6428Z" fill="#E5E5E5"/>
<path d="M219.818 62.6998H212.94V69.6429H219.818V62.6998Z" fill="#E5E5E5"/>
<path d="M212.94 90.5432H206.062V97.5571H212.94V90.5432Z" fill="#C9C8C7"/>
<path d="M212.94 83.6003H206.062V90.5434H212.94V83.6003Z" fill="#020202"/>
<path d="M212.94 76.6566H206.062V83.5997H212.94V76.6566Z" fill="#161616"/>
<path d="M212.94 69.6428H206.062V76.6567H212.94V69.6428Z" fill="#262626"/>
<path d="M212.94 62.6998H206.062V69.6429H212.94V62.6998Z" fill="#E5E5E5"/>
<path d="M212.94 55.757H206.062V62.7H212.94V55.757Z" fill="#E5E5E5"/>
<path d="M206.062 97.557H199.184V104.5H206.062V97.557Z" fill="#C9C8C7"/>
<path d="M206.062 90.5432H199.184V97.5571H206.062V90.5432Z" fill="#D6D6D6"/>
<path d="M206.062 83.6003H199.184V90.5434H206.062V83.6003Z" fill="#D6D6D6"/>
<path d="M206.062 76.6566H199.184V83.5997H206.062V76.6566Z" fill="#020202"/>
<path d="M206.062 69.6428H199.184V76.6567H206.062V69.6428Z" fill="#D6D6D6"/>
<path d="M206.062 62.6998H199.184V69.6429H206.062V62.6998Z" fill="#D6D6D6"/>
<path d="M206.062 55.757H199.184V62.7H206.062V55.757Z" fill="#E5E5E5"/>
<path d="M206.062 48.743H199.184V55.7569H206.062V48.743Z" fill="#020202"/>
<path d="M199.184 97.557H192.306V104.5H199.184V97.557Z" fill="#262626"/>
<path d="M199.184 90.5432H192.306V97.5571H199.184V90.5432Z" fill="#C9C8C7"/>
<path d="M199.184 83.6003H192.306V90.5434H199.184V83.6003Z" fill="#D6D6D6"/>
<path d="M199.184 76.6566H192.306V83.5997H199.184V76.6566Z" fill="#D6D6D6"/>
<path d="M199.184 69.6428H192.306V76.6567H199.184V69.6428Z" fill="#D6D6D6"/>
<path d="M199.184 62.6998H192.306V69.6429H199.184V62.6998Z" fill="#D6D6D6"/>
<path d="M199.184 55.757H192.306V62.7H199.184V55.757Z" fill="#D6D6D6"/>
<path d="M199.184 48.743H192.306V55.7569H199.184V48.743Z" fill="#E5E5E5"/>
<path d="M192.305 139.357H185.427V146.3H192.305V139.357Z" fill="#A89365"/>
<path d="M192.305 132.343H185.427V139.357H192.305V132.343Z" fill="#A89365"/>
<path d="M192.305 125.4H185.427V132.343H192.305V125.4Z" fill="#DBC5B4"/>
<path d="M192.305 118.457H185.427V125.4H192.305V118.457Z" fill="#DBC5B4"/>
<path d="M192.305 111.443H185.427V118.457H192.305V111.443Z" fill="#EFDBCB"/>
<path d="M192.305 104.5H185.427V111.443H192.305V104.5Z" fill="#EFDBCB"/>
<path d="M192.305 97.557H185.427V104.5H192.305V97.557Z" fill="#161616"/>
<path d="M192.305 90.5432H185.427V97.5571H192.305V90.5432Z" fill="#262626"/>
<path d="M192.305 83.6003H185.427V90.5434H192.305V83.6003Z" fill="#D6D6D6"/>
<path d="M192.305 76.6566H185.427V83.5997H192.305V76.6566Z" fill="#D6D6D6"/>
<path d="M192.305 69.6428H185.427V76.6567H192.305V69.6428Z" fill="#D6D6D6"/>
<path d="M192.305 62.6998H185.427V69.6429H192.305V62.6998Z" fill="#262626"/>
<path d="M192.305 55.757H185.427V62.7H192.305V55.757Z" fill="#D6D6D6"/>
<path d="M192.305 48.743H185.427V55.7569H192.305V48.743Z" fill="#E0DFDE"/>
<path d="M185.427 153.243H178.549V160.257H185.427V153.243Z" fill="#826F51"/>
<path d="M185.427 146.3H178.549V153.243H185.427V146.3Z" fill="#A89365"/>
<path d="M185.427 139.357H178.549V146.3H185.427V139.357Z" fill="#A89365"/>
<path d="M185.427 132.343H178.549V139.357H185.427V132.343Z" fill="#A89365"/>
<path d="M185.427 125.4H178.549V132.343H185.427V125.4Z" fill="#EFDBCB"/>
<path d="M185.427 118.457H178.549V125.4H185.427V118.457Z" fill="#EFDBCB"/>
<path d="M185.427 111.443H178.549V118.457H185.427V111.443Z" fill="#EFDBCB"/>
<path d="M185.427 97.557H178.549V104.5H185.427V97.557Z" fill="#020202"/>
<path d="M185.427 90.5432H178.549V97.5571H185.427V90.5432Z" fill="#C9C8C7"/>
<path d="M185.427 83.6003H178.549V90.5434H185.427V83.6003Z" fill="#C9C8C7"/>
<path d="M185.427 76.6566H178.549V83.5997H185.427V76.6566Z" fill="#D6D6D6"/>
<path d="M185.427 69.6428H178.549V76.6567H185.427V69.6428Z" fill="#020202"/>
<path d="M185.427 62.6998H178.549V69.6429H185.427V62.6998Z" fill="#161616"/>
<path d="M185.427 55.757H178.549V62.7H185.427V55.757Z" fill="#262626"/>
<path d="M185.427 48.743H178.549V55.7569H185.427V48.743Z" fill="#E0DFDE"/>
<path d="M178.549 160.257H171.671V167.2H178.549V160.257Z" fill="#826F51"/>
<path d="M178.549 153.243H171.671V160.257H178.549V153.243Z" fill="#A89365"/>
<path d="M178.549 146.3H171.671V153.243H178.549V146.3Z" fill="#A89365"/>
<path d="M178.549 139.357H171.671V146.3H178.549V139.357Z" fill="#A89365"/>
<path d="M178.549 132.343H171.671V139.357H178.549V132.343Z" fill="#A89365"/>
<path d="M178.549 125.4H171.671V132.343H178.549V125.4Z" fill="#EFDBCB"/>
<path d="M178.549 118.457H171.671V125.4H178.549V118.457Z" fill="#EFDBCB"/>
<path d="M178.549 90.5432H171.671V97.5571H178.549V90.5432Z" fill="#C9C8C7"/>
<path d="M178.549 83.6003H171.671V90.5434H178.549V83.6003Z" fill="#C9C8C7"/>
<path d="M178.549 76.6566H171.671V83.5997H178.549V76.6566Z" fill="#C9C8C7"/>
<path d="M178.549 69.6428H171.671V76.6567H178.549V69.6428Z" fill="#C9C8C7"/>
<path d="M178.549 62.6998H171.671V69.6429H178.549V62.6998Z" fill="#020202"/>
<path d="M178.549 55.757H171.671V62.7H178.549V55.757Z" fill="#C9C8C7"/>
<path d="M171.671 167.2H164.793V174.143H171.671V167.2Z" fill="#826F51"/>
<path d="M171.671 160.257H164.793V167.2H171.671V160.257Z" fill="#9E885E"/>
<path d="M171.671 153.243H164.793V160.257H171.671V153.243Z" fill="#A89365"/>
<path d="M171.671 146.3H164.793V153.243H171.671V146.3Z" fill="#A89365"/>
<path d="M171.671 139.357H164.793V146.3H171.671V139.357Z" fill="#A89365"/>
<path d="M171.671 83.6003H164.793V90.5434H171.671V83.6003Z" fill="#020202"/>
<path d="M171.671 76.6566H164.793V83.5997H171.671V76.6566Z" fill="#C9C8C7"/>
<path d="M171.671 69.6428H164.793V76.6567H171.671V69.6428Z" fill="#C9C8C7"/>
<path d="M171.671 62.6998H164.793V69.6429H171.671V62.6998Z" fill="#C9C8C7"/>
<path d="M164.793 167.2H157.844V174.143H164.793V167.2Z" fill="#826F51"/>
<path d="M164.793 160.257H157.844V167.2H164.793V160.257Z" fill="#9E885E"/>
<path d="M164.793 153.243H157.844V160.257H164.793V153.243Z" fill="#A89365"/>
<path d="M164.793 146.3H157.844V153.243H164.793V146.3Z" fill="#A89365"/>
<path d="M157.844 160.257H150.966V167.2H157.844V160.257Z" fill="#9E885E"/>
<path d="M157.844 153.243H150.966V160.257H157.844V153.243Z" fill="#9E885E"/>
<path d="M157.844 146.3H150.966V153.243H157.844V146.3Z" fill="#A89365"/>
<path d="M157.844 139.357H150.966V146.3H157.844V139.357Z" fill="#A89365"/>
<path d="M150.966 160.257H144.088V167.2H150.966V160.257Z" fill="#9E885E"/>
<path d="M150.966 153.243H144.088V160.257H150.966V153.243Z" fill="#9E885E"/>
<path d="M150.966 146.3H144.088V153.243H150.966V146.3Z" fill="#A89365"/>
<path d="M150.966 139.357H144.088V146.3H150.966V139.357Z" fill="#A89365"/>
<path d="M150.966 132.343H144.088V139.357H150.966V132.343Z" fill="#A89365"/>
<path d="M150.966 125.4H144.088V132.343H150.966V125.4Z" fill="#A89365"/>
<path d="M144.088 153.243H137.21V160.257H144.088V153.243Z" fill="#9E885E"/>
<path d="M144.088 146.3H137.21V153.243H144.088V146.3Z" fill="#9E885E"/>
<path d="M144.088 139.357H137.21V146.3H144.088V139.357Z" fill="#A89365"/>
<path d="M144.088 132.343H137.21V139.357H144.088V132.343Z" fill="#A89365"/>
<path d="M144.088 125.4H137.21V132.343H144.088V125.4Z" fill="#A89365"/>
<path d="M144.088 118.457H137.21V125.4H144.088V118.457Z" fill="#A89365"/>
<path d="M144.088 111.443H137.21V118.457H144.088V111.443Z" fill="#826F51"/>
<path d="M144.088 104.5H137.21V111.443H144.088V104.5Z" fill="#826F51"/>
<path d="M137.208 404.043H130.33V411.057H137.208V404.043Z" fill="#4D4E50"/>
<path d="M137.208 411.057H130.33V418H137.208V411.057Z" fill="#4D4E50"/>
<path d="M137.208 320.443H130.33V327.457H137.208V320.443Z" fill="#4F8299"/>
<path d="M137.208 313.5H130.33V320.443H137.208V313.5Z" fill="#4F8299"/>
<path d="M137.208 306.557H130.33V313.5H137.208V306.557Z" fill="#4F8299"/>
<path d="M137.208 299.543H130.33V306.557H137.208V299.543Z" fill="#4F8299"/>
<path d="M137.208 292.6H130.33V299.543H137.208V292.6Z" fill="#4F8299"/>
<path d="M137.208 285.657H130.33V292.6H137.208V285.657Z" fill="#4F8299"/>
<path d="M137.208 278.643H130.33V285.657H137.208V278.643Z" fill="#4F8299"/>
<path d="M137.208 271.7H130.33V278.643H137.208V271.7Z" fill="#4F8299"/>
<path d="M137.208 264.757H130.33V271.7H137.208V264.757Z" fill="#4F8299"/>
<path d="M137.208 257.743H130.33V264.757H137.208V257.743Z" fill="#4F8299"/>
<path d="M137.208 250.8H130.33V257.743H137.208V250.8Z" fill="#4F8299"/>
<path d="M137.208 243.857H130.33V250.8H137.208V243.857Z" fill="#4F8299"/>
<path d="M137.208 236.843H130.33V243.857H137.208V236.843Z" fill="#4F8299"/>
<path d="M137.208 229.9H130.33V236.843H137.208V229.9Z" fill="#4F8299"/>
<path d="M137.208 222.957H130.33V229.9H137.208V222.957Z" fill="#4F8299"/>
<path d="M137.208 215.943H130.33V222.957H137.208V215.943Z" fill="#4F8299"/>
<path d="M137.208 209H130.33V215.943H137.208V209Z" fill="#826F51"/>
<path d="M137.208 202.057H130.33V209H137.208V202.057Z" fill="#826F51"/>
<path d="M137.208 195.043H130.33V202.057H137.208V195.043Z" fill="#826F51"/>
<path d="M137.208 188.1H130.33V195.043H137.208V188.1Z" fill="#826F51"/>
<path d="M137.208 181.157H130.33V188.1H137.208V181.157Z" fill="#826F51"/>
<path d="M137.208 174.143H130.33V181.157H137.208V174.143Z" fill="#826F51"/>
<path d="M137.208 167.2H130.33V174.143H137.208V167.2Z" fill="#826F51"/>
<path d="M137.208 160.257H130.33V167.2H137.208V160.257Z" fill="#826F51"/>
<path d="M137.208 153.243H130.33V160.257H137.208V153.243Z" fill="#826F51"/>
<path d="M137.208 146.3H130.33V153.243H137.208V146.3Z" fill="#826F51"/>
<path d="M137.208 139.357H130.33V146.3H137.208V139.357Z" fill="#826F51"/>
<path d="M137.208 132.343H130.33V139.357H137.208V132.343Z" fill="#A89365"/>
<path d="M137.208 125.4H130.33V132.343H137.208V125.4Z" fill="#A89365"/>
<path d="M137.208 118.457H130.33V125.4H137.208V118.457Z" fill="#A89365"/>
<path d="M137.208 111.443H130.33V118.457H137.208V111.443Z" fill="#A89365"/>
<path d="M137.208 104.5H130.33V111.443H137.208V104.5Z" fill="#826F51"/>
<path d="M137.208 97.557H130.33V104.5H137.208V97.557Z" fill="#826F51"/>
<path d="M130.33 404.043H123.452V411.057H130.33V404.043Z" fill="#4D4E50"/>
<path d="M130.33 411.057H123.452V418H130.33V411.057Z" fill="#4D4E50"/>
<path d="M130.33 397.1H123.452V404.043H130.33V397.1Z" fill="#E5E5E5"/>
<path d="M130.33 390.157H123.452V397.1H130.33V390.157Z" fill="#3D7A9B"/>
<path d="M130.33 383.143H123.452V390.157H130.33V383.143Z" fill="#3D7A9B"/>
<path d="M130.33 376.2H123.452V383.143H130.33V376.2Z" fill="#3D7A9B"/>
<path d="M130.33 369.257H123.452V376.2H130.33V369.257Z" fill="#3D7A9B"/>
<path d="M130.33 362.243H123.452V369.257H130.33V362.243Z" fill="#3D7A9B"/>
<path d="M130.33 355.3H123.452V362.243H130.33V355.3Z" fill="#3D7A9B"/>
<path d="M130.33 348.357H123.452V355.3H130.33V348.357Z" fill="#3D7A9B"/>
<path d="M130.33 341.343H123.452V348.357H130.33V341.343Z" fill="#3D7A9B"/>
<path d="M130.33 334.4H123.452V341.343H130.33V334.4Z" fill="#3D7A9B"/>
<path d="M130.33 327.457H123.452V334.4H130.33V327.457Z" fill="#3D7A9B"/>
<path d="M130.33 320.443H123.452V327.457H130.33V320.443Z" fill="#4F8299"/>
<path d="M130.33 313.5H123.452V320.443H130.33V313.5Z" fill="#4F8299"/>
<path d="M130.33 306.557H123.452V313.5H130.33V306.557Z" fill="#4F8299"/>
<path d="M130.33 299.543H123.452V306.557H130.33V299.543Z" fill="#3D7A9B"/>
<path d="M130.33 292.6H123.452V299.543H130.33V292.6Z" fill="#3D7A9B"/>
<path d="M130.33 285.657H123.452V292.6H130.33V285.657Z" fill="#3D7A9B"/>
<path d="M130.33 278.643H123.452V285.657H130.33V278.643Z" fill="#3D7A9B"/>
<path d="M130.33 271.7H123.452V278.643H130.33V271.7Z" fill="#3D7A9B"/>
<path d="M130.33 264.757H123.452V271.7H130.33V264.757Z" fill="#3D7A9B"/>
<path d="M130.33 257.743H123.452V264.757H130.33V257.743Z" fill="#3D7A9B"/>
<path d="M130.33 250.8H123.452V257.743H130.33V250.8Z" fill="#3D7A9B"/>
<path d="M130.33 243.857H123.452V250.8H130.33V243.857Z" fill="#3D7A9B"/>
<path d="M130.33 236.843H123.452V243.857H130.33V236.843Z" fill="#3D7A9B"/>
<path d="M130.33 229.9H123.452V236.843H130.33V229.9Z" fill="#3D7A9B"/>
<path d="M130.33 222.957H123.452V229.9H130.33V222.957Z" fill="#3D7A9B"/>
<path d="M130.33 215.943H123.452V222.957H130.33V215.943Z" fill="#3D7A9B"/>
<path d="M130.33 209H123.452V215.943H130.33V209Z" fill="#A89365"/>
<path d="M130.33 202.057H123.452V209H130.33V202.057Z" fill="#A89365"/>
<path d="M130.33 195.043H123.452V202.057H130.33V195.043Z" fill="#A89365"/>
<path d="M130.33 188.1H123.452V195.043H130.33V188.1Z" fill="#A89365"/>
<path d="M130.33 181.157H123.452V188.1H130.33V181.157Z" fill="#A89365"/>
<path d="M130.33 174.143H123.452V181.157H130.33V174.143Z" fill="#A89365"/>
<path d="M130.33 167.2H123.452V174.143H130.33V167.2Z" fill="#A89365"/>
<path d="M130.33 160.257H123.452V167.2H130.33V160.257Z" fill="#A89365"/>
<path d="M130.33 153.243H123.452V160.257H130.33V153.243Z" fill="#A89365"/>
<path d="M130.33 146.3H123.452V153.243H130.33V146.3Z" fill="#A89365"/>
<path d="M130.33 139.357H123.452V146.3H130.33V139.357Z" fill="#A89365"/>
<path d="M130.33 132.343H123.452V139.357H130.33V132.343Z" fill="#A89365"/>
<path d="M130.33 125.4H123.452V132.343H130.33V125.4Z" fill="#A89365"/>
<path d="M130.33 118.457H123.452V125.4H130.33V118.457Z" fill="#A89365"/>
<path d="M130.33 111.443H123.452V118.457H130.33V111.443Z" fill="#A89365"/>
<path d="M130.33 104.5H123.452V111.443H130.33V104.5Z" fill="#A89365"/>
<path d="M130.33 97.557H123.452V104.5H130.33V97.557Z" fill="#826F51"/>
<path d="M130.33 90.5432H123.452V97.5571H130.33V90.5432Z" fill="#826F51"/>
<path d="M123.452 404.043H116.574V411.057H123.452V404.043Z" fill="#3F3F40"/>
<path d="M123.452 411.057H116.574V418H123.452V411.057Z" fill="#3F3F40"/>
<path d="M123.452 397.1H116.574V404.043H123.452V397.1Z" fill="#D3D3D3"/>
<path d="M123.452 390.157H116.574V397.1H123.452V390.157Z" fill="#316689"/>
<path d="M123.452 383.143H116.574V390.157H123.452V383.143Z" fill="#316689"/>
<path d="M123.452 376.2H116.574V383.143H123.452V376.2Z" fill="#316689"/>
<path d="M123.452 369.257H116.574V376.2H123.452V369.257Z" fill="#316689"/>
<path d="M123.452 362.243H116.574V369.257H123.452V362.243Z" fill="#316689"/>
<path d="M123.452 355.3H116.574V362.243H123.452V355.3Z" fill="#316689"/>
<path d="M123.452 348.357H116.574V355.3H123.452V348.357Z" fill="#316689"/>
<path d="M123.452 341.343H116.574V348.357H123.452V341.343Z" fill="#316689"/>
<path d="M123.452 334.4H116.574V341.343H123.452V334.4Z" fill="#316689"/>
<path d="M123.452 327.457H116.574V334.4H123.452V327.457Z" fill="#316689"/>
<path d="M123.452 320.443H116.574V327.457H123.452V320.443Z" fill="#316689"/>
<path d="M123.452 313.5H116.574V320.443H123.452V313.5Z" fill="#316689"/>
<path d="M123.452 306.557H116.574V313.5H123.452V306.557Z" fill="#316689"/>
<path d="M123.452 299.543H116.574V306.557H123.452V299.543Z" fill="#316689"/>
<path d="M123.452 292.6H116.574V299.543H123.452V292.6Z" fill="#316689"/>
<path d="M123.452 285.657H116.574V292.6H123.452V285.657Z" fill="#316689"/>
<path d="M123.452 278.643H116.574V285.657H123.452V278.643Z" fill="#316689"/>
<path d="M123.452 271.7H116.574V278.643H123.452V271.7Z" fill="#316689"/>
<path d="M123.452 264.757H116.574V271.7H123.452V264.757Z" fill="#316689"/>
<path d="M123.452 257.743H116.574V264.757H123.452V257.743Z" fill="#316689"/>
<path d="M123.452 250.8H116.574V257.743H123.452V250.8Z" fill="#316689"/>
<path d="M123.452 243.857H116.574V250.8H123.452V243.857Z" fill="#3D7A9B"/>
<path d="M123.452 236.843H116.574V243.857H123.452V236.843Z" fill="#3D7A9B"/>
<path d="M123.452 229.9H116.574V236.843H123.452V229.9Z" fill="#3D7A9B"/>
<path d="M123.452 222.957H116.574V229.9H123.452V222.957Z" fill="#3D7A9B"/>
<path d="M123.452 215.943H116.574V222.957H123.452V215.943Z" fill="#3D7A9B"/>
<path d="M123.452 209H116.574V215.943H123.452V209Z" fill="#A89365"/>
<path d="M123.452 202.057H116.574V209H123.452V202.057Z" fill="#A89365"/>
<path d="M123.452 195.043H116.574V202.057H123.452V195.043Z" fill="#A89365"/>
<path d="M123.452 188.1H116.574V195.043H123.452V188.1Z" fill="#A89365"/>
<path d="M123.452 181.157H116.574V188.1H123.452V181.157Z" fill="#A89365"/>
<path d="M123.452 174.143H116.574V181.157H123.452V174.143Z" fill="#A89365"/>
<path d="M123.452 167.2H116.574V174.143H123.452V167.2Z" fill="#A89365"/>
<path d="M123.452 160.257H116.574V167.2H123.452V160.257Z" fill="#A89365"/>
<path d="M123.452 153.243H116.574V160.257H123.452V153.243Z" fill="#A89365"/>
<path d="M123.452 146.3H116.574V153.243H123.452V146.3Z" fill="#A89365"/>
<path d="M123.452 139.357H116.574V146.3H123.452V139.357Z" fill="#A89365"/>
<path d="M123.452 132.343H116.574V139.357H123.452V132.343Z" fill="#A89365"/>
<path d="M123.452 125.4H116.574V132.343H123.452V125.4Z" fill="#A89365"/>
<path d="M123.452 118.457H116.574V125.4H123.452V118.457Z" fill="#9E885E"/>
<path d="M123.452 111.443H116.574V118.457H123.452V111.443Z" fill="#A89365"/>
<path d="M123.452 104.5H116.574V111.443H123.452V104.5Z" fill="#A89365"/>
<path d="M123.452 97.557H116.574V104.5H123.452V97.557Z" fill="#A89365"/>
<path d="M123.452 90.5432H116.574V97.5571H123.452V90.5432Z" fill="#826F51"/>
<path d="M116.574 411.057H109.696V418H116.574V411.057Z" fill="#353638"/>
<path d="M116.574 404.043H109.696V411.057H116.574V404.043Z" fill="#353638"/>
<path d="M116.574 397.1H109.696V404.043H116.574V397.1Z" fill="#D3D3D3"/>
<path d="M116.574 390.157H109.696V397.1H116.574V390.157Z" fill="#2C587C"/>
<path d="M116.574 383.143H109.696V390.157H116.574V383.143Z" fill="#2C587C"/>
<path d="M116.574 376.2H109.696V383.143H116.574V376.2Z" fill="#2C587C"/>
<path d="M116.574 369.257H109.696V376.2H116.574V369.257Z" fill="#2C587C"/>
<path d="M116.574 362.243H109.696V369.257H116.574V362.243Z" fill="#2C587C"/>
<path d="M116.574 355.3H109.696V362.243H116.574V355.3Z" fill="#2C587C"/>
<path d="M116.574 348.357H109.696V355.3H116.574V348.357Z" fill="#2C587C"/>
<path d="M116.574 341.343H109.696V348.357H116.574V341.343Z" fill="#2C587C"/>
<path d="M116.574 334.4H109.696V341.343H116.574V334.4Z" fill="#2C587C"/>
<path d="M116.574 327.457H109.696V334.4H116.574V327.457Z" fill="#2C587C"/>
<path d="M116.574 320.443H109.696V327.457H116.574V320.443Z" fill="#2C587C"/>
<path d="M116.574 313.5H109.696V320.443H116.574V313.5Z" fill="#2C587C"/>
<path d="M116.574 306.557H109.696V313.5H116.574V306.557Z" fill="#2C587C"/>
<path d="M116.574 299.543H109.696V306.557H116.574V299.543Z" fill="#2C587C"/>
<path d="M116.574 292.6H109.696V299.543H116.574V292.6Z" fill="#2C587C"/>
<path d="M116.574 285.657H109.696V292.6H116.574V285.657Z" fill="#2C587C"/>
<path d="M116.574 278.643H109.696V285.657H116.574V278.643Z" fill="#2C587C"/>
<path d="M116.574 271.7H109.696V278.643H116.574V271.7Z" fill="#2C587C"/>
<path d="M116.574 264.757H109.696V271.7H116.574V264.757Z" fill="#2C587C"/>
<path d="M116.574 257.743H109.696V264.757H116.574V257.743Z" fill="#2C587C"/>
<path d="M116.574 250.8H109.696V257.743H116.574V250.8Z" fill="#2C587C"/>
<path d="M116.574 243.857H109.696V250.8H116.574V243.857Z" fill="#316689"/>
<path d="M116.574 236.843H109.696V243.857H116.574V236.843Z" fill="#3D7A9B"/>
<path d="M116.574 229.9H109.696V236.843H116.574V229.9Z" fill="#3D7A9B"/>
<path d="M116.574 222.957H109.696V229.9H116.574V222.957Z" fill="#3D7A9B"/>
<path d="M116.574 215.943H109.696V222.957H116.574V215.943Z" fill="#3D7A9B"/>
<path d="M116.574 209H109.696V215.943H116.574V209Z" fill="#A89365"/>
<path d="M116.574 202.057H109.696V209H116.574V202.057Z" fill="#A89365"/>
<path d="M116.574 195.043H109.696V202.057H116.574V195.043Z" fill="#A89365"/>
<path d="M116.574 188.1H109.696V195.043H116.574V188.1Z" fill="#A89365"/>
<path d="M116.574 181.157H109.696V188.1H116.574V181.157Z" fill="#A89365"/>
<path d="M116.574 174.143H109.696V181.157H116.574V174.143Z" fill="#A89365"/>
<path d="M116.574 167.2H109.696V174.143H116.574V167.2Z" fill="#A89365"/>
<path d="M116.574 160.257H109.696V167.2H116.574V160.257Z" fill="#A89365"/>
<path d="M116.574 153.243H109.696V160.257H116.574V153.243Z" fill="#A89365"/>
<path d="M116.574 146.3H109.696V153.243H116.574V146.3Z" fill="#A89365"/>
<path d="M116.574 139.357H109.696V146.3H116.574V139.357Z" fill="#A89365"/>
<path d="M116.574 132.343H109.696V139.357H116.574V132.343Z" fill="#A89365"/>
<path d="M116.574 125.4H109.696V132.343H116.574V125.4Z" fill="#A89365"/>
<path d="M116.574 118.457H109.696V125.4H116.574V118.457Z" fill="#9E885E"/>
<path d="M116.574 111.443H109.696V118.457H116.574V111.443Z" fill="#A89365"/>
<path d="M116.574 104.5H109.696V111.443H116.574V104.5Z" fill="#A89365"/>
<path d="M116.574 97.557H109.696V104.5H116.574V97.557Z" fill="#A89365"/>
<path d="M116.574 90.5432H109.696V97.5571H116.574V90.5432Z" fill="#A89365"/>
<path d="M116.574 83.6003H109.696V90.5434H116.574V83.6003Z" fill="#826F51"/>
<path d="M116.574 62.6998H109.696V69.6429H116.574V62.6998Z" fill="#CEB8AA"/>
<path d="M116.574 55.757H109.696V62.7H116.574V55.757Z" fill="#DBC5B4"/>
<path d="M116.574 48.743H109.696V55.7569H116.574V48.743Z" fill="#DBC5B4"/>
<path d="M116.574 41.8002H109.696V48.7432H116.574V41.8002Z" fill="#DBC5B4"/>
<path d="M116.574 34.8572H109.696V41.8002H116.574V34.8572Z" fill="#A4AAA0"/>
<path d="M116.574 27.8434H109.696V34.8573H116.574V27.8434Z" fill="#BCA295"/>
<path d="M116.574 20.8997H109.696V27.8427H116.574V20.8997Z" fill="#EFDBCB"/>
<path d="M116.574 13.9568H109.696V20.8998H116.574V13.9568Z" fill="#726358"/>
<path d="M109.696 250.8H102.818V257.743H109.696V250.8Z" fill="#2C587C"/>
<path d="M109.696 243.857H102.818V250.8H109.696V243.857Z" fill="#2C587C"/>
<path d="M109.696 236.843H102.818V243.857H109.696V236.843Z" fill="#316689"/>
<path d="M109.696 229.9H102.818V236.843H109.696V229.9Z" fill="#316689"/>
<path d="M109.696 222.957H102.818V229.9H109.696V222.957Z" fill="#3D7A9B"/>
<path d="M109.696 215.943H102.818V222.957H109.696V215.943Z" fill="#3D7A9B"/>
<path d="M109.696 209H102.818V215.943H109.696V209Z" fill="#A89365"/>
<path d="M109.696 202.057H102.818V209H109.696V202.057Z" fill="#A89365"/>
<path d="M109.696 195.043H102.818V202.057H109.696V195.043Z" fill="#A89365"/>
<path d="M109.696 188.1H102.818V195.043H109.696V188.1Z" fill="#A89365"/>
<path d="M109.696 181.157H102.818V188.1H109.696V181.157Z" fill="#A89365"/>
<path d="M109.696 174.143H102.818V181.157H109.696V174.143Z" fill="#A89365"/>
<path d="M109.696 167.2H102.818V174.143H109.696V167.2Z" fill="#A89365"/>
<path d="M109.696 160.257H102.818V167.2H109.696V160.257Z" fill="#A89365"/>
<path d="M109.696 153.243H102.818V160.257H109.696V153.243Z" fill="#A89365"/>
<path d="M109.696 146.3H102.818V153.243H109.696V146.3Z" fill="#A89365"/>
<path d="M109.696 139.357H102.818V146.3H109.696V139.357Z" fill="#A89365"/>
<path d="M109.696 132.343H102.818V139.357H109.696V132.343Z" fill="#A89365"/>
<path d="M109.696 125.4H102.818V132.343H109.696V125.4Z" fill="#A89365"/>
<path d="M109.696 118.457H102.818V125.4H109.696V118.457Z" fill="#A89365"/>
<path d="M109.696 111.443H102.818V118.457H109.696V111.443Z" fill="#A89365"/>
<path d="M109.696 104.5H102.818V111.443H109.696V104.5Z" fill="#A89365"/>
<path d="M109.696 97.557H102.818V104.5H109.696V97.557Z" fill="#A89365"/>
<path d="M109.696 90.5432H102.818V97.5571H109.696V90.5432Z" fill="#A89365"/>
<path d="M109.696 83.6003H102.818V90.5434H109.696V83.6003Z" fill="#826F51"/>
<path d="M109.696 69.6428H102.818V76.6567H109.696V69.6428Z" fill="#CEB8AA"/>
<path d="M109.696 62.6998H102.818V69.6429H109.696V62.6998Z" fill="#DBC5B4"/>
<path d="M109.696 55.757H102.818V62.7H109.696V55.757Z" fill="#E2AFA3"/>
<path d="M109.696 48.743H102.818V55.7569H109.696V48.743Z" fill="#DBC5B4"/>
<path d="M109.696 41.8002H102.818V48.7432H109.696V41.8002Z" fill="#DBC5B4"/>
<path d="M109.696 34.8572H102.818V41.8002H109.696V34.8572Z" fill="#FCFCFC"/>
<path d="M109.696 27.8434H102.818V34.8573H109.696V27.8434Z" fill="#BCA295"/>
<path d="M109.696 20.8997H102.818V27.8427H109.696V20.8997Z" fill="#EFDBCB"/>
<path d="M109.696 13.9568H102.818V20.8998H109.696V13.9568Z" fill="#726358"/>
<path d="M109.696 6.94299H102.818V13.9569H109.696V6.94299Z" fill="#726358"/>
<path d="M102.818 236.843H95.9402V243.857H102.818V236.843Z" fill="#2C587C"/>
<path d="M102.818 229.9H95.9402V236.843H102.818V229.9Z" fill="#316689"/>
<path d="M102.818 222.957H95.9402V229.9H102.818V222.957Z" fill="#3D7A9B"/>
<path d="M102.818 215.943H95.9402V222.957H102.818V215.943Z" fill="#3D7A9B"/>
<path d="M102.818 209H95.9402V215.943H102.818V209Z" fill="#9E885E"/>
<path d="M102.818 202.057H95.9402V209H102.818V202.057Z" fill="#9E885E"/>
<path d="M102.818 195.043H95.9402V202.057H102.818V195.043Z" fill="#9E885E"/>
<path d="M102.818 188.1H95.9402V195.043H102.818V188.1Z" fill="#9E885E"/>
<path d="M102.818 181.157H95.9402V188.1H102.818V181.157Z" fill="#9E885E"/>
<path d="M102.818 174.143H95.9402V181.157H102.818V174.143Z" fill="#9E885E"/>
<path d="M102.818 167.2H95.9402V174.143H102.818V167.2Z" fill="#9E885E"/>
<path d="M102.818 160.257H95.9402V167.2H102.818V160.257Z" fill="#9E885E"/>
<path d="M102.818 153.243H95.9402V160.257H102.818V153.243Z" fill="#9E885E"/>
<path d="M102.818 146.3H95.9402V153.243H102.818V146.3Z" fill="#9E885E"/>
<path d="M102.818 139.357H95.9402V146.3H102.818V139.357Z" fill="#9E885E"/>
<path d="M102.818 132.343H95.9402V139.357H102.818V132.343Z" fill="#9E885E"/>
<path d="M102.818 125.4H95.9402V132.343H102.818V125.4Z" fill="#9E885E"/>
<path d="M102.818 118.457H95.9402V125.4H102.818V118.457Z" fill="#9E885E"/>
<path d="M102.818 111.443H95.9402V118.457H102.818V111.443Z" fill="#9E885E"/>
<path d="M102.818 104.5H95.9402V111.443H102.818V104.5Z" fill="#9E885E"/>
<path d="M102.818 97.557H95.9402V104.5H102.818V97.557Z" fill="#9E885E"/>
<path d="M102.818 90.5432H95.9402V97.5571H102.818V90.5432Z" fill="#9E885E"/>
<path d="M102.818 83.6003H95.9402V90.5434H102.818V83.6003Z" fill="#EFDBCB"/>
<path d="M102.818 76.6566H95.9402V83.5997H102.818V76.6566Z" fill="#EFDBCB"/>
<path d="M102.818 69.6428H95.9402V76.6567H102.818V69.6428Z" fill="#CEB8AA"/>
<path d="M102.818 62.6998H95.9402V69.6429H102.818V62.6998Z" fill="#DBC5B4"/>
<path d="M102.818 55.757H95.9402V62.7H102.818V55.757Z" fill="#E2AFA3"/>
<path d="M102.818 48.743H95.9402V55.7569H102.818V48.743Z" fill="#EFDBCB"/>
<path d="M102.818 41.8002H95.9402V48.7432H102.818V41.8002Z" fill="#EFDBCB"/>
<path d="M102.818 34.8572H95.9402V41.8002H102.818V34.8572Z" fill="#EFDBCB"/>
<path d="M102.818 27.8434H95.9402V34.8573H102.818V27.8434Z" fill="#EFDBCB"/>
<path d="M102.818 20.8997H95.9402V27.8427H102.818V20.8997Z" fill="#EFDBCB"/>
<path d="M102.818 13.9568H95.9402V20.8998H102.818V13.9568Z" fill="#726358"/>
<path d="M102.818 6.94299H95.9402V13.9569H102.818V6.94299Z" fill="#7A6658"/>
<path d="M95.9404 236.843H89.0623V243.857H95.9404V236.843Z" fill="#2C587C"/>
<path d="M95.9404 229.9H89.0623V236.843H95.9404V229.9Z" fill="#316689"/>
<path d="M95.9404 222.957H89.0623V229.9H95.9404V222.957Z" fill="#3D7A9B"/>
<path d="M95.9404 215.943H89.0623V222.957H95.9404V215.943Z" fill="#3D7A9B"/>
<path d="M95.9404 209H89.0623V215.943H95.9404V209Z" fill="#3D7A9B"/>
<path d="M95.9404 202.057H89.0623V209H95.9404V202.057Z" fill="#020202"/>
<path d="M95.9404 195.043H89.0623V202.057H95.9404V195.043Z" fill="#020202"/>
<path d="M95.9404 188.1H89.0623V195.043H95.9404V188.1Z" fill="#020202"/>
<path d="M95.9404 181.157H89.0623V188.1H95.9404V181.157Z" fill="#020202"/>
<path d="M95.9404 174.143H89.0623V181.157H95.9404V174.143Z" fill="#020202"/>
<path d="M95.9404 167.2H89.0623V174.143H95.9404V167.2Z" fill="#020202"/>
<path d="M95.9404 160.257H89.0623V167.2H95.9404V160.257Z" fill="#DDD7D7"/>
<path d="M95.9404 153.243H89.0623V160.257H95.9404V153.243Z" fill="#DDD7D7"/>
<path d="M95.9404 146.3H89.0623V153.243H95.9404V146.3Z" fill="#DDD7D7"/>
<path d="M95.9404 139.357H89.0623V146.3H95.9404V139.357Z" fill="#DDD7D7"/>
<path d="M95.9404 132.343H89.0623V139.357H95.9404V132.343Z" fill="#DDD7D7"/>
<path d="M95.9404 125.4H89.0623V132.343H95.9404V125.4Z" fill="#DDD7D7"/>
<path d="M95.9404 118.457H89.0623V125.4H95.9404V118.457Z" fill="#DD5757"/>
<path d="M95.9404 111.443H89.0623V118.457H95.9404V111.443Z" fill="#DD5757"/>
<path d="M95.9404 104.5H89.0623V111.443H95.9404V104.5Z" fill="#DD5757"/>
<path d="M95.9404 97.557H89.0623V104.5H95.9404V97.557Z" fill="#DD5757"/>
<path d="M95.9404 90.5432H89.0623V97.5571H95.9404V90.5432Z" fill="#DD5757"/>
<path d="M95.9404 83.6003H89.0623V90.5434H95.9404V83.6003Z" fill="#EFDBCB"/>
<path d="M95.9404 76.6566H89.0623V83.5997H95.9404V76.6566Z" fill="#EFDBCB"/>
<path d="M95.9404 69.6428H89.0623V76.6567H95.9404V69.6428Z" fill="#CEB8AA"/>
<path d="M95.9404 62.6998H89.0623V69.6429H95.9404V62.6998Z" fill="#DBC5B4"/>
<path d="M95.9404 55.757H89.0623V62.7H95.9404V55.757Z" fill="#DBC5B4"/>
<path d="M95.9404 48.743H89.0623V55.7569H95.9404V48.743Z" fill="#DBC5B4"/>
<path d="M95.9404 41.8002H89.0623V48.7432H95.9404V41.8002Z" fill="#DBC5B4"/>
<path d="M95.9404 34.8572H89.0623V41.8002H95.9404V34.8572Z" fill="#A4AAA0"/>
<path d="M95.9404 27.8434H89.0623V34.8573H95.9404V27.8434Z" fill="#BCA295"/>
<path d="M95.9404 20.8997H89.0623V27.8427H95.9404V20.8997Z" fill="#EFDBCB"/>
<path d="M95.9404 13.9568H89.0623V20.8998H95.9404V13.9568Z" fill="#7A6658"/>
<path d="M95.9404 6.94299H89.0623V13.9569H95.9404V6.94299Z" fill="#6B5D51"/>
<path d="M89.0623 236.843H82.1841V243.857H89.0623V236.843Z" fill="#2C587C"/>
<path d="M89.0623 229.9H82.1841V236.843H89.0623V229.9Z" fill="#316689"/>
<path d="M89.0623 222.957H82.1841V229.9H89.0623V222.957Z" fill="#3D7A9B"/>
<path d="M89.0623 215.943H82.1841V222.957H89.0623V215.943Z" fill="#3D7A9B"/>
<path d="M89.0623 209H82.1841V215.943H89.0623V209Z" fill="#A89365"/>
<path d="M89.0623 202.057H82.1841V209H89.0623V202.057Z" fill="#A89365"/>
<path d="M89.0623 195.043H82.1841V202.057H89.0623V195.043Z" fill="#A89365"/>
<path d="M89.0623 188.1H82.1841V195.043H89.0623V188.1Z" fill="#A89365"/>
<path d="M89.0623 181.157H82.1841V188.1H89.0623V181.157Z" fill="#A89365"/>
<path d="M89.0623 174.143H82.1841V181.157H89.0623V174.143Z" fill="#A89365"/>
<path d="M89.0623 167.2H82.1841V174.143H89.0623V167.2Z" fill="#A89365"/>
<path d="M89.0623 160.257H82.1841V167.2H89.0623V160.257Z" fill="#A89365"/>
<path d="M89.0623 153.243H82.1841V160.257H89.0623V153.243Z" fill="#A89365"/>
<path d="M89.0623 146.3H82.1841V153.243H89.0623V146.3Z" fill="#A89365"/>
<path d="M89.0623 139.357H82.1841V146.3H89.0623V139.357Z" fill="#A89365"/>
<path d="M89.0623 132.343H82.1841V139.357H89.0623V132.343Z" fill="#A89365"/>
<path d="M89.0623 125.4H82.1841V132.343H89.0623V125.4Z" fill="#A89365"/>
<path d="M89.0623 118.457H82.1841V125.4H89.0623V118.457Z" fill="#A89365"/>
<path d="M89.0623 111.443H82.1841V118.457H89.0623V111.443Z" fill="#A89365"/>
<path d="M89.0623 104.5H82.1841V111.443H89.0623V104.5Z" fill="#A89365"/>
<path d="M89.0623 97.557H82.1841V104.5H89.0623V97.557Z" fill="#A89365"/>
<path d="M89.0623 90.5432H82.1841V97.5571H89.0623V90.5432Z" fill="#A89365"/>
<path d="M89.0623 83.6003H82.1841V90.5434H89.0623V83.6003Z" fill="#E2CEC0"/>
<path d="M89.0623 76.6566H82.1841V83.5997H89.0623V76.6566Z" fill="#E2CEC0"/>
<path d="M89.0623 69.6428H82.1841V76.6567H89.0623V69.6428Z" fill="#E2CEC0"/>
<path d="M89.0623 62.6998H82.1841V69.6429H89.0623V62.6998Z" fill="#BCA295"/>
<path d="M89.0623 55.757H82.1841V62.7H89.0623V55.757Z" fill="#DBC5B4"/>
<path d="M89.0623 48.743H82.1841V55.7569H89.0623V48.743Z" fill="#DBC5B4"/>
<path d="M89.0623 41.8002H82.1841V48.7432H89.0623V41.8002Z" fill="#DBC5B4"/>
<path d="M89.0623 34.8572H82.1841V41.8002H89.0623V34.8572Z" fill="#FCFCFC"/>
<path d="M89.0623 27.8434H82.1841V34.8573H89.0623V27.8434Z" fill="#BCA295"/>
<path d="M89.0623 20.8997H82.1841V27.8427H89.0623V20.8997Z" fill="#7A6658"/>
<path d="M89.0623 13.9568H82.1841V20.8998H89.0623V13.9568Z" fill="#6B5D51"/>
<path d="M89.0623 6.94299H82.1841V13.9569H89.0623V6.94299Z" fill="#6B5D51"/>
<path d="M82.1843 411.057H75.3062V418H82.1843V411.057Z" fill="#4D4E50"/>
<path d="M82.1843 404.043H75.3062V411.057H82.1843V404.043Z" fill="#4D4E50"/>
<path d="M82.1843 320.443H75.3062V327.457H82.1843V320.443Z" fill="#4F8299"/>
<path d="M82.1843 313.5H75.3062V320.443H82.1843V313.5Z" fill="#4F8299"/>
<path d="M82.1843 306.557H75.3062V313.5H82.1843V306.557Z" fill="#4F8299"/>
<path d="M82.1843 299.543H75.3062V306.557H82.1843V299.543Z" fill="#4F8299"/>
<path d="M82.1843 292.6H75.3062V299.543H82.1843V292.6Z" fill="#4F8299"/>
<path d="M82.1843 285.657H75.3062V292.6H82.1843V285.657Z" fill="#4F8299"/>
<path d="M82.1843 278.643H75.3062V285.657H82.1843V278.643Z" fill="#4F8299"/>
<path d="M82.1843 271.7H75.3062V278.643H82.1843V271.7Z" fill="#4F8299"/>
<path d="M82.1843 264.757H75.3062V271.7H82.1843V264.757Z" fill="#4F8299"/>
<path d="M82.1843 257.743H75.3062V264.757H82.1843V257.743Z" fill="#4F8299"/>
<path d="M82.1843 250.8H75.3062V257.743H82.1843V250.8Z" fill="#3D7A9B"/>
<path d="M82.1843 243.857H75.3062V250.8H82.1843V243.857Z" fill="#3D7A9B"/>
<path d="M82.1843 236.843H75.3062V243.857H82.1843V236.843Z" fill="#3D7A9B"/>
<path d="M82.1843 229.9H75.3062V236.843H82.1843V229.9Z" fill="#3D7A9B"/>
<path d="M82.1843 222.957H75.3062V229.9H82.1843V222.957Z" fill="#3D7A9B"/>
<path d="M82.1843 215.943H75.3062V222.957H82.1843V215.943Z" fill="#3D7A9B"/>
<path d="M82.1843 209H75.3062V215.943H82.1843V209Z" fill="#A89365"/>
<path d="M82.1843 202.057H75.3062V209H82.1843V202.057Z" fill="#A89365"/>
<path d="M82.1843 195.043H75.3062V202.057H82.1843V195.043Z" fill="#A89365"/>
<path d="M82.1843 188.1H75.3062V195.043H82.1843V188.1Z" fill="#A89365"/>
<path d="M82.1843 181.157H75.3062V188.1H82.1843V181.157Z" fill="#A89365"/>
<path d="M82.1843 174.143H75.3062V181.157H82.1843V174.143Z" fill="#A89365"/>
<path d="M82.1843 167.2H75.3062V174.143H82.1843V167.2Z" fill="#A89365"/>
<path d="M82.1843 160.257H75.3062V167.2H82.1843V160.257Z" fill="#A89365"/>
<path d="M82.1843 153.243H75.3062V160.257H82.1843V153.243Z" fill="#A89365"/>
<path d="M82.1843 146.3H75.3062V153.243H82.1843V146.3Z" fill="#A89365"/>
<path d="M82.1843 139.357H75.3062V146.3H82.1843V139.357Z" fill="#A89365"/>
<path d="M82.1843 132.343H75.3062V139.357H82.1843V132.343Z" fill="#A89365"/>
<path d="M82.1843 125.4H75.3062V132.343H82.1843V125.4Z" fill="#A89365"/>
<path d="M82.1843 118.457H75.3062V125.4H82.1843V118.457Z" fill="#A89365"/>
<path d="M82.1843 111.443H75.3062V118.457H82.1843V111.443Z" fill="#A89365"/>
<path d="M82.1843 104.5H75.3062V111.443H82.1843V104.5Z" fill="#A89365"/>
<path d="M82.1843 97.557H75.3062V104.5H82.1843V97.557Z" fill="#A89365"/>
<path d="M82.1843 90.5432H75.3062V97.5571H82.1843V90.5432Z" fill="#A89365"/>
<path d="M82.1843 83.6003H75.3062V90.5434H82.1843V83.6003Z" fill="#CEB8AA"/>
<path d="M82.1843 76.6566H75.3062V83.5997H82.1843V76.6566Z" fill="#CEB8AA"/>
<path d="M82.1843 69.6428H75.3062V76.6567H82.1843V69.6428Z" fill="#CEB8AA"/>
<path d="M82.1843 62.6998H75.3062V69.6429H82.1843V62.6998Z" fill="#CEB8AA"/>
<path d="M82.1843 55.757H75.3062V62.7H82.1843V55.757Z" fill="#BCA295"/>
<path d="M82.1843 48.743H75.3062V55.7569H82.1843V48.743Z" fill="#DBC5B4"/>
<path d="M82.1843 41.8002H75.3062V48.7432H82.1843V41.8002Z" fill="#DBC5B4"/>
<path d="M82.1843 34.8572H75.3062V41.8002H82.1843V34.8572Z" fill="#DBC5B4"/>
<path d="M82.1843 27.8434H75.3062V34.8573H82.1843V27.8434Z" fill="#DBC5B4"/>
<path d="M82.1843 20.8997H75.3062V27.8427H82.1843V20.8997Z" fill="#6B5D51"/>
<path d="M82.1843 13.9568H75.3062V20.8998H82.1843V13.9568Z" fill="#6B5D51"/>
<path d="M75.3049 404.043H68.4268V411.057H75.3049V404.043Z" fill="#4D4E50"/>
<path d="M75.3049 411.057H68.4268V418H75.3049V411.057Z" fill="#4D4E50"/>
<path d="M75.3049 397.1H68.4268V404.043H75.3049V397.1Z" fill="#E5E5E5"/>
<path d="M75.3049 390.157H68.4268V397.1H75.3049V390.157Z" fill="#3D7A9B"/>
<path d="M75.3049 383.143H68.4268V390.157H75.3049V383.143Z" fill="#3D7A9B"/>
<path d="M75.3049 376.2H68.4268V383.143H75.3049V376.2Z" fill="#3D7A9B"/>
<path d="M75.3049 369.257H68.4268V376.2H75.3049V369.257Z" fill="#3D7A9B"/>
<path d="M75.3049 362.243H68.4268V369.257H75.3049V362.243Z" fill="#3D7A9B"/>
<path d="M75.3049 355.3H68.4268V362.243H75.3049V355.3Z" fill="#3D7A9B"/>
<path d="M75.3049 348.357H68.4268V355.3H75.3049V348.357Z" fill="#3D7A9B"/>
<path d="M75.3049 341.343H68.4268V348.357H75.3049V341.343Z" fill="#3D7A9B"/>
<path d="M75.3049 334.4H68.4268V341.343H75.3049V334.4Z" fill="#3D7A9B"/>
<path d="M75.3049 327.457H68.4268V334.4H75.3049V327.457Z" fill="#4F8299"/>
<path d="M75.3049 320.443H68.4268V327.457H75.3049V320.443Z" fill="#4F8299"/>
<path d="M75.3049 313.5H68.4268V320.443H75.3049V313.5Z" fill="#4F8299"/>
<path d="M75.3049 306.557H68.4268V313.5H75.3049V306.557Z" fill="#4F8299"/>
<path d="M75.3049 299.543H68.4268V306.557H75.3049V299.543Z" fill="#4F8299"/>
<path d="M75.3049 292.6H68.4268V299.543H75.3049V292.6Z" fill="#3D7A9B"/>
<path d="M75.3049 285.657H68.4268V292.6H75.3049V285.657Z" fill="#3D7A9B"/>
<path d="M75.3049 278.643H68.4268V285.657H75.3049V278.643Z" fill="#3D7A9B"/>
<path d="M75.3049 271.7H68.4268V278.643H75.3049V271.7Z" fill="#3D7A9B"/>
<path d="M75.3049 264.757H68.4268V271.7H75.3049V264.757Z" fill="#3D7A9B"/>
<path d="M75.3049 257.743H68.4268V264.757H75.3049V257.743Z" fill="#3D7A9B"/>
<path d="M75.3049 250.8H68.4268V257.743H75.3049V250.8Z" fill="#3D7A9B"/>
<path d="M75.3049 243.857H68.4268V250.8H75.3049V243.857Z" fill="#3D7A9B"/>
<path d="M75.3049 236.843H68.4268V243.857H75.3049V236.843Z" fill="#3D7A9B"/>
<path d="M75.3049 229.9H68.4268V236.843H75.3049V229.9Z" fill="#3D7A9B"/>
<path d="M75.3049 222.957H68.4268V229.9H75.3049V222.957Z" fill="#3D7A9B"/>
<path d="M75.3049 215.943H68.4268V222.957H75.3049V215.943Z" fill="#3D7A9B"/>
<path d="M75.3049 209H68.4268V215.943H75.3049V209Z" fill="#A89365"/>
<path d="M75.3049 202.057H68.4268V209H75.3049V202.057Z" fill="#A89365"/>
<path d="M75.3049 195.043H68.4268V202.057H75.3049V195.043Z" fill="#A89365"/>
<path d="M75.3049 188.1H68.4268V195.043H75.3049V188.1Z" fill="#A89365"/>
<path d="M75.3049 181.157H68.4268V188.1H75.3049V181.157Z" fill="#A89365"/>
<path d="M75.3049 174.143H68.4268V181.157H75.3049V174.143Z" fill="#A89365"/>
<path d="M75.3049 167.2H68.4268V174.143H75.3049V167.2Z" fill="#A89365"/>
<path d="M75.3049 160.257H68.4268V167.2H75.3049V160.257Z" fill="#A89365"/>
<path d="M75.3049 153.243H68.4268V160.257H75.3049V153.243Z" fill="#A89365"/>
<path d="M75.3049 146.3H68.4268V153.243H75.3049V146.3Z" fill="#A89365"/>
<path d="M75.3049 139.357H68.4268V146.3H75.3049V139.357Z" fill="#A89365"/>
<path d="M75.3049 132.343H68.4268V139.357H75.3049V132.343Z" fill="#A89365"/>
<path d="M75.3049 125.4H68.4268V132.343H75.3049V125.4Z" fill="#A89365"/>
<path d="M75.3049 118.457H68.4268V125.4H75.3049V118.457Z" fill="#A89365"/>
<path d="M75.3049 111.443H68.4268V118.457H75.3049V111.443Z" fill="#A89365"/>
<path d="M75.3049 104.5H68.4268V111.443H75.3049V104.5Z" fill="#A89365"/>
<path d="M75.3049 97.557H68.4268V104.5H75.3049V97.557Z" fill="#A89365"/>
<path d="M75.3049 90.5432H68.4268V97.5571H75.3049V90.5432Z" fill="#9E885E"/>
<path d="M75.3049 83.6003H68.4268V90.5434H75.3049V83.6003Z" fill="#826F51"/>
<path d="M75.3049 48.743H68.4268V55.7569H75.3049V48.743Z" fill="#7A6658"/>
<path d="M75.3049 41.8002H68.4268V48.7432H75.3049V41.8002Z" fill="#EFDBCB"/>
<path d="M75.3049 34.8572H68.4268V41.8002H75.3049V34.8572Z" fill="#EFDBCB"/>
<path d="M75.3049 27.8434H68.4268V34.8573H75.3049V27.8434Z" fill="#6B5D51"/>
<path d="M75.3049 20.8997H68.4268V27.8427H75.3049V20.8997Z" fill="#6B5D51"/>
<path d="M68.4268 411.057H61.5486V418H68.4268V411.057Z" fill="#3F3F40"/>
<path d="M68.4268 404.043H61.5486V411.057H68.4268V404.043Z" fill="#3F3F40"/>
<path d="M68.4268 397.1H61.5486V404.043H68.4268V397.1Z" fill="#D3D3D3"/>
<path d="M68.4268 390.157H61.5486V397.1H68.4268V390.157Z" fill="#316689"/>
<path d="M68.4268 383.143H61.5486V390.157H68.4268V383.143Z" fill="#316689"/>
<path d="M68.4268 376.2H61.5486V383.143H68.4268V376.2Z" fill="#316689"/>
<path d="M68.4268 369.257H61.5486V376.2H68.4268V369.257Z" fill="#316689"/>
<path d="M68.4268 362.243H61.5486V369.257H68.4268V362.243Z" fill="#316689"/>
<path d="M68.4268 355.3H61.5486V362.243H68.4268V355.3Z" fill="#316689"/>
<path d="M68.4268 348.357H61.5486V355.3H68.4268V348.357Z" fill="#316689"/>
<path d="M68.4268 341.343H61.5486V348.357H68.4268V341.343Z" fill="#316689"/>
<path d="M68.4268 334.4H61.5486V341.343H68.4268V334.4Z" fill="#316689"/>
<path d="M68.4268 327.457H61.5486V334.4H68.4268V327.457Z" fill="#316689"/>
<path d="M68.4268 320.443H61.5486V327.457H68.4268V320.443Z" fill="#316689"/>
<path d="M68.4268 313.5H61.5486V320.443H68.4268V313.5Z" fill="#316689"/>
<path d="M68.4268 306.557H61.5486V313.5H68.4268V306.557Z" fill="#316689"/>
<path d="M68.4268 299.543H61.5486V306.557H68.4268V299.543Z" fill="#316689"/>
<path d="M68.4268 292.6H61.5486V299.543H68.4268V292.6Z" fill="#316689"/>
<path d="M68.4268 285.657H61.5486V292.6H68.4268V285.657Z" fill="#316689"/>
<path d="M68.4268 278.643H61.5486V285.657H68.4268V278.643Z" fill="#316689"/>
<path d="M68.4268 271.7H61.5486V278.643H68.4268V271.7Z" fill="#316689"/>
<path d="M68.4268 264.757H61.5486V271.7H68.4268V264.757Z" fill="#316689"/>
<path d="M68.4268 257.743H61.5486V264.757H68.4268V257.743Z" fill="#316689"/>
<path d="M68.4268 250.8H61.5486V257.743H68.4268V250.8Z" fill="#316689"/>
<path d="M68.4268 243.857H61.5486V250.8H68.4268V243.857Z" fill="#3D7A9B"/>
<path d="M68.4268 236.843H61.5486V243.857H68.4268V236.843Z" fill="#3D7A9B"/>
<path d="M68.4268 229.9H61.5486V236.843H68.4268V229.9Z" fill="#3D7A9B"/>
<path d="M68.4268 222.957H61.5486V229.9H68.4268V222.957Z" fill="#3D7A9B"/>
<path d="M68.4268 215.943H61.5486V222.957H68.4268V215.943Z" fill="#3D7A9B"/>
<path d="M68.4268 209H61.5486V215.943H68.4268V209Z" fill="#A89365"/>
<path d="M68.4268 202.057H61.5486V209H68.4268V202.057Z" fill="#A89365"/>
<path d="M68.4268 195.043H61.5486V202.057H68.4268V195.043Z" fill="#A89365"/>
<path d="M68.4268 188.1H61.5486V195.043H68.4268V188.1Z" fill="#9E885E"/>
<path d="M68.4268 181.157H61.5486V188.1H68.4268V181.157Z" fill="#9E885E"/>
<path d="M68.4268 174.143H61.5486V181.157H68.4268V174.143Z" fill="#9E885E"/>
<path d="M68.4268 167.2H61.5486V174.143H68.4268V167.2Z" fill="#A89365"/>
<path d="M68.4268 160.257H61.5486V167.2H68.4268V160.257Z" fill="#A89365"/>
<path d="M68.4268 153.243H61.5486V160.257H68.4268V153.243Z" fill="#A89365"/>
<path d="M68.4268 146.3H61.5486V153.243H68.4268V146.3Z" fill="#A89365"/>
<path d="M68.4268 139.357H61.5486V146.3H68.4268V139.357Z" fill="#A89365"/>
<path d="M68.4268 132.343H61.5486V139.357H68.4268V132.343Z" fill="#A89365"/>
<path d="M68.4268 125.4H61.5486V132.343H68.4268V125.4Z" fill="#A89365"/>
<path d="M68.4268 118.457H61.5486V125.4H68.4268V118.457Z" fill="#A89365"/>
<path d="M68.4268 111.443H61.5486V118.457H68.4268V111.443Z" fill="#A89365"/>
<path d="M68.4268 104.5H61.5486V111.443H68.4268V104.5Z" fill="#A89365"/>
<path d="M68.4268 97.557H61.5486V104.5H68.4268V97.557Z" fill="#9E885E"/>
<path d="M68.4268 90.5432H61.5486V97.5571H68.4268V90.5432Z" fill="#9E885E"/>
<path d="M68.4268 83.6003H61.5486V90.5434H68.4268V83.6003Z" fill="#826F51"/>
<path d="M61.5488 404.043H54.6707V411.057H61.5488V404.043Z" fill="#353638"/>
<path d="M61.5488 411.057H54.6707V418H61.5488V411.057Z" fill="#353638"/>
<path d="M61.5488 397.1H54.6707V404.043H61.5488V397.1Z" fill="#D3D3D3"/>
<path d="M61.5488 390.157H54.6707V397.1H61.5488V390.157Z" fill="#2C587C"/>
<path d="M61.5488 383.143H54.6707V390.157H61.5488V383.143Z" fill="#2C587C"/>
<path d="M61.5488 376.2H54.6707V383.143H61.5488V376.2Z" fill="#2C587C"/>
<path d="M61.5488 369.257H54.6707V376.2H61.5488V369.257Z" fill="#2C587C"/>
<path d="M61.5488 362.243H54.6707V369.257H61.5488V362.243Z" fill="#2C587C"/>
<path d="M61.5488 355.3H54.6707V362.243H61.5488V355.3Z" fill="#2C587C"/>
<path d="M61.5488 348.357H54.6707V355.3H61.5488V348.357Z" fill="#2C587C"/>
<path d="M61.5488 341.343H54.6707V348.357H61.5488V341.343Z" fill="#2C587C"/>
<path d="M61.5488 334.4H54.6707V341.343H61.5488V334.4Z" fill="#2C587C"/>
<path d="M61.5488 327.457H54.6707V334.4H61.5488V327.457Z" fill="#2C587C"/>
<path d="M61.5488 320.443H54.6707V327.457H61.5488V320.443Z" fill="#2C587C"/>
<path d="M61.5488 313.5H54.6707V320.443H61.5488V313.5Z" fill="#2C587C"/>
<path d="M61.5488 306.557H54.6707V313.5H61.5488V306.557Z" fill="#2C587C"/>
<path d="M61.5488 299.543H54.6707V306.557H61.5488V299.543Z" fill="#2C587C"/>
<path d="M61.5488 292.6H54.6707V299.543H61.5488V292.6Z" fill="#2C587C"/>
<path d="M61.5488 285.657H54.6707V292.6H61.5488V285.657Z" fill="#2C587C"/>
<path d="M61.5488 278.643H54.6707V285.657H61.5488V278.643Z" fill="#2C587C"/>
<path d="M61.5488 271.7H54.6707V278.643H61.5488V271.7Z" fill="#2C587C"/>
<path d="M61.5488 264.757H54.6707V271.7H61.5488V264.757Z" fill="#2C587C"/>
<path d="M61.5488 257.743H54.6707V264.757H61.5488V257.743Z" fill="#2C587C"/>
<path d="M61.5488 250.8H54.6707V257.743H61.5488V250.8Z" fill="#2C587C"/>
<path d="M61.5488 243.857H54.6707V250.8H61.5488V243.857Z" fill="#2C587C"/>
<path d="M61.5488 236.843H54.6707V243.857H61.5488V236.843Z" fill="#316689"/>
<path d="M61.5488 229.9H54.6707V236.843H61.5488V229.9Z" fill="#316689"/>
<path d="M61.5488 222.957H54.6707V229.9H61.5488V222.957Z" fill="#316689"/>
<path d="M61.5488 215.943H54.6707V222.957H61.5488V215.943Z" fill="#316689"/>
<path d="M61.5488 209H54.6707V215.943H61.5488V209Z" fill="#A89365"/>
<path d="M61.5488 202.057H54.6707V209H61.5488V202.057Z" fill="#A89365"/>
<path d="M61.5488 195.043H54.6707V202.057H61.5488V195.043Z" fill="#9E885E"/>
<path d="M61.5488 188.1H54.6707V195.043H61.5488V188.1Z" fill="#826F51"/>
<path d="M61.5488 181.157H54.6707V188.1H61.5488V181.157Z" fill="#826F51"/>
<path d="M61.5488 174.143H54.6707V181.157H61.5488V174.143Z" fill="#826F51"/>
<path d="M61.5488 167.2H54.6707V174.143H61.5488V167.2Z" fill="#9E885E"/>
<path d="M61.5488 160.257H54.6707V167.2H61.5488V160.257Z" fill="#A89365"/>
<path d="M61.5488 153.243H54.6707V160.257H61.5488V153.243Z" fill="#A89365"/>
<path d="M61.5488 146.3H54.6707V153.243H61.5488V146.3Z" fill="#A89365"/>
<path d="M61.5488 139.357H54.6707V146.3H61.5488V139.357Z" fill="#A89365"/>
<path d="M61.5488 132.343H54.6707V139.357H61.5488V132.343Z" fill="#A89365"/>
<path d="M61.5488 125.4H54.6707V132.343H61.5488V125.4Z" fill="#A89365"/>
<path d="M61.5488 118.457H54.6707V125.4H61.5488V118.457Z" fill="#A89365"/>
<path d="M61.5488 111.443H54.6707V118.457H61.5488V111.443Z" fill="#A89365"/>
<path d="M61.5488 104.5H54.6707V111.443H61.5488V104.5Z" fill="#A89365"/>
<path d="M61.5488 97.557H54.6707V104.5H61.5488V97.557Z" fill="#9E885E"/>
<path d="M61.5488 90.5432H54.6707V97.5571H61.5488V90.5432Z" fill="#826F51"/>
<path d="M54.6709 243.857H47.7927V250.8H54.6709V243.857Z" fill="#2C587C"/>
<path d="M54.6709 236.843H47.7927V243.857H54.6709V236.843Z" fill="#2C587C"/>
<path d="M54.6709 229.9H47.7927V236.843H54.6709V229.9Z" fill="#2C587C"/>
<path d="M54.6709 222.957H47.7927V229.9H54.6709V222.957Z" fill="#2C587C"/>
<path d="M54.6709 215.943H47.7927V222.957H54.6709V215.943Z" fill="#2C587C"/>
<path d="M54.6709 209H47.7927V215.943H54.6709V209Z" fill="#9E885E"/>
<path d="M54.6709 202.057H47.7927V209H54.6709V202.057Z" fill="#9E885E"/>
<path d="M54.6709 195.043H47.7927V202.057H54.6709V195.043Z" fill="#826F51"/>
<path d="M54.6709 188.1H47.7927V195.043H54.6709V188.1Z" fill="#A89365"/>
<path d="M54.6709 181.157H47.7927V188.1H54.6709V181.157Z" fill="#A89365"/>
<path d="M54.6709 174.143H47.7927V181.157H54.6709V174.143Z" fill="#A89365"/>
<path d="M54.6709 167.2H47.7927V174.143H54.6709V167.2Z" fill="#826F51"/>
<path d="M54.6709 160.257H47.7927V167.2H54.6709V160.257Z" fill="#9E885E"/>
<path d="M54.6709 153.243H47.7927V160.257H54.6709V153.243Z" fill="#9E885E"/>
<path d="M54.6709 146.3H47.7927V153.243H54.6709V146.3Z" fill="#9E885E"/>
<path d="M54.6709 139.357H47.7927V146.3H54.6709V139.357Z" fill="#9E885E"/>
<path d="M54.6709 132.343H47.7927V139.357H54.6709V132.343Z" fill="#A89365"/>
<path d="M54.6709 125.4H47.7927V132.343H54.6709V125.4Z" fill="#A89365"/>
<path d="M54.6709 118.457H47.7927V125.4H54.6709V118.457Z" fill="#A89365"/>
<path d="M54.6709 111.443H47.7927V118.457H54.6709V111.443Z" fill="#A89365"/>
<path d="M54.6709 104.5H47.7927V111.443H54.6709V104.5Z" fill="#9E885E"/>
<path d="M54.6709 97.557H47.7927V104.5H54.6709V97.557Z" fill="#9E885E"/>
<path d="M54.6709 90.5432H47.7927V97.5571H54.6709V90.5432Z" fill="#826F51"/>
<path d="M47.7928 188.1H40.8438V195.043H47.7928V188.1Z" fill="#9E885E"/>
<path d="M47.7928 181.157H40.8438V188.1H47.7928V181.157Z" fill="#A89365"/>
<path d="M47.7928 174.143H40.8438V181.157H47.7928V174.143Z" fill="#A89365"/>
<path d="M47.7928 167.2H40.8438V174.143H47.7928V167.2Z" fill="#A89365"/>
<path d="M47.7928 132.343H40.8438V139.357H47.7928V132.343Z" fill="#A89365"/>
<path d="M47.7928 125.4H40.8438V132.343H47.7928V125.4Z" fill="#A89365"/>
<path d="M47.7928 118.457H40.8438V125.4H47.7928V118.457Z" fill="#A89365"/>
<path d="M47.7928 111.443H40.8438V118.457H47.7928V111.443Z" fill="#9E885E"/>
<path d="M47.7928 104.5H40.8438V111.443H47.7928V104.5Z" fill="#826F51"/>
<path d="M47.7928 97.557H40.8438V104.5H47.7928V97.557Z" fill="#826F51"/>
<path d="M40.844 181.157H33.9658V188.1H40.844V181.157Z" fill="#9E885E"/>
<path d="M40.844 174.143H33.9658V181.157H40.844V174.143Z" fill="#A89365"/>
<path d="M40.844 167.2H33.9658V174.143H40.844V167.2Z" fill="#A89365"/>
<path d="M40.844 160.257H33.9658V167.2H40.844V160.257Z" fill="#A89365"/>
<path d="M40.844 139.357H33.9658V146.3H40.844V139.357Z" fill="#A89365"/>
<path d="M40.844 132.343H33.9658V139.357H40.844V132.343Z" fill="#A89365"/>
<path d="M40.844 125.4H33.9658V132.343H40.844V125.4Z" fill="#A89365"/>
<path d="M40.844 118.457H33.9658V125.4H40.844V118.457Z" fill="#A89365"/>
<path d="M40.844 111.443H33.9658V118.457H40.844V111.443Z" fill="#9E885E"/>
<path d="M40.844 104.5H33.9658V111.443H40.844V104.5Z" fill="#826F51"/>
<path d="M33.9658 174.143H27.0876V181.157H33.9658V174.143Z" fill="#A89365"/>
<path d="M33.9658 167.2H27.0876V174.143H33.9658V167.2Z" fill="#A89365"/>
<path d="M33.9658 160.257H27.0876V167.2H33.9658V160.257Z" fill="#A89365"/>
<path d="M33.9658 153.243H27.0876V160.257H33.9658V153.243Z" fill="#A89365"/>
<path d="M33.9658 146.3H27.0876V153.243H33.9658V146.3Z" fill="#A89365"/>
<path d="M33.9658 139.357H27.0876V146.3H33.9658V139.357Z" fill="#A89365"/>
<path d="M33.9658 132.343H27.0876V139.357H33.9658V132.343Z" fill="#A89365"/>
<path d="M33.9658 125.4H27.0876V132.343H33.9658V125.4Z" fill="#A89365"/>
<path d="M33.9658 118.457H27.0876V125.4H33.9658V118.457Z" fill="#A89365"/>
<path d="M33.9658 111.443H27.0876V118.457H33.9658V111.443Z" fill="#826F51"/>
<path d="M27.0879 167.2H20.2097V174.143H27.0879V167.2Z" fill="#9E885E"/>
<path d="M27.0879 160.257H20.2097V167.2H27.0879V160.257Z" fill="#9E885E"/>
<path d="M27.0879 153.243H20.2097V160.257H27.0879V153.243Z" fill="#9E885E"/>
<path d="M27.0879 146.3H20.2097V153.243H27.0879V146.3Z" fill="#9E885E"/>
<path d="M27.0879 139.357H20.2097V146.3H27.0879V139.357Z" fill="#A89365"/>
<path d="M27.0879 132.343H20.2097V139.357H27.0879V132.343Z" fill="#A89365"/>
<path d="M27.0879 125.4H20.2097V132.343H27.0879V125.4Z" fill="#9E885E"/>
<path d="M27.0879 118.457H20.2097V125.4H27.0879V118.457Z" fill="#9E885E"/>
<path d="M20.2083 160.257H13.3301V167.2H20.2083V160.257Z" fill="#826F51"/>
<path d="M20.2083 153.243H13.3301V160.257H20.2083V153.243Z" fill="#826F51"/>
<path d="M20.2083 146.3H13.3301V153.243H20.2083V146.3Z" fill="#9E885E"/>
<path d="M20.2083 139.357H13.3301V146.3H20.2083V139.357Z" fill="#9E885E"/>
<path d="M20.2083 132.343H13.3301V139.357H20.2083V132.343Z" fill="#9E885E"/>
</g>
<defs>
<clipPath id="clip0">
<rect width="234" height="418" fill="white"/>
</clipPath>
</defs>
</svg>
