<svg width="135" height="417" viewBox="0 0 135 417" fill="none" xmlns="http://www.w3.org/2000/svg">
<path d="M61.5223 182.58H54.873V189.228H61.5223V182.58Z" fill="#E5ECEC"/>
<path d="M61.5223 209.104H54.873V215.752H61.5223V209.104Z" fill="#E5ECEC"/>
<path d="M61.5223 195.809H54.873V202.457H61.5223V195.809Z" fill="#E5ECEC"/>
<path d="M61.5223 189.161H54.873V195.809H61.5223V189.161Z" fill="#E5ECEC"/>
<path d="M61.5223 175.932H54.873V182.58H61.5223V175.932Z" fill="#E5ECEC"/>
<path d="M61.5223 162.637H54.873V169.285H61.5223V162.637Z" fill="#E5ECEC"/>
<path d="M61.5223 202.457H54.873V209.104H61.5223V202.457Z" fill="#E5ECEC"/>
<path d="M61.5223 169.285H54.873V175.932H61.5223V169.285Z" fill="#E5ECEC"/>
<path d="M54.8731 189.161H48.2239V195.809H54.8731V189.161Z" fill="#E5ECEC"/>
<path d="M54.8731 156.056H48.2239V162.704H54.8731V156.056Z" fill="#E5ECEC"/>
<path d="M54.8731 209.104H48.2239V215.752H54.8731V209.104Z" fill="#E5ECEC"/>
<path d="M54.8731 195.809H48.2239V202.457H54.8731V195.809Z" fill="#E5ECEC"/>
<path d="M54.8731 169.285H48.2239V175.932H54.8731V169.285Z" fill="#E5ECEC"/>
<path d="M54.8731 162.637H48.2239V169.285H54.8731V162.637Z" fill="#E5ECEC"/>
<path d="M54.8731 182.58H48.2239V189.228H54.8731V182.58Z" fill="#E5ECEC"/>
<path d="M54.8731 175.932H48.2239V182.58H54.8731V175.932Z" fill="#E5ECEC"/>
<path d="M54.8731 202.457H48.2239V209.104H54.8731V202.457Z" fill="#E5ECEC"/>
<path d="M68.1046 189.161H61.4553V195.809H68.1046V189.161Z" fill="#E5ECEC"/>
<path d="M68.1046 209.104H61.4553V215.752H68.1046V209.104Z" fill="#E5ECEC"/>
<path d="M68.1046 162.637H61.4553V169.285H68.1046V162.637Z" fill="#E5ECEC"/>
<path d="M68.1046 182.58H61.4553V189.228H68.1046V182.58Z" fill="#E5ECEC"/>
<path d="M68.1046 202.457H61.4553V209.104H68.1046V202.457Z" fill="#E5ECEC"/>
<path d="M68.1046 175.932H61.4553V182.58H68.1046V175.932Z" fill="#E5ECEC"/>
<path d="M68.1046 169.285H61.4553V175.932H68.1046V169.285Z" fill="#E5ECEC"/>
<path d="M68.1046 195.809H61.4553V202.457H68.1046V195.809Z" fill="#E5ECEC"/>
<path d="M68.1046 96.36H61.4553V103.008H68.1046V96.36Z" fill="#E5ECEC"/>
<path d="M68.1046 109.588H61.4553V116.236H68.1046V109.588Z" fill="#E5ECEC"/>
<path d="M68.1046 102.941H61.4553V109.588H68.1046V102.941Z" fill="#E5ECEC"/>
<path d="M61.5223 156.056H54.873V162.704H61.5223V156.056Z" fill="#E5ECEC"/>
<path d="M61.5223 122.884H54.873V129.532H61.5223V122.884Z" fill="#E5ECEC"/>
<path d="M61.5223 102.941H54.873V109.588H61.5223V102.941Z" fill="#E5ECEC"/>
<path d="M61.5223 149.408H54.873V156.056H61.5223V149.408Z" fill="#E5ECEC"/>
<path d="M61.5223 136.113H54.873V142.76H61.5223V136.113Z" fill="#E5ECEC"/>
<path d="M61.5223 109.588H54.873V116.236H61.5223V109.588Z" fill="#E5ECEC"/>
<path d="M61.5223 129.465H54.873V136.113H61.5223V129.465Z" fill="#E5ECEC"/>
<path d="M61.5223 142.76H54.873V149.408H61.5223V142.76Z" fill="#E5ECEC"/>
<path d="M61.5223 116.236H54.873V122.884H61.5223V116.236Z" fill="#E5ECEC"/>
<path d="M61.5223 96.36H54.873V103.008H61.5223V96.36Z" fill="#E5ECEC"/>
<path d="M74.7538 102.941H68.1045V109.588H74.7538V102.941Z" fill="#E5ECEC"/>
<path d="M74.7538 142.76H68.1045V149.408H74.7538V142.76Z" fill="#E5ECEC"/>
<path d="M74.7538 136.113H68.1045V142.76H74.7538V136.113Z" fill="#E5ECEC"/>
<path d="M74.7538 109.588H68.1045V116.236H74.7538V109.588Z" fill="#E5ECEC"/>
<path d="M74.7538 122.884H68.1045V129.532H74.7538V122.884Z" fill="#E5ECEC"/>
<path d="M74.7538 149.408H68.1045V156.056H74.7538V149.408Z" fill="#E5ECEC"/>
<path d="M74.7538 96.36H68.1045V103.008H74.7538V96.36Z" fill="#E5ECEC"/>
<path d="M74.7538 129.465H68.1045V136.113H74.7538V129.465Z" fill="#E5ECEC"/>
<path d="M74.7538 156.056H68.1045V162.704H74.7538V156.056Z" fill="#E5ECEC"/>
<path d="M74.7538 116.236H68.1045V122.884H74.7538V116.236Z" fill="#E5ECEC"/>
<path d="M68.1046 156.056H61.4553V162.704H68.1046V156.056Z" fill="#E5ECEC"/>
<path d="M68.1046 142.76H61.4553V149.408H68.1046V142.76Z" fill="#E5ECEC"/>
<path d="M68.1046 122.884H61.4553V129.532H68.1046V122.884Z" fill="#E5ECEC"/>
<path d="M68.1046 149.408H61.4553V156.056H68.1046V149.408Z" fill="#E5ECEC"/>
<path d="M68.1046 136.113H61.4553V142.76H68.1046V136.113Z" fill="#E5ECEC"/>
<path d="M68.1046 116.236H61.4553V122.884H68.1046V116.236Z" fill="#E5ECEC"/>
<path d="M68.1046 129.465H61.4553V136.113H68.1046V129.465Z" fill="#E5ECEC"/>
<path d="M127.814 169.285H121.164V175.932H127.814V169.285Z" fill="#C7B5A6"/>
<path d="M127.814 162.637H121.164V169.285H127.814V162.637Z" fill="#C7B5A6"/>
<path d="M127.814 156.056H121.164V162.704H127.814V156.056Z" fill="#E0C9B6"/>
<path d="M127.814 149.408H121.164V156.056H127.814V149.408Z" fill="#404949"/>
<path d="M127.814 142.76H121.164V149.408H127.814V142.76Z" fill="#404949"/>
<path d="M127.814 136.113H121.164V142.76H127.814V136.113Z" fill="#404949"/>
<path d="M127.814 129.465H121.164V136.113H127.814V129.465Z" fill="#404949"/>
<path d="M127.814 122.884H121.164V129.532H127.814V122.884Z" fill="#404949"/>
<path d="M121.231 175.932H114.582V182.58H121.231V175.932Z" fill="#E0C9B6"/>
<path d="M121.231 169.285H114.582V175.932H121.231V169.285Z" fill="#E0C9B6"/>
<path d="M121.231 162.637H114.582V169.285H121.231V162.637Z" fill="#E0C9B6"/>
<path d="M121.231 156.056H114.582V162.704H121.231V156.056Z" fill="#E0C9B6"/>
<path d="M121.231 149.408H114.582V156.056H121.231V149.408Z" fill="#404949"/>
<path d="M121.231 142.76H114.582V149.408H121.231V142.76Z" fill="#404949"/>
<path d="M121.231 136.113H114.582V142.76H121.231V136.113Z" fill="#404949"/>
<path d="M121.231 129.465H114.582V136.113H121.231V129.465Z" fill="#404949"/>
<path d="M121.231 122.884H114.582V129.532H121.231V122.884Z" fill="#404949"/>
<path d="M121.231 116.236H114.582V122.884H121.231V116.236Z" fill="#404949"/>
<path d="M121.231 109.588H114.582V116.236H121.231V109.588Z" fill="#404949"/>
<path d="M114.582 182.58H107.933V189.228H114.582V182.58Z" fill="#E0C9B6"/>
<path d="M114.582 175.932H107.933V182.58H114.582V175.932Z" fill="#E0C9B6"/>
<path d="M114.582 169.285H107.933V175.932H114.582V169.285Z" fill="#E0C9B6"/>
<path d="M114.582 142.76H107.933V149.408H114.582V142.76Z" fill="#4B5353"/>
<path d="M114.582 136.113H107.933V142.76H114.582V136.113Z" fill="#4B5353"/>
<path d="M114.582 129.465H107.933V136.113H114.582V129.465Z" fill="#4B5353"/>
<path d="M114.582 122.884H107.933V129.532H114.582V122.884Z" fill="#4B5353"/>
<path d="M114.582 116.236H107.933V122.884H114.582V116.236Z" fill="#4B5353"/>
<path d="M114.582 109.588H107.933V116.236H114.582V109.588Z" fill="#404949"/>
<path d="M114.582 102.941H107.933V109.588H114.582V102.941Z" fill="#404949"/>
<path d="M107.933 401.421H101.283V408.069H107.933V401.421Z" fill="#D2D9D9"/>
<path d="M107.933 394.773H101.283V401.421H107.933V394.773Z" fill="#757777"/>
<path d="M107.933 248.857H101.283V255.505H107.933V248.857Z" fill="#4A5D5D"/>
<path d="M107.933 242.276H101.283V248.924H107.933V242.276Z" fill="#4A5D5D"/>
<path d="M107.933 235.629H101.283V242.276H107.933V235.629Z" fill="#566C6C"/>
<path d="M107.933 228.981H101.283V235.629H107.933V228.981Z" fill="#566C6C"/>
<path d="M107.933 222.333H101.283V228.981H107.933V222.333Z" fill="#566C6C"/>
<path d="M107.933 215.685H101.283V222.333H107.933V215.685Z" fill="#566C6C"/>
<path d="M107.933 209.104H101.283V215.752H107.933V209.104Z" fill="#4B5353"/>
<path d="M107.933 202.457H101.283V209.104H107.933V202.457Z" fill="#4B5353"/>
<path d="M107.933 195.809H101.283V202.457H107.933V195.809Z" fill="#4B5353"/>
<path d="M107.933 189.161H101.283V195.809H107.933V189.161Z" fill="#4B5353"/>
<path d="M107.933 182.58H101.283V189.228H107.933V182.58Z" fill="#4B5353"/>
<path d="M107.933 175.932H101.283V182.58H107.933V175.932Z" fill="#4B5353"/>
<path d="M107.933 169.285H101.283V175.932H107.933V169.285Z" fill="#4B5353"/>
<path d="M107.933 162.637H101.283V169.285H107.933V162.637Z" fill="#4B5353"/>
<path d="M107.933 156.056H101.283V162.704H107.933V156.056Z" fill="#4B5353"/>
<path d="M107.933 149.408H101.283V156.056H107.933V149.408Z" fill="#4B5353"/>
<path d="M107.933 142.76H101.283V149.408H107.933V142.76Z" fill="#4B5353"/>
<path d="M107.933 136.113H101.283V142.76H107.933V136.113Z" fill="#4B5353"/>
<path d="M107.933 129.465H101.283V136.113H107.933V129.465Z" fill="#4B5353"/>
<path d="M107.933 122.884H101.283V129.532H107.933V122.884Z" fill="#4B5353"/>
<path d="M107.933 116.236H101.283V122.884H107.933V116.236Z" fill="#4B5353"/>
<path d="M107.933 109.588H101.283V116.236H107.933V109.588Z" fill="#4B5353"/>
<path d="M107.933 102.941H101.283V109.588H107.933V102.941Z" fill="#404949"/>
<path d="M107.933 96.36H101.283V103.008H107.933V96.36Z" fill="#404949"/>
<path d="M101.284 401.421H94.6343V408.069H101.284V401.421Z" fill="#D2D9D9"/>
<path d="M101.284 394.773H94.6343V401.421H101.284V394.773Z" fill="#757777"/>
<path d="M101.284 388.126H94.6343V394.774H101.284V388.126Z" fill="#9EA1A1"/>
<path d="M101.284 381.545H94.6343V388.193H101.284V381.545Z" fill="#4A5D5D"/>
<path d="M101.284 374.897H94.6343V381.545H101.284V374.897Z" fill="#4A5D5D"/>
<path d="M101.284 368.249H94.6343V374.897H101.284V368.249Z" fill="#4A5D5D"/>
<path d="M101.284 361.602H94.6343V368.249H101.284V361.602Z" fill="#4A5D5D"/>
<path d="M101.284 355.021H94.6343V361.669H101.284V355.021Z" fill="#4A5D5D"/>
<path d="M101.284 348.373H94.6343V355.021H101.284V348.373Z" fill="#4A5D5D"/>
<path d="M101.284 341.725H94.6343V348.373H101.284V341.725Z" fill="#4A5D5D"/>
<path d="M101.284 335.077H94.6343V341.725H101.284V335.077Z" fill="#4A5D5D"/>
<path d="M101.284 328.43H94.6343V335.077H101.284V328.43Z" fill="#4A5D5D"/>
<path d="M101.284 321.849H94.6343V328.497H101.284V321.849Z" fill="#566C6C"/>
<path d="M101.284 315.201H94.6343V321.849H101.284V315.201Z" fill="#566C6C"/>
<path d="M101.284 308.553H94.6343V315.201H101.284V308.553Z" fill="#566C6C"/>
<path d="M101.284 301.905H94.6343V308.553H101.284V301.905Z" fill="#566C6C"/>
<path d="M101.284 295.325H94.6343V301.973H101.284V295.325Z" fill="#4A5D5D"/>
<path d="M101.284 288.677H94.6343V295.325H101.284V288.677Z" fill="#4A5D5D"/>
<path d="M101.284 282.029H94.6343V288.677H101.284V282.029Z" fill="#4A5D5D"/>
<path d="M101.284 275.381H94.6343V282.029H101.284V275.381Z" fill="#4A5D5D"/>
<path d="M101.284 268.801H94.6343V275.448H101.284V268.801Z" fill="#4A5D5D"/>
<path d="M101.284 262.153H94.6343V268.801H101.284V262.153Z" fill="#4A5D5D"/>
<path d="M101.284 255.505H94.6343V262.153H101.284V255.505Z" fill="#4A5D5D"/>
<path d="M101.284 248.857H94.6343V255.505H101.284V248.857Z" fill="#4A5D5D"/>
<path d="M101.284 242.276H94.6343V248.924H101.284V242.276Z" fill="#4A5D5D"/>
<path d="M101.284 235.629H94.6343V242.276H101.284V235.629Z" fill="#4A5D5D"/>
<path d="M101.284 228.981H94.6343V235.629H101.284V228.981Z" fill="#566C6C"/>
<path d="M101.284 222.333H94.6343V228.981H101.284V222.333Z" fill="#566C6C"/>
<path d="M101.284 215.685H94.6343V222.333H101.284V215.685Z" fill="#566C6C"/>
<path d="M101.284 209.104H94.6343V215.752H101.284V209.104Z" fill="#4B5353"/>
<path d="M101.284 202.457H94.6343V209.104H101.284V202.457Z" fill="#4B5353"/>
<path d="M101.284 195.809H94.6343V202.457H101.284V195.809Z" fill="#4B5353"/>
<path d="M101.284 189.161H94.6343V195.809H101.284V189.161Z" fill="#4B5353"/>
<path d="M101.284 182.58H94.6343V189.228H101.284V182.58Z" fill="#4B5353"/>
<path d="M101.284 175.932H94.6343V182.58H101.284V175.932Z" fill="#4B5353"/>
<path d="M101.284 169.285H94.6343V175.932H101.284V169.285Z" fill="#4B5353"/>
<path d="M101.284 162.637H94.6343V169.285H101.284V162.637Z" fill="#4B5353"/>
<path d="M101.284 156.056H94.6343V162.704H101.284V156.056Z" fill="#4B5353"/>
<path d="M101.284 149.408H94.6343V156.056H101.284V149.408Z" fill="#4B5353"/>
<path d="M101.284 142.76H94.6343V149.408H101.284V142.76Z" fill="#4B5353"/>
<path d="M101.284 136.113H94.6343V142.76H101.284V136.113Z" fill="#4B5353"/>
<path d="M101.284 129.465H94.6343V136.113H101.284V129.465Z" fill="#4B5353"/>
<path d="M101.284 122.884H94.6343V129.532H101.284V122.884Z" fill="#4B5353"/>
<path d="M101.284 116.236H94.6343V122.884H101.284V116.236Z" fill="#4B5353"/>
<path d="M101.284 109.588H94.6343V116.236H101.284V109.588Z" fill="#4B5353"/>
<path d="M101.284 102.941H94.6343V109.588H101.284V102.941Z" fill="#4B5353"/>
<path d="M101.284 96.36H94.6343V103.008H101.284V96.36Z" fill="#404949"/>
<path d="M94.7015 401.421H88.0522V408.069H94.7015V401.421Z" fill="#D2D9D9"/>
<path d="M94.7015 394.773H88.0522V401.421H94.7015V394.773Z" fill="#757777"/>
<path d="M94.7015 388.126H88.0522V394.774H94.7015V388.126Z" fill="#9EA1A1"/>
<path d="M94.7015 381.545H88.0522V388.193H94.7015V381.545Z" fill="#465858"/>
<path d="M94.7015 374.897H88.0522V381.545H94.7015V374.897Z" fill="#465858"/>
<path d="M94.7015 368.249H88.0522V374.897H94.7015V368.249Z" fill="#465858"/>
<path d="M94.7015 361.602H88.0522V368.249H94.7015V361.602Z" fill="#465858"/>
<path d="M94.7015 355.021H88.0522V361.669H94.7015V355.021Z" fill="#465858"/>
<path d="M94.7015 348.373H88.0522V355.021H94.7015V348.373Z" fill="#465858"/>
<path d="M94.7015 341.725H88.0522V348.373H94.7015V341.725Z" fill="#465858"/>
<path d="M94.7015 335.077H88.0522V341.725H94.7015V335.077Z" fill="#465858"/>
<path d="M94.7015 328.43H88.0522V335.077H94.7015V328.43Z" fill="#465858"/>
<path d="M94.7015 321.849H88.0522V328.497H94.7015V321.849Z" fill="#465858"/>
<path d="M94.7015 315.201H88.0522V321.849H94.7015V315.201Z" fill="#465858"/>
<path d="M94.7015 308.553H88.0522V315.201H94.7015V308.553Z" fill="#465858"/>
<path d="M94.7015 301.905H88.0522V308.553H94.7015V301.905Z" fill="#465858"/>
<path d="M94.7015 295.325H88.0522V301.973H94.7015V295.325Z" fill="#465858"/>
<path d="M94.7015 288.677H88.0522V295.325H94.7015V288.677Z" fill="#465858"/>
<path d="M94.7015 282.029H88.0522V288.677H94.7015V282.029Z" fill="#465858"/>
<path d="M94.7015 275.381H88.0522V282.029H94.7015V275.381Z" fill="#465858"/>
<path d="M94.7015 268.801H88.0522V275.448H94.7015V268.801Z" fill="#465858"/>
<path d="M94.7015 262.153H88.0522V268.801H94.7015V262.153Z" fill="#465858"/>
<path d="M94.7015 255.505H88.0522V262.153H94.7015V255.505Z" fill="#465858"/>
<path d="M94.7015 248.857H88.0522V255.505H94.7015V248.857Z" fill="#465858"/>
<path d="M94.7015 242.276H88.0522V248.924H94.7015V242.276Z" fill="#4A5D5D"/>
<path d="M94.7015 235.629H88.0522V242.276H94.7015V235.629Z" fill="#4A5D5D"/>
<path d="M94.7015 228.981H88.0522V235.629H94.7015V228.981Z" fill="#4A5D5D"/>
<path d="M94.7015 222.333H88.0522V228.981H94.7015V222.333Z" fill="#4A5D5D"/>
<path d="M94.7015 215.685H88.0522V222.333H94.7015V215.685Z" fill="#4A5D5D"/>
<path d="M94.7015 209.104H88.0522V215.752H94.7015V209.104Z" fill="#4B5353"/>
<path d="M94.7015 202.457H88.0522V209.104H94.7015V202.457Z" fill="#4B5353"/>
<path d="M94.7015 195.809H88.0522V202.457H94.7015V195.809Z" fill="#4B5353"/>
<path d="M94.7015 189.161H88.0522V195.809H94.7015V189.161Z" fill="#4B5353"/>
<path d="M94.7015 182.58H88.0522V189.228H94.7015V182.58Z" fill="#4B5353"/>
<path d="M94.7015 175.932H88.0522V182.58H94.7015V175.932Z" fill="#4B5353"/>
<path d="M94.7015 169.285H88.0522V175.932H94.7015V169.285Z" fill="#515959"/>
<path d="M94.7015 162.637H88.0522V169.285H94.7015V162.637Z" fill="#515959"/>
<path d="M94.7015 156.056H88.0522V162.704H94.7015V156.056Z" fill="#515959"/>
<path d="M94.7015 149.408H88.0522V156.056H94.7015V149.408Z" fill="#515959"/>
<path d="M94.7015 142.76H88.0522V149.408H94.7015V142.76Z" fill="#515959"/>
<path d="M94.7015 136.113H88.0522V142.76H94.7015V136.113Z" fill="#515959"/>
<path d="M94.7015 129.465H88.0522V136.113H94.7015V129.465Z" fill="#515959"/>
<path d="M94.7015 122.884H88.0522V129.532H94.7015V122.884Z" fill="#515959"/>
<path d="M94.7015 116.236H88.0522V122.884H94.7015V116.236Z" fill="#515959"/>
<path d="M94.7015 109.588H88.0522V116.236H94.7015V109.588Z" fill="#97A5A4"/>
<path d="M94.7015 102.941H88.0522V109.588H94.7015V102.941Z" fill="#97A5A4"/>
<path d="M94.7015 96.36H88.0522V103.008H94.7015V96.36Z" fill="#404949"/>
<path d="M94.7015 89.7122H88.0522V96.36H94.7015V89.7122Z" fill="#404949"/>
<path d="M94.7015 63.188H88.0522V69.8358H94.7015V63.188Z" fill="#49443E"/>
<path d="M94.7015 56.5402H88.0522V63.188H94.7015V56.5402Z" fill="#49443E"/>
<path d="M94.7015 49.8923H88.0522V56.5402H94.7015V49.8923Z" fill="#433E38"/>
<path d="M94.7015 43.2445H88.0522V49.8923H94.7015V43.2445Z" fill="#433E38"/>
<path d="M94.7015 36.6638H88.0522V43.3117H94.7015V36.6638Z" fill="#554F46"/>
<path d="M94.7015 30.016H88.0522V36.6638H94.7015V30.016Z" fill="#554F46"/>
<path d="M88.0523 401.421H81.4031V408.069H88.0523V401.421Z" fill="#D2D9D9"/>
<path d="M88.0523 394.773H81.4031V401.421H88.0523V394.773Z" fill="#656666"/>
<path d="M88.0523 388.126H81.4031V394.774H88.0523V388.126Z" fill="#828383"/>
<path d="M88.0523 381.545H81.4031V388.193H88.0523V381.545Z" fill="#435252"/>
<path d="M88.0523 374.897H81.4031V381.545H88.0523V374.897Z" fill="#435252"/>
<path d="M88.0523 368.249H81.4031V374.897H88.0523V368.249Z" fill="#435252"/>
<path d="M88.0523 361.602H81.4031V368.249H88.0523V361.602Z" fill="#435252"/>
<path d="M88.0523 355.021H81.4031V361.669H88.0523V355.021Z" fill="#435252"/>
<path d="M88.0523 348.373H81.4031V355.021H88.0523V348.373Z" fill="#435252"/>
<path d="M88.0523 341.725H81.4031V348.373H88.0523V341.725Z" fill="#435252"/>
<path d="M88.0523 335.077H81.4031V341.725H88.0523V335.077Z" fill="#435252"/>
<path d="M88.0523 328.43H81.4031V335.077H88.0523V328.43Z" fill="#435252"/>
<path d="M88.0523 321.849H81.4031V328.497H88.0523V321.849Z" fill="#435252"/>
<path d="M88.0523 315.201H81.4031V321.849H88.0523V315.201Z" fill="#435252"/>
<path d="M88.0523 308.553H81.4031V315.201H88.0523V308.553Z" fill="#435252"/>
<path d="M88.0523 301.905H81.4031V308.553H88.0523V301.905Z" fill="#435252"/>
<path d="M88.0523 295.325H81.4031V301.973H88.0523V295.325Z" fill="#435252"/>
<path d="M88.0523 288.677H81.4031V295.325H88.0523V288.677Z" fill="#435252"/>
<path d="M88.0523 282.029H81.4031V288.677H88.0523V282.029Z" fill="#435252"/>
<path d="M88.0523 275.381H81.4031V282.029H88.0523V275.381Z" fill="#435252"/>
<path d="M88.0523 268.801H81.4031V275.448H88.0523V268.801Z" fill="#435252"/>
<path d="M88.0523 262.153H81.4031V268.801H88.0523V262.153Z" fill="#435252"/>
<path d="M88.0523 255.505H81.4031V262.153H88.0523V255.505Z" fill="#435252"/>
<path d="M88.0523 248.857H81.4031V255.505H88.0523V248.857Z" fill="#435252"/>
<path d="M88.0523 242.276H81.4031V248.924H88.0523V242.276Z" fill="#465858"/>
<path d="M88.0523 235.629H81.4031V242.276H88.0523V235.629Z" fill="#4A5D5D"/>
<path d="M88.0523 228.981H81.4031V235.629H88.0523V228.981Z" fill="#4A5D5D"/>
<path d="M88.0523 222.333H81.4031V228.981H88.0523V222.333Z" fill="#4A5D5D"/>
<path d="M88.0523 215.685H81.4031V222.333H88.0523V215.685Z" fill="#4A5D5D"/>
<path d="M88.0523 209.104H81.4031V215.752H88.0523V209.104Z" fill="#515959"/>
<path d="M88.0523 202.457H81.4031V209.104H88.0523V202.457Z" fill="#515959"/>
<path d="M88.0523 195.809H81.4031V202.457H88.0523V195.809Z" fill="#515959"/>
<path d="M88.0523 189.161H81.4031V195.809H88.0523V189.161Z" fill="#515959"/>
<path d="M88.0523 182.58H81.4031V189.228H88.0523V182.58Z" fill="#515959"/>
<path d="M88.0523 175.932H81.4031V182.58H88.0523V175.932Z" fill="#515959"/>
<path d="M88.0523 169.285H81.4031V175.932H88.0523V169.285Z" fill="#515959"/>
<path d="M88.0523 162.637H81.4031V169.285H88.0523V162.637Z" fill="#515959"/>
<path d="M88.0523 156.056H81.4031V162.704H88.0523V156.056Z" fill="#515959"/>
<path d="M88.0523 149.408H81.4031V156.056H88.0523V149.408Z" fill="#515959"/>
<path d="M88.0523 142.76H81.4031V149.408H88.0523V142.76Z" fill="#515959"/>
<path d="M88.0523 136.113H81.4031V142.76H88.0523V136.113Z" fill="#515959"/>
<path d="M88.0523 129.465H81.4031V136.113H88.0523V129.465Z" fill="#515959"/>
<path d="M88.0523 122.884H81.4031V129.532H88.0523V122.884Z" fill="#515959"/>
<path d="M88.0523 116.236H81.4031V122.884H88.0523V116.236Z" fill="#97A5A4"/>
<path d="M88.0523 109.588H81.4031V116.236H88.0523V109.588Z" fill="#778080"/>
<path d="M88.0523 102.941H81.4031V109.588H88.0523V102.941Z" fill="#8B9796"/>
<path d="M88.0523 96.36H81.4031V103.008H88.0523V96.36Z" fill="#97A5A4"/>
<path d="M88.0523 89.7122H81.4031V96.36H88.0523V89.7122Z" fill="#8B9796"/>
<path d="M88.0523 83.0643H81.4031V89.7122H88.0523V83.0643Z" fill="#778080"/>
<path d="M88.0523 76.4165H81.4031V83.0643H88.0523V76.4165Z" fill="#433E38"/>
<path d="M88.0523 69.8358H81.4031V76.4837H88.0523V69.8358Z" fill="#433E38"/>
<path d="M88.0523 63.188H81.4031V69.8358H88.0523V63.188Z" fill="#433E38"/>
<path d="M88.0523 56.5402H81.4031V63.188H88.0523V56.5402Z" fill="#433E38"/>
<path d="M88.0523 49.8923H81.4031V56.5402H88.0523V49.8923Z" fill="#DBC5B4"/>
<path d="M88.0523 43.2445H81.4031V49.8923H88.0523V43.2445Z" fill="#DBC5B4"/>
<path d="M88.0523 36.6638H81.4031V43.3117H88.0523V36.6638Z" fill="#554F46"/>
<path d="M88.0523 30.016H81.4031V36.6638H88.0523V30.016Z" fill="#554F46"/>
<path d="M88.0523 23.3682H81.4031V30.016H88.0523V23.3682Z" fill="#554F46"/>
<path d="M88.0523 16.7203H81.4031V23.3682H88.0523V16.7203Z" fill="#615A50"/>
<path d="M81.4029 255.505H74.7537V262.153H81.4029V255.505Z" fill="#435252"/>
<path d="M81.4029 248.857H74.7537V255.505H81.4029V248.857Z" fill="#435252"/>
<path d="M81.4029 242.276H74.7537V248.924H81.4029V242.276Z" fill="#435252"/>
<path d="M81.4029 235.629H74.7537V242.276H81.4029V235.629Z" fill="#465858"/>
<path d="M81.4029 228.981H74.7537V235.629H81.4029V228.981Z" fill="#4A5D5D"/>
<path d="M81.4029 222.333H74.7537V228.981H81.4029V222.333Z" fill="#4A5D5D"/>
<path d="M81.4029 215.685H74.7537V222.333H81.4029V215.685Z" fill="#4A5D5D"/>
<path d="M81.4029 209.104H74.7537V215.752H81.4029V209.104Z" fill="#515959"/>
<path d="M81.4029 202.457H74.7537V209.104H81.4029V202.457Z" fill="#515959"/>
<path d="M81.4029 195.809H74.7537V202.457H81.4029V195.809Z" fill="#515959"/>
<path d="M81.4029 189.161H74.7537V195.809H81.4029V189.161Z" fill="#515959"/>
<path d="M81.4029 182.58H74.7537V189.228H81.4029V182.58Z" fill="#515959"/>
<path d="M81.4029 175.932H74.7537V182.58H81.4029V175.932Z" fill="#515959"/>
<path d="M81.4029 169.285H74.7537V175.932H81.4029V169.285Z" fill="#515959"/>
<path d="M81.4029 162.637H74.7537V169.285H81.4029V162.637Z" fill="#515959"/>
<path d="M81.4029 156.056H74.7537V162.704H81.4029V156.056Z" fill="#515959"/>
<path d="M81.4029 149.408H74.7537V156.056H81.4029V149.408Z" fill="#515959"/>
<path d="M81.4029 142.76H74.7537V149.408H81.4029V142.76Z" fill="#515959"/>
<path d="M81.4029 136.113H74.7537V142.76H81.4029V136.113Z" fill="#515959"/>
<path d="M81.4029 129.465H74.7537V136.113H81.4029V129.465Z" fill="#515959"/>
<path d="M81.4029 122.884H74.7537V129.532H81.4029V122.884Z" fill="#515959"/>
<path d="M81.4029 116.236H74.7537V122.884H81.4029V116.236Z" fill="#515959"/>
<path d="M81.4029 109.588H74.7537V116.236H81.4029V109.588Z" fill="#97A5A4"/>
<path d="M81.4029 102.941H74.7537V109.588H81.4029V102.941Z" fill="#97A5A4"/>
<path d="M81.4029 96.36H74.7537V103.008H81.4029V96.36Z" fill="#515959"/>
<path d="M81.4029 89.7122H74.7537V96.36H81.4029V89.7122Z" fill="#EFDBCB"/>
<path d="M81.4029 83.0643H74.7537V89.7122H81.4029V83.0643Z" fill="#433E38"/>
<path d="M81.4029 76.4165H74.7537V83.0643H81.4029V76.4165Z" fill="#433E38"/>
<path d="M81.4029 69.8358H74.7537V76.4837H81.4029V69.8358Z" fill="#433E38"/>
<path d="M81.4029 63.188H74.7537V69.8358H81.4029V63.188Z" fill="#BEAA9A"/>
<path d="M81.4029 56.5402H74.7537V63.188H81.4029V56.5402Z" fill="#DBC5B4"/>
<path d="M81.4029 49.8923H74.7537V56.5402H81.4029V49.8923Z" fill="#DBC5B4"/>
<path d="M81.4029 43.2445H74.7537V49.8923H81.4029V43.2445Z" fill="#EFDBCB"/>
<path d="M81.4029 36.6638H74.7537V43.3117H81.4029V36.6638Z" fill="#433E38"/>
<path d="M81.4029 30.016H74.7537V36.6638H81.4029V30.016Z" fill="#554F46"/>
<path d="M81.4029 23.3682H74.7537V30.016H81.4029V23.3682Z" fill="#554F46"/>
<path d="M81.4029 16.7203H74.7537V23.3682H81.4029V16.7203Z" fill="#554F46"/>
<path d="M81.4029 10.1396H74.7537V16.7875H81.4029V10.1396Z" fill="#615A50"/>
<path d="M74.7538 242.276H68.1045V248.924H74.7538V242.276Z" fill="#435252"/>
<path d="M74.7538 235.629H68.1045V242.276H74.7538V235.629Z" fill="#465858"/>
<path d="M74.7538 228.981H68.1045V235.629H74.7538V228.981Z" fill="#4A5D5D"/>
<path d="M74.7538 222.333H68.1045V228.981H74.7538V222.333Z" fill="#4A5D5D"/>
<path d="M74.7538 215.685H68.1045V222.333H74.7538V215.685Z" fill="#4A5D5D"/>
<path d="M74.7538 209.104H68.1045V215.752H74.7538V209.104Z" fill="#515959"/>
<path d="M74.7538 202.457H68.1045V209.104H74.7538V202.457Z" fill="#515959"/>
<path d="M74.7538 195.809H68.1045V202.457H74.7538V195.809Z" fill="#515959"/>
<path d="M74.7538 189.161H68.1045V195.809H74.7538V189.161Z" fill="#515959"/>
<path d="M74.7538 182.58H68.1045V189.228H74.7538V182.58Z" fill="#515959"/>
<path d="M74.7538 175.932H68.1045V182.58H74.7538V175.932Z" fill="#515959"/>
<path d="M74.7538 169.285H68.1045V175.932H74.7538V169.285Z" fill="#515959"/>
<path d="M74.7538 162.637H68.1045V169.285H74.7538V162.637Z" fill="#515959"/>
<path d="M74.7538 89.7122H68.1045V96.36H74.7538V89.7122Z" fill="#EFDBCB"/>
<path d="M74.7538 83.0643H68.1045V89.7122H74.7538V83.0643Z" fill="#E0C9B6"/>
<path d="M74.7538 76.4165H68.1045V83.0643H74.7538V76.4165Z" fill="#E0C9B6"/>
<path d="M74.7538 69.8358H68.1045V76.4837H74.7538V69.8358Z" fill="#BEAA9A"/>
<path d="M74.7538 63.188H68.1045V69.8358H74.7538V63.188Z" fill="#DBC5B4"/>
<path d="M74.7538 56.5402H68.1045V63.188H74.7538V56.5402Z" fill="#DBC5B4"/>
<path d="M74.7538 49.8923H68.1045V56.5402H74.7538V49.8923Z" fill="#DBC5B4"/>
<path d="M74.7538 43.2445H68.1045V49.8923H74.7538V43.2445Z" fill="white"/>
<path d="M74.7538 36.6638H68.1045V43.3117H74.7538V36.6638Z" fill="#A89688"/>
<path d="M74.7538 30.016H68.1045V36.6638H74.7538V30.016Z" fill="#433E38"/>
<path d="M74.7538 23.3682H68.1045V30.016H74.7538V23.3682Z" fill="#554F46"/>
<path d="M74.7538 16.7203H68.1045V23.3682H74.7538V16.7203Z" fill="#554F46"/>
<path d="M74.7538 10.1396H68.1045V16.7875H74.7538V10.1396Z" fill="#615A50"/>
<path d="M68.1046 242.276H61.4553V248.924H68.1046V242.276Z" fill="#435252"/>
<path d="M68.1046 235.629H61.4553V242.276H68.1046V235.629Z" fill="#465858"/>
<path d="M68.1046 228.981H61.4553V235.629H68.1046V228.981Z" fill="#4A5D5D"/>
<path d="M68.1046 222.333H61.4553V228.981H68.1046V222.333Z" fill="#4A5D5D"/>
<path d="M68.1046 215.685H61.4553V222.333H68.1046V215.685Z" fill="#4A5D5D"/>
<path d="M68.1046 89.7122H61.4553V96.36H68.1046V89.7122Z" fill="#E0C9B6"/>
<path d="M68.1046 83.0643H61.4553V89.7122H68.1046V83.0643Z" fill="#E0C9B6"/>
<path d="M68.1046 76.4165H61.4553V83.0643H68.1046V76.4165Z" fill="#BEAA9A"/>
<path d="M68.1046 69.8358H61.4553V76.4837H68.1046V69.8358Z" fill="#DBC5B4"/>
<path d="M68.1046 63.188H61.4553V69.8358H68.1046V63.188Z" fill="#D3B49B"/>
<path d="M68.1046 56.5402H61.4553V63.188H68.1046V56.5402Z" fill="#DBC5B4"/>
<path d="M68.1046 49.8923H61.4553V56.5402H68.1046V49.8923Z" fill="#DBC5B4"/>
<path d="M68.1046 43.2445H61.4553V49.8923H68.1046V43.2445Z" fill="#7E8470"/>
<path d="M68.1046 36.6638H61.4553V43.3117H68.1046V36.6638Z" fill="#A89688"/>
<path d="M68.1046 30.016H61.4553V36.6638H68.1046V30.016Z" fill="#EFDBCB"/>
<path d="M68.1046 23.3682H61.4553V30.016H68.1046V23.3682Z" fill="#554F46"/>
<path d="M68.1046 16.7203H61.4553V23.3682H68.1046V16.7203Z" fill="#554F46"/>
<path d="M68.1046 10.1396H61.4553V16.7875H68.1046V10.1396Z" fill="#554F46"/>
<path d="M61.5223 242.276H54.873V248.924H61.5223V242.276Z" fill="#435252"/>
<path d="M61.5223 235.629H54.873V242.276H61.5223V235.629Z" fill="#465858"/>
<path d="M61.5223 228.981H54.873V235.629H61.5223V228.981Z" fill="#4A5D5D"/>
<path d="M61.5223 222.333H54.873V228.981H61.5223V222.333Z" fill="#4A5D5D"/>
<path d="M61.5223 215.685H54.873V222.333H61.5223V215.685Z" fill="#4A5D5D"/>
<path d="M61.5223 89.7122H54.873V96.36H61.5223V89.7122Z" fill="#CDB8A7"/>
<path d="M61.5223 83.0643H54.873V89.7122H61.5223V83.0643Z" fill="#CDB8A7"/>
<path d="M61.5223 76.4165H54.873V83.0643H61.5223V76.4165Z" fill="#BEAA9A"/>
<path d="M61.5223 69.8358H54.873V76.4837H61.5223V69.8358Z" fill="#DBC5B4"/>
<path d="M61.5223 63.188H54.873V69.8358H61.5223V63.188Z" fill="#D3B49B"/>
<path d="M61.5223 56.5402H54.873V63.188H61.5223V56.5402Z" fill="#EFDBCB"/>
<path d="M61.5223 49.8923H54.873V56.5402H61.5223V49.8923Z" fill="#EFDBCB"/>
<path d="M61.5223 43.2445H54.873V49.8923H61.5223V43.2445Z" fill="#EFDBCB"/>
<path d="M61.5223 36.6638H54.873V43.3117H61.5223V36.6638Z" fill="#EFDBCB"/>
<path d="M61.5223 30.016H54.873V36.6638H61.5223V30.016Z" fill="#EFDBCB"/>
<path d="M61.5223 23.3682H54.873V30.016H61.5223V23.3682Z" fill="#554F46"/>
<path d="M61.5223 16.7203H54.873V23.3682H61.5223V16.7203Z" fill="#554F46"/>
<path d="M61.5223 10.1396H54.873V16.7875H61.5223V10.1396Z" fill="#554F46"/>
<path d="M54.8731 255.505H48.2239V262.153H54.8731V255.505Z" fill="#435252"/>
<path d="M54.8731 248.857H48.2239V255.505H54.8731V248.857Z" fill="#435252"/>
<path d="M54.8731 242.276H48.2239V248.924H54.8731V242.276Z" fill="#465858"/>
<path d="M54.8731 235.629H48.2239V242.276H54.8731V235.629Z" fill="#4A5D5D"/>
<path d="M54.8731 228.981H48.2239V235.629H54.8731V228.981Z" fill="#4A5D5D"/>
<path d="M54.8731 222.333H48.2239V228.981H54.8731V222.333Z" fill="#4A5D5D"/>
<path d="M54.8731 215.685H48.2239V222.333H54.8731V215.685Z" fill="#4A5D5D"/>
<path d="M54.8731 149.408H48.2239V156.056H54.8731V149.408Z" fill="#515959"/>
<path d="M54.8731 142.76H48.2239V149.408H54.8731V142.76Z" fill="#515959"/>
<path d="M54.8731 136.113H48.2239V142.76H54.8731V136.113Z" fill="#515959"/>
<path d="M54.8731 129.465H48.2239V136.113H54.8731V129.465Z" fill="#515959"/>
<path d="M54.8731 122.884H48.2239V129.532H54.8731V122.884Z" fill="#515959"/>
<path d="M54.8731 116.236H48.2239V122.884H54.8731V116.236Z" fill="#515959"/>
<path d="M54.8731 109.588H48.2239V116.236H54.8731V109.588Z" fill="#515959"/>
<path d="M54.8731 102.941H48.2239V109.588H54.8731V102.941Z" fill="#515959"/>
<path d="M54.8731 96.36H48.2239V103.008H54.8731V96.36Z" fill="#515959"/>
<path d="M54.8731 89.7122H48.2239V96.36H54.8731V89.7122Z" fill="#8B9796"/>
<path d="M54.8731 83.0643H48.2239V89.7122H54.8731V83.0643Z" fill="#778080"/>
<path d="M54.8731 76.4165H48.2239V83.0643H54.8731V76.4165Z" fill="#BEAA9A"/>
<path d="M54.8731 69.8358H48.2239V76.4837H54.8731V69.8358Z" fill="#DBC5B4"/>
<path d="M54.8731 63.188H48.2239V69.8358H54.8731V63.188Z" fill="#DBC5B4"/>
<path d="M54.8731 56.5402H48.2239V63.188H54.8731V56.5402Z" fill="#DBC5B4"/>
<path d="M54.8731 49.8923H48.2239V56.5402H54.8731V49.8923Z" fill="#DBC5B4"/>
<path d="M54.8731 43.2445H48.2239V49.8923H54.8731V43.2445Z" fill="white"/>
<path d="M54.8731 36.6638H48.2239V43.3117H54.8731V36.6638Z" fill="#A89688"/>
<path d="M54.8731 30.016H48.2239V36.6638H54.8731V30.016Z" fill="#EFDBCB"/>
<path d="M54.8731 23.3682H48.2239V30.016H54.8731V23.3682Z" fill="#554F46"/>
<path d="M54.8731 16.7203H48.2239V23.3682H54.8731V16.7203Z" fill="#554F46"/>
<path d="M54.8731 10.1396H48.2239V16.7875H54.8731V10.1396Z" fill="#554F46"/>
<path d="M48.224 401.421H41.5747V408.069H48.224V401.421Z" fill="#D2D9D9"/>
<path d="M48.224 394.773H41.5747V401.421H48.224V394.773Z" fill="#656666"/>
<path d="M48.224 388.126H41.5747V394.774H48.224V388.126Z" fill="#828383"/>
<path d="M48.224 381.545H41.5747V388.193H48.224V381.545Z" fill="#435252"/>
<path d="M48.224 374.897H41.5747V381.545H48.224V374.897Z" fill="#435252"/>
<path d="M48.224 368.249H41.5747V374.897H48.224V368.249Z" fill="#435252"/>
<path d="M48.224 361.602H41.5747V368.249H48.224V361.602Z" fill="#435252"/>
<path d="M48.224 355.021H41.5747V361.669H48.224V355.021Z" fill="#435252"/>
<path d="M48.224 348.373H41.5747V355.021H48.224V348.373Z" fill="#435252"/>
<path d="M48.224 341.725H41.5747V348.373H48.224V341.725Z" fill="#435252"/>
<path d="M48.224 335.077H41.5747V341.725H48.224V335.077Z" fill="#435252"/>
<path d="M48.224 328.43H41.5747V335.077H48.224V328.43Z" fill="#435252"/>
<path d="M48.224 321.849H41.5747V328.497H48.224V321.849Z" fill="#435252"/>
<path d="M48.224 315.201H41.5747V321.849H48.224V315.201Z" fill="#435252"/>
<path d="M48.224 308.553H41.5747V315.201H48.224V308.553Z" fill="#435252"/>
<path d="M48.224 301.905H41.5747V308.553H48.224V301.905Z" fill="#435252"/>
<path d="M48.224 295.325H41.5747V301.973H48.224V295.325Z" fill="#435252"/>
<path d="M48.224 288.677H41.5747V295.325H48.224V288.677Z" fill="#435252"/>
<path d="M48.224 282.029H41.5747V288.677H48.224V282.029Z" fill="#435252"/>
<path d="M48.224 275.381H41.5747V282.029H48.224V275.381Z" fill="#435252"/>
<path d="M48.224 268.801H41.5747V275.448H48.224V268.801Z" fill="#435252"/>
<path d="M48.224 262.153H41.5747V268.801H48.224V262.153Z" fill="#435252"/>
<path d="M48.224 255.505H41.5747V262.153H48.224V255.505Z" fill="#435252"/>
<path d="M48.224 248.857H41.5747V255.505H48.224V248.857Z" fill="#465858"/>
<path d="M48.224 242.276H41.5747V248.924H48.224V242.276Z" fill="#4A5D5D"/>
<path d="M48.224 235.629H41.5747V242.276H48.224V235.629Z" fill="#4A5D5D"/>
<path d="M48.224 228.981H41.5747V235.629H48.224V228.981Z" fill="#4A5D5D"/>
<path d="M48.224 222.333H41.5747V228.981H48.224V222.333Z" fill="#4A5D5D"/>
<path d="M48.224 215.685H41.5747V222.333H48.224V215.685Z" fill="#4A5D5D"/>
<path d="M48.224 209.104H41.5747V215.752H48.224V209.104Z" fill="#515959"/>
<path d="M48.224 202.457H41.5747V209.104H48.224V202.457Z" fill="#515959"/>
<path d="M48.224 195.809H41.5747V202.457H48.224V195.809Z" fill="#515959"/>
<path d="M48.224 189.161H41.5747V195.809H48.224V189.161Z" fill="#515959"/>
<path d="M48.224 182.58H41.5747V189.228H48.224V182.58Z" fill="#515959"/>
<path d="M48.224 175.932H41.5747V182.58H48.224V175.932Z" fill="#515959"/>
<path d="M48.224 169.285H41.5747V175.932H48.224V169.285Z" fill="#515959"/>
<path d="M48.224 162.637H41.5747V169.285H48.224V162.637Z" fill="#515959"/>
<path d="M48.224 156.056H41.5747V162.704H48.224V156.056Z" fill="#515959"/>
<path d="M48.224 149.408H41.5747V156.056H48.224V149.408Z" fill="#515959"/>
<path d="M48.224 142.76H41.5747V149.408H48.224V142.76Z" fill="#515959"/>
<path d="M48.224 136.113H41.5747V142.76H48.224V136.113Z" fill="#515959"/>
<path d="M48.224 129.465H41.5747V136.113H48.224V129.465Z" fill="#515959"/>
<path d="M48.224 122.884H41.5747V129.532H48.224V122.884Z" fill="#515959"/>
<path d="M48.224 116.236H41.5747V122.884H48.224V116.236Z" fill="#515959"/>
<path d="M48.224 109.588H41.5747V116.236H48.224V109.588Z" fill="#97A5A4"/>
<path d="M48.224 102.941H41.5747V109.588H48.224V102.941Z" fill="#97A5A4"/>
<path d="M48.224 96.36H41.5747V103.008H48.224V96.36Z" fill="#515959"/>
<path d="M48.224 89.7122H41.5747V96.36H48.224V89.7122Z" fill="#778080"/>
<path d="M48.224 69.8358H41.5747V76.4837H48.224V69.8358Z" fill="#BEAA9A"/>
<path d="M48.224 63.188H41.5747V69.8358H48.224V63.188Z" fill="#DBC5B4"/>
<path d="M48.224 56.5402H41.5747V63.188H48.224V56.5402Z" fill="#DBC5B4"/>
<path d="M48.224 49.8923H41.5747V56.5402H48.224V49.8923Z" fill="#DBC5B4"/>
<path d="M48.224 43.2445H41.5747V49.8923H48.224V43.2445Z" fill="#7E8470"/>
<path d="M48.224 36.6638H41.5747V43.3117H48.224V36.6638Z" fill="#A89688"/>
<path d="M48.224 30.016H41.5747V36.6638H48.224V30.016Z" fill="#554F46"/>
<path d="M48.224 23.3682H41.5747V30.016H48.224V23.3682Z" fill="#554F46"/>
<path d="M48.224 16.7203H41.5747V23.3682H48.224V16.7203Z" fill="#615A50"/>
<path d="M41.5746 401.421H34.9253V408.069H41.5746V401.421Z" fill="#D2D9D9"/>
<path d="M41.5746 394.773H34.9253V401.421H41.5746V394.773Z" fill="#656666"/>
<path d="M41.5746 388.126H34.9253V394.774H41.5746V388.126Z" fill="#828383"/>
<path d="M41.5746 381.545H34.9253V388.193H41.5746V381.545Z" fill="#465858"/>
<path d="M41.5746 374.897H34.9253V381.545H41.5746V374.897Z" fill="#465858"/>
<path d="M41.5746 368.249H34.9253V374.897H41.5746V368.249Z" fill="#465858"/>
<path d="M41.5746 361.602H34.9253V368.249H41.5746V361.602Z" fill="#465858"/>
<path d="M41.5746 355.021H34.9253V361.669H41.5746V355.021Z" fill="#465858"/>
<path d="M41.5746 348.373H34.9253V355.021H41.5746V348.373Z" fill="#465858"/>
<path d="M41.5746 341.725H34.9253V348.373H41.5746V341.725Z" fill="#465858"/>
<path d="M41.5746 335.077H34.9253V341.725H41.5746V335.077Z" fill="#465858"/>
<path d="M41.5746 328.43H34.9253V335.077H41.5746V328.43Z" fill="#465858"/>
<path d="M41.5746 321.849H34.9253V328.497H41.5746V321.849Z" fill="#465858"/>
<path d="M41.5746 315.201H34.9253V321.849H41.5746V315.201Z" fill="#465858"/>
<path d="M41.5746 308.553H34.9253V315.201H41.5746V308.553Z" fill="#465858"/>
<path d="M41.5746 301.905H34.9253V308.553H41.5746V301.905Z" fill="#465858"/>
<path d="M41.5746 295.325H34.9253V301.973H41.5746V295.325Z" fill="#465858"/>
<path d="M41.5746 288.677H34.9253V295.325H41.5746V288.677Z" fill="#465858"/>
<path d="M41.5746 282.029H34.9253V288.677H41.5746V282.029Z" fill="#465858"/>
<path d="M41.5746 275.381H34.9253V282.029H41.5746V275.381Z" fill="#465858"/>
<path d="M41.5746 268.801H34.9253V275.448H41.5746V268.801Z" fill="#465858"/>
<path d="M41.5746 262.153H34.9253V268.801H41.5746V262.153Z" fill="#465858"/>
<path d="M41.5746 255.505H34.9253V262.153H41.5746V255.505Z" fill="#465858"/>
<path d="M41.5746 248.857H34.9253V255.505H41.5746V248.857Z" fill="#4A5D5D"/>
<path d="M41.5746 242.276H34.9253V248.924H41.5746V242.276Z" fill="#4A5D5D"/>
<path d="M41.5746 235.629H34.9253V242.276H41.5746V235.629Z" fill="#4A5D5D"/>
<path d="M41.5746 228.981H34.9253V235.629H41.5746V228.981Z" fill="#566C6C"/>
<path d="M41.5746 222.333H34.9253V228.981H41.5746V222.333Z" fill="#566C6C"/>
<path d="M41.5746 215.685H34.9253V222.333H41.5746V215.685Z" fill="#566C6C"/>
<path d="M41.5746 209.104H34.9253V215.752H41.5746V209.104Z" fill="#515959"/>
<path d="M41.5746 202.457H34.9253V209.104H41.5746V202.457Z" fill="#515959"/>
<path d="M41.5746 195.809H34.9253V202.457H41.5746V195.809Z" fill="#515959"/>
<path d="M41.5746 189.161H34.9253V195.809H41.5746V189.161Z" fill="#515959"/>
<path d="M41.5746 182.58H34.9253V189.228H41.5746V182.58Z" fill="#515959"/>
<path d="M41.5746 175.932H34.9253V182.58H41.5746V175.932Z" fill="#515959"/>
<path d="M41.5746 169.285H34.9253V175.932H41.5746V169.285Z" fill="#515959"/>
<path d="M41.5746 162.637H34.9253V169.285H41.5746V162.637Z" fill="#515959"/>
<path d="M41.5746 156.056H34.9253V162.704H41.5746V156.056Z" fill="#515959"/>
<path d="M41.5746 149.408H34.9253V156.056H41.5746V149.408Z" fill="#515959"/>
<path d="M41.5746 142.76H34.9253V149.408H41.5746V142.76Z" fill="#515959"/>
<path d="M41.5746 136.113H34.9253V142.76H41.5746V136.113Z" fill="#515959"/>
<path d="M41.5746 129.465H34.9253V136.113H41.5746V129.465Z" fill="#515959"/>
<path d="M41.5746 122.884H34.9253V129.532H41.5746V122.884Z" fill="#515959"/>
<path d="M41.5746 116.236H34.9253V122.884H41.5746V116.236Z" fill="#97A5A4"/>
<path d="M41.5746 109.588H34.9253V116.236H41.5746V109.588Z" fill="#778080"/>
<path d="M41.5746 102.941H34.9253V109.588H41.5746V102.941Z" fill="#8B9796"/>
<path d="M41.5746 96.36H34.9253V103.008H41.5746V96.36Z" fill="#97A5A4"/>
<path d="M41.5746 36.6638H34.9253V43.3117H41.5746V36.6638Z" fill="#554F46"/>
<path d="M41.5746 30.016H34.9253V36.6638H41.5746V30.016Z" fill="#554F46"/>
<path d="M41.5746 23.3682H34.9253V30.016H41.5746V23.3682Z" fill="#615A50"/>
<path d="M34.9925 401.421H28.3433V408.069H34.9925V401.421Z" fill="#D2D9D9"/>
<path d="M34.9925 394.773H28.3433V401.421H34.9925V394.773Z" fill="#757777"/>
<path d="M34.9925 388.126H28.3433V394.774H34.9925V388.126Z" fill="#9EA1A1"/>
<path d="M34.9925 381.545H28.3433V388.193H34.9925V381.545Z" fill="#4A5D5D"/>
<path d="M34.9925 374.897H28.3433V381.545H34.9925V374.897Z" fill="#4A5D5D"/>
<path d="M34.9925 368.249H28.3433V374.897H34.9925V368.249Z" fill="#4A5D5D"/>
<path d="M34.9925 361.602H28.3433V368.249H34.9925V361.602Z" fill="#4A5D5D"/>
<path d="M34.9925 355.021H28.3433V361.669H34.9925V355.021Z" fill="#4A5D5D"/>
<path d="M34.9925 348.373H28.3433V355.021H34.9925V348.373Z" fill="#4A5D5D"/>
<path d="M34.9925 341.725H28.3433V348.373H34.9925V341.725Z" fill="#4A5D5D"/>
<path d="M34.9925 335.077H28.3433V341.725H34.9925V335.077Z" fill="#4A5D5D"/>
<path d="M34.9925 328.43H28.3433V335.077H34.9925V328.43Z" fill="#566C6C"/>
<path d="M34.9925 321.849H28.3433V328.497H34.9925V321.849Z" fill="#566C6C"/>
<path d="M34.9925 315.201H28.3433V321.849H34.9925V315.201Z" fill="#566C6C"/>
<path d="M34.9925 308.553H28.3433V315.201H34.9925V308.553Z" fill="#566C6C"/>
<path d="M34.9925 301.905H28.3433V308.553H34.9925V301.905Z" fill="#4A5D5D"/>
<path d="M34.9925 295.325H28.3433V301.973H34.9925V295.325Z" fill="#4A5D5D"/>
<path d="M34.9925 288.677H28.3433V295.325H34.9925V288.677Z" fill="#4A5D5D"/>
<path d="M34.9925 282.029H28.3433V288.677H34.9925V282.029Z" fill="#4A5D5D"/>
<path d="M34.9925 275.381H28.3433V282.029H34.9925V275.381Z" fill="#4A5D5D"/>
<path d="M34.9925 268.801H28.3433V275.448H34.9925V268.801Z" fill="#4A5D5D"/>
<path d="M34.9925 262.153H28.3433V268.801H34.9925V262.153Z" fill="#4A5D5D"/>
<path d="M34.9925 255.505H28.3433V262.153H34.9925V255.505Z" fill="#4A5D5D"/>
<path d="M34.9925 248.857H28.3433V255.505H34.9925V248.857Z" fill="#4A5D5D"/>
<path d="M34.9925 242.276H28.3433V248.924H34.9925V242.276Z" fill="#4A5D5D"/>
<path d="M34.9925 235.629H28.3433V242.276H34.9925V235.629Z" fill="#566C6C"/>
<path d="M34.9925 228.981H28.3433V235.629H34.9925V228.981Z" fill="#566C6C"/>
<path d="M34.9925 222.333H28.3433V228.981H34.9925V222.333Z" fill="#566C6C"/>
<path d="M34.9925 215.685H28.3433V222.333H34.9925V215.685Z" fill="#566C6C"/>
<path d="M34.9925 209.104H28.3433V215.752H34.9925V209.104Z" fill="#4B5353"/>
<path d="M34.9925 202.457H28.3433V209.104H34.9925V202.457Z" fill="#4B5353"/>
<path d="M34.9925 195.809H28.3433V202.457H34.9925V195.809Z" fill="#4B5353"/>
<path d="M34.9925 189.161H28.3433V195.809H34.9925V189.161Z" fill="#4B5353"/>
<path d="M34.9925 182.58H28.3433V189.228H34.9925V182.58Z" fill="#4B5353"/>
<path d="M34.9925 175.932H28.3433V182.58H34.9925V175.932Z" fill="#4B5353"/>
<path d="M34.9925 169.285H28.3433V175.932H34.9925V169.285Z" fill="#4B5353"/>
<path d="M34.9925 162.637H28.3433V169.285H34.9925V162.637Z" fill="#4B5353"/>
<path d="M34.9925 156.056H28.3433V162.704H34.9925V156.056Z" fill="#4B5353"/>
<path d="M34.9925 149.408H28.3433V156.056H34.9925V149.408Z" fill="#4B5353"/>
<path d="M34.9925 142.76H28.3433V149.408H34.9925V142.76Z" fill="#4B5353"/>
<path d="M34.9925 136.113H28.3433V142.76H34.9925V136.113Z" fill="#4B5353"/>
<path d="M34.9925 129.465H28.3433V136.113H34.9925V129.465Z" fill="#4B5353"/>
<path d="M34.9925 122.884H28.3433V129.532H34.9925V122.884Z" fill="#4B5353"/>
<path d="M34.9925 116.236H28.3433V122.884H34.9925V116.236Z" fill="#4B5353"/>
<path d="M34.9925 109.588H28.3433V116.236H34.9925V109.588Z" fill="#97A5A4"/>
<path d="M34.9925 102.941H28.3433V109.588H34.9925V102.941Z" fill="#97A5A4"/>
<path d="M34.9925 96.36H28.3433V103.008H34.9925V96.36Z" fill="#404949"/>
<path d="M28.3433 401.421H21.6941V408.069H28.3433V401.421Z" fill="#D2D9D9"/>
<path d="M28.3433 394.773H21.6941V401.421H28.3433V394.773Z" fill="#757777"/>
<path d="M28.3433 195.809H21.6941V202.457H28.3433V195.809Z" fill="#E0C9B6"/>
<path d="M28.3433 189.161H21.6941V195.809H28.3433V189.161Z" fill="#E0C9B6"/>
<path d="M28.3433 182.58H21.6941V189.228H28.3433V182.58Z" fill="#E0C9B6"/>
<path d="M28.3433 142.76H21.6941V149.408H28.3433V142.76Z" fill="#4B5353"/>
<path d="M28.3433 136.113H21.6941V142.76H28.3433V136.113Z" fill="#4B5353"/>
<path d="M28.3433 129.465H21.6941V136.113H28.3433V129.465Z" fill="#4B5353"/>
<path d="M28.3433 122.884H21.6941V129.532H28.3433V122.884Z" fill="#4B5353"/>
<path d="M28.3433 116.236H21.6941V122.884H28.3433V116.236Z" fill="#4B5353"/>
<path d="M28.3433 109.588H21.6941V116.236H28.3433V109.588Z" fill="#404949"/>
<path d="M28.3433 102.941H21.6941V109.588H28.3433V102.941Z" fill="#404949"/>
<path d="M21.6942 189.161H15.0449V195.809H21.6942V189.161Z" fill="#E0C9B6"/>
<path d="M21.6942 182.58H15.0449V189.228H21.6942V182.58Z" fill="#E0C9B6"/>
<path d="M21.6942 175.932H15.0449V182.58H21.6942V175.932Z" fill="#E0C9B6"/>
<path d="M21.6942 169.285H15.0449V175.932H21.6942V169.285Z" fill="#E0C9B6"/>
<path d="M21.6942 162.637H15.0449V169.285H21.6942V162.637Z" fill="#E0C9B6"/>
<path d="M21.6942 156.056H15.0449V162.704H21.6942V156.056Z" fill="#E0C9B6"/>
<path d="M21.6942 149.408H15.0449V156.056H21.6942V149.408Z" fill="#4B5353"/>
<path d="M21.6942 142.76H15.0449V149.408H21.6942V142.76Z" fill="#4B5353"/>
<path d="M21.6942 136.113H15.0449V142.76H21.6942V136.113Z" fill="#4B5353"/>
<path d="M21.6942 129.465H15.0449V136.113H21.6942V129.465Z" fill="#4B5353"/>
<path d="M21.6942 122.884H15.0449V129.532H21.6942V122.884Z" fill="#4B5353"/>
<path d="M21.6942 116.236H15.0449V122.884H21.6942V116.236Z" fill="#404949"/>
<path d="M21.6942 109.588H15.0449V116.236H21.6942V109.588Z" fill="#404949"/>
<path d="M15.0448 182.58H8.39551V189.228H15.0448V182.58Z" fill="#C7B5A6"/>
<path d="M15.0448 175.932H8.39551V182.58H15.0448V175.932Z" fill="#C7B5A6"/>
<path d="M15.0448 169.285H8.39551V175.932H15.0448V169.285Z" fill="#C7B5A6"/>
<path d="M15.0448 162.637H8.39551V169.285H15.0448V162.637Z" fill="#E0C9B6"/>
<path d="M15.0448 156.056H8.39551V162.704H15.0448V156.056Z" fill="#E0C9B6"/>
<path d="M15.0448 149.408H8.39551V156.056H15.0448V149.408Z" fill="#4B5353"/>
<path d="M15.0448 142.76H8.39551V149.408H15.0448V142.76Z" fill="#4B5353"/>
<path d="M15.0448 136.113H8.39551V142.76H15.0448V136.113Z" fill="#4B5353"/>
<path d="M15.0448 129.465H8.39551V136.113H15.0448V129.465Z" fill="#4B5353"/>
<path d="M15.0448 122.884H8.39551V129.532H15.0448V122.884Z" fill="#4B5353"/>
</svg>