<svg width="233" height="416" viewBox="0 0 233 416" fill="none" xmlns="http://www.w3.org/2000/svg">
<g clip-path="url(#clip0)">
<path d="M178.208 145.6H171.289V152.51H178.208V145.6Z" fill="#6CA6B7"/>
<path d="M178.208 138.69H171.289V145.6H178.208V138.69Z" fill="#6CA6B7"/>
<path d="M178.208 131.71H171.289V138.691H178.208V131.71Z" fill="#71C3D1"/>
<path d="M178.208 124.8H171.289V131.71H178.208V124.8Z" fill="#71C3D1"/>
<path d="M171.291 159.49H164.442V166.4H171.291V159.49Z" fill="#71C3D1"/>
<path d="M171.291 152.51H164.442V159.49H171.291V152.51Z" fill="#71C3D1"/>
<path d="M171.291 145.6H164.442V152.51H171.291V145.6Z" fill="#71C3D1"/>
<path d="M171.291 138.69H164.442V145.6H171.291V138.69Z" fill="#71C3D1"/>
<path d="M171.291 131.71H164.442V138.691H171.291V131.71Z" fill="#71C3D1"/>
<path d="M171.291 124.8H164.442V131.71H171.291V124.8Z" fill="#71C3D1"/>
<path d="M171.291 117.89H164.442V124.8H171.291V117.89Z" fill="#71C3D1"/>
<path d="M171.291 110.91H164.442V117.89H171.291V110.91Z" fill="#6CA6B7"/>
<path d="M171.291 104H164.442V110.91H171.291V104Z" fill="#6CA6B7"/>
<path d="M164.441 166.4H157.592V173.31H164.441V166.4Z" fill="#71C3D1"/>
<path d="M164.441 159.49H157.592V166.4H164.441V159.49Z" fill="#71C3D1"/>
<path d="M164.441 152.51H157.592V159.49H164.441V152.51Z" fill="#71C3D1"/>
<path d="M164.441 145.6H157.592V152.51H164.441V145.6Z" fill="#71C3D1"/>
<path d="M164.441 138.69H157.592V145.6H164.441V138.69Z" fill="#71C3D1"/>
<path d="M164.441 131.71H157.592V138.691H164.441V131.71Z" fill="#71C3D1"/>
<path d="M164.441 124.8H157.592V131.71H164.441V124.8Z" fill="#71C3D1"/>
<path d="M164.441 117.89H157.592V124.8H164.441V117.89Z" fill="#71C3D1"/>
<path d="M164.441 110.91H157.592V117.89H164.441V110.91Z" fill="#71C3D1"/>
<path d="M164.441 104H157.592V110.91H164.441V104Z" fill="#71C3D1"/>
<path d="M164.441 97.0903H157.592V104H164.441V97.0903Z" fill="#6CA6B7"/>
<path d="M157.593 173.31H150.745V180.29H157.593V173.31Z" fill="#71C3D1"/>
<path d="M157.593 166.4H150.745V173.31H157.593V166.4Z" fill="#71C3D1"/>
<path d="M157.593 159.49H150.745V166.4H157.593V159.49Z" fill="#71C3D1"/>
<path d="M157.593 152.51H150.745V159.49H157.593V152.51Z" fill="#639BA8"/>
<path d="M157.593 117.89H150.745V124.8H157.593V117.89Z" fill="#71C3D1"/>
<path d="M157.593 110.91H150.745V117.89H157.593V110.91Z" fill="#71C3D1"/>
<path d="M157.593 104H150.745V110.91H157.593V104Z" fill="#71C3D1"/>
<path d="M157.593 97.0903H150.745V104H157.593V97.0903Z" fill="#71C3D1"/>
<path d="M157.593 90.11H150.745V97.0903H157.593V90.11Z" fill="#6CA6B7"/>
<path d="M150.743 180.29H143.895V187.2H150.743V180.29Z" fill="#71C3D1"/>
<path d="M150.743 173.31H143.895V180.29H150.743V173.31Z" fill="#71C3D1"/>
<path d="M150.743 166.4H143.895V173.31H150.743V166.4Z" fill="#71C3D1"/>
<path d="M150.743 159.49H143.895V166.4H150.743V159.49Z" fill="#639BA8"/>
<path d="M150.743 110.91H143.895V117.89H150.743V110.91Z" fill="#71C3D1"/>
<path d="M150.743 104H143.895V110.91H150.743V104Z" fill="#71C3D1"/>
<path d="M150.743 97.0903H143.895V104H150.743V97.0903Z" fill="#71C3D1"/>
<path d="M150.743 90.11H143.895V97.0903H150.743V90.11Z" fill="#71C3D1"/>
<path d="M150.743 83.2003H143.895V90.1101H150.743V83.2003Z" fill="#6CA6B7"/>
<path d="M143.896 409.09H137.047V416H143.896V409.09Z" fill="#A89588"/>
<path d="M143.896 402.11H137.047V409.09H143.896V402.11Z" fill="#A89588"/>
<path d="M143.896 395.2H137.047V402.11H143.896V395.2Z" fill="#A89588"/>
<path d="M143.896 388.29H137.047V395.2H143.896V388.29Z" fill="#6D7575"/>
<path d="M143.896 381.31H137.047V388.29H143.896V381.31Z" fill="#6D7575"/>
<path d="M143.896 374.4H137.047V381.31H143.896V374.4Z" fill="#6D7575"/>
<path d="M143.896 367.49H137.047V374.4H143.896V367.49Z" fill="#6D7575"/>
<path d="M143.896 360.51H137.047V367.49H143.896V360.51Z" fill="#6D7575"/>
<path d="M143.896 353.6H137.047V360.51H143.896V353.6Z" fill="#6D7575"/>
<path d="M143.896 346.69H137.047V353.6H143.896V346.69Z" fill="#6D7575"/>
<path d="M143.896 339.71H137.047V346.691H143.896V339.71Z" fill="#6D7575"/>
<path d="M143.896 332.8H137.047V339.71H143.896V332.8Z" fill="#6D7575"/>
<path d="M143.896 325.89H137.047V332.8H143.896V325.89Z" fill="#6D7575"/>
<path d="M143.896 318.91H137.047V325.89H143.896V318.91Z" fill="#6D7575"/>
<path d="M143.896 312H137.047V318.91H143.896V312Z" fill="#6D7575"/>
<path d="M143.896 305.09H137.047V312H143.896V305.09Z" fill="#6D7575"/>
<path d="M143.896 298.11H137.047V305.09H143.896V298.11Z" fill="#6D7575"/>
<path d="M143.896 291.2H137.047V298.11H143.896V291.2Z" fill="#6D7575"/>
<path d="M143.896 284.29H137.047V291.2H143.896V284.29Z" fill="#6D7575"/>
<path d="M143.896 277.31H137.047V284.29H143.896V277.31Z" fill="#6D7575"/>
<path d="M143.896 270.4H137.047V277.31H143.896V270.4Z" fill="#6D7575"/>
<path d="M143.896 263.49H137.047V270.4H143.896V263.49Z" fill="#6D7575"/>
<path d="M143.896 256.51H137.047V263.49H143.896V256.51Z" fill="#6D7575"/>
<path d="M143.896 249.6H137.047V256.51H143.896V249.6Z" fill="#6D7575"/>
<path d="M143.896 242.69H137.047V249.6H143.896V242.69Z" fill="#778080"/>
<path d="M143.896 235.71H137.047V242.691H143.896V235.71Z" fill="#889191"/>
<path d="M143.896 228.8H137.047V235.71H143.896V228.8Z" fill="#889191"/>
<path d="M143.896 221.89H137.047V228.8H143.896V221.89Z" fill="#889191"/>
<path d="M143.896 214.91H137.047V221.89H143.896V214.91Z" fill="#889191"/>
<path d="M143.896 208H137.047V214.91H143.896V208Z" fill="#6DAFBF"/>
<path d="M143.896 201.09H137.047V208H143.896V201.09Z" fill="#6DAFBF"/>
<path d="M143.896 194.11H137.047V201.09H143.896V194.11Z" fill="#6DAFBF"/>
<path d="M143.896 187.2H137.047V194.11H143.896V187.2Z" fill="#71C3D1"/>
<path d="M143.896 180.29H137.047V187.2H143.896V180.29Z" fill="#71C3D1"/>
<path d="M143.896 173.31H137.047V180.29H143.896V173.31Z" fill="#71C3D1"/>
<path d="M143.896 166.4H137.047V173.31H143.896V166.4Z" fill="#639BA8"/>
<path d="M143.896 159.49H137.047V166.4H143.896V159.49Z" fill="#6DAFBF"/>
<path d="M143.896 152.51H137.047V159.49H143.896V152.51Z" fill="#6DAFBF"/>
<path d="M143.896 145.6H137.047V152.51H143.896V145.6Z" fill="#6DAFBF"/>
<path d="M143.896 138.69H137.047V145.6H143.896V138.69Z" fill="#6DAFBF"/>
<path d="M143.896 131.71H137.047V138.691H143.896V131.71Z" fill="#6DAFBF"/>
<path d="M143.896 124.8H137.047V131.71H143.896V124.8Z" fill="#6DAFBF"/>
<path d="M143.896 117.89H137.047V124.8H143.896V117.89Z" fill="#6DAFBF"/>
<path d="M143.896 110.91H137.047V117.89H143.896V110.91Z" fill="#71C3D1"/>
<path d="M143.896 104H137.047V110.91H143.896V104Z" fill="#71C3D1"/>
<path d="M143.896 97.0903H137.047V104H143.896V97.0903Z" fill="#71C3D1"/>
<path d="M143.896 90.11H137.047V97.0903H143.896V90.11Z" fill="#71C3D1"/>
<path d="M143.896 83.2003H137.047V90.1101H143.896V83.2003Z" fill="#71C3D1"/>
<path d="M137.046 409.09H130.197V416H137.046V409.09Z" fill="#A89588"/>
<path d="M137.046 402.11H130.197V409.09H137.046V402.11Z" fill="#A89588"/>
<path d="M137.046 395.2H130.197V402.11H137.046V395.2Z" fill="#BEAA9A"/>
<path d="M137.046 388.29H130.197V395.2H137.046V388.29Z" fill="#717777"/>
<path d="M137.046 381.31H130.197V388.29H137.046V381.31Z" fill="#717777"/>
<path d="M137.046 374.4H130.197V381.31H137.046V374.4Z" fill="#717777"/>
<path d="M137.046 367.49H130.197V374.4H137.046V367.49Z" fill="#717777"/>
<path d="M137.046 360.51H130.197V367.49H137.046V360.51Z" fill="#717777"/>
<path d="M137.046 353.6H130.197V360.51H137.046V353.6Z" fill="#717777"/>
<path d="M137.046 346.69H130.197V353.6H137.046V346.69Z" fill="#717777"/>
<path d="M137.046 339.71H130.197V346.691H137.046V339.71Z" fill="#717777"/>
<path d="M137.046 332.8H130.197V339.71H137.046V332.8Z" fill="#717777"/>
<path d="M137.046 325.89H130.197V332.8H137.046V325.89Z" fill="#717777"/>
<path d="M137.046 318.91H130.197V325.89H137.046V318.91Z" fill="#717777"/>
<path d="M137.046 312H130.197V318.91H137.046V312Z" fill="#717777"/>
<path d="M137.046 305.09H130.197V312H137.046V305.09Z" fill="#717777"/>
<path d="M137.046 298.11H130.197V305.09H137.046V298.11Z" fill="#717777"/>
<path d="M137.046 291.2H130.197V298.11H137.046V291.2Z" fill="#717777"/>
<path d="M137.046 284.29H130.197V291.2H137.046V284.29Z" fill="#717777"/>
<path d="M137.046 277.31H130.197V284.29H137.046V277.31Z" fill="#717777"/>
<path d="M137.046 270.4H130.197V277.31H137.046V270.4Z" fill="#717777"/>
<path d="M137.046 263.49H130.197V270.4H137.046V263.49Z" fill="#717777"/>
<path d="M137.046 256.51H130.197V263.49H137.046V256.51Z" fill="#717777"/>
<path d="M137.046 249.6H130.197V256.51H137.046V249.6Z" fill="#717777"/>
<path d="M137.046 242.69H130.197V249.6H137.046V242.69Z" fill="#778080"/>
<path d="M137.046 235.71H130.197V242.691H137.046V235.71Z" fill="#778080"/>
<path d="M137.046 228.8H130.197V235.71H137.046V228.8Z" fill="#889191"/>
<path d="M137.046 221.89H130.197V228.8H137.046V221.89Z" fill="#889191"/>
<path d="M137.046 214.91H130.197V221.89H137.046V214.91Z" fill="#889191"/>
<path d="M137.046 208H130.197V214.91H137.046V208Z" fill="#6DAFBF"/>
<path d="M137.046 201.09H130.197V208H137.046V201.09Z" fill="#6DAFBF"/>
<path d="M137.046 194.11H130.197V201.09H137.046V194.11Z" fill="#71C3D1"/>
<path d="M137.046 187.2H130.197V194.11H137.046V187.2Z" fill="#71C3D1"/>
<path d="M137.046 180.29H130.197V187.2H137.046V180.29Z" fill="#71C3D1"/>
<path d="M137.046 173.31H130.197V180.29H137.046V173.31Z" fill="#639BA8"/>
<path d="M137.046 166.4H130.197V173.31H137.046V166.4Z" fill="#6DAFBF"/>
<path d="M137.046 159.49H130.197V166.4H137.046V159.49Z" fill="#6DAFBF"/>
<path d="M137.046 152.51H130.197V159.49H137.046V152.51Z" fill="#6DAFBF"/>
<path d="M137.046 145.6H130.197V152.51H137.046V145.6Z" fill="#71C3D1"/>
<path d="M137.046 138.69H130.197V145.6H137.046V138.69Z" fill="#71C3D1"/>
<path d="M137.046 131.71H130.197V138.691H137.046V131.71Z" fill="#71C3D1"/>
<path d="M137.046 124.8H130.197V131.71H137.046V124.8Z" fill="#71C3D1"/>
<path d="M137.046 117.89H130.197V124.8H137.046V117.89Z" fill="#71C3D1"/>
<path d="M137.046 110.91H130.197V117.89H137.046V110.91Z" fill="#71C3D1"/>
<path d="M137.046 104H130.197V110.91H137.046V104Z" fill="#71C3D1"/>
<path d="M137.046 97.0903H130.197V104H137.046V97.0903Z" fill="#71C3D1"/>
<path d="M137.046 90.11H130.197V97.0903H137.046V90.11Z" fill="#71C3D1"/>
<path d="M137.046 83.2003H130.197V90.1101H137.046V83.2003Z" fill="#71C3D1"/>
<path d="M137.046 76.2898H130.197V83.1996H137.046V76.2898Z" fill="#71C3D1"/>
<path d="M130.199 409.09H123.35V416H130.199V409.09Z" fill="#A89588"/>
<path d="M130.199 402.11H123.35V409.09H130.199V402.11Z" fill="#BEAA9A"/>
<path d="M130.199 395.2H123.35V402.11H130.199V395.2Z" fill="#BEAA9A"/>
<path d="M130.199 388.29H123.35V395.2H130.199V388.29Z" fill="#778080"/>
<path d="M130.199 381.31H123.35V388.29H130.199V381.31Z" fill="#778080"/>
<path d="M130.199 374.4H123.35V381.31H130.199V374.4Z" fill="#778080"/>
<path d="M130.199 367.49H123.35V374.4H130.199V367.49Z" fill="#778080"/>
<path d="M130.199 360.51H123.35V367.49H130.199V360.51Z" fill="#778080"/>
<path d="M130.199 353.6H123.35V360.51H130.199V353.6Z" fill="#778080"/>
<path d="M130.199 346.69H123.35V353.6H130.199V346.69Z" fill="#778080"/>
<path d="M130.199 339.71H123.35V346.691H130.199V339.71Z" fill="#778080"/>
<path d="M130.199 332.8H123.35V339.71H130.199V332.8Z" fill="#778080"/>
<path d="M130.199 325.89H123.35V332.8H130.199V325.89Z" fill="#778080"/>
<path d="M130.199 318.91H123.35V325.89H130.199V318.91Z" fill="#778080"/>
<path d="M130.199 312H123.35V318.91H130.199V312Z" fill="#778080"/>
<path d="M130.199 305.09H123.35V312H130.199V305.09Z" fill="#778080"/>
<path d="M130.199 298.11H123.35V305.09H130.199V298.11Z" fill="#778080"/>
<path d="M130.199 291.2H123.35V298.11H130.199V291.2Z" fill="#778080"/>
<path d="M130.199 284.29H123.35V291.2H130.199V284.29Z" fill="#778080"/>
<path d="M130.199 277.31H123.35V284.29H130.199V277.31Z" fill="#778080"/>
<path d="M130.199 270.4H123.35V277.31H130.199V270.4Z" fill="#778080"/>
<path d="M130.199 263.49H123.35V270.4H130.199V263.49Z" fill="#778080"/>
<path d="M130.199 256.51H123.35V263.49H130.199V256.51Z" fill="#778080"/>
<path d="M130.199 249.6H123.35V256.51H130.199V249.6Z" fill="#778080"/>
<path d="M130.199 242.69H123.35V249.6H130.199V242.69Z" fill="#778080"/>
<path d="M130.199 235.71H123.35V242.691H130.199V235.71Z" fill="#778080"/>
<path d="M130.199 228.8H123.35V235.71H130.199V228.8Z" fill="#889191"/>
<path d="M130.199 221.89H123.35V228.8H130.199V221.89Z" fill="#889191"/>
<path d="M130.199 214.91H123.35V221.89H130.199V214.91Z" fill="#889191"/>
<path d="M130.199 208H123.35V214.91H130.199V208Z" fill="#6DAFBF"/>
<path d="M130.199 201.09H123.35V208H130.199V201.09Z" fill="#6DAFBF"/>
<path d="M130.199 194.11H123.35V201.09H130.199V194.11Z" fill="#D1BBAC"/>
<path d="M130.199 187.2H123.35V194.11H130.199V187.2Z" fill="#DBC4B4"/>
<path d="M130.199 180.29H123.35V187.2H130.199V180.29Z" fill="#DBC4B4"/>
<path d="M130.199 173.31H123.35V180.29H130.199V173.31Z" fill="#DBC4B4"/>
<path d="M130.199 166.4H123.35V173.31H130.199V166.4Z" fill="#6DAFBF"/>
<path d="M130.199 159.49H123.35V166.4H130.199V159.49Z" fill="#71C3D1"/>
<path d="M130.199 152.51H123.35V159.49H130.199V152.51Z" fill="#71C3D1"/>
<path d="M130.199 145.6H123.35V152.51H130.199V145.6Z" fill="#71C3D1"/>
<path d="M130.199 138.69H123.35V145.6H130.199V138.69Z" fill="#71C3D1"/>
<path d="M130.199 131.71H123.35V138.691H130.199V131.71Z" fill="#71C3D1"/>
<path d="M130.199 124.8H123.35V131.71H130.199V124.8Z" fill="#71C3D1"/>
<path d="M130.199 117.89H123.35V124.8H130.199V117.89Z" fill="#71C3D1"/>
<path d="M130.199 110.91H123.35V117.89H130.199V110.91Z" fill="#71C3D1"/>
<path d="M130.199 104H123.35V110.91H130.199V104Z" fill="#71C3D1"/>
<path d="M130.199 97.0903H123.35V104H130.199V97.0903Z" fill="#71C3D1"/>
<path d="M130.199 90.11H123.35V97.0903H130.199V90.11Z" fill="#71C3D1"/>
<path d="M130.199 83.2003H123.35V90.1101H130.199V83.2003Z" fill="#71C3D1"/>
<path d="M130.199 76.2898H123.35V83.1996H130.199V76.2898Z" fill="#6CA6B7"/>
<path d="M123.349 409.09H116.5V416H123.349V409.09Z" fill="#BEAA9A"/>
<path d="M123.349 402.11H116.5V409.09H123.349V402.11Z" fill="#C6B6AC"/>
<path d="M123.349 332.8H116.5V339.71H123.349V332.8Z" fill="#889191"/>
<path d="M123.349 325.89H116.5V332.8H123.349V325.89Z" fill="#889191"/>
<path d="M123.349 318.91H116.5V325.89H123.349V318.91Z" fill="#889191"/>
<path d="M123.349 312H116.5V318.91H123.349V312Z" fill="#889191"/>
<path d="M123.349 305.09H116.5V312H123.349V305.09Z" fill="#889191"/>
<path d="M123.349 263.49H116.5V270.4H123.349V263.49Z" fill="#6D7575"/>
<path d="M123.349 256.51H116.5V263.49H123.349V256.51Z" fill="#6D7575"/>
<path d="M123.349 249.6H116.5V256.51H123.349V249.6Z" fill="#778080"/>
<path d="M123.349 242.69H116.5V249.6H123.349V242.69Z" fill="#778080"/>
<path d="M123.349 235.71H116.5V242.691H123.349V235.71Z" fill="#778080"/>
<path d="M123.349 228.8H116.5V235.71H123.349V228.8Z" fill="#778080"/>
<path d="M123.349 221.89H116.5V228.8H123.349V221.89Z" fill="#778080"/>
<path d="M123.349 214.91H116.5V221.89H123.349V214.91Z" fill="#778080"/>
<path d="M123.349 208H116.5V214.91H123.349V208Z" fill="#6DAFBF"/>
<path d="M123.349 201.09H116.5V208H123.349V201.09Z" fill="#9E8C80"/>
<path d="M123.349 194.11H116.5V201.09H123.349V194.11Z" fill="#D1BBAC"/>
<path d="M123.349 187.2H116.5V194.11H123.349V187.2Z" fill="#DBC4B4"/>
<path d="M123.349 180.29H116.5V187.2H123.349V180.29Z" fill="#EFDBCB"/>
<path d="M123.349 173.31H116.5V180.29H123.349V173.31Z" fill="#6DAFBF"/>
<path d="M123.349 166.4H116.5V173.31H123.349V166.4Z" fill="#71C3D1"/>
<path d="M123.349 159.49H116.5V166.4H123.349V159.49Z" fill="#71C3D1"/>
<path d="M123.349 152.51H116.5V159.49H123.349V152.51Z" fill="#71C3D1"/>
<path d="M123.349 145.6H116.5V152.51H123.349V145.6Z" fill="#71C3D1"/>
<path d="M123.349 138.69H116.5V145.6H123.349V138.69Z" fill="#71C3D1"/>
<path d="M123.349 131.71H116.5V138.691H123.349V131.71Z" fill="#71C3D1"/>
<path d="M123.349 124.8H116.5V131.71H123.349V124.8Z" fill="#71C3D1"/>
<path d="M123.349 117.89H116.5V124.8H123.349V117.89Z" fill="#71C3D1"/>
<path d="M123.349 110.91H116.5V117.89H123.349V110.91Z" fill="#71C3D1"/>
<path d="M123.349 104H116.5V110.91H123.349V104Z" fill="#71C3D1"/>
<path d="M123.349 97.0903H116.5V104H123.349V97.0903Z" fill="#71C3D1"/>
<path d="M123.349 90.11H116.5V97.0903H123.349V90.11Z" fill="#6CA6B7"/>
<path d="M123.349 83.2003H116.5V90.1101H123.349V83.2003Z" fill="#6CA6B7"/>
<path d="M123.349 76.2898H116.5V83.1996H123.349V76.2898Z" fill="#6CA6B7"/>
<path d="M123.349 69.3096H116.5V76.2899H123.349V69.3096Z" fill="#6CA6B7"/>
<path d="M123.349 41.6001H116.5V48.5099H123.349V41.6001Z" fill="#9B897E"/>
<path d="M123.349 34.6904H116.5V41.6003H123.349V34.6904Z" fill="#DBC4B4"/>
<path d="M123.349 27.7102H116.5V34.6905H123.349V27.7102Z" fill="#DBC4B4"/>
<path d="M123.349 20.7997H116.5V27.7095H123.349V20.7997Z" fill="#9B897E"/>
<path d="M123.349 13.89H116.5V20.7998H123.349V13.89Z" fill="#9B897E"/>
<path d="M123.349 6.90967H116.5V13.89H123.349V6.90967Z" fill="#9B897E"/>
<path d="M116.499 249.6H109.65V256.51H116.499V249.6Z" fill="#6D7575"/>
<path d="M116.499 242.69H109.65V249.6H116.499V242.69Z" fill="#778080"/>
<path d="M116.499 235.71H109.65V242.691H116.499V235.71Z" fill="#778080"/>
<path d="M116.499 228.8H109.65V235.71H116.499V228.8Z" fill="#778080"/>
<path d="M116.499 221.89H109.65V228.8H116.499V221.89Z" fill="#778080"/>
<path d="M116.499 214.91H109.65V221.89H116.499V214.91Z" fill="#778080"/>
<path d="M116.499 208H109.65V214.91H116.499V208Z" fill="#6DAFBF"/>
<path d="M116.499 201.09H109.65V208H116.499V201.09Z" fill="#6DAFBF"/>
<path d="M116.499 194.11H109.65V201.09H116.499V194.11Z" fill="#D1BBAC"/>
<path d="M116.499 187.2H109.65V194.11H116.499V187.2Z" fill="#DBC4B4"/>
<path d="M116.499 180.29H109.65V187.2H116.499V180.29Z" fill="#EFDBCB"/>
<path d="M116.499 173.31H109.65V180.29H116.499V173.31Z" fill="#71C3D1"/>
<path d="M116.499 166.4H109.65V173.31H116.499V166.4Z" fill="#71C3D1"/>
<path d="M116.499 159.49H109.65V166.4H116.499V159.49Z" fill="#71C3D1"/>
<path d="M116.499 152.51H109.65V159.49H116.499V152.51Z" fill="#71C3D1"/>
<path d="M116.499 145.6H109.65V152.51H116.499V145.6Z" fill="#71C3D1"/>
<path d="M116.499 138.69H109.65V145.6H116.499V138.69Z" fill="#71C3D1"/>
<path d="M116.499 131.71H109.65V138.691H116.499V131.71Z" fill="#71C3D1"/>
<path d="M116.499 124.8H109.65V131.71H116.499V124.8Z" fill="#71C3D1"/>
<path d="M116.499 117.89H109.65V124.8H116.499V117.89Z" fill="#71C3D1"/>
<path d="M116.499 110.91H109.65V117.89H116.499V110.91Z" fill="#71C3D1"/>
<path d="M116.499 104H109.65V110.91H116.499V104Z" fill="#71C3D1"/>
<path d="M116.499 97.0903H109.65V104H116.499V97.0903Z" fill="#6CA6B7"/>
<path d="M116.499 90.11H109.65V97.0903H116.499V90.11Z" fill="#6CA6B7"/>
<path d="M116.499 83.2003H109.65V90.1101H116.499V83.2003Z" fill="#DBC4B4"/>
<path d="M116.499 76.2898H109.65V83.1996H116.499V76.2898Z" fill="#D1BDB0"/>
<path d="M116.499 69.3096H109.65V76.2899H116.499V69.3096Z" fill="#D1BDB0"/>
<path d="M116.499 62.3999H109.65V69.3097H116.499V62.3999Z" fill="#D1BDB0"/>
<path d="M116.499 55.4901H109.65V62.4H116.499V55.4901Z" fill="#D1BDB0"/>
<path d="M116.499 48.5099H109.65V55.4902H116.499V48.5099Z" fill="#BEAA9A"/>
<path d="M116.499 41.6001H109.65V48.5099H116.499V41.6001Z" fill="#DBC4B4"/>
<path d="M116.499 34.6904H109.65V41.6003H116.499V34.6904Z" fill="#DBC4B4"/>
<path d="M116.499 27.7102H109.65V34.6905H116.499V27.7102Z" fill="#DBC4B4"/>
<path d="M116.499 20.7997H109.65V27.7095H116.499V20.7997Z" fill="#DBC4B4"/>
<path d="M116.499 13.89H109.65V20.7998H116.499V13.89Z" fill="#9B897E"/>
<path d="M116.499 6.90967H109.65V13.89H116.499V6.90967Z" fill="#A89688"/>
<path d="M116.499 0H109.65V6.90983H116.499V0Z" fill="#A89688"/>
<path d="M109.652 242.69H102.803V249.6H109.652V242.69Z" fill="#778080"/>
<path d="M109.652 235.71H102.803V242.691H109.652V235.71Z" fill="#778080"/>
<path d="M109.652 228.8H102.803V235.71H109.652V228.8Z" fill="#778080"/>
<path d="M109.652 221.89H102.803V228.8H109.652V221.89Z" fill="#778080"/>
<path d="M109.652 214.91H102.803V221.89H109.652V214.91Z" fill="#778080"/>
<path d="M109.652 208H102.803V214.91H109.652V208Z" fill="#6DAFBF"/>
<path d="M109.652 201.09H102.803V208H109.652V201.09Z" fill="#71C3D1"/>
<path d="M109.652 194.11H102.803V201.09H109.652V194.11Z" fill="#71C3D1"/>
<path d="M109.652 187.2H102.803V194.11H109.652V187.2Z" fill="#9E8C80"/>
<path d="M109.652 180.29H102.803V187.2H109.652V180.29Z" fill="#71C3D1"/>
<path d="M109.652 173.31H102.803V180.29H109.652V173.31Z" fill="#71C3D1"/>
<path d="M109.652 166.4H102.803V173.31H109.652V166.4Z" fill="#71C3D1"/>
<path d="M109.652 159.49H102.803V166.4H109.652V159.49Z" fill="#71C3D1"/>
<path d="M109.652 152.51H102.803V159.49H109.652V152.51Z" fill="#71C3D1"/>
<path d="M109.652 145.6H102.803V152.51H109.652V145.6Z" fill="#71C3D1"/>
<path d="M109.652 138.69H102.803V145.6H109.652V138.69Z" fill="#71C3D1"/>
<path d="M109.652 131.71H102.803V138.691H109.652V131.71Z" fill="#71C3D1"/>
<path d="M109.652 124.8H102.803V131.71H109.652V124.8Z" fill="#71C3D1"/>
<path d="M109.652 117.89H102.803V124.8H109.652V117.89Z" fill="#71C3D1"/>
<path d="M109.652 110.91H102.803V117.89H109.652V110.91Z" fill="#71C3D1"/>
<path d="M109.652 104H102.803V110.91H109.652V104Z" fill="#6CA6B7"/>
<path d="M109.652 97.0903H102.803V104H109.652V97.0903Z" fill="#6CA6B7"/>
<path d="M109.652 90.11H102.803V97.0903H109.652V90.11Z" fill="#C9B6AB"/>
<path d="M109.652 83.2003H102.803V90.1101H109.652V83.2003Z" fill="#C9B6AB"/>
<path d="M109.652 76.2898H102.803V83.1996H109.652V76.2898Z" fill="#C9B6AB"/>
<path d="M109.652 69.3096H102.803V76.2899H109.652V69.3096Z" fill="#C9B6AB"/>
<path d="M109.652 62.3999H102.803V69.3097H109.652V62.3999Z" fill="#C9B6AB"/>
<path d="M109.652 55.4901H102.803V62.4H109.652V55.4901Z" fill="#BEAA9A"/>
<path d="M109.652 48.5099H102.803V55.4902H109.652V48.5099Z" fill="#DBC4B4"/>
<path d="M109.652 41.6001H102.803V48.5099H109.652V41.6001Z" fill="#DBC4B4"/>
<path d="M109.652 34.6904H102.803V41.6003H109.652V34.6904Z" fill="#DBC4B4"/>
<path d="M109.652 27.7102H102.803V34.6905H109.652V27.7102Z" fill="white"/>
<path d="M109.652 20.7997H102.803V27.7095H109.652V20.7997Z" fill="#BEAA9A"/>
<path d="M109.652 13.89H102.803V20.7998H109.652V13.89Z" fill="#EFDBCB"/>
<path d="M109.652 6.90967H102.803V13.89H109.652V6.90967Z" fill="#A89688"/>
<path d="M109.652 0H102.803V6.90983H109.652V0Z" fill="#A89688"/>
<path d="M102.801 242.69H95.9526V249.6H102.801V242.69Z" fill="#778080"/>
<path d="M102.801 235.71H95.9526V242.691H102.801V235.71Z" fill="#778080"/>
<path d="M102.801 228.8H95.9526V235.71H102.801V228.8Z" fill="#6D7575"/>
<path d="M102.801 221.89H95.9526V228.8H102.801V221.89Z" fill="#6D7575"/>
<path d="M102.801 214.91H95.9526V221.89H102.801V214.91Z" fill="#6D7575"/>
<path d="M102.801 208H95.9526V214.91H102.801V208Z" fill="#71C3D1"/>
<path d="M102.801 201.09H95.9526V208H102.801V201.09Z" fill="#71C3D1"/>
<path d="M102.801 194.11H95.9526V201.09H102.801V194.11Z" fill="#71C3D1"/>
<path d="M102.801 187.2H95.9526V194.11H102.801V187.2Z" fill="#71C3D1"/>
<path d="M102.801 180.29H95.9526V187.2H102.801V180.29Z" fill="#9E8C80"/>
<path d="M102.801 173.31H95.9526V180.29H102.801V173.31Z" fill="#71C3D1"/>
<path d="M102.801 166.4H95.9526V173.31H102.801V166.4Z" fill="#71C3D1"/>
<path d="M102.801 159.49H95.9526V166.4H102.801V159.49Z" fill="#71C3D1"/>
<path d="M102.801 152.51H95.9526V159.49H102.801V152.51Z" fill="#71C3D1"/>
<path d="M102.801 145.6H95.9526V152.51H102.801V145.6Z" fill="#71C3D1"/>
<path d="M102.801 138.69H95.9526V145.6H102.801V138.69Z" fill="#71C3D1"/>
<path d="M102.801 131.71H95.9526V138.691H102.801V131.71Z" fill="#71C3D1"/>
<path d="M102.801 124.8H95.9526V131.71H102.801V124.8Z" fill="#71C3D1"/>
<path d="M102.801 117.89H95.9526V124.8H102.801V117.89Z" fill="#71C3D1"/>
<path d="M102.801 110.91H95.9526V117.89H102.801V110.91Z" fill="#71C3D1"/>
<path d="M102.801 104H95.9526V110.91H102.801V104Z" fill="#6CA6B7"/>
<path d="M102.801 97.0903H95.9526V104H102.801V97.0903Z" fill="#6CA6B7"/>
<path d="M102.801 90.11H95.9526V97.0903H102.801V90.11Z" fill="#DBC4B4"/>
<path d="M102.801 83.2003H95.9526V90.1101H102.801V83.2003Z" fill="#DBC4B4"/>
<path d="M102.801 76.2898H95.9526V83.1996H102.801V76.2898Z" fill="#DBC4B4"/>
<path d="M102.801 69.3096H95.9526V76.2899H102.801V69.3096Z" fill="#DBC4B4"/>
<path d="M102.801 62.3999H95.9526V69.3097H102.801V62.3999Z" fill="#BEAA9A"/>
<path d="M102.801 55.4901H95.9526V62.4H102.801V55.4901Z" fill="#DBC4B4"/>
<path d="M102.801 48.5099H95.9526V55.4902H102.801V48.5099Z" fill="#D1A69B"/>
<path d="M102.801 41.6001H95.9526V48.5099H102.801V41.6001Z" fill="#DBC4B4"/>
<path d="M102.801 34.6904H95.9526V41.6003H102.801V34.6904Z" fill="#DBC4B4"/>
<path d="M102.801 27.7102H95.9526V34.6905H102.801V27.7102Z" fill="#8B9796"/>
<path d="M102.801 20.7997H95.9526V27.7095H102.801V20.7997Z" fill="#BEAA9A"/>
<path d="M102.801 13.89H95.9526V20.7998H102.801V13.89Z" fill="#EFDBCB"/>
<path d="M102.801 6.90967H95.9526V13.89H102.801V6.90967Z" fill="#A89688"/>
<path d="M102.801 0H95.9526V6.90983H102.801V0Z" fill="#A89688"/>
<path d="M95.9543 249.6H89.1055V256.51H95.9543V249.6Z" fill="#778080"/>
<path d="M95.9543 242.69H89.1055V249.6H95.9543V242.69Z" fill="#778080"/>
<path d="M95.9543 235.71H89.1055V242.691H95.9543V235.71Z" fill="#778080"/>
<path d="M95.9543 228.8H89.1055V235.71H95.9543V228.8Z" fill="#778080"/>
<path d="M95.9543 221.89H89.1055V228.8H95.9543V221.89Z" fill="#778080"/>
<path d="M95.9543 214.91H89.1055V221.89H95.9543V214.91Z" fill="#778080"/>
<path d="M95.9543 208H89.1055V214.91H95.9543V208Z" fill="#71C3D1"/>
<path d="M95.9543 201.09H89.1055V208H95.9543V201.09Z" fill="#71C3D1"/>
<path d="M95.9543 194.11H89.1055V201.09H95.9543V194.11Z" fill="#71C3D1"/>
<path d="M95.9543 187.2H89.1055V194.11H95.9543V187.2Z" fill="#71C3D1"/>
<path d="M95.9543 180.29H89.1055V187.2H95.9543V180.29Z" fill="#71C3D1"/>
<path d="M95.9543 173.31H89.1055V180.29H95.9543V173.31Z" fill="#97A5A4"/>
<path d="M95.9543 166.4H89.1055V173.31H95.9543V166.4Z" fill="#71C3D1"/>
<path d="M95.9543 159.49H89.1055V166.4H95.9543V159.49Z" fill="#71C3D1"/>
<path d="M95.9543 152.51H89.1055V159.49H95.9543V152.51Z" fill="#71C3D1"/>
<path d="M95.9543 145.6H89.1055V152.51H95.9543V145.6Z" fill="#71C3D1"/>
<path d="M95.9543 138.69H89.1055V145.6H95.9543V138.69Z" fill="#71C3D1"/>
<path d="M95.9543 131.71H89.1055V138.691H95.9543V131.71Z" fill="#71C3D1"/>
<path d="M95.9543 124.8H89.1055V131.71H95.9543V124.8Z" fill="#71C3D1"/>
<path d="M95.9543 117.89H89.1055V124.8H95.9543V117.89Z" fill="#71C3D1"/>
<path d="M95.9543 110.91H89.1055V117.89H95.9543V110.91Z" fill="#71C3D1"/>
<path d="M95.9543 104H89.1055V110.91H95.9543V104Z" fill="#71C3D1"/>
<path d="M95.9543 97.0903H89.1055V104H95.9543V97.0903Z" fill="#6CA6B7"/>
<path d="M95.9543 90.11H89.1055V97.0903H95.9543V90.11Z" fill="#6CA6B7"/>
<path d="M95.9543 83.2003H89.1055V90.1101H95.9543V83.2003Z" fill="#DBC4B4"/>
<path d="M95.9543 76.2898H89.1055V83.1996H95.9543V76.2898Z" fill="#DBC4B4"/>
<path d="M95.9543 69.3096H89.1055V76.2899H95.9543V69.3096Z" fill="#DBC4B4"/>
<path d="M95.9543 62.3999H89.1055V69.3097H95.9543V62.3999Z" fill="#BEAA9A"/>
<path d="M95.9543 55.4901H89.1055V62.4H95.9543V55.4901Z" fill="#DBC4B4"/>
<path d="M95.9543 48.5099H89.1055V55.4902H95.9543V48.5099Z" fill="#D1A69B"/>
<path d="M95.9543 41.6001H89.1055V48.5099H95.9543V41.6001Z" fill="#EFDBCB"/>
<path d="M95.9543 34.6904H89.1055V41.6003H95.9543V34.6904Z" fill="#EFDBCB"/>
<path d="M95.9543 27.7102H89.1055V34.6905H95.9543V27.7102Z" fill="#EFDBCB"/>
<path d="M95.9543 20.7997H89.1055V27.7095H95.9543V20.7997Z" fill="#EFDBCB"/>
<path d="M95.9543 13.89H89.1055V20.7998H95.9543V13.89Z" fill="#EFDBCB"/>
<path d="M95.9543 6.90967H89.1055V13.89H95.9543V6.90967Z" fill="#A89688"/>
<path d="M95.9543 0H89.1055V6.90983H95.9543V0Z" fill="#B29F93"/>
<path d="M89.1042 277.31H82.2554V284.29H89.1042V277.31Z" fill="#6D7575"/>
<path d="M89.1042 270.4H82.2554V277.31H89.1042V270.4Z" fill="#6D7575"/>
<path d="M89.1042 263.49H82.2554V270.4H89.1042V263.49Z" fill="#6D7575"/>
<path d="M89.1042 256.51H82.2554V263.49H89.1042V256.51Z" fill="#6D7575"/>
<path d="M89.1042 249.6H82.2554V256.51H89.1042V249.6Z" fill="#778080"/>
<path d="M89.1042 242.69H82.2554V249.6H89.1042V242.69Z" fill="#778080"/>
<path d="M89.1042 235.71H82.2554V242.691H89.1042V235.71Z" fill="#778080"/>
<path d="M89.1042 228.8H82.2554V235.71H89.1042V228.8Z" fill="#778080"/>
<path d="M89.1042 221.89H82.2554V228.8H89.1042V221.89Z" fill="#778080"/>
<path d="M89.1042 214.91H82.2554V221.89H89.1042V214.91Z" fill="#778080"/>
<path d="M89.1042 208H82.2554V214.91H89.1042V208Z" fill="#71C3D1"/>
<path d="M89.1042 201.09H82.2554V208H89.1042V201.09Z" fill="#71C3D1"/>
<path d="M89.1042 194.11H82.2554V201.09H89.1042V194.11Z" fill="#71C3D1"/>
<path d="M89.1042 187.2H82.2554V194.11H89.1042V187.2Z" fill="#71C3D1"/>
<path d="M89.1042 180.29H82.2554V187.2H89.1042V180.29Z" fill="#71C3D1"/>
<path d="M89.1042 173.31H82.2554V180.29H89.1042V173.31Z" fill="#71C3D1"/>
<path d="M89.1042 166.4H82.2554V173.31H89.1042V166.4Z" fill="#97A5A4"/>
<path d="M89.1042 159.49H82.2554V166.4H89.1042V159.49Z" fill="#71C3D1"/>
<path d="M89.1042 152.51H82.2554V159.49H89.1042V152.51Z" fill="#71C3D1"/>
<path d="M89.1042 145.6H82.2554V152.51H89.1042V145.6Z" fill="#71C3D1"/>
<path d="M89.1042 138.69H82.2554V145.6H89.1042V138.69Z" fill="#71C3D1"/>
<path d="M89.1042 131.71H82.2554V138.691H89.1042V131.71Z" fill="#71C3D1"/>
<path d="M89.1042 124.8H82.2554V131.71H89.1042V124.8Z" fill="#71C3D1"/>
<path d="M89.1042 117.89H82.2554V124.8H89.1042V117.89Z" fill="#71C3D1"/>
<path d="M89.1042 110.91H82.2554V117.89H89.1042V110.91Z" fill="#71C3D1"/>
<path d="M89.1042 104H82.2554V110.91H89.1042V104Z" fill="#71C3D1"/>
<path d="M89.1042 97.0903H82.2554V104H89.1042V97.0903Z" fill="#71C3D1"/>
<path d="M89.1042 90.11H82.2554V97.0903H89.1042V90.11Z" fill="#6CA6B7"/>
<path d="M89.1042 83.2003H82.2554V90.1101H89.1042V83.2003Z" fill="#6CA6B7"/>
<path d="M89.1042 76.2898H82.2554V83.1996H89.1042V76.2898Z" fill="#6CA6B7"/>
<path d="M89.1042 69.3096H82.2554V76.2899H89.1042V69.3096Z" fill="#6CA6B7"/>
<path d="M89.1042 62.3999H82.2554V69.3097H89.1042V62.3999Z" fill="#BEAA9A"/>
<path d="M89.1042 55.4901H82.2554V62.4H89.1042V55.4901Z" fill="#DBC4B4"/>
<path d="M89.1042 48.5099H82.2554V55.4902H89.1042V48.5099Z" fill="#DBC4B4"/>
<path d="M89.1042 41.6001H82.2554V48.5099H89.1042V41.6001Z" fill="#DBC4B4"/>
<path d="M89.1042 34.6904H82.2554V41.6003H89.1042V34.6904Z" fill="#DBC4B4"/>
<path d="M89.1042 27.7102H82.2554V34.6905H89.1042V27.7102Z" fill="white"/>
<path d="M89.1042 20.7997H82.2554V27.7095H89.1042V20.7997Z" fill="#BEAA9A"/>
<path d="M89.1042 13.89H82.2554V20.7998H89.1042V13.89Z" fill="#EFDBCB"/>
<path d="M89.1042 6.90967H82.2554V13.89H89.1042V6.90967Z" fill="#B29F93"/>
<path d="M89.1042 0H82.2554V6.90983H89.1042V0Z" fill="#A89688"/>
<path d="M82.257 409.09H75.4082V416H82.257V409.09Z" fill="#A89588"/>
<path d="M82.257 402.11H75.4082V409.09H82.257V402.11Z" fill="#A89588"/>
<path d="M82.257 395.2H75.4082V402.11H82.257V395.2Z" fill="#A89588"/>
<path d="M82.257 388.29H75.4082V395.2H82.257V388.29Z" fill="#6D7575"/>
<path d="M82.257 381.31H75.4082V388.29H82.257V381.31Z" fill="#6D7575"/>
<path d="M82.257 374.4H75.4082V381.31H82.257V374.4Z" fill="#6D7575"/>
<path d="M82.257 367.49H75.4082V374.4H82.257V367.49Z" fill="#6D7575"/>
<path d="M82.257 360.51H75.4082V367.49H82.257V360.51Z" fill="#6D7575"/>
<path d="M82.257 353.6H75.4082V360.51H82.257V353.6Z" fill="#6D7575"/>
<path d="M82.257 346.69H75.4082V353.6H82.257V346.69Z" fill="#6D7575"/>
<path d="M82.257 339.71H75.4082V346.691H82.257V339.71Z" fill="#6D7575"/>
<path d="M82.257 332.8H75.4082V339.71H82.257V332.8Z" fill="#6D7575"/>
<path d="M82.257 325.89H75.4082V332.8H82.257V325.89Z" fill="#6D7575"/>
<path d="M82.257 318.91H75.4082V325.89H82.257V318.91Z" fill="#6D7575"/>
<path d="M82.257 312H75.4082V318.91H82.257V312Z" fill="#6D7575"/>
<path d="M82.257 305.09H75.4082V312H82.257V305.09Z" fill="#6D7575"/>
<path d="M82.257 298.11H75.4082V305.09H82.257V298.11Z" fill="#6D7575"/>
<path d="M82.257 291.2H75.4082V298.11H82.257V291.2Z" fill="#6D7575"/>
<path d="M82.257 284.29H75.4082V291.2H82.257V284.29Z" fill="#6D7575"/>
<path d="M82.257 277.31H75.4082V284.29H82.257V277.31Z" fill="#717777"/>
<path d="M82.257 270.4H75.4082V277.31H82.257V270.4Z" fill="#717777"/>
<path d="M82.257 263.49H75.4082V270.4H82.257V263.49Z" fill="#717777"/>
<path d="M82.257 256.51H75.4082V263.49H82.257V256.51Z" fill="#717777"/>
<path d="M82.257 249.6H75.4082V256.51H82.257V249.6Z" fill="#778080"/>
<path d="M82.257 242.69H75.4082V249.6H82.257V242.69Z" fill="#778080"/>
<path d="M82.257 235.71H75.4082V242.691H82.257V235.71Z" fill="#778080"/>
<path d="M82.257 228.8H75.4082V235.71H82.257V228.8Z" fill="#889191"/>
<path d="M82.257 221.89H75.4082V228.8H82.257V221.89Z" fill="#889191"/>
<path d="M82.257 214.91H75.4082V221.89H82.257V214.91Z" fill="#889191"/>
<path d="M82.257 208H75.4082V214.91H82.257V208Z" fill="#71C3D1"/>
<path d="M82.257 201.09H75.4082V208H82.257V201.09Z" fill="#71C3D1"/>
<path d="M82.257 194.11H75.4082V201.09H82.257V194.11Z" fill="#71C3D1"/>
<path d="M82.257 187.2H75.4082V194.11H82.257V187.2Z" fill="#71C3D1"/>
<path d="M82.257 180.29H75.4082V187.2H82.257V180.29Z" fill="#71C3D1"/>
<path d="M82.257 173.31H75.4082V180.29H82.257V173.31Z" fill="#71C3D1"/>
<path d="M82.257 166.4H75.4082V173.31H82.257V166.4Z" fill="#71C3D1"/>
<path d="M82.257 159.49H75.4082V166.4H82.257V159.49Z" fill="#BF5F3D"/>
<path d="M82.257 152.51H75.4082V159.49H82.257V152.51Z" fill="#71C3D1"/>
<path d="M82.257 145.6H75.4082V152.51H82.257V145.6Z" fill="#71C3D1"/>
<path d="M82.257 138.69H75.4082V145.6H82.257V138.69Z" fill="#71C3D1"/>
<path d="M82.257 131.71H75.4082V138.691H82.257V131.71Z" fill="#71C3D1"/>
<path d="M82.257 124.8H75.4082V131.71H82.257V124.8Z" fill="#71C3D1"/>
<path d="M82.257 117.89H75.4082V124.8H82.257V117.89Z" fill="#71C3D1"/>
<path d="M82.257 110.91H75.4082V117.89H82.257V110.91Z" fill="#71C3D1"/>
<path d="M82.257 104H75.4082V110.91H82.257V104Z" fill="#71C3D1"/>
<path d="M82.257 97.0903H75.4082V104H82.257V97.0903Z" fill="#71C3D1"/>
<path d="M82.257 90.11H75.4082V97.0903H82.257V90.11Z" fill="#71C3D1"/>
<path d="M82.257 83.2003H75.4082V90.1101H82.257V83.2003Z" fill="#71C3D1"/>
<path d="M82.257 76.2898H75.4082V83.1996H82.257V76.2898Z" fill="#6CA6B7"/>
<path d="M82.257 55.4901H75.4082V62.4H82.257V55.4901Z" fill="#BEAA9A"/>
<path d="M82.257 48.5099H75.4082V55.4902H82.257V48.5099Z" fill="#DBC4B4"/>
<path d="M82.257 41.6001H75.4082V48.5099H82.257V41.6001Z" fill="#DBC4B4"/>
<path d="M82.257 34.6904H75.4082V41.6003H82.257V34.6904Z" fill="#DBC4B4"/>
<path d="M82.257 27.7102H75.4082V34.6905H82.257V27.7102Z" fill="#8B9796"/>
<path d="M82.257 20.7997H75.4082V27.7095H82.257V20.7997Z" fill="#BEAA9A"/>
<path d="M82.257 13.89H75.4082V20.7998H82.257V13.89Z" fill="#EFDBCB"/>
<path d="M82.257 6.90967H75.4082V13.89H82.257V6.90967Z" fill="#A89688"/>
<path d="M75.4069 409.09H68.5581V416H75.4069V409.09Z" fill="#A89588"/>
<path d="M75.4069 402.11H68.5581V409.09H75.4069V402.11Z" fill="#A89588"/>
<path d="M75.4069 395.2H68.5581V402.11H75.4069V395.2Z" fill="#BEAA9A"/>
<path d="M75.4069 388.29H68.5581V395.2H75.4069V388.29Z" fill="#717777"/>
<path d="M75.4069 381.31H68.5581V388.29H75.4069V381.31Z" fill="#717777"/>
<path d="M75.4069 374.4H68.5581V381.31H75.4069V374.4Z" fill="#717777"/>
<path d="M75.4069 367.49H68.5581V374.4H75.4069V367.49Z" fill="#717777"/>
<path d="M75.4069 360.51H68.5581V367.49H75.4069V360.51Z" fill="#717777"/>
<path d="M75.4069 353.6H68.5581V360.51H75.4069V353.6Z" fill="#717777"/>
<path d="M75.4069 346.69H68.5581V353.6H75.4069V346.69Z" fill="#717777"/>
<path d="M75.4069 339.71H68.5581V346.691H75.4069V339.71Z" fill="#717777"/>
<path d="M75.4069 332.8H68.5581V339.71H75.4069V332.8Z" fill="#717777"/>
<path d="M75.4069 325.89H68.5581V332.8H75.4069V325.89Z" fill="#717777"/>
<path d="M75.4069 318.91H68.5581V325.89H75.4069V318.91Z" fill="#717777"/>
<path d="M75.4069 312H68.5581V318.91H75.4069V312Z" fill="#717777"/>
<path d="M75.4069 305.09H68.5581V312H75.4069V305.09Z" fill="#717777"/>
<path d="M75.4069 298.11H68.5581V305.09H75.4069V298.11Z" fill="#717777"/>
<path d="M75.4069 291.2H68.5581V298.11H75.4069V291.2Z" fill="#717777"/>
<path d="M75.4069 284.29H68.5581V291.2H75.4069V284.29Z" fill="#717777"/>
<path d="M75.4069 277.31H68.5581V284.29H75.4069V277.31Z" fill="#778080"/>
<path d="M75.4069 270.4H68.5581V277.31H75.4069V270.4Z" fill="#778080"/>
<path d="M75.4069 263.49H68.5581V270.4H75.4069V263.49Z" fill="#778080"/>
<path d="M75.4069 256.51H68.5581V263.49H75.4069V256.51Z" fill="#778080"/>
<path d="M75.4069 249.6H68.5581V256.51H75.4069V249.6Z" fill="#778080"/>
<path d="M75.4069 242.69H68.5581V249.6H75.4069V242.69Z" fill="#778080"/>
<path d="M75.4069 235.71H68.5581V242.691H75.4069V235.71Z" fill="#889191"/>
<path d="M75.4069 228.8H68.5581V235.71H75.4069V228.8Z" fill="#889191"/>
<path d="M75.4069 221.89H68.5581V228.8H75.4069V221.89Z" fill="#889191"/>
<path d="M75.4069 214.91H68.5581V221.89H75.4069V214.91Z" fill="#889191"/>
<path d="M75.4069 208H68.5581V214.91H75.4069V208Z" fill="#71C3D1"/>
<path d="M75.4069 201.09H68.5581V208H75.4069V201.09Z" fill="#71C3D1"/>
<path d="M75.4069 194.11H68.5581V201.09H75.4069V194.11Z" fill="#71C3D1"/>
<path d="M75.4069 187.2H68.5581V194.11H75.4069V187.2Z" fill="#71C3D1"/>
<path d="M75.4069 180.29H68.5581V187.2H75.4069V180.29Z" fill="#6CA6B7"/>
<path d="M75.4069 173.31H68.5581V180.29H75.4069V173.31Z" fill="#6CA6B7"/>
<path d="M75.4069 166.4H68.5581V173.31H75.4069V166.4Z" fill="#6CA6B7"/>
<path d="M75.4069 159.49H68.5581V166.4H75.4069V159.49Z" fill="#71C3D1"/>
<path d="M75.4069 152.51H68.5581V159.49H75.4069V152.51Z" fill="#71C3D1"/>
<path d="M75.4069 145.6H68.5581V152.51H75.4069V145.6Z" fill="#71C3D1"/>
<path d="M75.4069 138.69H68.5581V145.6H75.4069V138.69Z" fill="#71C3D1"/>
<path d="M75.4069 131.71H68.5581V138.691H75.4069V131.71Z" fill="#71C3D1"/>
<path d="M75.4069 124.8H68.5581V131.71H75.4069V124.8Z" fill="#71C3D1"/>
<path d="M75.4069 117.89H68.5581V124.8H75.4069V117.89Z" fill="#71C3D1"/>
<path d="M75.4069 110.91H68.5581V117.89H75.4069V110.91Z" fill="#71C3D1"/>
<path d="M75.4069 104H68.5581V110.91H75.4069V104Z" fill="#71C3D1"/>
<path d="M75.4069 97.0903H68.5581V104H75.4069V97.0903Z" fill="#71C3D1"/>
<path d="M75.4069 90.11H68.5581V97.0903H75.4069V90.11Z" fill="#71C3D1"/>
<path d="M75.4069 83.2003H68.5581V90.1101H75.4069V83.2003Z" fill="#71C3D1"/>
<path d="M75.4069 76.2898H68.5581V83.1996H75.4069V76.2898Z" fill="#71C3D1"/>
<path d="M68.5597 409.09H61.7109V416H68.5597V409.09Z" fill="#A89588"/>
<path d="M68.5597 402.11H61.7109V409.09H68.5597V402.11Z" fill="#BEAA9A"/>
<path d="M68.5597 395.2H61.7109V402.11H68.5597V395.2Z" fill="#BEAA9A"/>
<path d="M68.5597 388.29H61.7109V395.2H68.5597V388.29Z" fill="#778080"/>
<path d="M68.5597 381.31H61.7109V388.29H68.5597V381.31Z" fill="#778080"/>
<path d="M68.5597 374.4H61.7109V381.31H68.5597V374.4Z" fill="#778080"/>
<path d="M68.5597 367.49H61.7109V374.4H68.5597V367.49Z" fill="#778080"/>
<path d="M68.5597 360.51H61.7109V367.49H68.5597V360.51Z" fill="#778080"/>
<path d="M68.5597 353.6H61.7109V360.51H68.5597V353.6Z" fill="#778080"/>
<path d="M68.5597 346.69H61.7109V353.6H68.5597V346.69Z" fill="#778080"/>
<path d="M68.5597 339.71H61.7109V346.691H68.5597V339.71Z" fill="#778080"/>
<path d="M68.5597 332.8H61.7109V339.71H68.5597V332.8Z" fill="#778080"/>
<path d="M68.5597 325.89H61.7109V332.8H68.5597V325.89Z" fill="#778080"/>
<path d="M68.5597 318.91H61.7109V325.89H68.5597V318.91Z" fill="#778080"/>
<path d="M68.5597 312H61.7109V318.91H68.5597V312Z" fill="#778080"/>
<path d="M68.5597 305.09H61.7109V312H68.5597V305.09Z" fill="#778080"/>
<path d="M68.5597 298.11H61.7109V305.09H68.5597V298.11Z" fill="#778080"/>
<path d="M68.5597 291.2H61.7109V298.11H68.5597V291.2Z" fill="#778080"/>
<path d="M68.5597 284.29H61.7109V291.2H68.5597V284.29Z" fill="#778080"/>
<path d="M68.5597 277.31H61.7109V284.29H68.5597V277.31Z" fill="#778080"/>
<path d="M68.5597 270.4H61.7109V277.31H68.5597V270.4Z" fill="#778080"/>
<path d="M68.5597 263.49H61.7109V270.4H68.5597V263.49Z" fill="#778080"/>
<path d="M68.5597 256.51H61.7109V263.49H68.5597V256.51Z" fill="#778080"/>
<path d="M68.5597 249.6H61.7109V256.51H68.5597V249.6Z" fill="#778080"/>
<path d="M68.5597 242.69H61.7109V249.6H68.5597V242.69Z" fill="#778080"/>
<path d="M68.5597 235.71H61.7109V242.691H68.5597V235.71Z" fill="#889191"/>
<path d="M68.5597 228.8H61.7109V235.71H68.5597V228.8Z" fill="#889191"/>
<path d="M68.5597 221.89H61.7109V228.8H68.5597V221.89Z" fill="#889191"/>
<path d="M68.5597 214.91H61.7109V221.89H68.5597V214.91Z" fill="#889191"/>
<path d="M68.5597 208H61.7109V214.91H68.5597V208Z" fill="#71C3D1"/>
<path d="M68.5597 201.09H61.7109V208H68.5597V201.09Z" fill="#71C3D1"/>
<path d="M68.5597 194.11H61.7109V201.09H68.5597V194.11Z" fill="#71C3D1"/>
<path d="M68.5597 187.2H61.7109V194.11H68.5597V187.2Z" fill="#6CA6B7"/>
<path d="M68.5597 180.29H61.7109V187.2H68.5597V180.29Z" fill="#71C3D1"/>
<path d="M68.5597 173.31H61.7109V180.29H68.5597V173.31Z" fill="#71C3D1"/>
<path d="M68.5597 166.4H61.7109V173.31H68.5597V166.4Z" fill="#71C3D1"/>
<path d="M68.5597 159.49H61.7109V166.4H68.5597V159.49Z" fill="#6CA6B7"/>
<path d="M68.5597 152.51H61.7109V159.49H68.5597V152.51Z" fill="#71C3D1"/>
<path d="M68.5597 145.6H61.7109V152.51H68.5597V145.6Z" fill="#71C3D1"/>
<path d="M68.5597 138.69H61.7109V145.6H68.5597V138.69Z" fill="#71C3D1"/>
<path d="M68.5597 131.71H61.7109V138.691H68.5597V131.71Z" fill="#71C3D1"/>
<path d="M68.5597 124.8H61.7109V131.71H68.5597V124.8Z" fill="#71C3D1"/>
<path d="M68.5597 117.89H61.7109V124.8H68.5597V117.89Z" fill="#71C3D1"/>
<path d="M68.5597 110.91H61.7109V117.89H68.5597V110.91Z" fill="#71C3D1"/>
<path d="M68.5597 104H61.7109V110.91H68.5597V104Z" fill="#71C3D1"/>
<path d="M68.5597 97.0903H61.7109V104H68.5597V97.0903Z" fill="#71C3D1"/>
<path d="M68.5597 90.11H61.7109V97.0903H68.5597V90.11Z" fill="#71C3D1"/>
<path d="M68.5597 83.2003H61.7109V90.1101H68.5597V83.2003Z" fill="#71C3D1"/>
<path d="M61.7085 409.09H54.7891V416H61.7085V409.09Z" fill="#BEAA9A"/>
<path d="M61.7085 402.11H54.7891V409.09H61.7085V402.11Z" fill="#C6B6AC"/>
<path d="M61.7085 332.8H54.7891V339.71H61.7085V332.8Z" fill="#889191"/>
<path d="M61.7085 325.89H54.7891V332.8H61.7085V325.89Z" fill="#889191"/>
<path d="M61.7085 318.91H54.7891V325.89H61.7085V318.91Z" fill="#889191"/>
<path d="M61.7085 312H54.7891V318.91H61.7085V312Z" fill="#889191"/>
<path d="M61.7085 180.29H54.7891V187.2H61.7085V180.29Z" fill="#71C3D1"/>
<path d="M61.7085 173.31H54.7891V180.29H61.7085V173.31Z" fill="#71C3D1"/>
<path d="M61.7085 166.4H54.7891V173.31H61.7085V166.4Z" fill="#71C3D1"/>
<path d="M61.7085 159.49H54.7891V166.4H61.7085V159.49Z" fill="#71C3D1"/>
<path d="M61.7085 117.89H54.7891V124.8H61.7085V117.89Z" fill="#71C3D1"/>
<path d="M61.7085 110.91H54.7891V117.89H61.7085V110.91Z" fill="#71C3D1"/>
<path d="M61.7085 104H54.7891V110.91H61.7085V104Z" fill="#71C3D1"/>
<path d="M61.7085 97.0903H54.7891V104H61.7085V97.0903Z" fill="#71C3D1"/>
<path d="M61.7085 90.11H54.7891V97.0903H61.7085V90.11Z" fill="#71C3D1"/>
<path d="M61.7085 83.2003H54.7891V90.1101H61.7085V83.2003Z" fill="#6CA6B7"/>
<path d="M54.7907 173.31H47.9419V180.29H54.7907V173.31Z" fill="#71C3D1"/>
<path d="M54.7907 166.4H47.9419V173.31H54.7907V166.4Z" fill="#71C3D1"/>
<path d="M54.7907 159.49H47.9419V166.4H54.7907V159.49Z" fill="#71C3D1"/>
<path d="M54.7907 152.51H47.9419V159.49H54.7907V152.51Z" fill="#71C3D1"/>
<path d="M54.7907 124.8H47.9419V131.71H54.7907V124.8Z" fill="#71C3D1"/>
<path d="M54.7907 117.89H47.9419V124.8H54.7907V117.89Z" fill="#71C3D1"/>
<path d="M54.7907 110.91H47.9419V117.89H54.7907V110.91Z" fill="#71C3D1"/>
<path d="M54.7907 104H47.9419V110.91H54.7907V104Z" fill="#71C3D1"/>
<path d="M54.7907 97.0903H47.9419V104H54.7907V97.0903Z" fill="#71C3D1"/>
<path d="M54.7907 90.11H47.9419V97.0903H54.7907V90.11Z" fill="#6CA6B7"/>
<path d="M47.9406 166.4H41.0918V173.31H47.9406V166.4Z" fill="#71C3D1"/>
<path d="M47.9406 159.49H41.0918V166.4H47.9406V159.49Z" fill="#71C3D1"/>
<path d="M47.9406 152.51H41.0918V159.49H47.9406V152.51Z" fill="#71C3D1"/>
<path d="M47.9406 145.6H41.0918V152.51H47.9406V145.6Z" fill="#71C3D1"/>
<path d="M47.9406 138.69H41.0918V145.6H47.9406V138.69Z" fill="#71C3D1"/>
<path d="M47.9406 131.71H41.0918V138.691H47.9406V131.71Z" fill="#71C3D1"/>
<path d="M47.9406 124.8H41.0918V131.71H47.9406V124.8Z" fill="#71C3D1"/>
<path d="M47.9406 117.89H41.0918V124.8H47.9406V117.89Z" fill="#71C3D1"/>
<path d="M47.9406 110.91H41.0918V117.89H47.9406V110.91Z" fill="#71C3D1"/>
<path d="M47.9406 104H41.0918V110.91H47.9406V104Z" fill="#6CA6B7"/>
<path d="M47.9406 97.0903H41.0918V104H47.9406V97.0903Z" fill="#6CA6B7"/>
<path d="M41.0934 159.49H34.2446V166.4H41.0934V159.49Z" fill="#71C3D1"/>
<path d="M41.0934 152.51H34.2446V159.49H41.0934V152.51Z" fill="#71C3D1"/>
<path d="M41.0934 145.6H34.2446V152.51H41.0934V145.6Z" fill="#71C3D1"/>
<path d="M41.0934 138.69H34.2446V145.6H41.0934V138.69Z" fill="#71C3D1"/>
<path d="M41.0934 131.71H34.2446V138.691H41.0934V131.71Z" fill="#71C3D1"/>
<path d="M41.0934 124.8H34.2446V131.71H41.0934V124.8Z" fill="#71C3D1"/>
<path d="M41.0934 117.89H34.2446V124.8H41.0934V117.89Z" fill="#71C3D1"/>
<path d="M41.0934 110.91H34.2446V117.89H41.0934V110.91Z" fill="#6CA6B7"/>
<path d="M34.2433 152.51H27.3945V159.49H34.2433V152.51Z" fill="#6CA6B7"/>
<path d="M34.2433 145.6H27.3945V152.51H34.2433V145.6Z" fill="#6CA6B7"/>
<path d="M34.2433 138.69H27.3945V145.6H34.2433V138.69Z" fill="#71C3D1"/>
<path d="M34.2433 131.71H27.3945V138.691H34.2433V131.71Z" fill="#71C3D1"/>
<path d="M34.2433 124.8H27.3945V131.71H34.2433V124.8Z" fill="#71C3D1"/>
</g>
<defs>
<clipPath id="clip0">
<rect width="233" height="416" fill="white"/>
</clipPath>
</defs>
</svg>
