<svg viewBox="0 0 30 16" fill="none" xmlns="http://www.w3.org/2000/svg">
<path d="M1 0.5C0.723858 0.5 0.5 0.723858 0.5 1C0.5 1.27614 0.723858 1.5 1 1.5V0.5ZM31 1.5C31.2761 1.5 31.5 1.27614 31.5 1C31.5 0.723858 31.2761 0.5 31 0.5V1.5ZM1 1.5H31V0.5H1V1.5Z" fill="#E474F1"/>
<path d="M16 8.5C15.7239 8.5 15.5 8.72386 15.5 9C15.5 9.27614 15.7239 9.5 16 9.5V8.5ZM31 9.5C31.2761 9.5 31.5 9.27614 31.5 9C31.5 8.72386 31.2761 8.5 31 8.5V9.5ZM16 9.5L31 9.5V8.5L16 8.5V9.5Z" fill="url(#paint0_linear_2661_10315)"/>
<path d="M1 16.5C0.723858 16.5 0.5 16.7239 0.5 17C0.5 17.2761 0.723858 17.5 1 17.5L1 16.5ZM31 17.5C31.2761 17.5 31.5 17.2761 31.5 17C31.5 16.7239 31.2761 16.5 31 16.5V17.5ZM1 17.5L31 17.5V16.5L1 16.5L1 17.5Z" fill="#81B9E8"/>
<defs>
<linearGradient id="paint0_linear_2661_10315" x1="16" y1="9.49479" x2="30.9978" y2="9.68101" gradientUnits="userSpaceOnUse">
<stop stop-color="#E474F1"/>
<stop offset="0.0001" stop-color="#E474F1"/>
<stop offset="1" stop-color="#4FDAE2"/>
</linearGradient>
</defs>
</svg>