<svg width="22" height="22" viewBox="0 0 22 22" fill="none" xmlns="http://www.w3.org/2000/svg">
<path d="M0.392914 0.392501C0.916701 -0.131164 1.76552 -0.131025 2.2894 0.392501L10.9994 9.10246L19.7103 0.392501L19.8119 0.300704C20.3387 -0.129069 21.1166 -0.0985917 21.6078 0.392501C22.0989 0.883655 22.1294 1.6615 21.6996 2.1884L21.6078 2.28996L12.8968 10.9999L21.6078 19.7099L21.6996 19.8114C22.1293 20.3383 22.0989 21.1162 21.6078 21.6073C21.1166 22.0985 20.3388 22.1289 19.8119 21.6991L19.7103 21.6073L11.0003 12.8974L2.29037 21.6073C1.7665 22.1312 0.916801 22.1312 0.392914 21.6073C-0.130971 21.0835 -0.130971 20.2338 0.392914 19.7099L9.10287 10.9999L0.392914 2.28996C-0.130971 1.76608 -0.130971 0.916381 0.392914 0.392501Z" fill="#4C4C53"/>
</svg>
