<svg viewBox="0 0 16 16" fill="none" xmlns="http://www.w3.org/2000/svg">
<path d="M12 1.65C10.825 0.925 9.475 0.5 8 0.5V1.65H12Z" fill="#D80027"/>
<path d="M8 2.80039H13.4C12.975 2.37539 12.5 1.97539 12 1.65039H8V2.80039Z" fill="white"/>
<path d="M8 3.9498H14.325C14.05 3.5248 13.75 3.1498 13.425 2.7998H8V3.9498Z" fill="#D80027"/>
<path d="M8 5.1002H14.925C14.75 4.7002 14.55 4.3002 14.325 3.9502H8V5.1002Z" fill="white"/>
<path d="M8 6.24961H15.3C15.2 5.84961 15.075 5.47461 14.925 5.09961H8V6.24961Z" fill="#D80027"/>
<path d="M8 7.42539H15.475C15.45 7.02539 15.375 6.65039 15.3 6.27539H8V7.42539Z" fill="white"/>
<path d="M15.475 7.4248H8V7.9998H0.5C0.5 8.1998 0.5 8.3748 0.525 8.5748H15.475C15.5 8.3748 15.5 8.1998 15.5 7.9998C15.5 7.7998 15.5 7.5998 15.475 7.4248Z" fill="#D80027"/>
<path d="M0.698438 9.7252H15.2984C15.3984 9.3502 15.4484 8.9752 15.4734 8.5752H0.523438C0.548438 8.9502 0.598438 9.3502 0.698438 9.7252Z" fill="white"/>
<path d="M1.07422 10.8746H14.9242C15.0742 10.4996 15.1992 10.1246 15.2992 9.72461H0.699219C0.799219 10.1246 0.924219 10.4996 1.07422 10.8746Z" fill="#D80027"/>
<path d="M1.67422 12.025H14.3242C14.5492 11.65 14.7492 11.275 14.9242 10.875H1.07422C1.24922 11.275 1.44922 11.65 1.67422 12.025Z" fill="white"/>
<path d="M2.57578 13.1754H13.4258C13.7508 12.8254 14.0758 12.4254 14.3258 12.0254H1.67578C1.92578 12.4504 2.25078 12.8254 2.57578 13.1754Z" fill="#D80027"/>
<path d="M3.97422 14.3248H12.0242C12.5492 13.9998 12.9992 13.5998 13.4242 13.1748H2.57422C2.99922 13.6248 3.47422 13.9998 3.97422 14.3248Z" fill="white"/>
<path d="M8.00156 15.5002C9.47656 15.5002 10.8516 15.0752 12.0266 14.3252H3.97656C5.15156 15.0752 6.52656 15.5002 8.00156 15.5002Z" fill="#D80027"/>
<path d="M4 1.65C3.475 1.975 3 2.375 2.575 2.8C2.225 3.15 1.925 3.55 1.675 3.95C1.45 4.325 1.225 4.7 1.075 5.1C0.925 5.475 0.8 5.85 0.7 6.25C0.6 6.625 0.55 7 0.525 7.4C0.5 7.6 0.5 7.8 0.5 8H8V0.5C6.525 0.5 5.175 0.925 4 1.65Z" fill="#0052B4"/>
<path d="M6.25156 0.75L6.37656 1.125H6.75156L6.45156 1.375L6.55156 1.75L6.25156 1.525L5.95156 1.75L6.05156 1.375L5.75156 1.125H6.12656L6.25156 0.75ZM7.25156 2.25L7.37656 2.625H7.75156L7.45156 2.875L7.55156 3.25L7.25156 3.025L6.95156 3.25L7.05156 2.875L6.75156 2.625H7.12656L7.25156 2.25ZM5.25156 2.25L5.37656 2.625H5.75156L5.45156 2.875L5.55156 3.25L5.25156 3.025L4.95156 3.25L5.05156 2.875L4.75156 2.625H5.12656L5.25156 2.25ZM6.25156 3.75L6.37656 4.125H6.75156L6.45156 4.375L6.55156 4.75L6.25156 4.525L5.95156 4.75L6.05156 4.375L5.75156 4.125H6.12656L6.25156 3.75ZM4.25156 3.75L4.37656 4.125H4.75156L4.45156 4.375L4.55156 4.75L4.25156 4.525L3.95156 4.75L4.05156 4.375L3.75156 4.125H4.12656L4.25156 3.75ZM2.25156 3.75L2.37656 4.125H2.75156L2.45156 4.375L2.55156 4.75L2.25156 4.525L1.95156 4.75L2.05156 4.375L1.75156 4.125H2.12656L2.25156 3.75ZM7.25156 5.25L7.37656 5.625H7.75156L7.45156 5.875L7.55156 6.25L7.25156 6.025L6.95156 6.25L7.05156 5.875L6.75156 5.625H7.12656L7.25156 5.25ZM5.25156 5.25L5.37656 5.625H5.75156L5.45156 5.875L5.55156 6.25L5.25156 6.025L4.95156 6.25L5.05156 5.875L4.75156 5.625H5.12656L5.25156 5.25ZM3.25156 5.25L3.37656 5.625H3.75156L3.45156 5.875L3.55156 6.25L3.25156 6.025L2.95156 6.25L3.05156 5.875L2.75156 5.625H3.12656L3.25156 5.25ZM6.25156 6.75L6.37656 7.125H6.75156L6.45156 7.375L6.55156 7.75L6.25156 7.525L5.95156 7.75L6.05156 7.375L5.75156 7.125H6.12656L6.25156 6.75ZM4.25156 6.75L4.37656 7.125H4.75156L4.45156 7.375L4.55156 7.75L4.25156 7.525L3.95156 7.75L4.05156 7.375L3.75156 7.125H4.12656L4.25156 6.75ZM2.25156 6.75L2.37656 7.125H2.75156L2.45156 7.375L2.55156 7.75L2.25156 7.525L1.95156 7.75L2.05156 7.375L1.75156 7.125H2.12656L2.25156 6.75ZM2.95156 3.25L3.25156 3.025L3.55156 3.25L3.42656 2.875L3.72656 2.625H3.35156L3.25156 2.25L3.12656 2.625H2.77656L3.07656 2.85L2.95156 3.25ZM0.951562 6.25L1.25156 6.025L1.55156 6.25L1.42656 5.875L1.72656 5.625H1.37656L1.25156 5.25L1.12656 5.625H0.876562C0.876562 5.65 0.851562 5.675 0.851562 5.7L1.05156 5.85L0.951562 6.25Z" fill="white"/>
</svg>