<svg width="28" height="28" viewBox="0 0 28 28" fill="none" xmlns="http://www.w3.org/2000/svg">
<path d="M14 0C18.5797 0 22.6458 2.19896 25.2 5.59863C26.9581 7.93872 28 10.8477 28 14C28 21.732 21.732 28 14 28C6.26801 28 0 21.732 0 14C0 10.8477 1.04185 7.93872 2.8 5.59863C5.35424 2.19896 9.42032 0 14 0ZM6.76758 20.7662C5.84955 20.8423 4.89368 20.9307 3.88691 21.0328C5.35009 23.1329 7.45114 24.7495 9.90801 25.6143C8.61042 24.4654 7.52404 22.789 6.76758 20.7662ZM21.2338 20.758C20.4772 22.7843 19.3912 24.4639 18.092 25.6143C20.5491 24.749 22.6499 23.131 24.1131 21.0301C23.1069 20.9253 22.1516 20.835 21.2338 20.758ZM13.1605 20.4408C11.658 20.4596 10.1392 20.5243 8.52031 20.6336C8.8027 21.3168 9.1246 21.9452 9.48008 22.508C10.5781 24.2465 11.879 25.2248 13.1605 25.5213V20.4408ZM14.8395 25.5213C16.121 25.2248 17.4219 24.2465 18.5199 22.508C18.8767 21.9431 19.1979 21.3115 19.4811 20.6254C17.8629 20.5164 16.3438 20.4536 14.8395 20.4381V25.5213ZM1.71172 14.8395C1.82229 16.4823 2.25287 18.0363 2.94492 19.44C4.10611 19.3181 5.20079 19.2138 6.24668 19.1242C5.89506 17.792 5.67719 16.3499 5.61777 14.8395H1.71172ZM22.3822 14.8395C22.3229 16.3469 22.1051 17.786 21.7547 19.116C22.8003 19.2065 23.8945 19.313 25.0551 19.4387C25.7468 18.0353 26.1777 16.4818 26.2883 14.8395H22.3822ZM7.29941 14.8395C7.36279 16.3256 7.5937 17.7232 7.95293 18.9889C9.78178 18.8579 11.4806 18.7811 13.1605 18.7605V14.8395H7.29941ZM14.8395 18.7592C16.5207 18.7762 18.2199 18.8501 20.0484 18.9807C20.4064 17.7171 20.6373 16.3225 20.7006 14.8395H14.8395V18.7592ZM7.95293 9.0084C7.59329 10.2747 7.36284 11.6734 7.29941 13.1605H13.1605V9.23809C11.4806 9.2175 9.78181 9.13935 7.95293 9.0084ZM25.0551 8.55996C23.894 8.68569 22.7993 8.79073 21.7533 8.88125C22.1041 10.2121 22.3229 11.652 22.3822 13.1605H26.2896C26.1792 11.5167 25.7471 9.96332 25.0551 8.55996ZM20.0484 9.0166C18.2198 9.14718 16.5207 9.22248 14.8395 9.23945V13.1605H20.7006C20.6373 11.6765 20.4068 10.2808 20.0484 9.0166ZM2.94492 8.55859C2.25254 9.96224 1.82083 11.5163 1.71035 13.1605H5.61777C5.67723 11.6491 5.89467 10.206 6.24668 8.87305C5.20083 8.78349 4.10608 8.68056 2.94492 8.55859ZM14.8395 7.56055C16.3438 7.54503 17.8629 7.48084 19.4811 7.37187C19.1982 6.68665 18.8763 6.05625 18.5199 5.49199C17.4218 3.75338 16.1211 2.77374 14.8395 2.47734V7.56055ZM13.1605 2.47734C11.8789 2.77374 10.5782 3.75338 9.48008 5.49199C9.125 6.05419 8.80247 6.68135 8.52031 7.36367C10.1392 7.47324 11.658 7.54037 13.1605 7.55918V2.47734ZM18.0783 2.37344C19.383 3.52352 20.4732 5.20712 21.2324 7.23926C22.1514 7.16224 23.1082 7.07353 24.1158 6.96855C24.0312 6.84707 23.9463 6.72587 23.8574 6.60762C22.4054 4.67494 20.4001 3.18722 18.0783 2.37344ZM9.92031 2.37344C7.59905 3.18732 5.59438 4.67528 4.14258 6.60762C4.05418 6.72527 3.9684 6.84496 3.88418 6.96582C4.89194 7.06802 5.84873 7.15614 6.76758 7.23242C7.52655 5.20336 8.61722 3.52237 9.92031 2.37344Z" fill="#FE00B0"/>
</svg>
