<svg width="20" height="21" viewBox="0 0 20 21" fill="none" xmlns="http://www.w3.org/2000/svg">
<path d="M9.99999 12.5417L16.125 6.41667C16.3333 6.20833 16.5764 6.1075 16.8542 6.11417C17.1319 6.12083 17.375 6.22861 17.5833 6.4375C17.7917 6.64639 17.8958 6.88944 17.8958 7.16667C17.8958 7.44389 17.7917 7.68694 17.5833 7.89583L11.1875 14.3125C11.0208 14.4792 10.8333 14.6042 10.625 14.6875C10.4167 14.7708 10.2083 14.8125 9.99999 14.8125C9.79166 14.8125 9.58333 14.7708 9.37499 14.6875C9.16666 14.6042 8.97916 14.4792 8.81249 14.3125L2.39583 7.89583C2.18749 7.6875 2.08666 7.44083 2.09333 7.15583C2.09999 6.87083 2.20777 6.62444 2.41666 6.41667C2.62555 6.20889 2.86861 6.10472 3.14583 6.10417C3.42305 6.10361 3.66611 6.20778 3.87499 6.41667L9.99999 12.5417Z" fill="white"/>
</svg>
