<svg viewBox="0 0 9 12" fill="none" xmlns="http://www.w3.org/2000/svg">
<path d="M1.714 1.893v1.193c0 .852.487 2.216 1.786 2.557.179.048.357.16.357.357 0 .197-.178.309-.357.357-1.299.341-1.786 1.705-1.786 2.557v1.193m5.357-8.214v1.193c0 .852-.487 2.216-1.785 2.557-.179.048-.357.16-.357.357 0 .197.178.309.357.357 1.298.341 1.785 1.705 1.785 2.557v1.193m.715-8.571c0 .196-.161.357-.357.357H1.357A.358.358 0 0 1 1 1.536v-.179C1 1.161 1.16 1 1.357 1H7.43c.196 0 .357.16.357.357v.179ZM1.714 11H7.43c.196 0 .357-.16.357-.357v-.179a.358.358 0 0 0-.357-.357H1.357a.358.358 0 0 0-.357.357v.179c0 .196.16.357.357.357h.357Z" stroke="currentColor" stroke-opacity=".5" stroke-width=".5" stroke-miterlimit="10" stroke-linecap="round" stroke-linejoin="round"/>
</svg>