<svg xmlns="http://www.w3.org/2000/svg" fill="none" viewBox="0 0 40 40"><g stroke="currentColor" stroke-opacity=".3" stroke-width="2.5"><path d="m5.186 15.2-.074-.707a6.721 6.721 0 0 1 11.34-5.545l3.92 3.763 3.472-3.542a6.833 6.833 0 0 1 5.917-1.97 6.847 6.847 0 0 1 5.795 6.767 6.872 6.872 0 0 1-1.782 4.617l-13.403 14.75-4.074-3.91"/><path d="m17.998 23.736-6.701 7.375-6.722-7.582a3.366 3.366 0 0 1-.819-1.798l-.029-.221a3.137 3.137 0 0 1 5.155-2.785l2.415 2.075 1.736-1.771a3.417 3.417 0 0 1 5.857 2.399c0 .852-.318 1.677-.892 2.308Z"/></g></svg>