<svg width="36" height="36" viewBox="0 0 36 36" fill="none" xmlns="http://www.w3.org/2000/svg">
<path d="M14.3808 5V5.81779L11.9701 6.90595L10.9862 6.04948C10.0894 5.26874 8.73988 5.32062 7.90562 6.16792L6.29609 7.8026C5.38618 8.72672 5.44385 10.2267 6.42203 11.0783L7.24277 10.1354L6.42203 11.0783L7.15916 11.72L5.84359 14.125H5C3.75736 14.125 2.75 15.1324 2.75 16.375V19.1875C2.75 20.4301 3.75736 21.4375 5 21.4375H5.73347L6.81638 24.1871L6.01389 24.8663C5.01448 25.7121 4.94557 27.2294 5.86418 28.1623L6.73442 27.3055L5.86418 28.1623L7.47238 29.7956C8.29817 30.6343 9.6308 30.6949 10.5292 29.9345L11.5533 29.0677L14.3808 30.2164V31C14.3808 32.2426 15.3881 33.25 16.6308 33.25H18.9385C20.1811 33.25 21.1885 32.2426 21.1885 31V30.1822L23.693 29.0517L25.0099 29.9434C25.9085 30.5518 27.1133 30.4322 27.8747 29.6589L29.257 28.255C30.0521 27.4474 30.1225 26.1745 29.4212 25.2842L28.707 24.3774L29.8021 21.875H31C32.2426 21.875 33.25 20.8676 33.25 19.625V16.8125C33.25 15.5699 32.2426 14.5625 31 14.5625H29.8021L28.6783 11.9946L29.5865 10.6109C30.1682 9.72483 30.0525 8.55294 29.3088 7.79764L27.9284 6.39568C27.1148 5.56933 25.8064 5.49674 24.9063 6.22803L24.0317 6.93866L21.1885 5.7836V5C21.1885 3.75736 20.1811 2.75 18.9385 2.75H16.6308C15.3881 2.75 14.3808 3.75736 14.3808 5ZM5.67109 21.2791L5.67121 21.2794L5.67109 21.2791ZM6.88203 24.3538C6.88199 24.3537 6.88195 24.3536 6.8819 24.3534L6.88203 24.3538ZM29.8676 21.7252C29.8675 21.7254 29.8674 21.7257 29.8673 21.7259L29.8676 21.7252ZM29.8676 14.7123L29.8673 14.7116C29.8674 14.7118 29.8675 14.7121 29.8676 14.7123L29.6386 14.8125L29.8676 14.7123ZM28.624 11.8704C28.624 11.8705 28.6241 11.8707 28.6242 11.8708L28.624 11.8704ZM24.1687 6.99431L24.1683 6.99417L24.1687 6.99431Z" stroke="white" stroke-opacity="0.3" stroke-width="2.5" stroke-linecap="round"/>
<circle cx="18" cy="18" r="5.75" stroke="white" stroke-opacity="0.3" stroke-width="2.5"/>
</svg>
