<svg width="36" height="36" viewBox="0 0 36 36" fill="none" xmlns="http://www.w3.org/2000/svg">
<path d="M12.3717 5.8481H11C8.23857 5.8481 6 8.08668 6 10.8481V29C6 31.7614 8.23858 34 11 34H25C27.7614 34 30 31.7614 30 29V10.8481C30 8.08667 27.7614 5.8481 25 5.8481H24.2655M12.3717 5.8481V5.8481C12.3717 7.74964 13.9132 9.29114 15.8147 9.29114H18.3186H20.8224C22.724 9.29114 24.2655 7.74964 24.2655 5.8481V5.8481M12.3717 5.8481H15.1034M24.2655 5.8481H21.3103M21.3103 5.8481V5.10345C21.3103 3.38946 19.9209 2 18.2069 2V2C16.4929 2 15.1034 3.38946 15.1034 5.10345V5.8481M21.3103 5.8481H15.1034" stroke="white" stroke-opacity="0.3" stroke-width="2.3"/>
</svg>
