<svg width="36" height="36" viewBox="0 0 36 36" fill="none" xmlns="http://www.w3.org/2000/svg">
<path d="M12.1395 3V10.0405M12.1395 10.0405V10.0405C15.8992 7.28139 20.9932 7.20378 24.8351 9.84711L25.1163 10.0405M12.1395 10.0405L11.5625 10.4786C5.92256 14.7604 6.21812 23.3346 12.1395 27.2179V27.2179M25.1163 10.0405V3M25.1163 10.0405L25.3173 10.203C30.7652 14.6066 30.6667 22.9442 25.1163 27.2179V27.2179M25.1163 27.2179V27.2179C21.2944 29.7677 16.3329 29.8407 12.4377 27.4043L12.1395 27.2179M25.1163 27.2179V33.5M12.1395 27.2179V33.5" stroke="white" stroke-opacity="0.3" stroke-width="2.5"/>
<path d="M19 12.5V20.15L15 21.5" stroke="white" stroke-opacity="0.3" stroke-width="2" stroke-linecap="round"/>
</svg>
