<svg width="24" height="24" viewBox="0 0 24 24" fill="none" xmlns="http://www.w3.org/2000/svg">
<rect width="24" height="24" rx="12" fill="url(#paint0_linear_4093_3795)" fill-opacity="0.2"/>
<path d="M18.5 6.55554H5.5C5.22344 6.55554 5 6.77672 5 7.05049V16.9495C5 17.2232 5.22344 17.4444 5.5 17.4444H18.5C18.7766 17.4444 19 17.2232 19 16.9495V7.05049C19 6.77672 18.7766 6.55554 18.5 6.55554ZM17.875 8.2693V16.3308H6.125V8.2693L5.69375 7.93676L6.30781 7.15567L6.97656 7.67073H17.025L17.6938 7.15567L18.3078 7.93676L17.875 8.2693V8.2693ZM17.025 7.66918L12 11.536L6.975 7.66918L6.30625 7.15412L5.69219 7.93521L6.12344 8.26776L11.4609 12.3758C11.6144 12.4939 11.8033 12.558 11.9977 12.558C12.192 12.558 12.3809 12.4939 12.5344 12.3758L17.875 8.2693L18.3062 7.93676L17.6922 7.15567L17.025 7.66918Z" fill="url(#paint1_linear_4093_3795)"/>
<defs>
<linearGradient id="paint0_linear_4093_3795" x1="0.653148" y1="5.67079e-07" x2="32.0322" y2="14.7298" gradientUnits="userSpaceOnUse">
<stop stop-color="#703EA3"/>
<stop offset="1" stop-color="#E56DD9"/>
</linearGradient>
<linearGradient id="paint1_linear_4093_3795" x1="5.381" y1="6.55554" x2="21.7547" y2="16.4376" gradientUnits="userSpaceOnUse">
<stop stop-color="#703EA3"/>
<stop offset="1" stop-color="#E56DD9"/>
</linearGradient>
</defs>
</svg>
