<svg width="32" height="32" viewBox="0 0 32 32" fill="none" xmlns="http://www.w3.org/2000/svg">
<rect width="32" height="32" rx="16" fill="url(#paint0_linear_3334_855)" fill-opacity="0.3"/>
<path d="M24.3571 9H7.64286C7.28728 9 7 9.28437 7 9.63636V22.3636C7 22.7156 7.28728 23 7.64286 23H24.3571C24.7127 23 25 22.7156 25 22.3636V9.63636C25 9.28437 24.7127 9 24.3571 9ZM23.5536 11.2034V21.5682H8.44643V11.2034L7.89196 10.7759L8.68147 9.77159L9.54129 10.4338H22.4607L23.3205 9.77159L24.11 10.7759L23.5536 11.2034ZM22.4607 10.4318L16 15.4034L9.53929 10.4318L8.67946 9.7696L7.88996 10.7739L8.44442 11.2014L15.3069 16.4832C15.5043 16.635 15.7471 16.7174 15.997 16.7174C16.2469 16.7174 16.4897 16.635 16.6871 16.4832L23.5536 11.2034L24.108 10.7759L23.3185 9.77159L22.4607 10.4318Z" fill="url(#paint1_linear_3334_855)"/>
<defs>
<linearGradient id="paint0_linear_3334_855" x1="32" y1="5.98097e-07" x2="-4.136" y2="26.3219" gradientUnits="userSpaceOnUse">
<stop stop-color="#FD6907"/>
<stop offset="0.791667" stop-color="#FD3866"/>
</linearGradient>
<linearGradient id="paint1_linear_3334_855" x1="25" y1="9" x2="8.4257" y2="24.5223" gradientUnits="userSpaceOnUse">
<stop stop-color="#FF7921"/>
<stop offset="0.78125" stop-color="#FD3866"/>
</linearGradient>
</defs>
</svg>
