<svg width="32" height="32" viewBox="0 0 32 32" fill="none" xmlns="http://www.w3.org/2000/svg">
<g clip-path="url(#clip0_3090_2715)">
<circle cx="16" cy="16" r="16" fill="#7926FF" fill-opacity="0.2"/>
<path d="M7.24178 15.8316C11.9058 13.7996 15.0165 12.4596 16.5725 11.813C21.0165 9.96496 21.9391 9.64362 22.5404 9.63296C22.6738 9.63029 22.9698 9.66362 23.1605 9.81962C23.2885 9.9302 23.3704 10.0849 23.3898 10.253C23.4222 10.4611 23.4311 10.6722 23.4164 10.8823C23.1751 13.413 22.1324 19.5516 21.6031 22.3863C21.3791 23.585 20.9365 23.9863 20.5098 24.0263C19.7738 24.093 19.1778 23.669 18.5151 23.1956C18.3405 23.0716 18.1618 22.945 17.9751 22.8223C17.2391 22.3396 16.6711 21.953 16.1018 21.565L16.056 21.5338C15.5498 21.1894 15.0387 20.8417 14.4045 20.4236C13.0445 19.5276 13.6125 18.9783 14.3724 18.2476C14.4951 18.129 14.6231 18.005 14.7485 17.8756C14.8045 17.817 15.0778 17.5623 15.4645 17.2036C16.7045 16.0516 19.0965 13.8263 19.1578 13.569C19.1671 13.5263 19.1764 13.369 19.0831 13.2863C18.9898 13.2023 18.8511 13.2316 18.7511 13.2543C18.6098 13.2863 16.3605 14.773 12.0031 17.7156C11.3645 18.153 10.7858 18.3663 10.2671 18.3556C9.69645 18.3436 8.59778 18.033 7.78045 17.7676C7.66045 17.7276 7.54312 17.6916 7.42978 17.6556C6.60045 17.3956 5.98978 17.2036 6.05112 16.7156C6.08712 16.4276 6.48445 16.133 7.24178 15.8316Z" fill="#7926FF"/>
</g>
<defs>
<clipPath id="clip0_3090_2715">
<rect width="32" height="32" fill="white"/>
</clipPath>
</defs>
</svg>
