<svg viewBox="0 0 24 24" fill="none" xmlns="http://www.w3.org/2000/svg">
<path d="M12.43 8.859C11.263 9.344 8.93 10.349 5.432 11.873C4.864 12.099 4.566 12.32 4.539 12.536C4.493 12.902 4.951 13.046 5.573 13.241C5.658 13.268 5.746 13.295 5.836 13.325C6.449 13.524 7.273 13.757 7.701 13.766C8.09 13.774 8.524 13.614 9.003 13.286C12.271 11.079 13.958 9.964 14.064 9.94C14.139 9.923 14.243 9.901 14.313 9.964C14.383 10.026 14.376 10.144 14.369 10.176C14.323 10.369 12.529 12.038 11.599 12.902C11.309 13.171 11.104 13.362 11.062 13.406C10.968 13.503 10.872 13.596 10.78 13.685C10.21 14.233 9.784 14.645 10.804 15.317C11.2797 15.6306 11.663 15.8913 12.0427 16.1497L12.077 16.173C12.504 16.464 12.93 16.754 13.482 17.116C13.622 17.208 13.756 17.303 13.887 17.396C14.384 17.751 14.831 18.069 15.383 18.019C15.703 17.989 16.035 17.688 16.203 16.789C16.6 14.663 17.382 10.059 17.563 8.161C17.574 8.00342 17.5673 7.84509 17.543 7.689C17.5285 7.56293 17.4671 7.44693 17.371 7.364C17.228 7.247 17.006 7.222 16.906 7.224C16.455 7.232 15.763 7.473 12.43 8.859Z" fill="url(#paint0_linear_2577_6989)"/>
<path fill-rule="evenodd" clip-rule="evenodd" d="M24 12C24 18.627 18.627 24 12 24C5.373 24 0 18.627 0 12C0 5.373 5.373 0 12 0C18.627 0 24 5.373 24 12ZM5.432 11.873C8.93 10.349 11.263 9.344 12.43 8.859C15.763 7.473 16.455 7.232 16.906 7.224C17.006 7.222 17.228 7.247 17.371 7.364C17.4671 7.44693 17.5285 7.56293 17.543 7.689C17.5673 7.84509 17.574 8.00342 17.563 8.161C17.382 10.059 16.6 14.663 16.203 16.789C16.035 17.688 15.703 17.989 15.383 18.019C14.831 18.069 14.384 17.751 13.887 17.396C13.756 17.303 13.622 17.208 13.482 17.116C12.93 16.754 12.504 16.464 12.077 16.173L12.0427 16.1497C11.663 15.8913 11.2797 15.6306 10.804 15.317C9.784 14.645 10.21 14.233 10.78 13.685C10.872 13.596 10.968 13.503 11.062 13.406C11.104 13.362 11.309 13.171 11.599 12.902C12.529 12.038 14.323 10.369 14.369 10.176C14.376 10.144 14.383 10.026 14.313 9.964C14.243 9.901 14.139 9.923 14.064 9.94C13.958 9.964 12.271 11.079 9.003 13.286C8.524 13.614 8.09 13.774 7.701 13.766C7.273 13.757 6.449 13.524 5.836 13.325C5.746 13.295 5.658 13.268 5.573 13.241C4.951 13.046 4.493 12.902 4.539 12.536C4.566 12.32 4.864 12.099 5.432 11.873Z" fill="url(#paint1_linear_2577_6989)" fill-opacity="0.15"/>
<defs>
<linearGradient id="paint0_linear_2577_6989" x1="5.06015e-08" y1="11.9161" x2="24.0001" y2="11.9531" gradientUnits="userSpaceOnUse">
<stop stop-color="#A2A6EE"/>
<stop offset="1" stop-color="#51DCE4"/>
</linearGradient>
<linearGradient id="paint1_linear_2577_6989" x1="5.06015e-08" y1="11.9161" x2="24.0001" y2="11.9531" gradientUnits="userSpaceOnUse">
<stop stop-color="#A2A6EE"/>
<stop offset="1" stop-color="#51DCE4"/>
</linearGradient>
</defs>
</svg>