<svg width="24" height="24" viewBox="0 0 24 24" fill="none" xmlns="http://www.w3.org/2000/svg">
<g clip-path="url(#clip0_4093_3797)">
<circle cx="12" cy="12" r="12" fill="url(#paint0_linear_4093_3797)" fill-opacity="0.2"/>
<path d="M5.43134 11.8737C8.92934 10.3497 11.2623 9.34472 12.4293 8.85972C15.7623 7.47372 16.4543 7.23272 16.9053 7.22472C17.0053 7.22272 17.2273 7.24772 17.3703 7.36472C17.4664 7.44765 17.5278 7.56365 17.5423 7.68972C17.5666 7.84581 17.5734 8.00413 17.5623 8.16172C17.3813 10.0597 16.5993 14.6637 16.2023 16.7897C16.0343 17.6887 15.7023 17.9897 15.3823 18.0197C14.8303 18.0697 14.3833 17.7517 13.8863 17.3967C13.7553 17.3037 13.6213 17.2087 13.4813 17.1167C12.9293 16.7547 12.5033 16.4647 12.0763 16.1737L12.042 16.1504C11.6623 15.8921 11.279 15.6313 10.8033 15.3177C9.78334 14.6457 10.2093 14.2337 10.7793 13.6857C10.8713 13.5967 10.9673 13.5037 11.0613 13.4067C11.1033 13.3627 11.3083 13.1717 11.5983 12.9027C12.5283 12.0387 14.3223 10.3697 14.3683 10.1767C14.3753 10.1447 14.3823 10.0267 14.3123 9.96472C14.2423 9.90172 14.1383 9.92372 14.0633 9.94072C13.9573 9.96472 12.2703 11.0797 9.00234 13.2867C8.52334 13.6147 8.08934 13.7747 7.70034 13.7667C7.27234 13.7577 6.44834 13.5247 5.83534 13.3257C5.74534 13.2957 5.65734 13.2687 5.57234 13.2417C4.95034 13.0467 4.49234 12.9027 4.53834 12.5367C4.56534 12.3207 4.86334 12.0997 5.43134 11.8737Z" fill="url(#paint1_linear_4093_3797)"/>
</g>
<defs>
<linearGradient id="paint0_linear_4093_3797" x1="0.653148" y1="5.67079e-07" x2="32.0322" y2="14.7298" gradientUnits="userSpaceOnUse">
<stop stop-color="#703EA3"/>
<stop offset="1" stop-color="#E56DD9"/>
</linearGradient>
<linearGradient id="paint1_linear_4093_3797" x1="4.88982" y1="7.22461" x2="20.6328" y2="16.1418" gradientUnits="userSpaceOnUse">
<stop stop-color="#703EA3"/>
<stop offset="1" stop-color="#E56DD9"/>
</linearGradient>
<clipPath id="clip0_4093_3797">
<rect width="24" height="24" fill="white"/>
</clipPath>
</defs>
</svg>
