<?xml version="1.0" standalone="no"?>
<!DOCTYPE svg PUBLIC "-//W3C//DTD SVG 20010904//EN"
 "http://www.w3.org/TR/2001/REC-SVG-20010904/DTD/svg10.dtd">
<svg version="1.0" xmlns="http://www.w3.org/2000/svg"
 width="1179.000000pt" height="1179.000000pt" viewBox="0 0 1179.000000 1179.000000"
 preserveAspectRatio="xMidYMid meet">
<metadata>
Created by potrace 1.11, written by Peter Selinger 2001-2013
</metadata>
<g transform="translate(0.000000,1179.000000) scale(0.100000,-0.100000)"
fill="#000000" stroke="none">
<path d="M5933 11769 c-5 -5 -21 -10 -36 -11 -15 -1 -27 -6 -27 -11 0 -5 -7
-7 -15 -3 -8 3 -15 0 -15 -6 0 -6 -3 -9 -6 -6 -3 4 -20 2 -37 -4 -18 -5 -41
-11 -52 -13 -11 -2 -21 -4 -22 -5 -4 -4 -15 -6 -65 -14 -26 -5 -46 -12 -43
-16 4 -7 -50 -24 -67 -21 -4 0 -4 -7 -1 -17 3 -9 3 -14 -1 -10 -4 3 -16 -1
-25 -10 -10 -9 -30 -25 -44 -36 -15 -10 -24 -24 -20 -30 3 -6 3 -8 -2 -4 -10
10 -47 -10 -40 -22 3 -5 -5 -10 -17 -12 -13 -2 -22 -9 -21 -15 2 -7 -6 -15
-17 -18 -11 -4 -20 -11 -20 -16 0 -6 -4 -8 -9 -4 -5 3 -13 -4 -16 -16 -4 -11
-9 -18 -12 -16 -2 3 -22 -11 -43 -32 -21 -20 -49 -45 -63 -56 -14 -10 -23 -24
-20 -29 3 -5 1 -6 -5 -2 -6 3 -15 -2 -21 -11 -6 -10 -11 -14 -11 -9 0 5 -9 -3
-21 -18 -11 -14 -25 -23 -31 -20 -6 4 -8 2 -4 -4 3 -6 -3 -13 -14 -17 -11 -4
-18 -11 -15 -16 4 -5 1 -9 -4 -9 -6 0 -24 -14 -40 -31 -17 -17 -35 -28 -41
-24 -6 3 -9 1 -8 -7 2 -7 -3 -12 -9 -11 -7 2 -12 0 -10 -5 2 -7 -98 -112 -108
-112 -3 0 -6 -3 -7 -7 -2 -14 -32 -31 -42 -25 -5 3 -7 -2 -3 -11 3 -10 2 -17
-4 -17 -6 0 -26 -16 -45 -35 -19 -20 -39 -33 -44 -30 -5 3 -7 -1 -4 -9 3 -9
-2 -17 -15 -21 -12 -3 -19 -10 -16 -14 2 -4 -7 -14 -20 -21 -14 -7 -27 -21
-30 -31 -3 -10 -15 -21 -26 -24 -10 -4 -17 -10 -14 -15 4 -7 -18 -22 -37 -24
-3 -1 -10 -5 -15 -10 -5 -5 -2 -6 7 -2 8 4 4 -1 -10 -12 -13 -11 -29 -18 -34
-15 -5 3 -6 1 -3 -4 8 -13 -17 -36 -28 -25 -5 4 -6 3 -3 -3 3 -5 -10 -24 -28
-42 -19 -18 -34 -29 -35 -25 0 4 -4 -3 -10 -16 -5 -13 -13 -20 -19 -17 -5 3
-10 1 -10 -4 0 -6 -7 -11 -15 -11 -8 0 -14 -4 -13 -8 5 -13 -51 -64 -62 -57
-6 4 -9 2 -8 -3 2 -5 -18 -31 -44 -57 -27 -26 -48 -52 -48 -57 0 -6 -7 -8 -15
-4 -8 3 -14 0 -12 -7 1 -7 -4 -11 -10 -9 -7 1 -13 -3 -13 -9 0 -12 -6 -19 -78
-82 -29 -26 -49 -47 -45 -47 4 -1 -3 -7 -17 -15 -14 -8 -21 -14 -17 -15 4 0 2
-6 -5 -14 -7 -8 -16 -12 -20 -9 -5 2 -8 -1 -8 -7 0 -7 -17 -30 -37 -52 -21
-22 -37 -44 -35 -49 1 -5 -4 -9 -11 -9 -6 0 -26 -15 -43 -32 -40 -43 -72 -68
-85 -68 -5 0 -7 -4 -4 -10 3 -5 0 -10 -8 -10 -8 0 -18 -7 -21 -16 -3 -8 -11
-12 -17 -8 -7 4 -10 3 -7 -2 2 -5 -11 -25 -31 -44 -19 -19 -31 -28 -27 -20 4
8 -2 4 -13 -10 -11 -14 -21 -22 -21 -18 0 4 -14 -6 -30 -24 -17 -17 -30 -27
-30 -22 -1 5 -7 -2 -15 -16 -8 -14 -14 -21 -15 -17 0 4 -11 -4 -24 -18 -14
-15 -30 -24 -35 -20 -7 4 -8 0 -4 -11 4 -12 3 -15 -5 -10 -7 4 -12 2 -12 -4 0
-13 -30 -46 -30 -33 -1 4 -7 -4 -15 -19 -8 -15 -24 -30 -35 -33 -11 -4 -18
-11 -15 -16 4 -5 -1 -9 -9 -9 -9 0 -16 -7 -16 -15 0 -8 -4 -15 -10 -15 -5 0
-26 -16 -46 -35 -19 -19 -40 -35 -45 -35 -6 0 -7 -4 -4 -10 3 -5 2 -10 -3 -10
-6 0 -26 -16 -45 -35 -19 -19 -38 -35 -42 -35 -4 0 -27 -20 -51 -45 -24 -24
-44 -41 -44 -37 -1 4 -7 -4 -15 -18 -8 -14 -14 -22 -15 -17 0 4 -20 -13 -45
-37 -25 -25 -45 -43 -45 -41 0 2 -28 -22 -62 -55 -34 -33 -66 -60 -71 -60 -4
0 -5 -4 -2 -10 3 -5 -1 -10 -9 -10 -9 0 -16 -7 -16 -15 0 -8 -4 -15 -10 -15
-5 0 -30 -20 -55 -44 -25 -25 -45 -43 -45 -40 0 3 -6 -1 -14 -8 -8 -7 -12 -16
-10 -19 2 -4 -5 -9 -16 -12 -11 -3 -19 -11 -18 -18 2 -7 -4 -14 -12 -14 -8 0
-14 -6 -13 -13 2 -7 -1 -12 -6 -12 -5 0 -36 -27 -70 -60 -34 -33 -66 -60 -71
-60 -6 0 -10 -5 -10 -10 0 -6 -13 -18 -30 -29 -16 -10 -27 -21 -23 -24 3 -4 1
-7 -6 -7 -7 0 -10 -4 -7 -9 3 -5 -1 -11 -9 -15 -8 -3 -15 -13 -15 -21 0 -10
-5 -13 -12 -9 -7 4 -8 3 -4 -4 4 -6 -7 -30 -24 -53 -16 -23 -30 -48 -30 -56 0
-8 -4 -12 -9 -8 -5 3 -12 -4 -16 -15 -3 -11 -10 -20 -15 -20 -4 0 -11 -11 -14
-25 -4 -16 -11 -23 -18 -19 -6 4 -8 3 -5 -3 3 -5 -7 -25 -24 -44 -16 -19 -32
-42 -35 -51 -3 -10 -9 -18 -13 -18 -5 0 -28 -30 -52 -67 -24 -38 -48 -70 -52
-72 -7 -3 -28 -44 -31 -61 -1 -3 -5 -11 -10 -19 -6 -10 -5 -12 2 -7 7 4 12 2
12 -3 0 -6 -3 -11 -7 -11 -5 0 -8 -21 -8 -48 0 -26 -4 -53 -9 -59 -5 -8 -4
-13 2 -13 6 0 7 -13 1 -37 -4 -21 -8 -39 -9 -40 0 -2 -1 -4 -1 -5 -1 -2 -3
-47 -4 -100 -2 -53 -6 -101 -10 -107 -3 -6 -2 -11 2 -11 5 0 9 -9 9 -19 0 -11
-4 -17 -8 -15 -4 3 -6 -10 -5 -28 2 -18 -1 -39 -6 -45 -6 -9 -5 -13 3 -13 9 0
7 -7 -5 -20 -12 -13 -14 -20 -5 -20 10 0 9 -4 -1 -17 -12 -15 -12 -16 1 -8 12
7 13 6 3 -6 -10 -12 -10 -18 0 -29 9 -10 9 -11 0 -6 -8 4 -13 1 -13 -8 0 -8 6
-17 13 -19 9 -4 9 -6 0 -6 -17 -1 -17 -33 0 -50 8 -10 8 -12 0 -7 -8 5 -12 -7
-11 -43 0 -27 -3 -59 -7 -71 -5 -15 -4 -20 4 -16 5 4 4 -6 -4 -21 -8 -15 -11
-30 -7 -33 11 -7 2 -104 -13 -148 -3 -7 0 -10 5 -7 5 3 3 -12 -4 -33 -10 -27
-11 -43 -4 -50 6 -6 6 -12 -1 -16 -6 -4 -11 -14 -11 -22 0 -8 4 -13 9 -10 10
6 9 -12 -1 -29 -3 -5 -6 -39 -6 -75 -1 -155 -4 -200 -12 -195 -5 3 -3 -7 5
-22 13 -25 13 -28 -1 -31 -13 -3 -13 -6 3 -18 12 -9 14 -13 4 -14 -11 0 -11
-3 -1 -15 10 -12 10 -15 0 -15 -8 0 -10 -3 -7 -7 4 -3 1 -13 -6 -21 -10 -13
-9 -14 2 -7 11 6 13 4 8 -8 -4 -10 -1 -17 6 -17 7 0 8 -3 2 -8 -5 -4 -10 -43
-10 -87 0 -44 -4 -86 -9 -92 -5 -8 -5 -13 0 -13 5 0 9 -36 9 -80 0 -44 -3 -80
-7 -80 -4 0 -3 -13 2 -28 4 -16 4 -36 -2 -45 -6 -11 -5 -17 2 -17 8 0 8 -6 0
-20 -8 -14 -8 -20 0 -20 7 0 8 -6 2 -17 -5 -10 -8 -35 -8 -55 1 -20 -2 -34 -6
-32 -4 3 -7 -5 -7 -18 2 -25 -9 -90 -16 -97 -2 -2 0 -12 6 -22 6 -12 6 -19 0
-19 -5 0 -8 -10 -6 -22 3 -12 0 -27 -6 -35 -8 -9 -8 -13 0 -13 6 0 11 -5 11
-11 0 -5 -6 -7 -12 -3 -10 6 -10 5 -1 -7 7 -9 8 -20 3 -29 -5 -8 -5 -21 0 -31
5 -9 6 -19 3 -23 -11 -10 -12 -36 -2 -36 5 0 4 -11 -1 -26 -13 -33 -13 -37 2
-28 10 6 10 4 0 -8 -9 -12 -10 -18 -2 -23 8 -5 8 -10 0 -20 -7 -9 -7 -15 -1
-19 9 -6 8 -37 -3 -54 -2 -4 -1 -14 4 -22 5 -8 4 -22 -2 -33 -5 -11 -6 -22 -2
-26 13 -9 16 -34 4 -26 -12 8 -13 3 -1 -28 5 -13 5 -30 1 -37 -5 -8 -6 -19 -2
-25 10 -16 11 -36 1 -29 -5 3 -9 1 -9 -5 0 -5 5 -13 10 -16 7 -4 6 -13 -1 -26
-7 -15 -7 -24 1 -34 8 -9 8 -15 0 -20 -7 -4 -7 -12 0 -25 7 -13 7 -21 0 -25
-8 -5 -8 -11 0 -20 8 -9 8 -15 0 -20 -5 -3 -10 -11 -10 -16 0 -6 5 -7 11 -3 8
5 8 1 0 -14 -14 -27 -14 -35 1 -26 10 5 10 4 1 -6 -9 -9 -9 -19 -2 -33 8 -14
8 -18 0 -13 -14 9 -14 0 -1 -24 6 -10 7 -21 2 -24 -10 -6 -8 -68 3 -85 5 -9 4
-12 -3 -7 -12 7 -11 -32 1 -51 4 -6 3 -14 -2 -17 -5 -3 -9 -181 -10 -413 0
-421 -1 -428 -15 -452 -6 -10 -5 -12 2 -7 13 8 16 -6 5 -18 -5 -4 -8 -44 -8
-90 -1 -45 -4 -86 -8 -92 -3 -6 -3 -14 1 -18 4 -4 7 -15 7 -25 0 -10 7 -24 15
-33 8 -9 24 -28 35 -44 11 -15 28 -36 38 -46 9 -10 15 -18 12 -18 -3 0 6 -12
20 -28 14 -15 32 -34 40 -43 8 -9 15 -21 15 -28 0 -7 4 -9 10 -6 5 3 10 1 10
-6 0 -6 9 -20 21 -30 11 -9 20 -20 20 -23 -3 -19 0 -27 7 -22 5 3 15 -6 22
-19 7 -14 17 -25 22 -25 4 0 8 -6 8 -14 0 -8 7 -17 16 -20 8 -3 12 -10 9 -16
-3 -5 1 -10 10 -10 11 0 15 -5 12 -14 -4 -9 2 -17 14 -21 10 -4 19 -13 19 -21
0 -8 5 -14 11 -14 5 0 8 -4 5 -8 -3 -5 3 -15 12 -24 22 -20 52 -57 52 -64 0
-3 6 -11 12 -19 7 -7 24 -28 38 -46 14 -18 31 -38 38 -46 7 -7 11 -13 8 -13
-3 0 3 -9 14 -20 12 -12 18 -26 14 -32 -4 -7 -3 -8 4 -4 7 4 12 1 12 -6 0 -8
8 -21 18 -30 27 -26 42 -46 42 -57 0 -5 10 -17 22 -25 12 -9 18 -16 13 -16 -5
0 1 -9 13 -20 12 -12 22 -27 22 -34 0 -8 7 -16 15 -20 8 -3 14 -11 13 -18 -2
-7 3 -12 11 -10 8 2 11 -3 8 -12 -4 -9 4 -21 19 -30 13 -9 24 -23 24 -31 0 -8
5 -15 10 -15 6 0 10 -5 10 -10 0 -13 40 -71 60 -87 8 -6 12 -14 8 -18 -3 -4 7
-19 23 -34 16 -15 26 -31 22 -34 -3 -4 -1 -7 6 -7 8 0 11 -6 7 -16 -3 -8 -2
-13 3 -10 4 3 13 -6 19 -19 7 -14 16 -25 22 -25 6 0 8 -5 5 -10 -3 -6 1 -13 9
-16 9 -3 14 -10 11 -14 -3 -5 -1 -11 5 -15 6 -4 7 -11 4 -17 -4 -7 -2 -8 4 -4
7 4 14 -3 18 -19 3 -14 9 -24 11 -21 3 3 15 -14 28 -37 12 -23 32 -58 43 -77
12 -19 26 -45 32 -58 6 -15 15 -20 22 -16 8 5 7 0 -2 -11 -8 -10 -10 -16 -4
-12 6 3 20 -2 31 -13 12 -10 24 -16 27 -13 3 4 6 2 6 -4 0 -9 45 -36 63 -37 4
-1 11 -6 15 -13 4 -6 20 -15 35 -18 15 -4 27 -11 27 -16 0 -5 7 -9 16 -9 8 0
12 -4 9 -10 -4 -6 1 -7 11 -3 13 5 15 3 9 -7 -5 -9 -4 -11 4 -6 7 5 20 -1 30
-13 20 -23 36 -28 26 -8 -4 6 3 1 15 -13 12 -14 19 -18 15 -10 -5 12 -4 11 7
-1 7 -9 23 -19 36 -23 12 -4 20 -12 16 -17 -3 -5 -2 -8 3 -7 11 3 76 -32 85
-46 4 -6 8 -7 8 -2 0 5 8 -1 19 -12 10 -12 21 -19 25 -15 3 3 6 1 6 -6 0 -7 4
-10 9 -7 5 3 14 -1 21 -9 7 -8 16 -12 21 -9 5 3 8 0 7 -7 -2 -7 6 -15 17 -17
26 -6 66 -37 58 -46 -6 -5 21 -10 40 -7 5 1 6 -3 2 -9 -3 -5 -1 -10 5 -10 6 0
18 -6 25 -13 37 -33 46 -38 57 -31 7 4 8 3 4 -4 -4 -7 -1 -12 9 -12 9 0 13 -4
10 -10 -3 -5 1 -10 9 -10 9 0 16 -4 16 -10 0 -5 7 -10 15 -10 8 0 15 -4 15
-10 0 -5 7 -10 15 -10 8 0 15 -4 15 -9 0 -5 9 -13 20 -16 11 -4 18 -10 15 -15
-3 -5 8 -11 25 -15 17 -4 28 -11 24 -16 -3 -5 -1 -9 5 -9 5 0 23 -11 39 -25
16 -13 32 -22 36 -18 3 3 6 -2 6 -12 0 -10 3 -16 6 -12 3 3 11 1 18 -4 56 -47
73 -59 83 -59 6 0 15 -5 19 -12 5 -7 2 -9 -7 -4 -8 4 -3 -2 11 -13 14 -11 30
-21 36 -21 7 0 15 -7 18 -16 4 -9 13 -14 22 -10 8 3 12 2 9 -4 -3 -6 0 -10 8
-10 8 0 20 -7 27 -15 7 -8 20 -15 29 -15 9 0 29 -7 45 -15 15 -8 37 -15 48
-15 10 0 17 -4 14 -9 -3 -4 6 -6 21 -3 18 3 24 1 19 -6 -5 -8 -2 -10 8 -6 10
4 16 1 16 -7 0 -12 2 -12 9 -1 6 11 10 10 15 -3 3 -10 12 -15 21 -11 8 3 15 2
15 -3 0 -5 24 -21 53 -35 61 -32 86 -46 105 -63 7 -7 20 -13 28 -13 8 0 12 -4
9 -10 -3 -5 3 -10 14 -10 11 0 23 -4 26 -10 3 -5 56 -35 118 -66 62 -31 115
-60 118 -65 3 -6 14 -7 24 -3 13 5 16 4 11 -4 -4 -7 -1 -12 8 -12 9 0 16 -4
16 -8 0 -5 18 -15 40 -22 22 -7 40 -17 40 -22 0 -4 7 -8 16 -8 8 0 13 -4 10
-9 -4 -5 3 -7 14 -4 12 3 20 0 20 -6 0 -7 4 -10 9 -7 5 4 11 3 13 -1 1 -5 35
-24 73 -43 39 -19 72 -37 75 -40 12 -13 61 -30 54 -19 -4 8 0 8 15 0 11 -7 21
-9 21 -5 0 3 7 1 15 -6 8 -7 24 -10 35 -7 11 3 18 1 14 -4 -5 -8 9 -13 29 -10
4 0 7 -4 7 -10 0 -6 9 -9 20 -6 11 3 18 1 14 -4 -3 -5 4 -9 15 -9 11 0 23 -5
26 -10 4 -6 12 -10 18 -9 18 3 70 -12 86 -25 11 -8 13 -8 7 2 -4 6 -2 12 3 12
6 0 11 -4 11 -10 0 -5 11 -9 24 -8 14 1 23 5 20 9 -4 7 92 25 109 21 5 -2 6 2
3 7 -3 5 14 12 39 15 25 4 45 13 45 19 0 7 4 6 10 -3 6 -10 10 -11 10 -2 0 6
9 12 19 12 11 0 22 4 25 8 3 5 19 8 36 7 16 -1 30 2 30 7 0 4 8 8 18 8 9 0 29
7 44 14 19 10 30 11 34 4 5 -7 9 -7 13 0 4 6 22 14 40 17 19 3 41 10 50 14 9
5 18 9 21 9 13 0 89 17 110 24 69 23 80 26 80 16 0 -6 12 -3 26 7 14 9 37 15
50 12 13 -2 24 0 24 4 0 5 11 9 24 9 14 0 27 4 30 9 3 4 16 8 28 7 13 -1 43 4
67 11 24 7 47 10 52 7 5 -3 9 -1 9 4 0 5 10 8 23 7 12 -1 28 3 36 9 12 9 13 8
6 -4 -7 -12 -6 -13 6 -4 8 7 32 14 54 18 78 12 90 14 90 16 0 2 14 4 30 5 17
2 31 4 33 5 1 1 5 3 10 4 4 1 12 4 17 7 6 4 18 5 28 4 9 -2 17 1 17 6 0 5 3 8
8 8 4 -1 20 -1 35 0 20 1 26 5 21 14 -5 8 -2 8 9 -2 12 -9 17 -10 17 -2 0 7 4
10 9 6 5 -3 13 -1 16 5 5 8 11 7 21 -1 8 -6 14 -7 14 -2 0 5 10 9 23 9 12 1
38 4 57 8 19 4 42 8 50 10 8 1 34 6 58 11 23 4 42 12 42 17 0 6 6 8 14 5 8 -3
17 1 20 9 3 8 11 14 18 14 8 0 20 9 27 19 8 11 21 17 29 13 10 -3 13 -1 8 6
-3 6 3 14 16 18 13 4 30 15 38 24 8 9 23 16 33 14 9 -1 14 2 11 8 -3 5 3 12
15 15 11 3 18 9 15 14 -3 5 2 9 11 9 10 0 34 13 55 30 20 16 40 27 44 23 3 -3
6 -1 6 5 0 7 7 12 16 12 9 0 12 5 8 12 -5 8 -2 9 9 5 11 -4 17 -1 17 9 0 8 4
13 9 10 5 -3 26 8 46 24 21 17 54 40 74 52 20 12 41 27 48 33 30 25 39 32 58
40 11 4 25 7 30 6 6 -2 7 1 3 4 -8 8 56 55 73 55 6 0 8 4 5 9 -3 5 5 12 19 15
14 4 25 11 25 16 0 6 7 10 15 10 9 0 18 6 21 14 3 8 19 18 35 21 16 4 27 10
24 15 -3 5 5 10 17 12 13 2 22 9 21 15 -2 7 4 10 12 7 8 -4 15 -1 15 5 0 6 7
11 15 11 8 0 15 5 15 12 0 6 3 8 6 5 4 -4 19 2 33 12 14 10 36 22 49 25 12 4
22 12 22 18 0 6 3 8 6 5 4 -4 20 3 35 14 16 11 33 18 38 15 5 -3 11 1 15 9 3
8 12 15 19 15 34 0 147 72 147 94 0 10 70 99 82 104 5 2 8 10 8 18 0 9 5 12
12 8 8 -5 9 -2 5 10 -4 9 -3 15 1 12 5 -3 15 4 23 16 8 11 25 32 39 47 33 35
96 113 101 126 2 6 19 25 37 42 19 18 30 33 25 33 -4 0 1 7 11 15 11 8 17 15
13 15 -3 0 4 10 16 23 12 13 29 34 37 47 8 13 30 39 47 59 18 19 31 37 28 39
-2 2 5 13 16 25 10 11 19 29 19 39 0 10 4 18 10 18 5 0 7 7 4 15 -4 8 -1 15 5
15 6 0 11 9 11 19 0 11 5 23 10 26 6 4 10 12 9 18 -2 20 13 57 23 57 5 0 6 4
3 10 -3 5 1 20 9 33 9 12 17 32 19 42 1 11 6 26 11 33 4 7 5 16 2 19 -3 4 3
12 14 20 11 8 17 20 13 28 -3 9 0 21 6 29 6 7 8 16 4 19 -3 4 -1 7 5 7 7 0 12
9 12 20 0 11 5 20 10 20 6 0 9 3 9 8 -1 4 0 10 1 15 1 4 3 10 4 15 1 4 7 17
14 30 7 12 10 26 7 31 -3 5 0 11 5 13 6 2 12 10 14 18 1 8 8 26 15 39 8 15 9
21 2 16 -7 -3 -3 8 9 27 11 18 20 41 20 51 0 10 4 15 10 12 6 -3 7 1 4 9 -3 9
-1 16 5 16 6 0 11 13 11 28 0 16 9 38 19 49 11 12 18 23 16 25 -3 2 4 27 15
55 10 28 16 53 13 57 -4 3 -2 6 4 6 5 0 10 6 11 13 5 39 15 77 21 77 4 0 7 8
7 18 1 9 5 33 9 52 4 19 8 41 8 48 0 6 4 12 8 12 4 0 8 8 8 17 0 30 13 98 20
103 3 3 7 14 8 25 5 37 9 54 15 61 4 3 4 12 1 20 -3 8 -1 14 5 14 6 0 9 8 7
17 -1 10 3 24 9 32 9 12 8 13 -4 6 -13 -8 -13 -7 -1 8 12 15 17 36 23 95 1 6
4 12 8 12 7 0 10 19 10 58 0 13 4 21 8 18 5 -3 8 5 7 17 -1 12 1 27 5 32 5 6
10 24 13 40 3 17 10 42 16 58 6 15 7 27 4 27 -4 0 -2 5 5 12 7 7 12 21 12 33
0 12 5 26 12 33 9 9 9 12 -2 12 -13 0 -13 2 -1 9 8 5 16 18 18 28 6 29 6 126
0 156 -4 17 -1 27 6 27 8 0 8 3 2 8 -15 11 -17 32 -5 47 7 8 7 15 1 19 -10 7
-10 24 2 43 4 6 3 14 -2 18 -11 6 -8 75 4 95 5 8 4 11 -2 7 -12 -7 -12 67 -1
79 4 3 2 14 -4 24 -9 14 -9 22 1 33 7 9 8 18 2 21 -10 7 -10 24 2 43 4 6 4 14
-1 17 -11 6 -9 77 3 95 5 9 4 12 -2 8 -12 -8 -12 61 0 80 4 6 3 14 -2 17 -5 4
-9 20 -9 36 1 18 5 27 12 23 7 -4 6 -1 -1 8 -14 18 -14 58 1 78 8 11 8 13 0 8
-15 -9 -15 43 0 62 8 11 8 13 0 8 -8 -5 -12 13 -12 61 0 155 -5 232 -14 232
-7 0 -6 5 1 13 8 10 7 17 -2 26 -9 11 -9 14 1 18 6 3 9 9 6 15 -7 12 -16 131
-18 250 0 49 -3 88 -6 88 -3 0 -5 17 -5 37 1 21 -2 59 -5 86 -4 26 -3 47 2 47
5 0 4 9 -2 20 -8 14 -8 20 0 20 8 0 8 6 0 20 -8 14 -8 20 0 20 8 0 8 6 0 20
-6 11 -7 20 -2 20 5 0 6 23 2 50 -4 28 -4 50 -1 50 10 0 6 95 -4 102 -7 5 -6
8 0 8 6 0 11 17 10 38 0 44 -24 122 -37 122 -6 0 -8 6 -6 12 3 7 -4 21 -14 32
-10 11 -17 25 -17 30 2 13 -16 62 -41 110 -10 20 -14 33 -9 30 5 -3 2 8 -5 23
-17 33 -45 102 -51 126 -2 4 -4 9 -5 12 -1 3 -3 8 -4 13 -1 4 -7 17 -14 30 -7
12 -10 27 -7 32 3 6 2 10 -4 10 -6 0 -8 7 -5 15 4 8 1 15 -5 15 -6 0 -11 9
-11 20 0 11 -5 20 -11 20 -5 0 -8 4 -5 8 3 5 -3 18 -12 28 -10 10 -19 21 -20
24 -21 56 -28 70 -33 70 -4 0 -10 14 -14 30 -4 18 -11 27 -18 23 -6 -4 -8 0
-4 10 3 10 3 17 -1 17 -9 0 -42 74 -42 94 0 8 -4 16 -9 18 -9 3 -71 133 -71
149 0 5 -4 9 -8 9 -5 0 -9 7 -10 15 -1 8 -3 22 -4 30 -1 8 -8 17 -15 19 -8 3
-12 10 -9 15 3 5 -6 25 -19 46 -14 20 -21 34 -15 30 14 -9 13 -5 -10 40 -11
22 -20 45 -20 52 0 7 -4 13 -10 13 -5 0 -9 3 -8 8 3 9 -42 123 -54 137 -4 5
-8 17 -8 26 0 9 -6 22 -14 28 -8 7 -18 31 -21 54 -4 23 -15 47 -24 54 -9 7
-12 13 -7 13 4 0 1 11 -8 25 -9 14 -14 30 -11 35 4 6 -1 13 -9 16 -9 3 -13 10
-10 15 3 6 0 17 -7 25 -6 8 -9 17 -6 20 3 3 -3 14 -14 25 -10 10 -19 28 -19
38 0 11 -5 23 -10 26 -6 4 -8 11 -5 16 4 5 1 9 -4 9 -6 0 -11 8 -11 18 0 10
-5 23 -12 30 -7 7 -9 12 -4 12 4 0 0 7 -8 16 -9 8 -16 24 -16 35 0 10 -5 19
-12 19 -6 0 -8 3 -5 7 4 3 -1 15 -10 26 -10 10 -17 21 -15 23 5 9 1 25 -6 20
-4 -2 -9 5 -9 16 -1 12 -7 24 -14 28 -6 4 -8 13 -5 19 4 6 0 14 -8 17 -9 3
-14 10 -11 14 3 5 1 11 -5 15 -6 4 -8 11 -5 16 4 5 1 9 -4 9 -6 0 -11 9 -11
20 0 11 -7 23 -15 26 -8 4 -13 9 -10 13 2 4 -11 40 -30 79 -19 39 -35 76 -35
82 0 5 -4 10 -10 10 -5 0 -7 7 -4 15 4 8 2 15 -3 15 -5 0 -20 29 -34 65 -13
36 -27 65 -31 65 -5 0 -8 9 -8 19 0 11 -7 26 -15 34 -8 8 -11 17 -8 21 4 3 1
6 -6 6 -7 0 -9 5 -6 11 4 5 -1 20 -12 31 -10 12 -12 18 -5 14 14 -9 14 -9 -21
62 -9 18 -12 30 -7 27 12 -7 13 8 3 19 -5 4 -8 11 -8 15 0 11 -42 61 -47 56
-3 -3 -21 11 -41 30 -21 20 -37 33 -37 30 0 -4 -12 7 -26 24 -14 17 -31 28
-36 24 -6 -3 -8 -2 -5 4 6 10 -102 110 -115 106 -4 -2 -7 1 -5 5 3 10 -55 68
-65 64 -4 -1 -8 5 -8 14 0 8 -4 13 -9 9 -5 -3 -12 4 -16 15 -3 11 -13 20 -21
20 -8 0 -14 7 -14 15 0 8 -7 15 -15 15 -8 0 -15 7 -15 15 0 8 -6 15 -12 15 -7
0 -34 21 -61 48 -73 73 -101 97 -105 92 -2 -3 -10 6 -17 20 -8 14 -14 22 -15
18 0 -4 -24 16 -54 45 -29 29 -80 78 -113 109 -34 31 -58 60 -55 63 3 3 -1 5
-10 5 -8 0 -21 11 -28 25 -8 15 -20 23 -27 20 -8 -2 -12 -1 -9 4 3 4 -6 18
-19 31 -13 13 -22 28 -18 34 3 6 3 8 -2 4 -10 -9 -176 162 -169 174 3 5 2 8
-3 7 -20 -3 -32 2 -37 19 -3 9 -19 26 -36 37 -16 11 -30 26 -30 33 0 7 -4 10
-10 7 -5 -3 -10 -1 -10 4 0 6 -8 11 -17 11 -9 0 -13 3 -10 6 7 8 -36 44 -52
44 -6 0 -15 9 -21 20 -6 11 -14 19 -18 17 -10 -5 -51 41 -43 49 3 4 1 4 -6 0
-11 -6 -22 2 -92 67 -17 15 -33 27 -36 27 -8 0 -89 63 -93 73 -2 4 -10 7 -18
7 -8 0 -14 5 -14 10 0 6 -5 10 -10 10 -6 0 -16 4 -23 10 -38 31 -97 78 -121
95 -31 23 -98 79 -133 113 -13 12 -28 22 -32 22 -5 0 -12 7 -15 16 -4 9 -9 14
-12 12 -3 -3 -29 19 -59 48 -29 30 -61 54 -70 54 -9 0 -14 4 -11 9 3 5 -1 12
-10 15 -8 3 -12 10 -9 16 3 5 -3 10 -14 10 -11 0 -22 9 -26 20 -3 11 -13 20
-21 20 -8 0 -14 5 -14 10 0 6 -4 10 -10 10 -5 0 -34 25 -65 55 -31 30 -59 55
-61 55 -3 0 -17 12 -31 28 -14 15 -29 26 -34 25 -4 -2 -11 6 -14 17 -4 11 -13
20 -21 20 -8 0 -13 4 -10 9 3 5 -6 12 -21 16 -20 5 -24 8 -13 15 11 6 7 10
-13 16 -16 3 -26 9 -23 12 3 3 -5 14 -18 26 -55 49 -75 64 -80 59 -3 -4 -6 1
-6 9 0 26 -77 47 -97 27z"/>
</g>
</svg>
